<svg width="14" height="17" viewBox="0 0 13.5 16.5811" fill="none" xmlns="http://www.w3.org/2000/svg">
  <path d="M13.0688 5.65305C12.9727 5.72768 11.2746 6.6845 11.2746 8.81206C11.2746 11.2729 13.4353 12.1435 13.5 12.1651C13.49 12.2182 13.1567 13.3574 12.3608 14.5182C11.651 15.5397 10.9098 16.5595 9.78215 16.5595C8.65453 16.5595 8.36433 15.9045 7.06258 15.9045C5.79401 15.9045 5.34296 16.5811 4.31151 16.5811C3.28006 16.5811 2.56037 15.6359 1.7329 14.4751C0.774413 13.112 0 10.9944 0 8.98452C0 5.76084 2.09606 4.05116 4.15895 4.05116C5.25507 4.05116 6.16878 4.77085 6.85696 4.77085C7.51198 4.77085 8.53347 4.00805 9.78049 4.00805C10.2531 4.00805 11.9512 4.05116 13.0688 5.65305ZM9.18849 2.64329C9.70421 2.03138 10.069 1.18235 10.069 0.333313C10.069 0.215576 10.0591 0.0961798 10.0375 0C9.19844 0.0315072 8.20016 0.558838 7.59821 1.25697C7.1256 1.79425 6.6845 2.64329 6.6845 3.50393C6.6845 3.63328 6.70606 3.76262 6.71601 3.80408C6.76907 3.81403 6.8553 3.82564 6.94153 3.82564C7.69439 3.82564 8.64126 3.32152 9.18849 2.64329Z" fill="black"/>
</svg>
