<svg width="31" height="35" viewBox="0 0 31 35" fill="none" xmlns="http://www.w3.org/2000/svg">
<path d="M28.8438 9.34375H23.9688C23.1068 9.34375 22.2801 9.00134 21.6707 8.39185C21.0612 7.78235 20.7188 6.9557 20.7188 6.09375V1.21875M1.21875 10.3189V31.1189C1.21875 31.8085 1.49268 32.4698 1.98027 32.9574C2.46787 33.445 3.12919 33.7189 3.81875 33.7189H19.7437M10.9688 27.2187C10.1068 27.2187 9.28015 26.8763 8.67065 26.2668C8.06116 25.6574 7.71875 24.8307 7.71875 23.9687V4.46875C7.71875 3.6068 8.06116 2.78015 8.67065 2.17065C9.28015 1.56116 10.1068 1.21875 10.9688 1.21875H22.3438L28.8438 7.71875V23.9687C28.8438 24.8307 28.5013 25.6574 27.8918 26.2668C27.2824 26.8763 26.4557 27.2187 25.5938 27.2187H10.9688Z" stroke="#ADB5BD" stroke-width="2.4375" stroke-linecap="round" stroke-linejoin="round"/>
</svg>
