<svg width="71" height="71" viewBox="0 0 71 71" fill="none" xmlns="http://www.w3.org/2000/svg">
  <path
    d="M5.9165 23.6667V56.2083C5.9165 57.7775 6.53986 59.2825 7.64946 60.3921C8.75905 61.5016 10.264 62.125 11.8332 62.125H53.2498M59.1665 50.2917C60.7357 50.2917 62.2406 49.6683 63.3502 48.5587C64.4598 47.4491 65.0832 45.9442 65.0832 44.375V26.625C65.0832 25.0558 64.4598 23.5509 63.3502 22.4413C62.2406 21.3317 60.7357 20.7083 59.1665 20.7083H47.629C46.6395 20.718 45.6633 20.4794 44.7899 20.0143C43.9165 19.5491 43.1736 18.8723 42.6294 18.0458L40.2332 14.4958C39.6944 13.6777 38.961 13.0063 38.0987 12.5415C37.2364 12.0768 36.2723 11.8335 35.2928 11.8333H23.6665C22.0973 11.8333 20.5924 12.4567 19.4828 13.5663C18.3732 14.6759 17.7498 16.1808 17.7498 17.75V44.375C17.7498 45.9442 18.3732 47.4491 19.4828 48.5587C20.5924 49.6683 22.0973 50.2917 23.6665 50.2917H59.1665Z"
    stroke="#98A1AA"
    stroke-width="3"
    stroke-linecap="round"
    stroke-linejoin="round"
  />
</svg>
