<svg width="14" height="17" viewBox="0 0 14 17" fill="none" xmlns="http://www.w3.org/2000/svg">
<path d="M4.5 15.75V12.75H9V15.75M3.75 3.75H3.7575M9.75 3.75H9.7575M6.75 3.75H6.7575M6.75 6.75H6.7575M6.75 9.75H6.7575M9.75 6.75H9.7575M9.75 9.75H9.7575M3.75 6.75H3.7575M3.75 9.75H3.7575M2.25 0.75H11.25C12.0784 0.75 12.75 1.42157 12.75 2.25V14.25C12.75 15.0784 12.0784 15.75 11.25 15.75H2.25C1.42157 15.75 0.75 15.0784 0.75 14.25V2.25C0.75 1.42157 1.42157 0.75 2.25 0.75Z" stroke="black" stroke-width="1.125" stroke-linecap="round" stroke-linejoin="round"/>
</svg>
