<svg xmlns="http://www.w3.org/2000/svg" width="6" height="11" viewBox="0 0 6 11" fill="none">
  <path d="M1.02083 5.6875C1.343 5.6875 1.60417 5.42633 1.60417 5.10417C1.60417 4.782 1.343 4.52083 1.02083 4.52083C0.698667 4.52083 0.4375 4.782 0.4375 5.10417C0.4375 5.42633 0.698667 5.6875 1.02083 5.6875Z" stroke="white" stroke-width="0.875" stroke-linecap="round" stroke-linejoin="round"/>
  <path d="M1.02083 1.60417C1.343 1.60417 1.60417 1.343 1.60417 1.02083C1.60417 0.698667 1.343 0.4375 1.02083 0.4375C0.698667 0.4375 0.4375 0.698667 0.4375 1.02083C0.4375 1.343 0.698667 1.60417 1.02083 1.60417Z" stroke="white" stroke-width="0.875" stroke-linecap="round" stroke-linejoin="round"/>
  <path d="M1.02083 9.77083C1.343 9.77083 1.60417 9.50967 1.60417 9.1875C1.60417 8.86533 1.343 8.60417 1.02083 8.60417C0.698667 8.60417 0.4375 8.86533 0.4375 9.1875C0.4375 9.50967 0.698667 9.77083 1.02083 9.77083Z" stroke="white" stroke-width="0.875" stroke-linecap="round" stroke-linejoin="round"/>
  <path d="M4.52083 5.6875C4.843 5.6875 5.10417 5.42633 5.10417 5.10417C5.10417 4.782 4.843 4.52083 4.52083 4.52083C4.19867 4.52083 3.9375 4.782 3.9375 5.10417C3.9375 5.42633 4.19867 5.6875 4.52083 5.6875Z" stroke="white" stroke-width="0.875" stroke-linecap="round" stroke-linejoin="round"/>
  <path d="M4.52083 1.60417C4.843 1.60417 5.10417 1.343 5.10417 1.02083C5.10417 0.698667 4.843 0.4375 4.52083 0.4375C4.19867 0.4375 3.9375 0.698667 3.9375 1.02083C3.9375 1.343 4.19867 1.60417 4.52083 1.60417Z" stroke="white" stroke-width="0.875" stroke-linecap="round" stroke-linejoin="round"/>
  <path d="M4.52083 9.77083C4.843 9.77083 5.10417 9.50967 5.10417 9.1875C5.10417 8.86533 4.843 8.60417 4.52083 8.60417C4.19867 8.60417 3.9375 8.86533 3.9375 9.1875C3.9375 9.50967 4.19867 9.77083 4.52083 9.77083Z" stroke="white" stroke-width="0.875" stroke-linecap="round" stroke-linejoin="round"/>
</svg>