<svg preserveAspectRatio="none" width="100%" height="100%" overflow="visible" style="display: block;" viewBox="0 0 31.6875 34.9375" fill="none" xmlns="http://www.w3.org/2000/svg">
<path id="Vector" d="M30.4688 6.09375C30.4688 8.78614 23.9209 10.9688 15.8438 10.9688C7.76659 10.9688 1.21875 8.78614 1.21875 6.09375M30.4688 6.09375C30.4688 3.40136 23.9209 1.21875 15.8438 1.21875C7.76659 1.21875 1.21875 3.40136 1.21875 6.09375M30.4688 6.09375V28.8438C30.4687 30.1367 28.9279 31.3767 26.1852 32.2909C23.4425 33.2051 19.7225 33.7188 15.8438 33.7188C11.965 33.7188 8.24503 33.2051 5.50231 32.2909C2.75959 31.3767 1.21875 30.1367 1.21875 28.8438V6.09375M1.21875 17.4688C1.21875 18.7617 2.75959 20.0017 5.50231 20.9159C8.24503 21.8301 11.965 22.3438 15.8438 22.3438C19.7225 22.3438 23.4425 21.8301 26.1852 20.9159C28.9279 20.0017 30.4687 18.7617 30.4688 17.4688" stroke="var(--stroke-0, #ADB5BD)" stroke-width="2.4375" stroke-linecap="round" stroke-linejoin="round"/>
</svg>
