<svg width="16" height="16" viewBox="0 0 16 16" fill="none" xmlns="http://www.w3.org/2000/svg">
<path d="M14 4.99992V3.99992C14 3.6463 13.8595 3.30716 13.6095 3.05711C13.3594 2.80706 13.0203 2.66659 12.6667 2.66659H3.33333C2.97971 2.66659 2.64057 2.80706 2.39052 3.05711C2.14048 3.30716 2 3.6463 2 3.99992V13.3333C2 13.6869 2.14048 14.026 2.39052 14.2761C2.64057 14.5261 2.97971 14.6666 3.33333 14.6666H5.66667M10.6667 1.33325V3.99992M5.33333 1.33325V3.99992M2 6.66659H5.33333M11.6667 11.6666L10.6667 10.8666V9.33325M14.6667 10.6666C14.6667 12.8757 12.8758 14.6666 10.6667 14.6666C8.45753 14.6666 6.66667 12.8757 6.66667 10.6666C6.66667 8.45745 8.45753 6.66659 10.6667 6.66659C12.8758 6.66659 14.6667 8.45745 14.6667 10.6666Z" stroke="#3154F4" stroke-linecap="round" stroke-linejoin="round"/>
</svg>
