<svg
  width="41"
  height="35"
  viewBox="0 0 41 35"
  fill="none"
  xmlns="http://www.w3.org/2000/svg"
>
  <path
    d="M8.5 22.5002L11.5 16.7002C11.8261 16.0525 12.3222 15.5056 12.9352 15.1181C13.5482 14.7306 14.255 14.517 14.98 14.5002H36.5M36.5 14.5002C37.1111 14.4991 37.7142 14.6381 38.2633 14.9064C38.8123 15.1747 39.2925 15.5652 39.6671 16.0479C40.0418 16.5307 40.3008 17.0929 40.4244 17.6913C40.5479 18.2897 40.5328 18.9085 40.38 19.5002L37.3 31.5002C37.0772 32.3633 36.5724 33.1273 35.8658 33.6708C35.1593 34.2143 34.2914 34.5062 33.4 34.5002H4.5C3.43913 34.5002 2.42172 34.0788 1.67157 33.3286C0.921427 32.5785 0.5 31.5611 0.5 30.5002V4.50019C0.5 3.43933 0.921427 2.42191 1.67157 1.67176C2.42172 0.921619 3.43913 0.500192 4.5 0.500192H12.3C12.969 0.493634 13.6289 0.654969 14.2194 0.969432C14.8099 1.2839 15.3121 1.74144 15.68 2.30019L17.3 4.70019C17.6642 5.25325 18.1601 5.70723 18.743 6.0214C19.326 6.33556 19.9778 6.50008 20.64 6.50019H32.5C33.5609 6.50019 34.5783 6.92162 35.3284 7.67176C36.0786 8.42191 36.5 9.43933 36.5 10.5002V14.5002Z"
    stroke="#373D43"
    stroke-linecap="round"
    stroke-linejoin="round"
  />
</svg>
