<svg width="32" height="32" viewBox="0 0 32 32" fill="none" xmlns="http://www.w3.org/2000/svg">
<rect width="32" height="32" fill="white" fill-opacity="0.01" style="mix-blend-mode:multiply"/>
<path d="M2.74936 16.464C2.63824 16.1646 2.63824 15.8353 2.74936 15.536C3.83162 12.9118 5.66871 10.668 8.02772 9.08919C10.3867 7.51034 13.1614 6.66748 16 6.66748C18.8386 6.66748 21.6133 7.51034 23.9723 9.08919C26.3313 10.668 28.1684 12.9118 29.2507 15.536C29.3618 15.8353 29.3618 16.1646 29.2507 16.464C28.1684 19.0882 26.3313 21.3319 23.9723 22.9108C21.6133 24.4897 18.8386 25.3325 16 25.3325C13.1614 25.3325 10.3867 24.4897 8.02772 22.9108C5.66871 21.3319 3.83162 19.0882 2.74936 16.464Z" stroke="#373D43" stroke-width="1.5" stroke-linecap="round" stroke-linejoin="round"/>
<path d="M16 19.9998C18.2091 19.9998 20 18.209 20 15.9998C20 13.7907 18.2091 11.9998 16 11.9998C13.7909 11.9998 12 13.7907 12 15.9998C12 18.209 13.7909 19.9998 16 19.9998Z" stroke="#373D43" stroke-width="1.5" stroke-linecap="round" stroke-linejoin="round"/>
</svg>
