<svg
  width="41"
  height="35"
  viewBox="0 0 41 35"
  fill="none"
  xmlns="http://www.w3.org/2000/svg"
>
  <path
    d="M36.5 34.5C37.5609 34.5 38.5783 34.0786 39.3284 33.3284C40.0786 32.5783 40.5 31.5609 40.5 30.5V10.5C40.5 9.43913 40.0786 8.42172 39.3284 7.67157C38.5783 6.92143 37.5609 6.5 36.5 6.5H20.7C20.031 6.50656 19.3711 6.34522 18.7806 6.03076C18.1901 5.7163 17.6879 5.25875 17.32 4.7L15.7 2.3C15.3358 1.74694 14.8399 1.29296 14.257 0.978793C13.674 0.664628 13.0222 0.500109 12.36 0.5H4.5C3.43913 0.5 2.42172 0.921427 1.67157 1.67157C0.921427 2.42172 0.5 3.43913 0.5 4.5V30.5C0.5 31.5609 0.921427 32.5783 1.67157 33.3284C2.42172 34.0786 3.43913 34.5 4.5 34.5H36.5Z"
    stroke="#373D43"
    stroke-linecap="round"
    stroke-linejoin="round"
  />
</svg>
