<svg width="17" height="17" viewBox="0 0 17 17" fill="none" xmlns="http://www.w3.org/2000/svg">
<path d="M15.75 8.25C15.75 12.3921 12.3921 15.75 8.25 15.75M15.75 8.25C15.75 4.10786 12.3921 0.75 8.25 0.75M15.75 8.25H0.75M8.25 15.75C4.10786 15.75 0.75 12.3921 0.75 8.25M8.25 15.75C6.32418 13.7279 5.25 11.0424 5.25 8.25C5.25 5.45756 6.32418 2.77212 8.25 0.75M8.25 15.75C10.1758 13.7279 11.25 11.0424 11.25 8.25C11.25 5.45756 10.1758 2.77212 8.25 0.75M0.75 8.25C0.75 4.10786 4.10786 0.75 8.25 0.75" stroke="black" stroke-width="1.125" stroke-linecap="round" stroke-linejoin="round"/>
</svg>
