<svg width="18" height="18" viewBox="0 0 18 18" fill="none" xmlns="http://www.w3.org/2000/svg">
  <path d="M16.92 9.1875C16.92 8.6025 16.8675 8.04 16.77 7.5H9V10.695H13.44C13.245 11.7225 12.66 12.5925 11.7825 13.1775V15.255H14.46C16.02 13.815 16.92 11.7 16.92 9.1875Z" fill="#4285F4"/>
  <path d="M9 17.25C11.2275 17.25 13.095 16.515 14.46 15.255L11.7825 13.1775C11.0475 13.6725 10.11 13.9725 9 13.9725C6.855 13.9725 5.0325 12.525 4.38 10.575H1.635V12.705C2.9925 15.3975 5.775 17.25 9 17.25Z" fill="#34A853"/>
  <path d="M4.3806 10.5678C4.2156 10.0728 4.1181 9.5478 4.1181 9.0003C4.1181 8.4528 4.2156 7.9278 4.3806 7.4328V5.3028H1.6356C1.0731 6.4128 0.7506 7.6653 0.7506 9.0003C0.7506 10.3353 1.0731 11.5878 1.6356 12.6978L3.7731 11.0328L4.3806 10.5678Z" fill="#FBBC05"/>
  <path d="M9 4.0356C10.215 4.0356 11.295 4.4556 12.1575 5.2656L14.52 2.9031C13.0875 1.5681 11.2275 0.7506 9 0.7506C5.775 0.7506 2.9925 2.6031 1.635 5.3031L4.38 7.4331C5.0325 5.4831 6.855 4.0356 9 4.0356Z" fill="#EA4335"/>
</svg>
