<svg
  width="19"
  height="19"
  viewBox="0 0 19 19"
  fill="none"
  xmlns="http://www.w3.org/2000/svg"
>
  <path
    d="M17.4168 9.50065C17.4168 13.8729 13.8724 17.4173 9.50016 17.4173M17.4168 9.50065C17.4168 5.1284 13.8724 1.58398 9.50016 1.58398M17.4168 9.50065H1.5835M9.50016 17.4173C5.12791 17.4173 1.5835 13.8729 1.5835 9.50065M9.50016 17.4173C7.46735 15.2829 6.3335 12.4482 6.3335 9.50065C6.3335 6.55307 7.46735 3.71844 9.50016 1.58398M9.50016 17.4173C11.533 15.2829 12.6668 12.4482 12.6668 9.50065C12.6668 6.55307 11.533 3.71844 9.50016 1.58398M1.5835 9.50065C1.5835 5.1284 5.12791 1.58398 9.50016 1.58398"
    stroke="#373D43"
    stroke-width="1.1875"
    stroke-linecap="round"
    stroke-linejoin="round"
  />
</svg>
