<svg width="18" height="18" viewBox="0 0 18 18" fill="none" xmlns="http://www.w3.org/2000/svg">
<path d="M11.5431 3.29257C11.6374 3.38694 11.7551 3.45446 11.8842 3.48817C12.0133 3.52187 12.149 3.52055 12.2774 3.48432C12.4058 3.4481 12.5222 3.37829 12.6146 3.2821C12.707 3.1859 12.7721 3.0668 12.8031 2.93707C12.881 2.61299 13.0438 2.31552 13.2749 2.0753C13.5059 1.83508 13.7968 1.66078 14.1176 1.57036C14.4384 1.47994 14.7775 1.47666 15.1 1.56087C15.4225 1.64508 15.7167 1.81372 15.9523 2.04944C16.1879 2.28515 16.3565 2.57942 16.4406 2.90193C16.5247 3.22444 16.5213 3.56354 16.4308 3.88431C16.3402 4.20508 16.1659 4.49592 15.9256 4.72688C15.6853 4.95784 15.3877 5.12057 15.0636 5.19832C14.9339 5.22936 14.8148 5.29445 14.7186 5.38687C14.6224 5.47928 14.5526 5.59568 14.5164 5.72406C14.4801 5.85245 14.4788 5.98817 14.5125 6.11723C14.5462 6.2463 14.6138 6.36404 14.7081 6.45832L15.9704 7.71982C16.1385 7.88794 16.2719 8.08753 16.3629 8.3072C16.4539 8.52686 16.5007 8.7623 16.5007 9.00007C16.5007 9.23783 16.4539 9.47327 16.3629 9.69294C16.2719 9.9126 16.1385 10.1122 15.9704 10.2803L14.7081 11.5426C14.6139 11.6369 14.4961 11.7045 14.367 11.7382C14.238 11.7719 14.1023 11.7705 13.9739 11.7343C13.8455 11.6981 13.7291 11.6283 13.6367 11.5321C13.5443 11.4359 13.4792 11.3168 13.4481 11.1871C13.3703 10.863 13.2074 10.5655 12.9764 10.3253C12.7454 10.0851 12.4545 9.91078 12.1337 9.82036C11.8129 9.72994 11.4738 9.72666 11.1513 9.81087C10.8288 9.89508 10.5346 10.0637 10.299 10.2994C10.0633 10.5352 9.89477 10.8294 9.81067 11.1519C9.72657 11.4744 9.72996 11.8135 9.82049 12.1343C9.91101 12.4551 10.0854 12.7459 10.3257 12.9769C10.566 13.2078 10.8635 13.3706 11.1876 13.4483C11.3174 13.4794 11.4365 13.5444 11.5327 13.6369C11.6289 13.7293 11.6987 13.8457 11.7349 13.9741C11.7711 14.1024 11.7724 14.2382 11.7387 14.3672C11.705 14.4963 11.6375 14.614 11.5431 14.7083L10.2809 15.9698C10.1128 16.1379 9.91317 16.2713 9.6935 16.3623C9.47383 16.4533 9.2384 16.5001 9.00063 16.5001C8.76286 16.5001 8.52743 16.4533 8.30776 16.3623C8.08809 16.2713 7.8885 16.1379 7.72038 15.9698L6.45813 14.7076C6.36385 14.6132 6.24611 14.5457 6.11705 14.512C5.98798 14.4783 5.85226 14.4796 5.72388 14.5158C5.59549 14.552 5.47909 14.6218 5.38668 14.718C5.29426 14.8142 5.22918 14.9333 5.19813 15.0631C5.12028 15.3871 4.95745 15.6846 4.72641 15.9248C4.49537 16.1651 4.20447 16.3394 3.88367 16.4298C3.56287 16.5202 3.22377 16.5235 2.90129 16.4393C2.5788 16.3551 2.28459 16.1864 2.04895 15.9507C1.81332 15.715 1.64477 15.4207 1.56067 15.0982C1.47657 14.7757 1.47996 14.4366 1.57049 14.1158C1.66101 13.7951 1.83541 13.5042 2.07571 13.2733C2.31601 13.0423 2.61353 12.8796 2.93763 12.8018C3.06736 12.7708 3.18646 12.7057 3.28266 12.6133C3.37886 12.5209 3.44867 12.4045 3.48489 12.2761C3.52111 12.1477 3.52244 12.012 3.48873 11.8829C3.45502 11.7538 3.3875 11.6361 3.29313 11.5418L2.03088 10.2803C1.86275 10.1122 1.72938 9.9126 1.63839 9.69294C1.5474 9.47327 1.50056 9.23783 1.50056 9.00007C1.50056 8.7623 1.5474 8.52686 1.63839 8.3072C1.72938 8.08753 1.86275 7.88794 2.03088 7.71982L3.29313 6.45757C3.38741 6.36319 3.50515 6.29567 3.63421 6.26197C3.76328 6.22826 3.899 6.22959 4.02738 6.26581C4.15577 6.30203 4.27217 6.37184 4.36458 6.46804C4.457 6.56423 4.52208 6.68333 4.55313 6.81307C4.63098 7.13714 4.79381 7.43461 5.02486 7.67483C5.2559 7.91506 5.54679 8.08935 5.86759 8.17977C6.18839 8.2702 6.52749 8.27347 6.84997 8.18926C7.17246 8.10506 7.46667 7.93641 7.70231 7.7007C7.93794 7.46498 8.10649 7.17072 8.19059 6.8482C8.27469 6.52569 8.2713 6.18659 8.18077 5.86582C8.09025 5.54506 7.91585 5.25422 7.67555 5.02326C7.43525 4.7923 7.13773 4.62956 6.81363 4.55182C6.6839 4.52077 6.5648 4.45568 6.4686 4.36327C6.3724 4.27085 6.3026 4.15445 6.26637 4.02607C6.23015 3.89769 6.22882 3.76197 6.26253 3.6329C6.29624 3.50383 6.36376 3.38609 6.45813 3.29182L7.72038 2.03032C7.8885 1.86219 8.08809 1.72882 8.30776 1.63783C8.52743 1.54683 8.76286 1.5 9.00063 1.5C9.2384 1.5 9.47383 1.54683 9.6935 1.63783C9.91317 1.72882 10.1128 1.86219 10.2809 2.03032L11.5431 3.29257Z" stroke="black" stroke-width="1.5" stroke-linecap="round" stroke-linejoin="round"/>
</svg>
