<svg xmlns="http://www.w3.org/2000/svg" width="18" height="18" viewBox="0 0 18 18" fill="none">
  <path d="M0.952256 9.28128C0.915351 8.22443 1.08697 7.17067 1.45731 6.18015C1.82765 5.18963 2.38946 4.28176 3.11066 3.50836C3.83186 2.73497 4.69834 2.11119 5.66061 1.67266C6.62288 1.23413 7.66211 0.989423 8.71895 0.952518C9.77579 0.915612 10.8296 1.08723 11.8201 1.45757C12.8106 1.82791 13.7185 2.38972 14.4919 3.11092C15.2653 3.83213 15.889 4.6986 16.3276 5.66087C16.7661 6.62314 17.0108 7.66237 17.0477 8.71921C17.0846 9.77605 16.913 10.8298 16.5427 11.8203C16.1723 12.8109 15.6105 13.7187 14.8893 14.4921C14.1681 15.2655 13.3016 15.8893 12.3394 16.3278C11.3771 16.7664 10.3379 17.0111 9.28101 17.048C8.22417 17.0849 7.17041 16.9133 6.17989 16.5429C5.18937 16.1726 4.2815 15.6108 3.5081 14.8896C2.7347 14.1684 2.11093 13.3019 1.6724 12.3396C1.23387 11.3773 0.989162 10.3381 0.952256 9.28127L0.952256 9.28128Z" stroke="#D7D8D9" stroke-opacity="0.5" stroke-width="1.89474"/>
  <path d="M0.952256 9.28128C0.915351 8.22443 1.08697 7.17067 1.45731 6.18015C1.82765 5.18963 2.38946 4.28176 3.11066 3.50836C3.83186 2.73497 4.69834 2.11119 5.66061 1.67266C6.62288 1.23413 7.66211 0.989423 8.71895 0.952518C9.77579 0.915612 10.8296 1.08723 11.8201 1.45757C12.8106 1.82791 13.7185 2.38972 14.4919 3.11092C15.2653 3.83213 15.889 4.6986 16.3276 5.66087C16.7661 6.62314 17.0108 7.66237 17.0477 8.71921" stroke="#3B6CD3" stroke-width="1.89474" stroke-linecap="round"/>
</svg>