<svg width="16" height="16" viewBox="0 0 16 16" fill="none" xmlns="http://www.w3.org/2000/svg">
  <rect width="16" height="16" fill="white" fill-opacity="0.01" style="mix-blend-mode: multiply" />
  <path
    d="M2 12.6667V5.33333C2 4.97971 2.14048 4.64057 2.39052 4.39052C2.64057 4.14048 2.97971 4 3.33333 4H5.92467C6.1471 4.00005 6.36601 4.05574 6.56149 4.162C6.75697 4.26825 6.9228 4.4217 7.04333 4.60867L7.62333 5.508C7.74387 5.69497 7.9097 5.84842 8.10518 5.95467C8.30066 6.06093 8.51957 6.11662 8.742 6.11667H12.6667C13.0203 6.11667 13.3594 6.25714 13.6095 6.50719C13.8595 6.75724 14 7.09638 14 7.45V12.6667C14 13.0203 13.8595 13.3594 13.6095 13.6095C13.3594 13.8595 13.0203 14 12.6667 14H3.33333C2.97971 14 2.64057 13.8595 2.39052 13.6095C2.14048 13.3594 2 13.0203 2 12.6667Z"
    stroke="black"
    stroke-width="1.5"
    stroke-linecap="round"
    stroke-linejoin="round"
  />
</svg>
