<svg
  width="19"
  height="19"
  viewBox="0 0 19 19"
  fill="none"
  xmlns="http://www.w3.org/2000/svg"
>
  <path
    d="M12.6666 16.625V15.0417C12.6666 14.2018 12.333 13.3964 11.7391 12.8025C11.1452 12.2086 10.3398 11.875 9.49992 11.875H4.74992C3.91007 11.875 3.10461 12.2086 2.51075 12.8025C1.91688 13.3964 1.58325 14.2018 1.58325 15.0417V16.625M17.4166 16.6249V15.0416C17.4161 14.3399 17.1825 13.6584 16.7527 13.1038C16.3228 12.5493 15.7209 12.1532 15.0416 11.9778M12.6666 2.47782C13.3477 2.65223 13.9515 3.04838 14.3826 3.60382C14.8138 4.15926 15.0478 4.8424 15.0478 5.54553C15.0478 6.24867 14.8138 6.9318 14.3826 7.48724C13.9515 8.04269 13.3477 8.43884 12.6666 8.61324M10.2916 5.54167C10.2916 7.29057 8.87382 8.70833 7.12492 8.70833C5.37602 8.70833 3.95825 7.29057 3.95825 5.54167C3.95825 3.79276 5.37602 2.375 7.12492 2.375C8.87382 2.375 10.2916 3.79276 10.2916 5.54167Z"
    stroke="#373D43"
    stroke-width="1.1875"
    stroke-linecap="round"
    stroke-linejoin="round"
  />
</svg>
