<svg width="19" height="19" viewBox="0 0 19 19" fill="none" xmlns="http://www.w3.org/2000/svg">
<rect width="19" height="19" fill="white" fill-opacity="0.01" style="mix-blend-mode:multiply"/>
<rect x="7.125" y="7.125" width="4.75" height="9.5" fill="black"/>
<rect x="7.125" y="7.125" width="4.75" height="9.5" fill="black"/>
<rect x="7.125" y="7.125" width="4.75" height="9.5" fill="black"/>
<rect width="19" height="19" fill="white" fill-opacity="0.01" style="mix-blend-mode:multiply"/>
<path d="M9.50119 3.66428H9.49882L2.76017 16.623L2.7613 16.625H16.2387L16.2398 16.623L9.50119 3.66428ZM8.83204 7.12501H10.168V12.4688H8.83204V7.12501ZM9.5 15.4375C9.32386 15.4375 9.15166 15.3853 9.0052 15.2874C8.85874 15.1895 8.74458 15.0505 8.67717 14.8877C8.60977 14.725 8.59213 14.5459 8.62649 14.3731C8.66086 14.2004 8.74568 14.0417 8.87024 13.9171C8.99479 13.7926 9.15349 13.7077 9.32625 13.6734C9.49902 13.639 9.67809 13.6566 9.84083 13.7241C10.0036 13.7915 10.1427 13.9056 10.2405 14.0521C10.3384 14.1985 10.3906 14.3707 10.3906 14.5469C10.3906 14.7831 10.2968 15.0096 10.1298 15.1767C9.96275 15.3437 9.73621 15.4375 9.5 15.4375Z" fill="#F1C21B"/>
<path d="M17.2188 17.8125H1.78125C1.67924 17.8125 1.57896 17.7862 1.49006 17.7362C1.40116 17.6862 1.32665 17.6141 1.27371 17.5269C1.22077 17.4397 1.19119 17.3403 1.18782 17.2384C1.18446 17.1364 1.20741 17.0353 1.25448 16.9448L8.97323 2.10105C9.02336 2.00465 9.09899 1.92385 9.19188 1.86746C9.28476 1.81107 9.39134 1.78125 9.5 1.78125C9.60867 1.78125 9.71524 1.81107 9.80813 1.86746C9.90101 1.92385 9.97664 2.00465 10.0268 2.10105L17.7455 16.9448C17.7926 17.0353 17.8156 17.1364 17.8122 17.2384C17.8088 17.3403 17.7792 17.4397 17.7263 17.5269C17.6734 17.6141 17.5989 17.6862 17.51 17.7362C17.4211 17.7862 17.3208 17.8125 17.2188 17.8125ZM2.7613 16.625H16.2387L16.2398 16.623L9.50119 3.66428H9.49882L2.76017 16.623L2.7613 16.625Z" fill="#F1C21B"/>
<rect width="19" height="19" fill="white" fill-opacity="0.01" style="mix-blend-mode:multiply"/>
<path d="M9.50119 3.66428H9.49882L2.76017 16.623L2.7613 16.625H16.2387L16.2398 16.623L9.50119 3.66428ZM8.83204 7.12501H10.168V12.4688H8.83204V7.12501ZM9.5 15.4375C9.32386 15.4375 9.15166 15.3853 9.0052 15.2874C8.85874 15.1895 8.74458 15.0505 8.67717 14.8877C8.60977 14.725 8.59213 14.5459 8.62649 14.3731C8.66086 14.2004 8.74568 14.0417 8.87024 13.9171C8.99479 13.7926 9.15349 13.7077 9.32625 13.6734C9.49902 13.639 9.67809 13.6566 9.84083 13.7241C10.0036 13.7915 10.1427 13.9056 10.2405 14.0521C10.3384 14.1985 10.3906 14.3707 10.3906 14.5469C10.3906 14.7831 10.2968 15.0096 10.1298 15.1767C9.96275 15.3437 9.73621 15.4375 9.5 15.4375Z" fill="#F1C21B"/>
<path d="M17.2188 17.8125H1.78125C1.67924 17.8125 1.57896 17.7862 1.49006 17.7362C1.40116 17.6862 1.32665 17.6141 1.27371 17.5269C1.22077 17.4397 1.19119 17.3403 1.18782 17.2384C1.18446 17.1364 1.20741 17.0353 1.25448 16.9448L8.97323 2.10105C9.02336 2.00465 9.09899 1.92385 9.19188 1.86746C9.28476 1.81107 9.39134 1.78125 9.5 1.78125C9.60867 1.78125 9.71524 1.81107 9.80813 1.86746C9.90101 1.92385 9.97664 2.00465 10.0268 2.10105L17.7455 16.9448C17.7926 17.0353 17.8156 17.1364 17.8122 17.2384C17.8088 17.3403 17.7792 17.4397 17.7263 17.5269C17.6734 17.6141 17.5989 17.6862 17.51 17.7362C17.4211 17.7862 17.3208 17.8125 17.2188 17.8125ZM2.7613 16.625H16.2387L16.2398 16.623L9.50119 3.66428H9.49882L2.76017 16.623L2.7613 16.625Z" fill="#F1C21B"/>
<rect width="19" height="19" fill="white" fill-opacity="0.01" style="mix-blend-mode:multiply"/>
<path d="M9.50119 3.66428H9.49882L2.76017 16.623L2.7613 16.625H16.2387L16.2398 16.623L9.50119 3.66428ZM8.83204 7.12501H10.168V12.4688H8.83204V7.12501ZM9.5 15.4375C9.32386 15.4375 9.15166 15.3853 9.0052 15.2874C8.85874 15.1895 8.74458 15.0505 8.67717 14.8877C8.60977 14.725 8.59213 14.5459 8.62649 14.3731C8.66086 14.2004 8.74568 14.0417 8.87024 13.9171C8.99479 13.7926 9.15349 13.7077 9.32625 13.6734C9.49902 13.639 9.67809 13.6566 9.84083 13.7241C10.0036 13.7915 10.1427 13.9056 10.2405 14.0521C10.3384 14.1985 10.3906 14.3707 10.3906 14.5469C10.3906 14.7831 10.2968 15.0096 10.1298 15.1767C9.96275 15.3437 9.73621 15.4375 9.5 15.4375Z" fill="#F1C21B"/>
<path d="M17.2188 17.8125H1.78125C1.67924 17.8125 1.57896 17.7862 1.49006 17.7362C1.40116 17.6862 1.32665 17.6141 1.27371 17.5269C1.22077 17.4397 1.19119 17.3403 1.18782 17.2384C1.18446 17.1364 1.20741 17.0353 1.25448 16.9448L8.97323 2.10105C9.02336 2.00465 9.09899 1.92385 9.19188 1.86746C9.28476 1.81107 9.39134 1.78125 9.5 1.78125C9.60867 1.78125 9.71524 1.81107 9.80813 1.86746C9.90101 1.92385 9.97664 2.00465 10.0268 2.10105L17.7455 16.9448C17.7926 17.0353 17.8156 17.1364 17.8122 17.2384C17.8088 17.3403 17.7792 17.4397 17.7263 17.5269C17.6734 17.6141 17.5989 17.6862 17.51 17.7362C17.4211 17.7862 17.3208 17.8125 17.2188 17.8125ZM2.7613 16.625H16.2387L16.2398 16.623L9.50119 3.66428H9.49882L2.76017 16.623L2.7613 16.625Z" fill="#F1C21B"/>
</svg>
