<svg width="133" height="46" viewBox="0 0 133 46" fill="none" xmlns="http://www.w3.org/2000/svg">
<path d="M58.3545 4.07921H54.4629V1.04785H65.9119V4.07917H62.0203V13.5938H58.3545V4.07921Z" fill="black"/>
<path d="M67.8867 1.04883H71.5526V5.6748H75.8091V1.04883H79.475V13.5948H75.8091V8.56589H71.5526V13.5948H67.8867V1.04883Z" fill="black"/>
<path d="M81.793 1.04883H91.3662V3.95737H85.3374V6.06003H91.036V8.46084H85.3374V10.686H91.5397V13.5948H81.793V1.04883Z" fill="black"/>
<path d="M55.5898 32.6201H65.1106V35.7739H59.2557V37.8766H64.3116V40.6452H59.2557V45.1661H55.5898V32.6201Z" fill="black"/>
<path d="M67.4375 40.0144V32.6201H71.1034V39.8919C71.1034 41.4163 71.9545 42.3975 73.2748 42.3975C74.5779 42.3975 75.4466 41.3989 75.4466 39.8919V32.6201H79.1125V40.0144C79.1125 43.3262 76.7496 45.4288 73.2748 45.4288C69.8001 45.4288 67.4375 43.3262 67.4375 40.0144Z" fill="black"/>
<path d="M81.6074 32.6201H85.5341L89.6168 40.3999H89.7907V32.6201H93.2133V45.1661H89.2866L85.204 37.4037H85.0301V45.1661H81.6074V32.6201Z" fill="black"/>
<path d="M95.748 32.6201H100.821C105.095 32.6201 107.945 35.1257 107.945 38.8929C107.945 42.6602 105.095 45.1661 100.821 45.1661H95.748V32.6201ZM100.821 42.3801C102.906 42.3801 104.279 41.0133 104.279 38.8929C104.279 36.7725 102.906 35.4061 100.821 35.4061H99.2925V42.38L100.821 42.3801Z" fill="black"/>
<path d="M54.1719 23.108C54.1719 19.2182 57.1081 16.5898 61.1563 16.5898C64.0925 16.5898 66.5941 18.2544 67.1675 20.5673L63.7972 21.2158C63.4843 20.2868 62.3724 19.6034 61.139 19.6034C59.2278 19.6034 57.8378 21.0404 57.8378 23.108C57.8378 25.1755 59.2799 26.665 61.2777 26.665C62.8588 26.665 64.1619 25.6838 64.2661 24.3522L60.0444 24.3348V22.1618H67.7757C68.2273 26.6124 65.4301 29.6963 61.1563 29.6963C57.1081 29.6963 54.1719 26.998 54.1719 23.108Z" fill="black"/>
<path d="M69.8906 16.834H73.5565V26.2258H78.925V29.38H69.8906V16.834Z" fill="black"/>
<path d="M80.2734 23.108C80.2734 19.1128 83.0882 16.5898 87.2578 16.5898C91.4102 16.5898 94.2246 19.1128 94.2246 23.108C94.2246 27.1031 91.4102 29.6439 87.2578 29.6439C83.0882 29.6439 80.2734 27.1031 80.2734 23.108ZM90.5588 23.108C90.5588 21.0053 89.2212 19.6035 87.2578 19.6035C85.2945 19.6035 83.9394 21.0053 83.9394 23.108C83.9394 25.2283 85.2945 26.6125 87.2578 26.6125C89.2212 26.6125 90.5588 25.2283 90.5588 23.108Z" fill="black"/>
<path d="M96.1992 16.834H102.575C105.512 16.834 107.249 18.2007 107.249 20.3034C107.249 21.5999 106.45 22.5463 105.442 22.8967V23.072C106.676 23.4047 107.596 24.5087 107.596 25.9982C107.596 28.1534 105.807 29.38 102.906 29.38H96.1992V16.834ZM101.863 21.8629C102.801 21.8629 103.462 21.3723 103.462 20.6712C103.462 19.9701 102.801 19.4972 101.863 19.4972H99.8651V21.8629H101.863ZM102.107 26.7165C103.079 26.7165 103.809 26.1733 103.809 25.42C103.809 24.6841 103.079 24.1409 102.107 24.1409H99.8651V26.7165H102.107Z" fill="black"/>
<path d="M112.61 16.834H117.996L121.888 29.38H118.117L117.527 27.47H113.062L112.471 29.38H108.701L112.61 16.834ZM116.814 24.8417L115.39 19.9704H115.216L113.792 24.8417H116.814Z" fill="black"/>
<path d="M123.965 16.834H127.631V26.2258H132.999V29.38H123.965V16.834Z" fill="black"/>
<path d="M45.9203 19.6121C45.9152 19.6798 45.921 19.7496 45.9335 19.8162C45.9462 19.8843 45.9675 19.9506 45.9964 20.0134C46.0245 20.0745 46.0631 20.128 46.1016 20.1836C46.2441 20.3579 46.4533 20.4668 46.6734 20.4822C46.7851 20.4909 46.8958 20.4766 47.0017 20.4399C47.2672 20.348 47.4653 20.1162 47.5277 19.8323C47.5294 19.8246 47.5334 19.8181 47.5349 19.8104C47.5349 19.8104 47.5582 19.6744 47.5663 19.6308C47.6011 19.4421 47.6691 19.0186 47.6723 18.9961C47.9446 17.1123 47.8837 15.2056 47.5062 13.3597C47.4964 13.3116 47.4317 13.0212 47.409 12.9242C47.0602 11.4576 46.5025 10.0159 45.7167 8.64323C42.6511 3.28799 36.984 0.395775 31.2534 0.64362C26.3707 0.772219 21.6911 3.17031 18.7427 7.30747C18.3368 7.90482 17.9957 8.50415 17.8638 9.22463C17.6817 10.215 17.8521 11.226 18.3588 12.1111C18.9079 13.0703 19.7922 13.7664 20.8484 14.0712C22.5584 14.5641 24.4197 13.928 25.383 12.5225C25.383 12.5225 25.7311 12.0268 25.776 11.967C27.6584 9.44895 30.4791 7.87927 33.4848 7.49857C37.7756 7.01758 42.1458 9.07548 44.4463 13.0942C45.6215 15.1471 46.0863 17.416 45.9203 19.6121Z" fill="#F6DE00"/>
<path d="M11.4472 1.55413C11.5079 1.52475 11.5649 1.48481 11.6159 1.44064C11.6679 1.39547 11.7142 1.34366 11.7537 1.28704C11.7922 1.23199 11.8188 1.17149 11.8472 1.11008C11.9257 0.898461 11.9146 0.661283 11.8178 0.461362C11.7695 0.359478 11.7018 0.269981 11.6173 0.195749C11.4057 0.00981064 11.1075 -0.0473411 10.8326 0.0401226C10.8251 0.0424374 10.8175 0.0422498 10.8101 0.0447836C10.8101 0.0447836 10.6818 0.0923943 10.6403 0.107191C10.4608 0.17113 10.0632 0.323472 10.0423 0.33195C8.28852 1.03598 6.68173 2.04259 5.28548 3.2952C5.24912 3.32786 5.0321 3.52947 4.96009 3.59782C3.87517 4.63581 2.91612 5.84382 2.13033 7.21649C-0.935272 12.5717 -0.585194 18.9677 2.49294 23.8491C5.0447 28.0495 9.44368 30.9379 14.4704 31.4445C15.1863 31.5004 15.8715 31.4987 16.5561 31.2537C17.4975 30.9175 18.2804 30.2632 18.787 29.3781C19.3362 28.4188 19.4918 27.2984 19.2254 26.2235C18.7936 24.4834 17.3168 23.1757 15.6283 23.0372C15.6283 23.0372 15.0285 22.9809 14.9547 22.9716C11.8514 22.5865 9.09317 20.9076 7.26344 18.4727C4.70501 14.9654 4.28697 10.1193 6.5875 6.10058C7.76264 4.04775 9.47842 2.50728 11.4472 1.55413Z" fill="#EE0C3D"/>
<path d="M13.1818 40.694C13.1263 40.6557 13.0635 40.6258 13.0001 40.6034C12.9352 40.5805 12.8676 40.566 12.7992 40.5598C12.7327 40.5538 12.6675 40.5607 12.6005 40.5666C12.3796 40.6038 12.1815 40.7322 12.0582 40.9167C11.9949 41.0099 11.9519 41.1137 11.9304 41.2246C11.8765 41.5024 11.9766 41.7914 12.1891 41.9879C12.1948 41.9932 12.1984 41.9999 12.2043 42.0051C12.2043 42.0051 12.3094 42.0934 12.3428 42.1223C12.4875 42.247 12.8171 42.5182 12.8348 42.5322C14.3162 43.712 15.984 44.6121 17.7577 45.2054C17.8039 45.2208 18.0855 45.3095 18.1802 45.3382C19.614 45.7668 21.1307 46.0005 22.7023 46.0005C28.8335 46.0005 34.1505 42.4968 36.803 37.3675C39.1339 33.0385 39.4146 27.752 37.3363 23.1082C37.0263 22.455 36.6823 21.8573 36.1296 21.3819C35.3702 20.7277 34.4169 20.3711 33.4035 20.3711C32.3053 20.3711 31.2654 20.7954 30.4757 21.5656C29.1974 22.8127 28.8129 24.7565 29.5382 26.3006C29.5382 26.3006 29.7897 26.8525 29.8187 26.9216C31.0396 29.8248 30.9771 33.0733 29.8012 35.889C28.0688 39.8773 24.1166 42.6654 19.5155 42.6654C17.1652 42.6654 14.9847 41.937 13.1818 40.694Z" fill="#2E4DF9"/>
</svg>
