<svg width="910" height="239" viewBox="0 0 910 239" fill="none" xmlns="http://www.w3.org/2000/svg">
<rect width="910" height="32" fill="white" style="mix-blend-mode:multiply"/>
<path d="M11.2784 14.4375H8.78977C8.74432 14.1155 8.65152 13.8295 8.51136 13.5795C8.37121 13.3258 8.19129 13.1098 7.97159 12.9318C7.75189 12.7538 7.49811 12.6174 7.21023 12.5227C6.92614 12.428 6.61742 12.3807 6.28409 12.3807C5.68182 12.3807 5.1572 12.5303 4.71023 12.8295C4.26326 13.125 3.91667 13.5568 3.67045 14.125C3.42424 14.6894 3.30114 15.375 3.30114 16.1818C3.30114 17.0114 3.42424 17.7083 3.67045 18.2727C3.92045 18.8371 4.26894 19.2633 4.71591 19.5511C5.16288 19.839 5.67992 19.983 6.26705 19.983C6.59659 19.983 6.90152 19.9394 7.18182 19.8523C7.46591 19.7652 7.7178 19.6383 7.9375 19.4716C8.1572 19.3011 8.33902 19.0947 8.48295 18.8523C8.63068 18.6098 8.73295 18.3333 8.78977 18.0227L11.2784 18.0341C11.214 18.5682 11.053 19.0833 10.7955 19.5795C10.5417 20.072 10.1989 20.5133 9.76705 20.9034C9.33902 21.2898 8.82765 21.5966 8.23295 21.8239C7.64205 22.0473 6.97348 22.1591 6.22727 22.1591C5.18939 22.1591 4.26136 21.9242 3.44318 21.4545C2.62879 20.9848 1.98485 20.3049 1.51136 19.4148C1.04167 18.5246 0.806818 17.447 0.806818 16.1818C0.806818 14.9129 1.04545 13.8333 1.52273 12.9432C2 12.053 2.64773 11.375 3.46591 10.9091C4.28409 10.4394 5.20455 10.2045 6.22727 10.2045C6.90152 10.2045 7.52652 10.2992 8.10227 10.4886C8.68182 10.678 9.19508 10.9545 9.64205 11.3182C10.089 11.678 10.4527 12.1193 10.733 12.642C11.017 13.1648 11.1989 13.7633 11.2784 14.4375ZM15.4176 16.9545V22H12.9972V10.3636H15.3494V14.8125H15.4517C15.6487 14.2973 15.9669 13.8939 16.4062 13.6023C16.8456 13.3068 17.3968 13.1591 18.0597 13.1591C18.6657 13.1591 19.1941 13.2917 19.6449 13.5568C20.0994 13.8182 20.4517 14.1951 20.7017 14.6875C20.9555 15.1761 21.0805 15.7614 21.0767 16.4432V22H18.6562V16.875C18.66 16.3371 18.5237 15.9186 18.2472 15.6193C17.9744 15.3201 17.5919 15.1705 17.0994 15.1705C16.7699 15.1705 16.4782 15.2405 16.2244 15.3807C15.9744 15.5208 15.7775 15.7254 15.6335 15.9943C15.4934 16.2595 15.4214 16.5795 15.4176 16.9545ZM25.4702 22.1648C24.9134 22.1648 24.4171 22.0682 23.9815 21.875C23.5459 21.678 23.2012 21.3883 22.9474 21.0057C22.6974 20.6193 22.5724 20.1383 22.5724 19.5625C22.5724 19.0777 22.6615 18.6705 22.8395 18.3409C23.0175 18.0114 23.2599 17.7462 23.5668 17.5455C23.8736 17.3447 24.2221 17.1932 24.6122 17.0909C25.0062 16.9886 25.419 16.9167 25.8509 16.875C26.3584 16.822 26.7675 16.7727 27.0781 16.7273C27.3887 16.678 27.6141 16.6061 27.7543 16.5114C27.8944 16.4167 27.9645 16.2765 27.9645 16.0909V16.0568C27.9645 15.697 27.8509 15.4186 27.6236 15.2216C27.4001 15.0246 27.0819 14.9261 26.669 14.9261C26.2334 14.9261 25.8868 15.0227 25.6293 15.2159C25.3717 15.4053 25.2012 15.6439 25.1179 15.9318L22.8793 15.75C22.9929 15.2197 23.2164 14.7614 23.5497 14.375C23.883 13.9848 24.313 13.6856 24.8395 13.4773C25.3698 13.2652 25.9834 13.1591 26.6804 13.1591C27.1652 13.1591 27.6293 13.2159 28.0724 13.3295C28.5194 13.4432 28.9152 13.6193 29.2599 13.858C29.6084 14.0966 29.883 14.4034 30.0838 14.7784C30.2846 15.1496 30.3849 15.5947 30.3849 16.1136V22H28.0895V20.7898H28.0213C27.8812 21.0625 27.6937 21.303 27.4588 21.5114C27.224 21.7159 26.9418 21.8769 26.6122 21.9943C26.2827 22.108 25.902 22.1648 25.4702 22.1648ZM26.1634 20.4943C26.5194 20.4943 26.8338 20.4242 27.1065 20.2841C27.3793 20.1402 27.5933 19.947 27.7486 19.7045C27.9039 19.4621 27.9815 19.1875 27.9815 18.8807V17.9545C27.9058 18.0038 27.8016 18.0492 27.669 18.0909C27.5402 18.1288 27.3944 18.1648 27.2315 18.1989C27.0687 18.2292 26.9058 18.2576 26.7429 18.2841C26.58 18.3068 26.4323 18.3277 26.2997 18.3466C26.0156 18.3883 25.7675 18.4545 25.5554 18.5455C25.3433 18.6364 25.1785 18.7595 25.0611 18.9148C24.9437 19.0663 24.8849 19.2557 24.8849 19.483C24.8849 19.8125 25.0043 20.0644 25.2429 20.2386C25.4853 20.4091 25.7921 20.4943 26.1634 20.4943ZM32.2628 22V13.2727H34.6094V14.7955H34.7003C34.8594 14.2538 35.1264 13.8447 35.5014 13.5682C35.8764 13.2879 36.3082 13.1477 36.7969 13.1477C36.9181 13.1477 37.0488 13.1553 37.1889 13.1705C37.3291 13.1856 37.4522 13.2064 37.5582 13.233V15.3807C37.4446 15.3466 37.2874 15.3163 37.0866 15.2898C36.8859 15.2633 36.7022 15.25 36.5355 15.25C36.1795 15.25 35.8613 15.3277 35.581 15.483C35.3045 15.6345 35.0848 15.8466 34.9219 16.1193C34.7628 16.392 34.6832 16.7064 34.6832 17.0625V22H32.2628ZM43.8892 13.2727V15.0909H38.6335V13.2727H43.8892ZM39.8267 11.1818H42.2472V19.3182C42.2472 19.5417 42.2813 19.7159 42.3494 19.8409C42.4176 19.9621 42.5123 20.0473 42.6335 20.0966C42.7585 20.1458 42.9025 20.1705 43.0653 20.1705C43.179 20.1705 43.2926 20.161 43.4062 20.142C43.5199 20.1193 43.607 20.1023 43.6676 20.0909L44.0483 21.892C43.9271 21.9299 43.7566 21.9735 43.5369 22.0227C43.3172 22.0758 43.0502 22.108 42.7358 22.1193C42.1525 22.142 41.6411 22.0644 41.2017 21.8864C40.7661 21.7083 40.4271 21.4318 40.1847 21.0568C39.9422 20.6818 39.8229 20.2083 39.8267 19.6364V11.1818ZM53.8111 13.2727V15.0909H48.5554V13.2727H53.8111ZM49.7486 11.1818H52.169V19.3182C52.169 19.5417 52.2031 19.7159 52.2713 19.8409C52.3395 19.9621 52.4342 20.0473 52.5554 20.0966C52.6804 20.1458 52.8243 20.1705 52.9872 20.1705C53.1009 20.1705 53.2145 20.161 53.3281 20.142C53.4418 20.1193 53.5289 20.1023 53.5895 20.0909L53.9702 21.892C53.849 21.9299 53.6785 21.9735 53.4588 22.0227C53.2391 22.0758 52.9721 22.108 52.6577 22.1193C52.0743 22.142 51.563 22.0644 51.1236 21.8864C50.688 21.7083 50.349 21.4318 50.1065 21.0568C49.8641 20.6818 49.7448 20.2083 49.7486 19.6364V11.1818ZM55.3878 22V13.2727H57.8082V22H55.3878ZM56.6037 12.1477C56.2438 12.1477 55.9351 12.0284 55.6776 11.7898C55.4238 11.5473 55.2969 11.2576 55.2969 10.9205C55.2969 10.5871 55.4238 10.3011 55.6776 10.0625C55.9351 9.82008 56.2438 9.69886 56.6037 9.69886C56.9635 9.69886 57.2704 9.82008 57.5241 10.0625C57.7817 10.3011 57.9105 10.5871 57.9105 10.9205C57.9105 11.2576 57.7817 11.5473 57.5241 11.7898C57.2704 12.0284 56.9635 12.1477 56.6037 12.1477ZM64.3892 13.2727V15.0909H59.1335V13.2727H64.3892ZM60.3267 11.1818H62.7472V19.3182C62.7472 19.5417 62.7813 19.7159 62.8494 19.8409C62.9176 19.9621 63.0123 20.0473 63.1335 20.0966C63.2585 20.1458 63.4025 20.1705 63.5653 20.1705C63.679 20.1705 63.7926 20.161 63.9062 20.142C64.0199 20.1193 64.107 20.1023 64.1676 20.0909L64.5483 21.892C64.4271 21.9299 64.2566 21.9735 64.0369 22.0227C63.8172 22.0758 63.5502 22.108 63.2358 22.1193C62.6525 22.142 62.1411 22.0644 61.7017 21.8864C61.2661 21.7083 60.9271 21.4318 60.6847 21.0568C60.4422 20.6818 60.3229 20.2083 60.3267 19.6364V11.1818ZM68.5739 10.3636V22H66.1534V10.3636H68.5739ZM74.4901 22.1705C73.5923 22.1705 72.8196 21.9886 72.1719 21.625C71.5279 21.2576 71.0317 20.7386 70.6832 20.0682C70.3348 19.3939 70.1605 18.5966 70.1605 17.6761C70.1605 16.7784 70.3348 15.9905 70.6832 15.3125C71.0317 14.6345 71.5223 14.1061 72.1548 13.7273C72.7912 13.3485 73.5374 13.1591 74.3935 13.1591C74.9692 13.1591 75.5052 13.2519 76.0014 13.4375C76.5014 13.6193 76.937 13.8939 77.3082 14.2614C77.6832 14.6288 77.9749 15.0909 78.1832 15.6477C78.3916 16.2008 78.4957 16.8485 78.4957 17.5909V18.2557H71.1264V16.7557H76.2173C76.2173 16.4072 76.1416 16.0985 75.9901 15.8295C75.8385 15.5606 75.6283 15.3504 75.3594 15.1989C75.0942 15.0436 74.7855 14.9659 74.4332 14.9659C74.0658 14.9659 73.7401 15.0511 73.456 15.2216C73.1757 15.3883 72.956 15.6136 72.7969 15.8977C72.6378 16.178 72.5563 16.4905 72.5526 16.8352V18.2614C72.5526 18.6932 72.6321 19.0663 72.7912 19.3807C72.9541 19.6951 73.1832 19.9375 73.4787 20.108C73.7741 20.2784 74.1245 20.3636 74.5298 20.3636C74.7988 20.3636 75.045 20.3258 75.2685 20.25C75.492 20.1742 75.6832 20.0606 75.8423 19.9091C76.0014 19.7576 76.1226 19.572 76.206 19.3523L78.4446 19.5C78.331 20.0379 78.098 20.5076 77.7457 20.9091C77.3973 21.3068 76.9465 21.6174 76.3935 21.8409C75.8442 22.0606 75.2098 22.1705 74.4901 22.1705Z" fill="#161616"/>
<g clip-path="url(#clip0_10046_81379)">
<rect width="32" height="32" transform="translate(878)" fill="white" fill-opacity="0.01" style="mix-blend-mode:multiply"/>
<g clip-path="url(#clip1_10046_81379)">
<rect width="16" height="16" transform="translate(886 8)" fill="white" fill-opacity="0.01" style="mix-blend-mode:multiply"/>
<path d="M896 9V10H899.293L895 14.291L895.707 15L900 10.707V14H901V9H896Z" fill="#161616"/>
<path d="M893 17.708L892.296 17L888 21.293V18H887V23H892V22H888.707L893 17.708Z" fill="#161616"/>
</g>
</g>
<path d="M0.288352 70.3182H2.69957L5.02131 74.7031H5.12074L7.44247 70.3182H9.85369L6.13991 76.9006V80.5H4.00213V76.9006L0.288352 70.3182ZM15.31 74.5689V76.2493H10.6665V74.5689H15.31ZM18.9094 80.5H16.6026L20.1175 70.3182H22.8917L26.4016 80.5H24.0948L21.5444 72.6449H21.4648L18.9094 80.5ZM18.7653 76.4979H24.2141V78.1783H18.7653V76.4979ZM29.3572 72.8636L30.7592 75.5334L32.196 72.8636H34.3686L32.1562 76.6818L34.4283 80.5H32.2656L30.7592 77.8601L29.2777 80.5H27.0902L29.3572 76.6818L27.1697 72.8636H29.3572ZM35.6264 80.5V72.8636H37.7443V80.5H35.6264ZM36.6903 71.8793C36.3755 71.8793 36.1054 71.7749 35.88 71.5661C35.6579 71.3539 35.5469 71.1004 35.5469 70.8054C35.5469 70.5137 35.6579 70.2635 35.88 70.0547C36.1054 69.8426 36.3755 69.7365 36.6903 69.7365C37.0052 69.7365 37.2737 69.8426 37.4957 70.0547C37.7211 70.2635 37.8338 70.5137 37.8338 70.8054C37.8338 71.1004 37.7211 71.3539 37.4957 71.5661C37.2737 71.7749 37.0052 71.8793 36.6903 71.8793ZM45.7946 75.0412L43.8556 75.1605C43.8225 74.9948 43.7512 74.8456 43.6419 74.7131C43.5325 74.5772 43.3883 74.4695 43.2093 74.3899C43.0337 74.3071 42.8232 74.2656 42.5779 74.2656C42.2498 74.2656 41.9731 74.3352 41.7477 74.4744C41.5223 74.6103 41.4096 74.7926 41.4096 75.0213C41.4096 75.2036 41.4825 75.3577 41.6284 75.4837C41.7742 75.6096 42.0244 75.7107 42.3791 75.7869L43.7612 76.0653C44.5036 76.2178 45.0571 76.4631 45.4217 76.8011C45.7863 77.1392 45.9686 77.5833 45.9686 78.1335C45.9686 78.634 45.8211 79.0732 45.5261 79.451C45.2344 79.8288 44.8334 80.1238 44.323 80.3359C43.8159 80.5447 43.2309 80.6491 42.568 80.6491C41.5571 80.6491 40.7517 80.4387 40.1518 80.0178C39.5552 79.5935 39.2056 79.0168 39.1028 78.2876L41.1859 78.1783C41.2489 78.4865 41.4013 78.7218 41.6433 78.8842C41.8852 79.0433 42.1951 79.1229 42.573 79.1229C42.9442 79.1229 43.2425 79.0516 43.4679 78.9091C43.6966 78.7633 43.8126 78.576 43.8159 78.3473C43.8126 78.1551 43.7314 77.9976 43.5723 77.875C43.4132 77.7491 43.1679 77.6529 42.8365 77.5866L41.514 77.3232C40.7683 77.174 40.2131 76.9155 39.8485 76.5476C39.4873 76.1797 39.3066 75.7107 39.3066 75.1406C39.3066 74.6501 39.4392 74.2275 39.7044 73.8729C39.9728 73.5182 40.349 73.2448 40.8329 73.0526C41.3201 72.8603 41.8902 72.7642 42.5431 72.7642C43.5076 72.7642 44.2666 72.968 44.8201 73.3757C45.377 73.7834 45.7018 74.3385 45.7946 75.0412Z" fill="#262C34"/>
<path d="M250.903 51.8182L252.957 55.2884H253.036L255.099 51.8182H257.531L254.423 56.9091L257.6 62H255.124L253.036 58.5249H252.957L250.869 62H248.403L251.589 56.9091L248.462 51.8182H250.903ZM262.845 56.0689V57.7493H258.202V56.0689H262.845ZM266.445 62H264.138L267.653 51.8182H270.427L273.937 62H271.63L269.08 54.1449H269L266.445 62ZM266.3 57.9979H271.749V59.6783H266.3V57.9979ZM276.892 54.3636L278.294 57.0334L279.731 54.3636H281.904L279.691 58.1818L281.963 62H279.801L278.294 59.3601L276.813 62H274.625L276.892 58.1818L274.705 54.3636H276.892ZM283.162 62V54.3636H285.279V62H283.162ZM284.225 53.3793C283.911 53.3793 283.641 53.2749 283.415 53.0661C283.193 52.8539 283.082 52.6004 283.082 52.3054C283.082 52.0137 283.193 51.7635 283.415 51.5547C283.641 51.3426 283.911 51.2365 284.225 51.2365C284.54 51.2365 284.809 51.3426 285.031 51.5547C285.256 51.7635 285.369 52.0137 285.369 52.3054C285.369 52.6004 285.256 52.8539 285.031 53.0661C284.809 53.2749 284.54 53.3793 284.225 53.3793ZM293.33 56.5412L291.391 56.6605C291.358 56.4948 291.286 56.3456 291.177 56.2131C291.068 56.0772 290.923 55.9695 290.744 55.8899C290.569 55.8071 290.358 55.7656 290.113 55.7656C289.785 55.7656 289.508 55.8352 289.283 55.9744C289.057 56.1103 288.945 56.2926 288.945 56.5213C288.945 56.7036 289.018 56.8577 289.164 56.9837C289.309 57.1096 289.56 57.2107 289.914 57.2869L291.296 57.5653C292.039 57.7178 292.592 57.9631 292.957 58.3011C293.321 58.6392 293.504 59.0833 293.504 59.6335C293.504 60.134 293.356 60.5732 293.061 60.951C292.77 61.3288 292.369 61.6238 291.858 61.8359C291.351 62.0447 290.766 62.1491 290.103 62.1491C289.092 62.1491 288.287 61.9387 287.687 61.5178C287.09 61.0935 286.741 60.5168 286.638 59.7876L288.721 59.6783C288.784 59.9865 288.936 60.2218 289.178 60.3842C289.42 60.5433 289.73 60.6229 290.108 60.6229C290.479 60.6229 290.778 60.5516 291.003 60.4091C291.232 60.2633 291.348 60.076 291.351 59.8473C291.348 59.6551 291.267 59.4976 291.107 59.375C290.948 59.2491 290.703 59.1529 290.372 59.0866L289.049 58.8232C288.303 58.674 287.748 58.4155 287.384 58.0476C287.022 57.6797 286.842 57.2107 286.842 56.6406C286.842 56.1501 286.974 55.7275 287.24 55.3729C287.508 55.0182 287.884 54.7448 288.368 54.5526C288.855 54.3603 289.425 54.2642 290.078 54.2642C291.043 54.2642 291.802 54.468 292.355 54.8757C292.912 55.2834 293.237 55.8385 293.33 56.5412Z" fill="#262C34"/>
<path d="M284.351 87.5V77.3182H285.584V86.4062H290.317V87.5H284.351ZM294.315 87.679C293.831 87.679 293.391 87.5878 292.997 87.4055C292.603 87.2199 292.289 86.9531 292.057 86.6051C291.825 86.2538 291.709 85.8295 291.709 85.3324C291.709 84.8949 291.796 84.5402 291.968 84.2685C292.14 83.9934 292.371 83.7779 292.659 83.6222C292.947 83.4664 293.266 83.3504 293.614 83.2741C293.965 83.1946 294.318 83.1316 294.672 83.0852C295.136 83.0256 295.513 82.9808 295.801 82.951C296.093 82.9179 296.305 82.8632 296.437 82.7869C296.573 82.7107 296.641 82.5781 296.641 82.3892V82.3494C296.641 81.8589 296.507 81.4777 296.239 81.206C295.973 80.9342 295.571 80.7983 295.03 80.7983C294.47 80.7983 294.031 80.9209 293.713 81.1662C293.395 81.4115 293.171 81.6733 293.042 81.9517L291.928 81.554C292.127 81.09 292.392 80.7287 292.724 80.4702C293.058 80.2083 293.423 80.026 293.817 79.9233C294.215 79.8172 294.606 79.7642 294.991 79.7642C295.236 79.7642 295.518 79.794 295.836 79.8537C296.157 79.91 296.467 80.0277 296.766 80.2067C297.067 80.3857 297.317 80.6558 297.516 81.017C297.715 81.3783 297.815 81.8622 297.815 82.4688V87.5H296.641V86.4659H296.582C296.502 86.6316 296.369 86.8089 296.184 86.9979C295.998 87.1868 295.751 87.3475 295.443 87.4801C295.135 87.6127 294.759 87.679 294.315 87.679ZM294.493 86.625C294.958 86.625 295.349 86.5339 295.667 86.3516C295.988 86.1693 296.23 85.9339 296.393 85.6456C296.558 85.3572 296.641 85.054 296.641 84.7358V83.6619C296.591 83.7216 296.482 83.7763 296.313 83.826C296.147 83.8724 295.955 83.9138 295.736 83.9503C295.521 83.9834 295.31 84.0133 295.105 84.0398C294.903 84.063 294.739 84.0829 294.613 84.0994C294.308 84.1392 294.023 84.2038 293.758 84.2933C293.496 84.3795 293.284 84.5104 293.121 84.6861C292.962 84.8584 292.883 85.0937 292.883 85.392C292.883 85.7997 293.033 86.108 293.335 86.3168C293.64 86.5223 294.026 86.625 294.493 86.625ZM300.115 87.5V77.3182H301.288V81.0767H301.388C301.474 80.9441 301.593 80.7751 301.746 80.5696C301.902 80.3608 302.124 80.1752 302.412 80.0128C302.704 79.8471 303.098 79.7642 303.595 79.7642C304.238 79.7642 304.805 79.925 305.296 80.2464C305.786 80.5679 306.169 81.0237 306.444 81.6136C306.719 82.2036 306.857 82.8996 306.857 83.7017C306.857 84.5104 306.719 85.2114 306.444 85.8047C306.169 86.3946 305.788 86.852 305.3 87.1768C304.813 87.4983 304.251 87.6591 303.615 87.6591C303.125 87.6591 302.732 87.5779 302.437 87.4155C302.142 87.2498 301.915 87.0625 301.756 86.8537C301.597 86.6416 301.474 86.4659 301.388 86.3267H301.249V87.5H300.115ZM301.269 83.6818C301.269 84.2585 301.353 84.7673 301.522 85.2081C301.691 85.6456 301.938 85.9886 302.263 86.2372C302.588 86.4825 302.985 86.6051 303.456 86.6051C303.947 86.6051 304.356 86.4759 304.684 86.2173C305.015 85.9555 305.264 85.6042 305.43 85.1634C305.599 84.7192 305.683 84.2254 305.683 83.6818C305.683 83.1449 305.6 82.661 305.435 82.2301C305.272 81.7959 305.025 81.4529 304.694 81.201C304.366 80.9458 303.953 80.8182 303.456 80.8182C302.979 80.8182 302.578 80.9392 302.253 81.1811C301.928 81.4197 301.683 81.7545 301.517 82.1854C301.351 82.6129 301.269 83.1117 301.269 83.6818ZM311.853 87.6591C311.117 87.6591 310.483 87.4967 309.949 87.1719C309.419 86.8438 309.009 86.3864 308.721 85.7997C308.436 85.2098 308.293 84.5237 308.293 83.7415C308.293 82.9593 308.436 82.2699 308.721 81.6733C309.009 81.0734 309.41 80.6061 309.924 80.2713C310.441 79.9332 311.044 79.7642 311.734 79.7642C312.131 79.7642 312.524 79.8305 312.912 79.9631C313.3 80.0956 313.653 80.3111 313.971 80.6094C314.289 80.9044 314.543 81.2955 314.732 81.7827C314.921 82.2699 315.015 82.8698 315.015 83.5824V84.0795H309.129V83.0653H313.822C313.822 82.6345 313.736 82.25 313.563 81.9119C313.394 81.5739 313.152 81.3071 312.837 81.1115C312.526 80.916 312.158 80.8182 311.734 80.8182C311.266 80.8182 310.862 80.9342 310.521 81.1662C310.183 81.3949 309.922 81.6932 309.74 82.0611C309.558 82.429 309.467 82.8234 309.467 83.2443V83.9205C309.467 84.4972 309.566 84.986 309.765 85.3871C309.967 85.7848 310.247 86.0881 310.605 86.2969C310.963 86.5024 311.379 86.6051 311.853 86.6051C312.161 86.6051 312.44 86.562 312.688 86.4759C312.94 86.3864 313.157 86.2538 313.34 86.0781C313.522 85.8991 313.663 85.6771 313.762 85.4119L314.896 85.7301C314.776 86.1146 314.576 86.4527 314.294 86.7443C314.012 87.0327 313.664 87.258 313.25 87.4205C312.836 87.5795 312.37 87.6591 311.853 87.6591ZM317.973 77.3182V87.5H316.8V77.3182H317.973Z" fill="#262C34"/>
<path d="M395.518 87.5V77.3182H396.751V86.4062H401.484V87.5H395.518ZM405.482 87.679C404.998 87.679 404.558 87.5878 404.164 87.4055C403.77 87.2199 403.456 86.9531 403.224 86.6051C402.992 86.2538 402.876 85.8295 402.876 85.3324C402.876 84.8949 402.963 84.5402 403.135 84.2685C403.307 83.9934 403.538 83.7779 403.826 83.6222C404.114 83.4664 404.432 83.3504 404.781 83.2741C405.132 83.1946 405.485 83.1316 405.839 83.0852C406.303 83.0256 406.68 82.9808 406.968 82.951C407.26 82.9179 407.472 82.8632 407.604 82.7869C407.74 82.7107 407.808 82.5781 407.808 82.3892V82.3494C407.808 81.8589 407.674 81.4777 407.406 81.206C407.14 80.9342 406.738 80.7983 406.197 80.7983C405.637 80.7983 405.198 80.9209 404.88 81.1662C404.562 81.4115 404.338 81.6733 404.209 81.9517L403.095 81.554C403.294 81.09 403.559 80.7287 403.891 80.4702C404.225 80.2083 404.59 80.026 404.984 79.9233C405.382 79.8172 405.773 79.7642 406.158 79.7642C406.403 79.7642 406.685 79.794 407.003 79.8537C407.324 79.91 407.634 80.0277 407.932 80.2067C408.234 80.3857 408.484 80.6558 408.683 81.017C408.882 81.3783 408.982 81.8622 408.982 82.4688V87.5H407.808V86.4659H407.749C407.669 86.6316 407.536 86.8089 407.351 86.9979C407.165 87.1868 406.918 87.3475 406.61 87.4801C406.302 87.6127 405.926 87.679 405.482 87.679ZM405.66 86.625C406.124 86.625 406.516 86.5339 406.834 86.3516C407.155 86.1693 407.397 85.9339 407.56 85.6456C407.725 85.3572 407.808 85.054 407.808 84.7358V83.6619C407.758 83.7216 407.649 83.7763 407.48 83.826C407.314 83.8724 407.122 83.9138 406.903 83.9503C406.688 83.9834 406.477 84.0133 406.272 84.0398C406.07 84.063 405.906 84.0829 405.78 84.0994C405.475 84.1392 405.19 84.2038 404.925 84.2933C404.663 84.3795 404.451 84.5104 404.288 84.6861C404.129 84.8584 404.05 85.0937 404.05 85.392C404.05 85.7997 404.2 86.108 404.502 86.3168C404.807 86.5223 405.193 86.625 405.66 86.625ZM411.282 87.5V77.3182H412.455V81.0767H412.555C412.641 80.9441 412.76 80.7751 412.913 80.5696C413.069 80.3608 413.291 80.1752 413.579 80.0128C413.871 79.8471 414.265 79.7642 414.762 79.7642C415.405 79.7642 415.972 79.925 416.463 80.2464C416.953 80.5679 417.336 81.0237 417.611 81.6136C417.886 82.2036 418.024 82.8996 418.024 83.7017C418.024 84.5104 417.886 85.2114 417.611 85.8047C417.336 86.3946 416.955 86.852 416.467 87.1768C415.98 87.4983 415.418 87.6591 414.782 87.6591C414.292 87.6591 413.899 87.5779 413.604 87.4155C413.309 87.2498 413.082 87.0625 412.923 86.8537C412.764 86.6416 412.641 86.4659 412.555 86.3267H412.416V87.5H411.282ZM412.436 83.6818C412.436 84.2585 412.52 84.7673 412.689 85.2081C412.858 85.6456 413.105 85.9886 413.43 86.2372C413.755 86.4825 414.152 86.6051 414.623 86.6051C415.114 86.6051 415.523 86.4759 415.851 86.2173C416.182 85.9555 416.431 85.6042 416.597 85.1634C416.766 84.7192 416.85 84.2254 416.85 83.6818C416.85 83.1449 416.767 82.661 416.602 82.2301C416.439 81.7959 416.192 81.4529 415.861 81.201C415.533 80.9458 415.12 80.8182 414.623 80.8182C414.146 80.8182 413.745 80.9392 413.42 81.1811C413.095 81.4197 412.85 81.7545 412.684 82.1854C412.518 82.6129 412.436 83.1117 412.436 83.6818ZM423.02 87.6591C422.284 87.6591 421.65 87.4967 421.116 87.1719C420.586 86.8438 420.176 86.3864 419.888 85.7997C419.603 85.2098 419.46 84.5237 419.46 83.7415C419.46 82.9593 419.603 82.2699 419.888 81.6733C420.176 81.0734 420.577 80.6061 421.091 80.2713C421.608 79.9332 422.211 79.7642 422.901 79.7642C423.298 79.7642 423.691 79.8305 424.079 79.9631C424.467 80.0956 424.82 80.3111 425.138 80.6094C425.456 80.9044 425.71 81.2955 425.899 81.7827C426.088 82.2699 426.182 82.8698 426.182 83.5824V84.0795H420.296V83.0653H424.989C424.989 82.6345 424.903 82.25 424.73 81.9119C424.561 81.5739 424.319 81.3071 424.004 81.1115C423.693 80.916 423.325 80.8182 422.901 80.8182C422.433 80.8182 422.029 80.9342 421.688 81.1662C421.35 81.3949 421.089 81.6932 420.907 82.0611C420.725 82.429 420.634 82.8234 420.634 83.2443V83.9205C420.634 84.4972 420.733 84.986 420.932 85.3871C421.134 85.7848 421.414 86.0881 421.772 86.2969C422.13 86.5024 422.546 86.6051 423.02 86.6051C423.328 86.6051 423.607 86.562 423.855 86.4759C424.107 86.3864 424.324 86.2538 424.507 86.0781C424.689 85.8991 424.83 85.6771 424.929 85.4119L426.063 85.7301C425.943 86.1146 425.743 86.4527 425.461 86.7443C425.179 87.0327 424.831 87.258 424.417 87.4205C424.003 87.5795 423.537 87.6591 423.02 87.6591ZM429.14 77.3182V87.5H427.967V77.3182H429.14Z" fill="#262C34"/>
<path d="M506.684 87.5V77.3182H507.917V86.4062H512.65V87.5H506.684ZM516.648 87.679C516.164 87.679 515.724 87.5878 515.33 87.4055C514.936 87.2199 514.622 86.9531 514.39 86.6051C514.158 86.2538 514.042 85.8295 514.042 85.3324C514.042 84.8949 514.129 84.5402 514.301 84.2685C514.473 83.9934 514.704 83.7779 514.992 83.6222C515.28 83.4664 515.599 83.3504 515.947 83.2741C516.298 83.1946 516.651 83.1316 517.005 83.0852C517.469 83.0256 517.846 82.9808 518.134 82.951C518.426 82.9179 518.638 82.8632 518.77 82.7869C518.906 82.7107 518.974 82.5781 518.974 82.3892V82.3494C518.974 81.8589 518.84 81.4777 518.572 81.206C518.306 80.9342 517.904 80.7983 517.363 80.7983C516.803 80.7983 516.364 80.9209 516.046 81.1662C515.728 81.4115 515.504 81.6733 515.375 81.9517L514.261 81.554C514.46 81.09 514.725 80.7287 515.057 80.4702C515.391 80.2083 515.756 80.026 516.15 79.9233C516.548 79.8172 516.939 79.7642 517.324 79.7642C517.569 79.7642 517.851 79.794 518.169 79.8537C518.49 79.91 518.8 80.0277 519.099 80.2067C519.4 80.3857 519.65 80.6558 519.849 81.017C520.048 81.3783 520.148 81.8622 520.148 82.4688V87.5H518.974V86.4659H518.915C518.835 86.6316 518.702 86.8089 518.517 86.9979C518.331 87.1868 518.084 87.3475 517.776 87.4801C517.468 87.6127 517.092 87.679 516.648 87.679ZM516.826 86.625C517.291 86.625 517.682 86.5339 518 86.3516C518.321 86.1693 518.563 85.9339 518.726 85.6456C518.891 85.3572 518.974 85.054 518.974 84.7358V83.6619C518.925 83.7216 518.815 83.7763 518.646 83.826C518.48 83.8724 518.288 83.9138 518.069 83.9503C517.854 83.9834 517.643 84.0133 517.438 84.0398C517.236 84.063 517.072 84.0829 516.946 84.0994C516.641 84.1392 516.356 84.2038 516.091 84.2933C515.829 84.3795 515.617 84.5104 515.454 84.6861C515.295 84.8584 515.216 85.0937 515.216 85.392C515.216 85.7997 515.367 86.108 515.668 86.3168C515.973 86.5223 516.359 86.625 516.826 86.625ZM522.448 87.5V77.3182H523.621V81.0767H523.721C523.807 80.9441 523.926 80.7751 524.079 80.5696C524.235 80.3608 524.457 80.1752 524.745 80.0128C525.037 79.8471 525.431 79.7642 525.928 79.7642C526.571 79.7642 527.138 79.925 527.629 80.2464C528.119 80.5679 528.502 81.0237 528.777 81.6136C529.052 82.2036 529.19 82.8996 529.19 83.7017C529.19 84.5104 529.052 85.2114 528.777 85.8047C528.502 86.3946 528.121 86.852 527.633 87.1768C527.146 87.4983 526.584 87.6591 525.948 87.6591C525.458 87.6591 525.065 87.5779 524.77 87.4155C524.475 87.2498 524.248 87.0625 524.089 86.8537C523.93 86.6416 523.807 86.4659 523.721 86.3267H523.582V87.5H522.448ZM523.602 83.6818C523.602 84.2585 523.686 84.7673 523.855 85.2081C524.024 85.6456 524.271 85.9886 524.596 86.2372C524.921 86.4825 525.318 86.6051 525.789 86.6051C526.28 86.6051 526.689 86.4759 527.017 86.2173C527.348 85.9555 527.597 85.6042 527.763 85.1634C527.932 84.7192 528.016 84.2254 528.016 83.6818C528.016 83.1449 527.933 82.661 527.768 82.2301C527.605 81.7959 527.358 81.4529 527.027 81.201C526.699 80.9458 526.286 80.8182 525.789 80.8182C525.312 80.8182 524.911 80.9392 524.586 81.1811C524.261 81.4197 524.016 81.7545 523.85 82.1854C523.684 82.6129 523.602 83.1117 523.602 83.6818ZM534.186 87.6591C533.45 87.6591 532.816 87.4967 532.282 87.1719C531.752 86.8438 531.342 86.3864 531.054 85.7997C530.769 85.2098 530.626 84.5237 530.626 83.7415C530.626 82.9593 530.769 82.2699 531.054 81.6733C531.342 81.0734 531.743 80.6061 532.257 80.2713C532.774 79.9332 533.377 79.7642 534.067 79.7642C534.464 79.7642 534.857 79.8305 535.245 79.9631C535.633 80.0956 535.986 80.3111 536.304 80.6094C536.622 80.9044 536.876 81.2955 537.065 81.7827C537.254 82.2699 537.348 82.8698 537.348 83.5824V84.0795H531.462V83.0653H536.155C536.155 82.6345 536.069 82.25 535.896 81.9119C535.727 81.5739 535.485 81.3071 535.17 81.1115C534.859 80.916 534.491 80.8182 534.067 80.8182C533.599 80.8182 533.195 80.9342 532.854 81.1662C532.516 81.3949 532.255 81.6932 532.073 82.0611C531.891 82.429 531.8 82.8234 531.8 83.2443V83.9205C531.8 84.4972 531.899 84.986 532.098 85.3871C532.3 85.7848 532.58 86.0881 532.938 86.2969C533.296 86.5024 533.712 86.6051 534.186 86.6051C534.494 86.6051 534.773 86.562 535.021 86.4759C535.273 86.3864 535.49 86.2538 535.673 86.0781C535.855 85.8991 535.996 85.6771 536.095 85.4119L537.229 85.7301C537.109 86.1146 536.909 86.4527 536.627 86.7443C536.345 87.0327 535.997 87.258 535.583 87.4205C535.169 87.5795 534.703 87.6591 534.186 87.6591ZM540.306 77.3182V87.5H539.133V77.3182H540.306Z" fill="#262C34"/>
<path d="M617.851 87.5V77.3182H619.084V86.4062H623.817V87.5H617.851ZM627.815 87.679C627.331 87.679 626.891 87.5878 626.497 87.4055C626.103 87.2199 625.789 86.9531 625.557 86.6051C625.325 86.2538 625.209 85.8295 625.209 85.3324C625.209 84.8949 625.296 84.5402 625.468 84.2685C625.64 83.9934 625.871 83.7779 626.159 83.6222C626.447 83.4664 626.766 83.3504 627.114 83.2741C627.465 83.1946 627.818 83.1316 628.172 83.0852C628.636 83.0256 629.013 82.9808 629.301 82.951C629.593 82.9179 629.805 82.8632 629.937 82.7869C630.073 82.7107 630.141 82.5781 630.141 82.3892V82.3494C630.141 81.8589 630.007 81.4777 629.739 81.206C629.473 80.9342 629.071 80.7983 628.53 80.7983C627.97 80.7983 627.531 80.9209 627.213 81.1662C626.895 81.4115 626.671 81.6733 626.542 81.9517L625.428 81.554C625.627 81.09 625.892 80.7287 626.224 80.4702C626.558 80.2083 626.923 80.026 627.317 79.9233C627.715 79.8172 628.106 79.7642 628.491 79.7642C628.736 79.7642 629.018 79.794 629.336 79.8537C629.657 79.91 629.967 80.0277 630.266 80.2067C630.567 80.3857 630.817 80.6558 631.016 81.017C631.215 81.3783 631.315 81.8622 631.315 82.4688V87.5H630.141V86.4659H630.082C630.002 86.6316 629.869 86.8089 629.684 86.9979C629.498 87.1868 629.251 87.3475 628.943 87.4801C628.635 87.6127 628.259 87.679 627.815 87.679ZM627.993 86.625C628.458 86.625 628.849 86.5339 629.167 86.3516C629.488 86.1693 629.73 85.9339 629.893 85.6456C630.058 85.3572 630.141 85.054 630.141 84.7358V83.6619C630.091 83.7216 629.982 83.7763 629.813 83.826C629.647 83.8724 629.455 83.9138 629.236 83.9503C629.021 83.9834 628.81 84.0133 628.605 84.0398C628.403 84.063 628.239 84.0829 628.113 84.0994C627.808 84.1392 627.523 84.2038 627.258 84.2933C626.996 84.3795 626.784 84.5104 626.621 84.6861C626.462 84.8584 626.383 85.0937 626.383 85.392C626.383 85.7997 626.533 86.108 626.835 86.3168C627.14 86.5223 627.526 86.625 627.993 86.625ZM633.615 87.5V77.3182H634.788V81.0767H634.888C634.974 80.9441 635.093 80.7751 635.246 80.5696C635.402 80.3608 635.624 80.1752 635.912 80.0128C636.204 79.8471 636.598 79.7642 637.095 79.7642C637.738 79.7642 638.305 79.925 638.796 80.2464C639.286 80.5679 639.669 81.0237 639.944 81.6136C640.219 82.2036 640.357 82.8996 640.357 83.7017C640.357 84.5104 640.219 85.2114 639.944 85.8047C639.669 86.3946 639.288 86.852 638.8 87.1768C638.313 87.4983 637.751 87.6591 637.115 87.6591C636.625 87.6591 636.232 87.5779 635.937 87.4155C635.642 87.2498 635.415 87.0625 635.256 86.8537C635.097 86.6416 634.974 86.4659 634.888 86.3267H634.749V87.5H633.615ZM634.769 83.6818C634.769 84.2585 634.853 84.7673 635.022 85.2081C635.191 85.6456 635.438 85.9886 635.763 86.2372C636.088 86.4825 636.485 86.6051 636.956 86.6051C637.447 86.6051 637.856 86.4759 638.184 86.2173C638.515 85.9555 638.764 85.6042 638.93 85.1634C639.099 84.7192 639.183 84.2254 639.183 83.6818C639.183 83.1449 639.1 82.661 638.935 82.2301C638.772 81.7959 638.525 81.4529 638.194 81.201C637.866 80.9458 637.453 80.8182 636.956 80.8182C636.479 80.8182 636.078 80.9392 635.753 81.1811C635.428 81.4197 635.183 81.7545 635.017 82.1854C634.851 82.6129 634.769 83.1117 634.769 83.6818ZM645.353 87.6591C644.617 87.6591 643.983 87.4967 643.449 87.1719C642.919 86.8438 642.509 86.3864 642.221 85.7997C641.936 85.2098 641.793 84.5237 641.793 83.7415C641.793 82.9593 641.936 82.2699 642.221 81.6733C642.509 81.0734 642.91 80.6061 643.424 80.2713C643.941 79.9332 644.544 79.7642 645.234 79.7642C645.631 79.7642 646.024 79.8305 646.412 79.9631C646.8 80.0956 647.153 80.3111 647.471 80.6094C647.789 80.9044 648.043 81.2955 648.232 81.7827C648.421 82.2699 648.515 82.8698 648.515 83.5824V84.0795H642.629V83.0653H647.322C647.322 82.6345 647.236 82.25 647.063 81.9119C646.894 81.5739 646.652 81.3071 646.337 81.1115C646.026 80.916 645.658 80.8182 645.234 80.8182C644.766 80.8182 644.362 80.9342 644.021 81.1662C643.683 81.3949 643.422 81.6932 643.24 82.0611C643.058 82.429 642.967 82.8234 642.967 83.2443V83.9205C642.967 84.4972 643.066 84.986 643.265 85.3871C643.467 85.7848 643.747 86.0881 644.105 86.2969C644.463 86.5024 644.879 86.6051 645.353 86.6051C645.661 86.6051 645.94 86.562 646.188 86.4759C646.44 86.3864 646.657 86.2538 646.84 86.0781C647.022 85.8991 647.163 85.6771 647.262 85.4119L648.396 85.7301C648.276 86.1146 648.076 86.4527 647.794 86.7443C647.512 87.0327 647.164 87.258 646.75 87.4205C646.336 87.5795 645.87 87.6591 645.353 87.6591ZM651.473 77.3182V87.5H650.3V77.3182H651.473Z" fill="#262C34"/>
<path d="M729.018 87.5V77.3182H730.251V86.4062H734.984V87.5H729.018ZM738.982 87.679C738.498 87.679 738.058 87.5878 737.664 87.4055C737.27 87.2199 736.956 86.9531 736.724 86.6051C736.492 86.2538 736.376 85.8295 736.376 85.3324C736.376 84.8949 736.463 84.5402 736.635 84.2685C736.807 83.9934 737.038 83.7779 737.326 83.6222C737.614 83.4664 737.933 83.3504 738.281 83.2741C738.632 83.1946 738.985 83.1316 739.339 83.0852C739.803 83.0256 740.18 82.9808 740.468 82.951C740.76 82.9179 740.972 82.8632 741.104 82.7869C741.24 82.7107 741.308 82.5781 741.308 82.3892V82.3494C741.308 81.8589 741.174 81.4777 740.906 81.206C740.64 80.9342 740.238 80.7983 739.697 80.7983C739.137 80.7983 738.698 80.9209 738.38 81.1662C738.062 81.4115 737.838 81.6733 737.709 81.9517L736.595 81.554C736.794 81.09 737.059 80.7287 737.391 80.4702C737.725 80.2083 738.09 80.026 738.484 79.9233C738.882 79.8172 739.273 79.7642 739.658 79.7642C739.903 79.7642 740.185 79.794 740.503 79.8537C740.824 79.91 741.134 80.0277 741.433 80.2067C741.734 80.3857 741.984 80.6558 742.183 81.017C742.382 81.3783 742.482 81.8622 742.482 82.4688V87.5H741.308V86.4659H741.249C741.169 86.6316 741.036 86.8089 740.851 86.9979C740.665 87.1868 740.418 87.3475 740.11 87.4801C739.802 87.6127 739.426 87.679 738.982 87.679ZM739.16 86.625C739.624 86.625 740.016 86.5339 740.334 86.3516C740.655 86.1693 740.897 85.9339 741.06 85.6456C741.225 85.3572 741.308 85.054 741.308 84.7358V83.6619C741.258 83.7216 741.149 83.7763 740.98 83.826C740.814 83.8724 740.622 83.9138 740.403 83.9503C740.188 83.9834 739.977 84.0133 739.772 84.0398C739.57 84.063 739.406 84.0829 739.28 84.0994C738.975 84.1392 738.69 84.2038 738.425 84.2933C738.163 84.3795 737.951 84.5104 737.788 84.6861C737.629 84.8584 737.55 85.0937 737.55 85.392C737.55 85.7997 737.7 86.108 738.002 86.3168C738.307 86.5223 738.693 86.625 739.16 86.625ZM744.782 87.5V77.3182H745.955V81.0767H746.055C746.141 80.9441 746.26 80.7751 746.413 80.5696C746.569 80.3608 746.791 80.1752 747.079 80.0128C747.371 79.8471 747.765 79.7642 748.262 79.7642C748.905 79.7642 749.472 79.925 749.963 80.2464C750.453 80.5679 750.836 81.0237 751.111 81.6136C751.386 82.2036 751.524 82.8996 751.524 83.7017C751.524 84.5104 751.386 85.2114 751.111 85.8047C750.836 86.3946 750.455 86.852 749.967 87.1768C749.48 87.4983 748.918 87.6591 748.282 87.6591C747.792 87.6591 747.399 87.5779 747.104 87.4155C746.809 87.2498 746.582 87.0625 746.423 86.8537C746.264 86.6416 746.141 86.4659 746.055 86.3267H745.916V87.5H744.782ZM745.936 83.6818C745.936 84.2585 746.02 84.7673 746.189 85.2081C746.358 85.6456 746.605 85.9886 746.93 86.2372C747.255 86.4825 747.652 86.6051 748.123 86.6051C748.614 86.6051 749.023 86.4759 749.351 86.2173C749.682 85.9555 749.931 85.6042 750.097 85.1634C750.266 84.7192 750.35 84.2254 750.35 83.6818C750.35 83.1449 750.267 82.661 750.102 82.2301C749.939 81.7959 749.692 81.4529 749.361 81.201C749.033 80.9458 748.62 80.8182 748.123 80.8182C747.646 80.8182 747.245 80.9392 746.92 81.1811C746.595 81.4197 746.35 81.7545 746.184 82.1854C746.018 82.6129 745.936 83.1117 745.936 83.6818ZM756.52 87.6591C755.784 87.6591 755.15 87.4967 754.616 87.1719C754.086 86.8438 753.676 86.3864 753.388 85.7997C753.103 85.2098 752.96 84.5237 752.96 83.7415C752.96 82.9593 753.103 82.2699 753.388 81.6733C753.676 81.0734 754.077 80.6061 754.591 80.2713C755.108 79.9332 755.711 79.7642 756.401 79.7642C756.798 79.7642 757.191 79.8305 757.579 79.9631C757.967 80.0956 758.32 80.3111 758.638 80.6094C758.956 80.9044 759.21 81.2955 759.399 81.7827C759.588 82.2699 759.682 82.8698 759.682 83.5824V84.0795H753.796V83.0653H758.489C758.489 82.6345 758.403 82.25 758.23 81.9119C758.061 81.5739 757.819 81.3071 757.504 81.1115C757.193 80.916 756.825 80.8182 756.401 80.8182C755.933 80.8182 755.529 80.9342 755.188 81.1662C754.85 81.3949 754.589 81.6932 754.407 82.0611C754.225 82.429 754.134 82.8234 754.134 83.2443V83.9205C754.134 84.4972 754.233 84.986 754.432 85.3871C754.634 85.7848 754.914 86.0881 755.272 86.2969C755.63 86.5024 756.046 86.6051 756.52 86.6051C756.828 86.6051 757.107 86.562 757.355 86.4759C757.607 86.3864 757.824 86.2538 758.007 86.0781C758.189 85.8991 758.33 85.6771 758.429 85.4119L759.563 85.7301C759.443 86.1146 759.243 86.4527 758.961 86.7443C758.679 87.0327 758.331 87.258 757.917 87.4205C757.503 87.5795 757.037 87.6591 756.52 87.6591ZM762.64 77.3182V87.5H761.467V77.3182H762.64Z" fill="#262C34"/>
<path d="M840.184 87.5V77.3182H841.417V86.4062H846.15V87.5H840.184ZM850.148 87.679C849.664 87.679 849.224 87.5878 848.83 87.4055C848.436 87.2199 848.122 86.9531 847.89 86.6051C847.658 86.2538 847.542 85.8295 847.542 85.3324C847.542 84.8949 847.629 84.5402 847.801 84.2685C847.973 83.9934 848.204 83.7779 848.492 83.6222C848.78 83.4664 849.099 83.3504 849.447 83.2741C849.798 83.1946 850.151 83.1316 850.505 83.0852C850.969 83.0256 851.346 82.9808 851.634 82.951C851.926 82.9179 852.138 82.8632 852.27 82.7869C852.406 82.7107 852.474 82.5781 852.474 82.3892V82.3494C852.474 81.8589 852.34 81.4777 852.072 81.206C851.806 80.9342 851.404 80.7983 850.863 80.7983C850.303 80.7983 849.864 80.9209 849.546 81.1662C849.228 81.4115 849.004 81.6733 848.875 81.9517L847.761 81.554C847.96 81.09 848.225 80.7287 848.557 80.4702C848.891 80.2083 849.256 80.026 849.65 79.9233C850.048 79.8172 850.439 79.7642 850.824 79.7642C851.069 79.7642 851.351 79.794 851.669 79.8537C851.99 79.91 852.3 80.0277 852.599 80.2067C852.9 80.3857 853.15 80.6558 853.349 81.017C853.548 81.3783 853.648 81.8622 853.648 82.4688V87.5H852.474V86.4659H852.415C852.335 86.6316 852.202 86.8089 852.017 86.9979C851.831 87.1868 851.584 87.3475 851.276 87.4801C850.968 87.6127 850.592 87.679 850.148 87.679ZM850.326 86.625C850.791 86.625 851.182 86.5339 851.5 86.3516C851.821 86.1693 852.063 85.9339 852.226 85.6456C852.391 85.3572 852.474 85.054 852.474 84.7358V83.6619C852.425 83.7216 852.315 83.7763 852.146 83.826C851.98 83.8724 851.788 83.9138 851.569 83.9503C851.354 83.9834 851.143 84.0133 850.938 84.0398C850.736 84.063 850.572 84.0829 850.446 84.0994C850.141 84.1392 849.856 84.2038 849.591 84.2933C849.329 84.3795 849.117 84.5104 848.954 84.6861C848.795 84.8584 848.716 85.0937 848.716 85.392C848.716 85.7997 848.867 86.108 849.168 86.3168C849.473 86.5223 849.859 86.625 850.326 86.625ZM855.948 87.5V77.3182H857.121V81.0767H857.221C857.307 80.9441 857.426 80.7751 857.579 80.5696C857.735 80.3608 857.957 80.1752 858.245 80.0128C858.537 79.8471 858.931 79.7642 859.428 79.7642C860.071 79.7642 860.638 79.925 861.129 80.2464C861.619 80.5679 862.002 81.0237 862.277 81.6136C862.552 82.2036 862.69 82.8996 862.69 83.7017C862.69 84.5104 862.552 85.2114 862.277 85.8047C862.002 86.3946 861.621 86.852 861.133 87.1768C860.646 87.4983 860.084 87.6591 859.448 87.6591C858.958 87.6591 858.565 87.5779 858.27 87.4155C857.975 87.2498 857.748 87.0625 857.589 86.8537C857.43 86.6416 857.307 86.4659 857.221 86.3267H857.082V87.5H855.948ZM857.102 83.6818C857.102 84.2585 857.186 84.7673 857.355 85.2081C857.524 85.6456 857.771 85.9886 858.096 86.2372C858.421 86.4825 858.818 86.6051 859.289 86.6051C859.78 86.6051 860.189 86.4759 860.517 86.2173C860.848 85.9555 861.097 85.6042 861.263 85.1634C861.432 84.7192 861.516 84.2254 861.516 83.6818C861.516 83.1449 861.433 82.661 861.268 82.2301C861.105 81.7959 860.858 81.4529 860.527 81.201C860.199 80.9458 859.786 80.8182 859.289 80.8182C858.812 80.8182 858.411 80.9392 858.086 81.1811C857.761 81.4197 857.516 81.7545 857.35 82.1854C857.184 82.6129 857.102 83.1117 857.102 83.6818ZM867.686 87.6591C866.95 87.6591 866.316 87.4967 865.782 87.1719C865.252 86.8438 864.842 86.3864 864.554 85.7997C864.269 85.2098 864.126 84.5237 864.126 83.7415C864.126 82.9593 864.269 82.2699 864.554 81.6733C864.842 81.0734 865.243 80.6061 865.757 80.2713C866.274 79.9332 866.877 79.7642 867.567 79.7642C867.964 79.7642 868.357 79.8305 868.745 79.9631C869.133 80.0956 869.486 80.3111 869.804 80.6094C870.122 80.9044 870.376 81.2955 870.565 81.7827C870.754 82.2699 870.848 82.8698 870.848 83.5824V84.0795H864.962V83.0653H869.655C869.655 82.6345 869.569 82.25 869.396 81.9119C869.227 81.5739 868.985 81.3071 868.67 81.1115C868.359 80.916 867.991 80.8182 867.567 80.8182C867.099 80.8182 866.695 80.9342 866.354 81.1662C866.016 81.3949 865.755 81.6932 865.573 82.0611C865.391 82.429 865.3 82.8234 865.3 83.2443V83.9205C865.3 84.4972 865.399 84.986 865.598 85.3871C865.8 85.7848 866.08 86.0881 866.438 86.2969C866.796 86.5024 867.212 86.6051 867.686 86.6051C867.994 86.6051 868.273 86.562 868.521 86.4759C868.773 86.3864 868.99 86.2538 869.173 86.0781C869.355 85.8991 869.496 85.6771 869.595 85.4119L870.729 85.7301C870.609 86.1146 870.409 86.4527 870.127 86.7443C869.845 87.0327 869.497 87.258 869.083 87.4205C868.669 87.5795 868.203 87.6591 867.686 87.6591ZM873.806 77.3182V87.5H872.633V77.3182H873.806Z" fill="#262C34"/>
<path d="M0 102V102.25H910V102V101.75H0V102ZM910 136V135.75H0V136V136.25H910V136Z" fill="#DFE3E5"/>
<path d="M18.233 124.5V114.318H19.4659V123.406H24.1989V124.5H18.233ZM28.196 124.679C27.7121 124.679 27.273 124.588 26.8786 124.406C26.4841 124.22 26.1709 123.953 25.9389 123.605C25.7069 123.254 25.5909 122.83 25.5909 122.332C25.5909 121.895 25.6771 121.54 25.8494 121.268C26.0218 120.993 26.2521 120.778 26.5405 120.622C26.8288 120.466 27.147 120.35 27.495 120.274C27.8464 120.195 28.1993 120.132 28.554 120.085C29.018 120.026 29.3942 119.981 29.6825 119.951C29.9742 119.918 30.1863 119.863 30.3189 119.787C30.4548 119.711 30.5227 119.578 30.5227 119.389V119.349C30.5227 118.859 30.3885 118.478 30.12 118.206C29.8549 117.934 29.4522 117.798 28.9119 117.798C28.3518 117.798 27.9126 117.921 27.5945 118.166C27.2763 118.411 27.0526 118.673 26.9233 118.952L25.8097 118.554C26.0085 118.09 26.2737 117.729 26.6051 117.47C26.9399 117.208 27.3045 117.026 27.6989 116.923C28.0966 116.817 28.4877 116.764 28.8722 116.764C29.1174 116.764 29.3991 116.794 29.7173 116.854C30.0388 116.91 30.3487 117.028 30.647 117.207C30.9486 117.386 31.1989 117.656 31.3977 118.017C31.5966 118.378 31.696 118.862 31.696 119.469V124.5H30.5227V123.466H30.4631C30.3835 123.632 30.2509 123.809 30.0653 123.998C29.8797 124.187 29.6328 124.348 29.3246 124.48C29.0163 124.613 28.6402 124.679 28.196 124.679ZM28.375 123.625C28.839 123.625 29.2301 123.534 29.5483 123.352C29.8698 123.169 30.1117 122.934 30.2741 122.646C30.4399 122.357 30.5227 122.054 30.5227 121.736V120.662C30.473 120.722 30.3636 120.776 30.1946 120.826C30.0289 120.872 29.8366 120.914 29.6179 120.95C29.4025 120.983 29.192 121.013 28.9865 121.04C28.7843 121.063 28.6203 121.083 28.4943 121.099C28.1894 121.139 27.9044 121.204 27.6392 121.293C27.3774 121.379 27.1652 121.51 27.0028 121.686C26.8438 121.858 26.7642 122.094 26.7642 122.392C26.7642 122.8 26.915 123.108 27.2166 123.317C27.5215 123.522 27.9077 123.625 28.375 123.625ZM33.9966 124.5V114.318H35.1699V118.077H35.2694C35.3555 117.944 35.4748 117.775 35.6273 117.57C35.7831 117.361 36.0051 117.175 36.2935 117.013C36.5852 116.847 36.9796 116.764 37.4767 116.764C38.1197 116.764 38.6865 116.925 39.177 117.246C39.6676 117.568 40.0504 118.024 40.3255 118.614C40.6006 119.204 40.7381 119.9 40.7381 120.702C40.7381 121.51 40.6006 122.211 40.3255 122.805C40.0504 123.395 39.6692 123.852 39.182 124.177C38.6948 124.498 38.133 124.659 37.4966 124.659C37.0061 124.659 36.6133 124.578 36.3184 124.415C36.0234 124.25 35.7963 124.062 35.6373 123.854C35.4782 123.642 35.3555 123.466 35.2694 123.327H35.1301V124.5H33.9966ZM35.15 120.682C35.15 121.259 35.2346 121.767 35.4036 122.208C35.5726 122.646 35.8195 122.989 36.1444 123.237C36.4692 123.482 36.8669 123.605 37.3375 123.605C37.8281 123.605 38.2374 123.476 38.5655 123.217C38.897 122.955 39.1455 122.604 39.3113 122.163C39.4803 121.719 39.5648 121.225 39.5648 120.682C39.5648 120.145 39.4819 119.661 39.3162 119.23C39.1538 118.796 38.9069 118.453 38.5755 118.201C38.2473 117.946 37.8347 117.818 37.3375 117.818C36.8603 117.818 36.4592 117.939 36.1344 118.181C35.8096 118.42 35.5643 118.754 35.3986 119.185C35.2329 119.613 35.15 120.112 35.15 120.682ZM45.7346 124.659C44.9988 124.659 44.3641 124.497 43.8304 124.172C43.3001 123.844 42.8908 123.386 42.6025 122.8C42.3174 122.21 42.1749 121.524 42.1749 120.741C42.1749 119.959 42.3174 119.27 42.6025 118.673C42.8908 118.073 43.2918 117.606 43.8056 117.271C44.3226 116.933 44.9258 116.764 45.6152 116.764C46.013 116.764 46.4057 116.83 46.7935 116.963C47.1813 117.096 47.5343 117.311 47.8525 117.609C48.1706 117.904 48.4242 118.295 48.6131 118.783C48.802 119.27 48.8965 119.87 48.8965 120.582V121.08H43.0101V120.065H47.7033C47.7033 119.634 47.6171 119.25 47.4448 118.912C47.2757 118.574 47.0338 118.307 46.7189 118.112C46.4074 117.916 46.0395 117.818 45.6152 117.818C45.1479 117.818 44.7435 117.934 44.4022 118.166C44.0641 118.395 43.8039 118.693 43.6216 119.061C43.4393 119.429 43.3482 119.823 43.3482 120.244V120.92C43.3482 121.497 43.4476 121.986 43.6465 122.387C43.8487 122.785 44.1287 123.088 44.4867 123.297C44.8446 123.502 45.2606 123.605 45.7346 123.605C46.0428 123.605 46.3212 123.562 46.5698 123.476C46.8217 123.386 47.0388 123.254 47.2211 123.078C47.4034 122.899 47.5442 122.677 47.6436 122.412L48.7772 122.73C48.6578 123.115 48.4573 123.453 48.1756 123.744C47.8939 124.033 47.5459 124.258 47.1316 124.42C46.7173 124.58 46.2516 124.659 45.7346 124.659ZM51.8546 114.318V124.5H50.6813V114.318H51.8546Z" fill="#262C34"/>
<rect x="249" y="104" width="106.833" height="30" rx="4" fill="#DADADA"/>
<rect x="359.833" y="104" width="106.833" height="30" rx="4" fill="#DADADA"/>
<rect x="470.667" y="104" width="106.833" height="30" rx="4" fill="#DADADA"/>
<rect x="581.5" y="104" width="106.833" height="30" rx="4" fill="#DADADA"/>
<rect x="692.333" y="104" width="106.833" height="30" rx="4" fill="#DADADA"/>
<rect x="803.167" y="104" width="106.833" height="30" rx="4" fill="#DADADA"/>
<path d="M0 136V136.25H910V136V135.75H0V136ZM910 170V169.75H0V170V170.25H910V170Z" fill="#DFE3E5"/>
<path d="M18.233 158.5V148.318H19.4659V157.406H24.1989V158.5H18.233ZM28.196 158.679C27.7121 158.679 27.273 158.588 26.8786 158.406C26.4841 158.22 26.1709 157.953 25.9389 157.605C25.7069 157.254 25.5909 156.83 25.5909 156.332C25.5909 155.895 25.6771 155.54 25.8494 155.268C26.0218 154.993 26.2521 154.778 26.5405 154.622C26.8288 154.466 27.147 154.35 27.495 154.274C27.8464 154.195 28.1993 154.132 28.554 154.085C29.018 154.026 29.3942 153.981 29.6825 153.951C29.9742 153.918 30.1863 153.863 30.3189 153.787C30.4548 153.711 30.5227 153.578 30.5227 153.389V153.349C30.5227 152.859 30.3885 152.478 30.12 152.206C29.8549 151.934 29.4522 151.798 28.9119 151.798C28.3518 151.798 27.9126 151.921 27.5945 152.166C27.2763 152.411 27.0526 152.673 26.9233 152.952L25.8097 152.554C26.0085 152.09 26.2737 151.729 26.6051 151.47C26.9399 151.208 27.3045 151.026 27.6989 150.923C28.0966 150.817 28.4877 150.764 28.8722 150.764C29.1174 150.764 29.3991 150.794 29.7173 150.854C30.0388 150.91 30.3487 151.028 30.647 151.207C30.9486 151.386 31.1989 151.656 31.3977 152.017C31.5966 152.378 31.696 152.862 31.696 153.469V158.5H30.5227V157.466H30.4631C30.3835 157.632 30.2509 157.809 30.0653 157.998C29.8797 158.187 29.6328 158.348 29.3246 158.48C29.0163 158.613 28.6402 158.679 28.196 158.679ZM28.375 157.625C28.839 157.625 29.2301 157.534 29.5483 157.352C29.8698 157.169 30.1117 156.934 30.2741 156.646C30.4399 156.357 30.5227 156.054 30.5227 155.736V154.662C30.473 154.722 30.3636 154.776 30.1946 154.826C30.0289 154.872 29.8366 154.914 29.6179 154.95C29.4025 154.983 29.192 155.013 28.9865 155.04C28.7843 155.063 28.6203 155.083 28.4943 155.099C28.1894 155.139 27.9044 155.204 27.6392 155.293C27.3774 155.379 27.1652 155.51 27.0028 155.686C26.8438 155.858 26.7642 156.094 26.7642 156.392C26.7642 156.8 26.915 157.108 27.2166 157.317C27.5215 157.522 27.9077 157.625 28.375 157.625ZM33.9966 158.5V148.318H35.1699V152.077H35.2694C35.3555 151.944 35.4748 151.775 35.6273 151.57C35.7831 151.361 36.0051 151.175 36.2935 151.013C36.5852 150.847 36.9796 150.764 37.4767 150.764C38.1197 150.764 38.6865 150.925 39.177 151.246C39.6676 151.568 40.0504 152.024 40.3255 152.614C40.6006 153.204 40.7381 153.9 40.7381 154.702C40.7381 155.51 40.6006 156.211 40.3255 156.805C40.0504 157.395 39.6692 157.852 39.182 158.177C38.6948 158.498 38.133 158.659 37.4966 158.659C37.0061 158.659 36.6133 158.578 36.3184 158.415C36.0234 158.25 35.7963 158.062 35.6373 157.854C35.4782 157.642 35.3555 157.466 35.2694 157.327H35.1301V158.5H33.9966ZM35.15 154.682C35.15 155.259 35.2346 155.767 35.4036 156.208C35.5726 156.646 35.8195 156.989 36.1444 157.237C36.4692 157.482 36.8669 157.605 37.3375 157.605C37.8281 157.605 38.2374 157.476 38.5655 157.217C38.897 156.955 39.1455 156.604 39.3113 156.163C39.4803 155.719 39.5648 155.225 39.5648 154.682C39.5648 154.145 39.4819 153.661 39.3162 153.23C39.1538 152.796 38.9069 152.453 38.5755 152.201C38.2473 151.946 37.8347 151.818 37.3375 151.818C36.8603 151.818 36.4592 151.939 36.1344 152.181C35.8096 152.42 35.5643 152.754 35.3986 153.185C35.2329 153.613 35.15 154.112 35.15 154.682ZM45.7346 158.659C44.9988 158.659 44.3641 158.497 43.8304 158.172C43.3001 157.844 42.8908 157.386 42.6025 156.8C42.3174 156.21 42.1749 155.524 42.1749 154.741C42.1749 153.959 42.3174 153.27 42.6025 152.673C42.8908 152.073 43.2918 151.606 43.8056 151.271C44.3226 150.933 44.9258 150.764 45.6152 150.764C46.013 150.764 46.4057 150.83 46.7935 150.963C47.1813 151.096 47.5343 151.311 47.8525 151.609C48.1706 151.904 48.4242 152.295 48.6131 152.783C48.802 153.27 48.8965 153.87 48.8965 154.582V155.08H43.0101V154.065H47.7033C47.7033 153.634 47.6171 153.25 47.4448 152.912C47.2757 152.574 47.0338 152.307 46.7189 152.112C46.4074 151.916 46.0395 151.818 45.6152 151.818C45.1479 151.818 44.7435 151.934 44.4022 152.166C44.0641 152.395 43.8039 152.693 43.6216 153.061C43.4393 153.429 43.3482 153.823 43.3482 154.244V154.92C43.3482 155.497 43.4476 155.986 43.6465 156.387C43.8487 156.785 44.1287 157.088 44.4867 157.297C44.8446 157.502 45.2606 157.605 45.7346 157.605C46.0428 157.605 46.3212 157.562 46.5698 157.476C46.8217 157.386 47.0388 157.254 47.2211 157.078C47.4034 156.899 47.5442 156.677 47.6436 156.412L48.7772 156.73C48.6578 157.115 48.4573 157.453 48.1756 157.744C47.8939 158.033 47.5459 158.258 47.1316 158.42C46.7173 158.58 46.2516 158.659 45.7346 158.659ZM51.8546 148.318V158.5H50.6813V148.318H51.8546Z" fill="#262C34"/>
<rect x="249" y="138" width="106.833" height="30" rx="4" fill="#DADADA"/>
<rect x="359.833" y="138" width="106.833" height="30" rx="4" fill="#DADADA"/>
<rect x="470.667" y="138" width="106.833" height="30" rx="4" fill="#DADADA"/>
<rect x="581.5" y="138" width="106.833" height="30" rx="4" fill="#DADADA"/>
<rect x="692.333" y="138" width="106.833" height="30" rx="4" fill="#DADADA"/>
<rect x="803.167" y="138" width="106.833" height="30" rx="4" fill="#DADADA"/>
<path d="M0 170V170.25H910V170V169.75H0V170ZM910 204V203.75H0V204V204.25H910V204Z" fill="#DFE3E5"/>
<path d="M18.233 192.5V182.318H19.4659V191.406H24.1989V192.5H18.233ZM28.196 192.679C27.7121 192.679 27.273 192.588 26.8786 192.406C26.4841 192.22 26.1709 191.953 25.9389 191.605C25.7069 191.254 25.5909 190.83 25.5909 190.332C25.5909 189.895 25.6771 189.54 25.8494 189.268C26.0218 188.993 26.2521 188.778 26.5405 188.622C26.8288 188.466 27.147 188.35 27.495 188.274C27.8464 188.195 28.1993 188.132 28.554 188.085C29.018 188.026 29.3942 187.981 29.6825 187.951C29.9742 187.918 30.1863 187.863 30.3189 187.787C30.4548 187.711 30.5227 187.578 30.5227 187.389V187.349C30.5227 186.859 30.3885 186.478 30.12 186.206C29.8549 185.934 29.4522 185.798 28.9119 185.798C28.3518 185.798 27.9126 185.921 27.5945 186.166C27.2763 186.411 27.0526 186.673 26.9233 186.952L25.8097 186.554C26.0085 186.09 26.2737 185.729 26.6051 185.47C26.9399 185.208 27.3045 185.026 27.6989 184.923C28.0966 184.817 28.4877 184.764 28.8722 184.764C29.1174 184.764 29.3991 184.794 29.7173 184.854C30.0388 184.91 30.3487 185.028 30.647 185.207C30.9486 185.386 31.1989 185.656 31.3977 186.017C31.5966 186.378 31.696 186.862 31.696 187.469V192.5H30.5227V191.466H30.4631C30.3835 191.632 30.2509 191.809 30.0653 191.998C29.8797 192.187 29.6328 192.348 29.3246 192.48C29.0163 192.613 28.6402 192.679 28.196 192.679ZM28.375 191.625C28.839 191.625 29.2301 191.534 29.5483 191.352C29.8698 191.169 30.1117 190.934 30.2741 190.646C30.4399 190.357 30.5227 190.054 30.5227 189.736V188.662C30.473 188.722 30.3636 188.776 30.1946 188.826C30.0289 188.872 29.8366 188.914 29.6179 188.95C29.4025 188.983 29.192 189.013 28.9865 189.04C28.7843 189.063 28.6203 189.083 28.4943 189.099C28.1894 189.139 27.9044 189.204 27.6392 189.293C27.3774 189.379 27.1652 189.51 27.0028 189.686C26.8438 189.858 26.7642 190.094 26.7642 190.392C26.7642 190.8 26.915 191.108 27.2166 191.317C27.5215 191.522 27.9077 191.625 28.375 191.625ZM33.9966 192.5V182.318H35.1699V186.077H35.2694C35.3555 185.944 35.4748 185.775 35.6273 185.57C35.7831 185.361 36.0051 185.175 36.2935 185.013C36.5852 184.847 36.9796 184.764 37.4767 184.764C38.1197 184.764 38.6865 184.925 39.177 185.246C39.6676 185.568 40.0504 186.024 40.3255 186.614C40.6006 187.204 40.7381 187.9 40.7381 188.702C40.7381 189.51 40.6006 190.211 40.3255 190.805C40.0504 191.395 39.6692 191.852 39.182 192.177C38.6948 192.498 38.133 192.659 37.4966 192.659C37.0061 192.659 36.6133 192.578 36.3184 192.415C36.0234 192.25 35.7963 192.062 35.6373 191.854C35.4782 191.642 35.3555 191.466 35.2694 191.327H35.1301V192.5H33.9966ZM35.15 188.682C35.15 189.259 35.2346 189.767 35.4036 190.208C35.5726 190.646 35.8195 190.989 36.1444 191.237C36.4692 191.482 36.8669 191.605 37.3375 191.605C37.8281 191.605 38.2374 191.476 38.5655 191.217C38.897 190.955 39.1455 190.604 39.3113 190.163C39.4803 189.719 39.5648 189.225 39.5648 188.682C39.5648 188.145 39.4819 187.661 39.3162 187.23C39.1538 186.796 38.9069 186.453 38.5755 186.201C38.2473 185.946 37.8347 185.818 37.3375 185.818C36.8603 185.818 36.4592 185.939 36.1344 186.181C35.8096 186.42 35.5643 186.754 35.3986 187.185C35.2329 187.613 35.15 188.112 35.15 188.682ZM45.7346 192.659C44.9988 192.659 44.3641 192.497 43.8304 192.172C43.3001 191.844 42.8908 191.386 42.6025 190.8C42.3174 190.21 42.1749 189.524 42.1749 188.741C42.1749 187.959 42.3174 187.27 42.6025 186.673C42.8908 186.073 43.2918 185.606 43.8056 185.271C44.3226 184.933 44.9258 184.764 45.6152 184.764C46.013 184.764 46.4057 184.83 46.7935 184.963C47.1813 185.096 47.5343 185.311 47.8525 185.609C48.1706 185.904 48.4242 186.295 48.6131 186.783C48.802 187.27 48.8965 187.87 48.8965 188.582V189.08H43.0101V188.065H47.7033C47.7033 187.634 47.6171 187.25 47.4448 186.912C47.2757 186.574 47.0338 186.307 46.7189 186.112C46.4074 185.916 46.0395 185.818 45.6152 185.818C45.1479 185.818 44.7435 185.934 44.4022 186.166C44.0641 186.395 43.8039 186.693 43.6216 187.061C43.4393 187.429 43.3482 187.823 43.3482 188.244V188.92C43.3482 189.497 43.4476 189.986 43.6465 190.387C43.8487 190.785 44.1287 191.088 44.4867 191.297C44.8446 191.502 45.2606 191.605 45.7346 191.605C46.0428 191.605 46.3212 191.562 46.5698 191.476C46.8217 191.386 47.0388 191.254 47.2211 191.078C47.4034 190.899 47.5442 190.677 47.6436 190.412L48.7772 190.73C48.6578 191.115 48.4573 191.453 48.1756 191.744C47.8939 192.033 47.5459 192.258 47.1316 192.42C46.7173 192.58 46.2516 192.659 45.7346 192.659ZM51.8546 182.318V192.5H50.6813V182.318H51.8546Z" fill="#262C34"/>
<rect x="249" y="172" width="106.833" height="30" rx="4" fill="#DADADA"/>
<rect x="359.833" y="172" width="106.833" height="30" rx="4" fill="#DADADA"/>
<rect x="470.667" y="172" width="106.833" height="30" rx="4" fill="#DADADA"/>
<rect x="581.5" y="172" width="106.833" height="30" rx="4" fill="#DADADA"/>
<rect x="692.333" y="172" width="106.833" height="30" rx="4" fill="#DADADA"/>
<rect x="803.167" y="172" width="106.833" height="30" rx="4" fill="#DADADA"/>
<path d="M0 204V204.25H910V204V203.75H0V204ZM910 238V237.75H0V238V238.25H910V238Z" fill="#DFE3E5"/>
<path d="M18.233 226.5V216.318H19.4659V225.406H24.1989V226.5H18.233ZM28.196 226.679C27.7121 226.679 27.273 226.588 26.8786 226.406C26.4841 226.22 26.1709 225.953 25.9389 225.605C25.7069 225.254 25.5909 224.83 25.5909 224.332C25.5909 223.895 25.6771 223.54 25.8494 223.268C26.0218 222.993 26.2521 222.778 26.5405 222.622C26.8288 222.466 27.147 222.35 27.495 222.274C27.8464 222.195 28.1993 222.132 28.554 222.085C29.018 222.026 29.3942 221.981 29.6825 221.951C29.9742 221.918 30.1863 221.863 30.3189 221.787C30.4548 221.711 30.5227 221.578 30.5227 221.389V221.349C30.5227 220.859 30.3885 220.478 30.12 220.206C29.8549 219.934 29.4522 219.798 28.9119 219.798C28.3518 219.798 27.9126 219.921 27.5945 220.166C27.2763 220.411 27.0526 220.673 26.9233 220.952L25.8097 220.554C26.0085 220.09 26.2737 219.729 26.6051 219.47C26.9399 219.208 27.3045 219.026 27.6989 218.923C28.0966 218.817 28.4877 218.764 28.8722 218.764C29.1174 218.764 29.3991 218.794 29.7173 218.854C30.0388 218.91 30.3487 219.028 30.647 219.207C30.9486 219.386 31.1989 219.656 31.3977 220.017C31.5966 220.378 31.696 220.862 31.696 221.469V226.5H30.5227V225.466H30.4631C30.3835 225.632 30.2509 225.809 30.0653 225.998C29.8797 226.187 29.6328 226.348 29.3246 226.48C29.0163 226.613 28.6402 226.679 28.196 226.679ZM28.375 225.625C28.839 225.625 29.2301 225.534 29.5483 225.352C29.8698 225.169 30.1117 224.934 30.2741 224.646C30.4399 224.357 30.5227 224.054 30.5227 223.736V222.662C30.473 222.722 30.3636 222.776 30.1946 222.826C30.0289 222.872 29.8366 222.914 29.6179 222.95C29.4025 222.983 29.192 223.013 28.9865 223.04C28.7843 223.063 28.6203 223.083 28.4943 223.099C28.1894 223.139 27.9044 223.204 27.6392 223.293C27.3774 223.379 27.1652 223.51 27.0028 223.686C26.8438 223.858 26.7642 224.094 26.7642 224.392C26.7642 224.8 26.915 225.108 27.2166 225.317C27.5215 225.522 27.9077 225.625 28.375 225.625ZM33.9966 226.5V216.318H35.1699V220.077H35.2694C35.3555 219.944 35.4748 219.775 35.6273 219.57C35.7831 219.361 36.0051 219.175 36.2935 219.013C36.5852 218.847 36.9796 218.764 37.4767 218.764C38.1197 218.764 38.6865 218.925 39.177 219.246C39.6676 219.568 40.0504 220.024 40.3255 220.614C40.6006 221.204 40.7381 221.9 40.7381 222.702C40.7381 223.51 40.6006 224.211 40.3255 224.805C40.0504 225.395 39.6692 225.852 39.182 226.177C38.6948 226.498 38.133 226.659 37.4966 226.659C37.0061 226.659 36.6133 226.578 36.3184 226.415C36.0234 226.25 35.7963 226.062 35.6373 225.854C35.4782 225.642 35.3555 225.466 35.2694 225.327H35.1301V226.5H33.9966ZM35.15 222.682C35.15 223.259 35.2346 223.767 35.4036 224.208C35.5726 224.646 35.8195 224.989 36.1444 225.237C36.4692 225.482 36.8669 225.605 37.3375 225.605C37.8281 225.605 38.2374 225.476 38.5655 225.217C38.897 224.955 39.1455 224.604 39.3113 224.163C39.4803 223.719 39.5648 223.225 39.5648 222.682C39.5648 222.145 39.4819 221.661 39.3162 221.23C39.1538 220.796 38.9069 220.453 38.5755 220.201C38.2473 219.946 37.8347 219.818 37.3375 219.818C36.8603 219.818 36.4592 219.939 36.1344 220.181C35.8096 220.42 35.5643 220.754 35.3986 221.185C35.2329 221.613 35.15 222.112 35.15 222.682ZM45.7346 226.659C44.9988 226.659 44.3641 226.497 43.8304 226.172C43.3001 225.844 42.8908 225.386 42.6025 224.8C42.3174 224.21 42.1749 223.524 42.1749 222.741C42.1749 221.959 42.3174 221.27 42.6025 220.673C42.8908 220.073 43.2918 219.606 43.8056 219.271C44.3226 218.933 44.9258 218.764 45.6152 218.764C46.013 218.764 46.4057 218.83 46.7935 218.963C47.1813 219.096 47.5343 219.311 47.8525 219.609C48.1706 219.904 48.4242 220.295 48.6131 220.783C48.802 221.27 48.8965 221.87 48.8965 222.582V223.08H43.0101V222.065H47.7033C47.7033 221.634 47.6171 221.25 47.4448 220.912C47.2757 220.574 47.0338 220.307 46.7189 220.112C46.4074 219.916 46.0395 219.818 45.6152 219.818C45.1479 219.818 44.7435 219.934 44.4022 220.166C44.0641 220.395 43.8039 220.693 43.6216 221.061C43.4393 221.429 43.3482 221.823 43.3482 222.244V222.92C43.3482 223.497 43.4476 223.986 43.6465 224.387C43.8487 224.785 44.1287 225.088 44.4867 225.297C44.8446 225.502 45.2606 225.605 45.7346 225.605C46.0428 225.605 46.3212 225.562 46.5698 225.476C46.8217 225.386 47.0388 225.254 47.2211 225.078C47.4034 224.899 47.5442 224.677 47.6436 224.412L48.7772 224.73C48.6578 225.115 48.4573 225.453 48.1756 225.744C47.8939 226.033 47.5459 226.258 47.1316 226.42C46.7173 226.58 46.2516 226.659 45.7346 226.659ZM51.8546 216.318V226.5H50.6813V216.318H51.8546Z" fill="#262C34"/>
<rect x="249" y="206" width="106.833" height="30" rx="4" fill="#DADADA"/>
<rect x="359.833" y="206" width="106.833" height="30" rx="4" fill="#DADADA"/>
<rect x="470.667" y="206" width="106.833" height="30" rx="4" fill="#DADADA"/>
<rect x="581.5" y="206" width="106.833" height="30" rx="4" fill="#DADADA"/>
<rect x="692.333" y="206" width="106.833" height="30" rx="4" fill="#DADADA"/>
<rect x="803.167" y="206" width="106.833" height="30" rx="4" fill="#DADADA"/>
<defs>
<clipPath id="clip0_10046_81379">
<rect width="32" height="32" fill="white" transform="translate(878)"/>
</clipPath>
<clipPath id="clip1_10046_81379">
<rect width="16" height="16" fill="white" transform="translate(886 8)"/>
</clipPath>
</defs>
</svg>
