<svg width="910" height="356" viewBox="0 0 910 356" fill="none" xmlns="http://www.w3.org/2000/svg">
<path d="M438.268 14V3.81818H439.501V12.9062H444.234V14H438.268ZM448.231 14.179C447.747 14.179 447.308 14.0878 446.914 13.9055C446.519 13.7199 446.206 13.4531 445.974 13.1051C445.742 12.7538 445.626 12.3295 445.626 11.8324C445.626 11.3949 445.712 11.0402 445.885 10.7685C446.057 10.4934 446.287 10.2779 446.576 10.1222C446.864 9.96638 447.182 9.85038 447.53 9.77415C447.882 9.6946 448.234 9.63163 448.589 9.58523C449.053 9.52557 449.429 9.48082 449.718 9.45099C450.009 9.41785 450.221 9.36316 450.354 9.28693C450.49 9.2107 450.558 9.07812 450.558 8.8892V8.84943C450.558 8.3589 450.424 7.97775 450.155 7.70597C449.89 7.43419 449.487 7.2983 448.947 7.2983C448.387 7.2983 447.948 7.42093 447.63 7.66619C447.311 7.91146 447.088 8.1733 446.958 8.4517L445.845 8.05398C446.044 7.58996 446.309 7.22869 446.64 6.97017C446.975 6.70833 447.34 6.52604 447.734 6.4233C448.132 6.31723 448.523 6.2642 448.907 6.2642C449.153 6.2642 449.434 6.29403 449.752 6.35369C450.074 6.41004 450.384 6.5277 450.682 6.70668C450.984 6.88565 451.234 7.15578 451.433 7.51705C451.632 7.87831 451.731 8.36222 451.731 8.96875V14H450.558V12.9659H450.498C450.419 13.1316 450.286 13.3089 450.1 13.4979C449.915 13.6868 449.668 13.8475 449.36 13.9801C449.051 14.1127 448.675 14.179 448.231 14.179ZM448.41 13.125C448.874 13.125 449.265 13.0339 449.583 12.8516C449.905 12.6693 450.147 12.4339 450.309 12.1456C450.475 11.8572 450.558 11.554 450.558 11.2358V10.1619C450.508 10.2216 450.399 10.2763 450.23 10.326C450.064 10.3724 449.872 10.4138 449.653 10.4503C449.438 10.4834 449.227 10.5133 449.022 10.5398C448.819 10.563 448.655 10.5829 448.529 10.5994C448.225 10.6392 447.94 10.7038 447.674 10.7933C447.413 10.8795 447.2 11.0104 447.038 11.1861C446.879 11.3584 446.799 11.5937 446.799 11.892C446.799 12.2997 446.95 12.608 447.252 12.8168C447.557 13.0223 447.943 13.125 448.41 13.125ZM454.032 14V3.81818H455.205V7.5767H455.305C455.391 7.44413 455.51 7.27509 455.662 7.0696C455.818 6.8608 456.04 6.67519 456.329 6.51278C456.62 6.34706 457.015 6.2642 457.512 6.2642C458.155 6.2642 458.722 6.42495 459.212 6.74645C459.703 7.06794 460.086 7.52367 460.361 8.11364C460.636 8.7036 460.773 9.39962 460.773 10.2017C460.773 11.0104 460.636 11.7114 460.361 12.3047C460.086 12.8946 459.704 13.352 459.217 13.6768C458.73 13.9983 458.168 14.1591 457.532 14.1591C457.041 14.1591 456.648 14.0779 456.354 13.9155C456.059 13.7498 455.831 13.5625 455.672 13.3537C455.513 13.1416 455.391 12.9659 455.305 12.8267H455.165V14H454.032ZM455.185 10.1818C455.185 10.7585 455.27 11.2673 455.439 11.7081C455.608 12.1456 455.855 12.4886 456.18 12.7372C456.504 12.9825 456.902 13.1051 457.373 13.1051C457.863 13.1051 458.273 12.9759 458.601 12.7173C458.932 12.4555 459.181 12.1042 459.346 11.6634C459.515 11.2192 459.6 10.7254 459.6 10.1818C459.6 9.64489 459.517 9.16098 459.351 8.73011C459.189 8.29593 458.942 7.95289 458.611 7.70099C458.282 7.44579 457.87 7.31818 457.373 7.31818C456.895 7.31818 456.494 7.43916 456.17 7.68111C455.845 7.91974 455.599 8.2545 455.434 8.68537C455.268 9.11293 455.185 9.61174 455.185 10.1818ZM465.77 14.1591C465.034 14.1591 464.399 13.9967 463.866 13.6719C463.335 13.3438 462.926 12.8864 462.638 12.2997C462.353 11.7098 462.21 11.0237 462.21 10.2415C462.21 9.45928 462.353 8.76989 462.638 8.1733C462.926 7.57339 463.327 7.10606 463.841 6.77131C464.358 6.43324 464.961 6.2642 465.65 6.2642C466.048 6.2642 466.441 6.33049 466.829 6.46307C467.216 6.59564 467.569 6.81108 467.888 7.10938C468.206 7.40436 468.459 7.79545 468.648 8.28267C468.837 8.76989 468.932 9.36979 468.932 10.0824V10.5795H463.045V9.56534H467.738C467.738 9.13447 467.652 8.75 467.48 8.41193C467.311 8.07386 467.069 7.80705 466.754 7.61151C466.443 7.41596 466.075 7.31818 465.65 7.31818C465.183 7.31818 464.779 7.43419 464.437 7.66619C464.099 7.89489 463.839 8.19318 463.657 8.56108C463.474 8.92898 463.383 9.32339 463.383 9.74432V10.4205C463.383 10.9972 463.483 11.486 463.682 11.8871C463.884 12.2848 464.164 12.5881 464.522 12.7969C464.88 13.0024 465.296 13.1051 465.77 13.1051C466.078 13.1051 466.356 13.062 466.605 12.9759C466.857 12.8864 467.074 12.7538 467.256 12.5781C467.439 12.3991 467.579 12.1771 467.679 11.9119L468.812 12.2301C468.693 12.6146 468.492 12.9527 468.211 13.2443C467.929 13.5327 467.581 13.758 467.167 13.9205C466.752 14.0795 466.287 14.1591 465.77 14.1591ZM471.89 3.81818V14H470.716V3.81818H471.89Z" fill="#525252"/>
<path d="M624.233 141.996V131.814H625.466V140.902H630.199V141.996H624.233ZM634.196 142.175C633.712 142.175 633.273 142.084 632.879 141.902C632.485 141.716 632.171 141.449 631.939 141.101C631.707 140.75 631.591 140.326 631.591 139.828C631.591 139.391 631.677 139.036 631.85 138.765C632.022 138.489 632.252 138.274 632.541 138.118C632.829 137.962 633.147 137.846 633.495 137.77C633.847 137.691 634.2 137.628 634.554 137.581C635.018 137.522 635.395 137.477 635.683 137.447C635.975 137.414 636.187 137.359 636.319 137.283C636.455 137.207 636.523 137.074 636.523 136.885V136.846C636.523 136.355 636.389 135.974 636.12 135.702C635.855 135.43 635.453 135.294 634.912 135.294C634.352 135.294 633.913 135.417 633.595 135.662C633.277 135.908 633.053 136.169 632.924 136.448L631.81 136.05C632.009 135.586 632.274 135.225 632.605 134.966C632.94 134.704 633.305 134.522 633.699 134.419C634.097 134.313 634.488 134.26 634.873 134.26C635.118 134.26 635.4 134.29 635.718 134.35C636.039 134.406 636.349 134.524 636.647 134.703C636.949 134.882 637.199 135.152 637.398 135.513C637.597 135.874 637.696 136.358 637.696 136.965V141.996H636.523V140.962H636.463C636.384 141.128 636.251 141.305 636.066 141.494C635.88 141.683 635.633 141.844 635.325 141.976C635.017 142.109 634.641 142.175 634.196 142.175ZM634.375 141.121C634.839 141.121 635.23 141.03 635.549 140.848C635.87 140.665 636.112 140.43 636.275 140.142C636.44 139.853 636.523 139.55 636.523 139.232V138.158C636.473 138.218 636.364 138.272 636.195 138.322C636.029 138.368 635.837 138.41 635.618 138.446C635.403 138.48 635.192 138.509 634.987 138.536C634.785 138.559 634.621 138.579 634.495 138.596C634.19 138.635 633.905 138.7 633.64 138.789C633.378 138.876 633.166 139.007 633.003 139.182C632.844 139.355 632.765 139.59 632.765 139.888C632.765 140.296 632.915 140.604 633.217 140.813C633.522 141.018 633.908 141.121 634.375 141.121ZM639.997 141.996V131.814H641.17V135.573H641.27C641.356 135.44 641.475 135.271 641.628 135.066C641.783 134.857 642.006 134.671 642.294 134.509C642.586 134.343 642.98 134.26 643.477 134.26C644.12 134.26 644.687 134.421 645.177 134.743C645.668 135.064 646.051 135.52 646.326 136.11C646.601 136.7 646.738 137.396 646.738 138.198C646.738 139.007 646.601 139.708 646.326 140.301C646.051 140.891 645.67 141.348 645.182 141.673C644.695 141.994 644.133 142.155 643.497 142.155C643.006 142.155 642.614 142.074 642.319 141.912C642.024 141.746 641.797 141.559 641.638 141.35C641.479 141.138 641.356 140.962 641.27 140.823H641.131V141.996H639.997ZM641.15 138.178C641.15 138.755 641.235 139.263 641.404 139.704C641.573 140.142 641.82 140.485 642.145 140.733C642.47 140.979 642.867 141.101 643.338 141.101C643.828 141.101 644.238 140.972 644.566 140.713C644.897 140.452 645.146 140.1 645.312 139.659C645.481 139.215 645.565 138.721 645.565 138.178C645.565 137.641 645.482 137.157 645.317 136.726C645.154 136.292 644.907 135.949 644.576 135.697C644.248 135.442 643.835 135.314 643.338 135.314C642.861 135.314 642.46 135.435 642.135 135.677C641.81 135.916 641.565 136.251 641.399 136.681C641.233 137.109 641.15 137.608 641.15 138.178ZM651.735 142.155C650.999 142.155 650.364 141.993 649.831 141.668C649.3 141.34 648.891 140.882 648.603 140.296C648.318 139.706 648.175 139.02 648.175 138.238C648.175 137.455 648.318 136.766 648.603 136.169C648.891 135.569 649.292 135.102 649.806 134.767C650.323 134.429 650.926 134.26 651.616 134.26C652.013 134.26 652.406 134.327 652.794 134.459C653.182 134.592 653.535 134.807 653.853 135.105C654.171 135.4 654.425 135.792 654.613 136.279C654.802 136.766 654.897 137.366 654.897 138.078V138.576H649.01V137.561H653.704C653.704 137.131 653.617 136.746 653.445 136.408C653.276 136.07 653.034 135.803 652.719 135.608C652.408 135.412 652.04 135.314 651.616 135.314C651.148 135.314 650.744 135.43 650.403 135.662C650.064 135.891 649.804 136.189 649.622 136.557C649.44 136.925 649.349 137.319 649.349 137.74V138.417C649.349 138.993 649.448 139.482 649.647 139.883C649.849 140.281 650.129 140.584 650.487 140.793C650.845 140.998 651.261 141.101 651.735 141.101C652.043 141.101 652.322 141.058 652.57 140.972C652.822 140.882 653.039 140.75 653.221 140.574C653.404 140.395 653.545 140.173 653.644 139.908L654.778 140.226C654.658 140.611 654.458 140.949 654.176 141.24C653.894 141.529 653.546 141.754 653.132 141.917C652.718 142.076 652.252 142.155 651.735 142.155ZM657.855 131.814V141.996H656.682V131.814H657.855Z" fill="#525252"/>
<g clip-path="url(#clip0_12291_161913)">
<path d="M455.001 25.4L455 193.429L614.807 141.504L455.001 25.4Z" stroke="#E0E0E0"/>
<mask id="mask0_12291_161913" style="mask-type:alpha" maskUnits="userSpaceOnUse" x="455" y="25" width="160" height="169">
<path d="M455.001 25.4L455 193.429L614.807 141.504L455.001 25.4Z" fill="#D9D9D9"/>
</mask>
<g mask="url(#mask0_12291_161913)">
<path d="M539.806 218.363L404.699 120.204" stroke="#E0E0E0"/>
<path d="M552.305 201.16L417.199 103.001" stroke="#E0E0E0"/>
<path d="M564.805 183.957L429.698 85.7979" stroke="#E0E0E0"/>
<path d="M577.304 166.75L442.197 68.5909" stroke="#E0E0E0"/>
<path d="M589.803 149.547L454.697 51.3878" stroke="#E0E0E0"/>
<path d="M602.303 132.344L467.196 34.1847" stroke="#E0E0E0" stroke-width="2.36"/>
</g>
</g>
<g clip-path="url(#clip1_12291_161913)">
<path d="M614.807 141.507L455 193.429L553.767 329.367L614.807 141.507Z" stroke="#E0E0E0"/>
<g clip-path="url(#clip2_12291_161913)">
<mask id="mask1_12291_161913" style="mask-type:alpha" maskUnits="userSpaceOnUse" x="454" y="141" width="161" height="189">
<path d="M614.807 141.507L455 193.429L553.767 329.367L614.807 141.507Z" fill="#D9D9D9"/>
</mask>
<g mask="url(#mask1_12291_161913)">
<path d="M453.475 294.152L513.116 110.599" stroke="#E0E0E0"/>
<path d="M473.699 300.723L533.34 117.169" stroke="#E0E0E0"/>
<path d="M493.923 307.293L553.564 123.739" stroke="#E0E0E0"/>
<path d="M514.147 313.863L573.789 130.31" stroke="#E0E0E0"/>
<path d="M534.372 320.438L594.013 136.884" stroke="#E0E0E0"/>
<path d="M554.596 327.008L614.237 143.454" stroke="#E0E0E0" stroke-width="2.36"/>
</g>
</g>
</g>
<g clip-path="url(#clip3_12291_161913)">
<path d="M553.765 329.368L455 193.43L356.234 329.368H553.765Z" stroke="#E0E0E0"/>
<g clip-path="url(#clip4_12291_161913)">
<mask id="mask2_12291_161913" style="mask-type:alpha" maskUnits="userSpaceOnUse" x="356" y="193" width="198" height="137">
<path d="M553.765 329.368L455 193.43L356.234 329.368H553.765Z" fill="#D9D9D9"/>
</mask>
<g mask="url(#mask2_12291_161913)">
<path d="M381.234 223.105H529.234" stroke="#E0E0E0"/>
<path d="M381.234 244.371H529.234" stroke="#E0E0E0"/>
<path d="M381.234 265.633H529.234" stroke="#E0E0E0"/>
<path d="M381.234 286.898H529.234" stroke="#E0E0E0"/>
<path d="M381.234 308.164H529.234" stroke="#E0E0E0"/>
<path d="M381.234 329.43H529.234" stroke="#E0E0E0" stroke-width="2.36"/>
</g>
</g>
</g>
<g clip-path="url(#clip5_12291_161913)">
<path d="M356.233 329.367L455 193.43L295.193 141.507L356.233 329.367Z" stroke="#E0E0E0"/>
<g clip-path="url(#clip6_12291_161913)">
<mask id="mask3_12291_161913" style="mask-type:alpha" maskUnits="userSpaceOnUse" x="295" y="141" width="161" height="189">
<path d="M356.233 329.367L455 193.43L295.193 141.507L356.233 329.367Z" fill="#D9D9D9"/>
</mask>
<g mask="url(#mask3_12291_161913)">
<path d="M397.03 111.047L456.671 294.6" stroke="#E0E0E0"/>
<path d="M376.806 117.617L436.447 301.171" stroke="#E0E0E0"/>
<path d="M356.581 124.191L416.223 307.745" stroke="#E0E0E0"/>
<path d="M336.357 130.762L395.998 314.315" stroke="#E0E0E0"/>
<path d="M316.133 137.332L375.774 320.886" stroke="#E0E0E0"/>
<path d="M295.909 143.902L355.55 327.456" stroke="#E0E0E0" stroke-width="2.36"/>
</g>
</g>
</g>
<g clip-path="url(#clip7_12291_161913)">
<path d="M295.193 141.502L455 193.427L454.999 25.3984L295.193 141.502Z" stroke="#E0E0E0"/>
<mask id="mask4_12291_161913" style="mask-type:alpha" maskUnits="userSpaceOnUse" x="295" y="25" width="160" height="169">
<path d="M295.193 141.502L455 193.427L454.999 25.3984L295.193 141.502Z" fill="#D9D9D9"/>
</mask>
<g mask="url(#mask4_12291_161913)">
<path d="M504.92 120.477L369.814 218.636" stroke="#E0E0E0"/>
<path d="M492.421 103.273L357.314 201.433" stroke="#E0E0E0"/>
<path d="M479.922 86.0703L344.815 184.229" stroke="#E0E0E0"/>
<path d="M467.422 68.8672L332.316 167.026" stroke="#E0E0E0"/>
<path d="M454.923 51.6641L319.816 149.823" stroke="#E0E0E0"/>
<path d="M442.423 34.4609L307.317 132.62" stroke="#E0E0E0" stroke-width="2.36"/>
</g>
</g>
<g clip-path="url(#clip8_12291_161913)">
<path d="M454.999 182.664L445.05 189.892L448.85 201.588H461.148L464.948 189.892L454.999 182.664Z" fill="white" stroke="#E0E0E0"/>
</g>
<rect x="295" y="337" width="0.0001" height="19" fill="#D9D9D9"/>
<path d="M324.233 351V340.818H325.466V349.906H330.199V351H324.233ZM334.196 351.179C333.712 351.179 333.273 351.088 332.879 350.906C332.484 350.72 332.171 350.453 331.939 350.105C331.707 349.754 331.591 349.33 331.591 348.832C331.591 348.395 331.677 348.04 331.849 347.768C332.022 347.493 332.252 347.278 332.54 347.122C332.829 346.966 333.147 346.85 333.495 346.774C333.846 346.695 334.199 346.632 334.554 346.585C335.018 346.526 335.394 346.481 335.683 346.451C335.974 346.418 336.186 346.363 336.319 346.287C336.455 346.211 336.523 346.078 336.523 345.889V345.849C336.523 345.359 336.389 344.978 336.12 344.706C335.855 344.434 335.452 344.298 334.912 344.298C334.352 344.298 333.913 344.421 333.594 344.666C333.276 344.911 333.053 345.173 332.923 345.452L331.81 345.054C332.009 344.59 332.274 344.229 332.605 343.97C332.94 343.708 333.304 343.526 333.699 343.423C334.097 343.317 334.488 343.264 334.872 343.264C335.117 343.264 335.399 343.294 335.717 343.354C336.039 343.41 336.349 343.528 336.647 343.707C336.949 343.886 337.199 344.156 337.398 344.517C337.597 344.878 337.696 345.362 337.696 345.969V351H336.523V349.966H336.463C336.384 350.132 336.251 350.309 336.065 350.498C335.88 350.687 335.633 350.848 335.325 350.98C335.016 351.113 334.64 351.179 334.196 351.179ZM334.375 350.125C334.839 350.125 335.23 350.034 335.548 349.852C335.87 349.669 336.112 349.434 336.274 349.146C336.44 348.857 336.523 348.554 336.523 348.236V347.162C336.473 347.222 336.364 347.276 336.195 347.326C336.029 347.372 335.837 347.414 335.618 347.45C335.402 347.483 335.192 347.513 334.987 347.54C334.784 347.563 334.62 347.583 334.494 347.599C334.189 347.639 333.904 347.704 333.639 347.793C333.377 347.879 333.165 348.01 333.003 348.186C332.844 348.358 332.764 348.594 332.764 348.892C332.764 349.3 332.915 349.608 333.217 349.817C333.522 350.022 333.908 350.125 334.375 350.125ZM339.997 351V340.818H341.17V344.577H341.269C341.356 344.444 341.475 344.275 341.627 344.07C341.783 343.861 342.005 343.675 342.294 343.513C342.585 343.347 342.98 343.264 343.477 343.264C344.12 343.264 344.687 343.425 345.177 343.746C345.668 344.068 346.05 344.524 346.325 345.114C346.601 345.704 346.738 346.4 346.738 347.202C346.738 348.01 346.601 348.711 346.325 349.305C346.05 349.895 345.669 350.352 345.182 350.677C344.695 350.998 344.133 351.159 343.497 351.159C343.006 351.159 342.613 351.078 342.318 350.915C342.023 350.75 341.796 350.562 341.637 350.354C341.478 350.142 341.356 349.966 341.269 349.827H341.13V351H339.997ZM341.15 347.182C341.15 347.759 341.235 348.267 341.404 348.708C341.573 349.146 341.82 349.489 342.144 349.737C342.469 349.982 342.867 350.105 343.338 350.105C343.828 350.105 344.237 349.976 344.566 349.717C344.897 349.455 345.146 349.104 345.311 348.663C345.48 348.219 345.565 347.725 345.565 347.182C345.565 346.645 345.482 346.161 345.316 345.73C345.154 345.296 344.907 344.953 344.575 344.701C344.247 344.446 343.835 344.318 343.338 344.318C342.86 344.318 342.459 344.439 342.134 344.681C341.81 344.92 341.564 345.254 341.399 345.685C341.233 346.113 341.15 346.612 341.15 347.182ZM351.735 351.159C350.999 351.159 350.364 350.997 349.83 350.672C349.3 350.344 348.891 349.886 348.602 349.3C348.317 348.71 348.175 348.024 348.175 347.241C348.175 346.459 348.317 345.77 348.602 345.173C348.891 344.573 349.292 344.106 349.806 343.771C350.323 343.433 350.926 343.264 351.615 343.264C352.013 343.264 352.406 343.33 352.794 343.463C353.181 343.596 353.534 343.811 353.852 344.109C354.171 344.404 354.424 344.795 354.613 345.283C354.802 345.77 354.896 346.37 354.896 347.082V347.58H349.01V346.565H353.703C353.703 346.134 353.617 345.75 353.445 345.412C353.276 345.074 353.034 344.807 352.719 344.612C352.407 344.416 352.039 344.318 351.615 344.318C351.148 344.318 350.744 344.434 350.402 344.666C350.064 344.895 349.804 345.193 349.622 345.561C349.439 345.929 349.348 346.323 349.348 346.744V347.42C349.348 347.997 349.448 348.486 349.646 348.887C349.849 349.285 350.129 349.588 350.487 349.797C350.845 350.002 351.261 350.105 351.735 350.105C352.043 350.105 352.321 350.062 352.57 349.976C352.822 349.886 353.039 349.754 353.221 349.578C353.403 349.399 353.544 349.177 353.644 348.912L354.777 349.23C354.658 349.615 354.457 349.953 354.176 350.244C353.894 350.533 353.546 350.758 353.132 350.92C352.717 351.08 352.252 351.159 351.735 351.159ZM357.855 340.818V351H356.681V340.818H357.855Z" fill="#525252"/>
<rect x="423" y="337" width="0.0001" height="19" fill="#D9D9D9"/>
<rect x="487" y="337" width="0.0001" height="19" fill="#D9D9D9"/>
<path d="M552.233 351V340.818H553.466V349.906H558.199V351H552.233ZM562.196 351.179C561.712 351.179 561.273 351.088 560.878 350.906C560.484 350.72 560.171 350.453 559.939 350.105C559.707 349.754 559.591 349.33 559.591 348.832C559.591 348.395 559.677 348.04 559.849 347.768C560.022 347.493 560.252 347.278 560.54 347.122C560.829 346.966 561.147 346.85 561.495 346.774C561.846 346.695 562.199 346.632 562.554 346.585C563.018 346.526 563.394 346.481 563.682 346.451C563.974 346.418 564.186 346.363 564.319 346.287C564.455 346.211 564.523 346.078 564.523 345.889V345.849C564.523 345.359 564.388 344.978 564.12 344.706C563.855 344.434 563.452 344.298 562.912 344.298C562.352 344.298 561.912 344.421 561.594 344.666C561.276 344.911 561.052 345.173 560.923 345.452L559.81 345.054C560.008 344.59 560.274 344.229 560.605 343.97C560.94 343.708 561.304 343.526 561.699 343.423C562.096 343.317 562.488 343.264 562.872 343.264C563.117 343.264 563.399 343.294 563.717 343.354C564.039 343.41 564.349 343.528 564.647 343.707C564.948 343.886 565.199 344.156 565.398 344.517C565.596 344.878 565.696 345.362 565.696 345.969V351H564.523V349.966H564.463C564.383 350.132 564.251 350.309 564.065 350.498C563.88 350.687 563.633 350.848 563.324 350.98C563.016 351.113 562.64 351.179 562.196 351.179ZM562.375 350.125C562.839 350.125 563.23 350.034 563.548 349.852C563.87 349.669 564.112 349.434 564.274 349.146C564.44 348.857 564.523 348.554 564.523 348.236V347.162C564.473 347.222 564.363 347.276 564.194 347.326C564.029 347.372 563.836 347.414 563.618 347.45C563.402 347.483 563.192 347.513 562.986 347.54C562.784 347.563 562.62 347.583 562.494 347.599C562.189 347.639 561.904 347.704 561.639 347.793C561.377 347.879 561.165 348.01 561.003 348.186C560.844 348.358 560.764 348.594 560.764 348.892C560.764 349.3 560.915 349.608 561.216 349.817C561.521 350.022 561.908 350.125 562.375 350.125ZM567.996 351V340.818H569.17V344.577H569.269C569.355 344.444 569.475 344.275 569.627 344.07C569.783 343.861 570.005 343.675 570.293 343.513C570.585 343.347 570.979 343.264 571.477 343.264C572.12 343.264 572.686 343.425 573.177 343.746C573.667 344.068 574.05 344.524 574.325 345.114C574.6 345.704 574.738 346.4 574.738 347.202C574.738 348.01 574.6 348.711 574.325 349.305C574.05 349.895 573.669 350.352 573.182 350.677C572.695 350.998 572.133 351.159 571.496 351.159C571.006 351.159 570.613 351.078 570.318 350.915C570.023 350.75 569.796 350.562 569.637 350.354C569.478 350.142 569.355 349.966 569.269 349.827H569.13V351H567.996ZM569.15 347.182C569.15 347.759 569.234 348.267 569.403 348.708C569.572 349.146 569.819 349.489 570.144 349.737C570.469 349.982 570.867 350.105 571.337 350.105C571.828 350.105 572.237 349.976 572.565 349.717C572.897 349.455 573.145 349.104 573.311 348.663C573.48 348.219 573.565 347.725 573.565 347.182C573.565 346.645 573.482 346.161 573.316 345.73C573.154 345.296 572.907 344.953 572.575 344.701C572.247 344.446 571.835 344.318 571.337 344.318C570.86 344.318 570.459 344.439 570.134 344.681C569.809 344.92 569.564 345.254 569.398 345.685C569.233 346.113 569.15 346.612 569.15 347.182ZM579.734 351.159C578.999 351.159 578.364 350.997 577.83 350.672C577.3 350.344 576.891 349.886 576.602 349.3C576.317 348.71 576.175 348.024 576.175 347.241C576.175 346.459 576.317 345.77 576.602 345.173C576.891 344.573 577.292 344.106 577.805 343.771C578.322 343.433 578.926 343.264 579.615 343.264C580.013 343.264 580.406 343.33 580.793 343.463C581.181 343.596 581.534 343.811 581.852 344.109C582.17 344.404 582.424 344.795 582.613 345.283C582.802 345.77 582.896 346.37 582.896 347.082V347.58H577.01V346.565H581.703C581.703 346.134 581.617 345.75 581.445 345.412C581.276 345.074 581.034 344.807 580.719 344.612C580.407 344.416 580.039 344.318 579.615 344.318C579.148 344.318 578.743 344.434 578.402 344.666C578.064 344.895 577.804 345.193 577.621 345.561C577.439 345.929 577.348 346.323 577.348 346.744V347.42C577.348 347.997 577.447 348.486 577.646 348.887C577.849 349.285 578.129 349.588 578.487 349.797C578.844 350.002 579.26 350.105 579.734 350.105C580.043 350.105 580.321 350.062 580.57 349.976C580.822 349.886 581.039 349.754 581.221 349.578C581.403 349.399 581.544 349.177 581.643 348.912L582.777 349.23C582.658 349.615 582.457 349.953 582.175 350.244C581.894 350.533 581.546 350.758 581.131 350.92C580.717 351.08 580.251 351.159 579.734 351.159ZM585.854 340.818V351H584.681V340.818H585.854Z" fill="#525252"/>
<rect x="615" y="337" width="0.0001" height="19" fill="#D9D9D9"/>
<path d="M252.233 141.996V131.814H253.465V140.902H258.198V141.996H252.233ZM262.196 142.175C261.712 142.175 261.273 142.084 260.878 141.902C260.484 141.716 260.171 141.449 259.939 141.101C259.706 140.75 259.59 140.326 259.59 139.828C259.59 139.391 259.677 139.036 259.849 138.765C260.021 138.489 260.252 138.274 260.54 138.118C260.828 137.962 261.147 137.846 261.495 137.77C261.846 137.691 262.199 137.628 262.554 137.581C263.018 137.522 263.394 137.477 263.682 137.447C263.974 137.414 264.186 137.359 264.318 137.283C264.454 137.207 264.522 137.074 264.522 136.885V136.846C264.522 136.355 264.388 135.974 264.12 135.702C263.854 135.43 263.452 135.294 262.912 135.294C262.351 135.294 261.912 135.417 261.594 135.662C261.276 135.908 261.052 136.169 260.923 136.448L259.809 136.05C260.008 135.586 260.273 135.225 260.605 134.966C260.939 134.704 261.304 134.522 261.698 134.419C262.096 134.313 262.487 134.26 262.872 134.26C263.117 134.26 263.399 134.29 263.717 134.35C264.038 134.406 264.348 134.524 264.647 134.703C264.948 134.882 265.198 135.152 265.397 135.513C265.596 135.874 265.696 136.358 265.696 136.965V141.996H264.522V140.962H264.463C264.383 141.128 264.251 141.305 264.065 141.494C263.879 141.683 263.632 141.844 263.324 141.976C263.016 142.109 262.64 142.175 262.196 142.175ZM262.375 141.121C262.839 141.121 263.23 141.03 263.548 140.848C263.869 140.665 264.111 140.43 264.274 140.142C264.439 139.853 264.522 139.55 264.522 139.232V138.158C264.473 138.218 264.363 138.272 264.194 138.322C264.028 138.368 263.836 138.41 263.617 138.446C263.402 138.48 263.192 138.509 262.986 138.536C262.784 138.559 262.62 138.579 262.494 138.596C262.189 138.635 261.904 138.7 261.639 138.789C261.377 138.876 261.165 139.007 261.002 139.182C260.843 139.355 260.764 139.59 260.764 139.888C260.764 140.296 260.915 140.604 261.216 140.813C261.521 141.018 261.907 141.121 262.375 141.121ZM267.996 141.996V131.814H269.17V135.573H269.269C269.355 135.44 269.474 135.271 269.627 135.066C269.783 134.857 270.005 134.671 270.293 134.509C270.585 134.343 270.979 134.26 271.476 134.26C272.119 134.26 272.686 134.421 273.177 134.743C273.667 135.064 274.05 135.52 274.325 136.11C274.6 136.7 274.738 137.396 274.738 138.198C274.738 139.007 274.6 139.708 274.325 140.301C274.05 140.891 273.669 141.348 273.182 141.673C272.694 141.994 272.133 142.155 271.496 142.155C271.006 142.155 270.613 142.074 270.318 141.912C270.023 141.746 269.796 141.559 269.637 141.35C269.478 141.138 269.355 140.962 269.269 140.823H269.13V141.996H267.996ZM269.15 138.178C269.15 138.755 269.234 139.263 269.403 139.704C269.572 140.142 269.819 140.485 270.144 140.733C270.469 140.979 270.866 141.101 271.337 141.101C271.828 141.101 272.237 140.972 272.565 140.713C272.897 140.452 273.145 140.1 273.311 139.659C273.48 139.215 273.564 138.721 273.564 138.178C273.564 137.641 273.482 137.157 273.316 136.726C273.153 136.292 272.906 135.949 272.575 135.697C272.247 135.442 271.834 135.314 271.337 135.314C270.86 135.314 270.459 135.435 270.134 135.677C269.809 135.916 269.564 136.251 269.398 136.681C269.232 137.109 269.15 137.608 269.15 138.178ZM279.734 142.155C278.998 142.155 278.364 141.993 277.83 141.668C277.3 141.34 276.89 140.882 276.602 140.296C276.317 139.706 276.174 139.02 276.174 138.238C276.174 137.455 276.317 136.766 276.602 136.169C276.89 135.569 277.291 135.102 277.805 134.767C278.322 134.429 278.925 134.26 279.615 134.26C280.013 134.26 280.405 134.327 280.793 134.459C281.181 134.592 281.534 134.807 281.852 135.105C282.17 135.4 282.424 135.792 282.613 136.279C282.802 136.766 282.896 137.366 282.896 138.078V138.576H277.01V137.561H281.703C281.703 137.131 281.617 136.746 281.444 136.408C281.275 136.07 281.033 135.803 280.719 135.608C280.407 135.412 280.039 135.314 279.615 135.314C279.147 135.314 278.743 135.43 278.402 135.662C278.064 135.891 277.803 136.189 277.621 136.557C277.439 136.925 277.348 137.319 277.348 137.74V138.417C277.348 138.993 277.447 139.482 277.646 139.883C277.848 140.281 278.128 140.584 278.486 140.793C278.844 140.998 279.26 141.101 279.734 141.101C280.042 141.101 280.321 141.058 280.569 140.972C280.821 140.882 281.038 140.75 281.221 140.574C281.403 140.395 281.544 140.173 281.643 139.908L282.777 140.226C282.657 140.611 282.457 140.949 282.175 141.24C281.893 141.529 281.545 141.754 281.131 141.917C280.717 142.076 280.251 142.155 279.734 142.155ZM285.854 131.814V141.996H284.681V131.814H285.854Z" fill="#525252"/>
<defs>
<clipPath id="clip0_12291_161913">
<rect width="197.53" height="135.939" fill="white" transform="matrix(-0.809022 -0.587779 0.587791 -0.809013 534.903 251.48)"/>
</clipPath>
<clipPath id="clip1_12291_161913">
<rect width="197.528" height="135.941" fill="white" transform="matrix(0.309021 -0.951055 0.951058 0.309013 424.479 287.359)"/>
</clipPath>
<clipPath id="clip2_12291_161913">
<rect width="197.528" height="135.941" fill="white" transform="matrix(0.309021 -0.951055 0.951058 0.309013 424.479 287.359)"/>
</clipPath>
<clipPath id="clip3_12291_161913">
<rect width="197.531" height="135.939" fill="white" transform="translate(356.234 193.43)"/>
</clipPath>
<clipPath id="clip4_12291_161913">
<rect width="197.531" height="135.939" fill="white" transform="translate(356.234 193.43)"/>
</clipPath>
<clipPath id="clip5_12291_161913">
<rect width="197.528" height="135.941" fill="white" transform="matrix(0.309021 0.951055 -0.951058 0.309013 424.48 99.5)"/>
</clipPath>
<clipPath id="clip6_12291_161913">
<rect width="197.528" height="135.94" fill="white" transform="matrix(0.309021 0.951055 -0.951058 0.309013 424.48 99.5)"/>
</clipPath>
<clipPath id="clip7_12291_161913">
<rect width="197.53" height="135.939" fill="white" transform="matrix(-0.809022 0.587779 -0.587791 -0.809013 534.903 135.375)"/>
</clipPath>
<clipPath id="clip8_12291_161913">
<rect width="320" height="320" fill="white" transform="translate(295 16.9961)"/>
</clipPath>
</defs>
</svg>
