<svg width="942" height="404" viewBox="0 0 942 404" fill="none" xmlns="http://www.w3.org/2000/svg">
<rect width="942" height="32" fill="white" style="mix-blend-mode:multiply"/>
<path d="M11.2784 14.4375H8.78977C8.74432 14.1155 8.65152 13.8295 8.51136 13.5795C8.37121 13.3258 8.19129 13.1098 7.97159 12.9318C7.75189 12.7538 7.49811 12.6174 7.21023 12.5227C6.92614 12.428 6.61742 12.3807 6.28409 12.3807C5.68182 12.3807 5.1572 12.5303 4.71023 12.8295C4.26326 13.125 3.91667 13.5568 3.67045 14.125C3.42424 14.6894 3.30114 15.375 3.30114 16.1818C3.30114 17.0114 3.42424 17.7083 3.67045 18.2727C3.92045 18.8371 4.26894 19.2633 4.71591 19.5511C5.16288 19.839 5.67992 19.983 6.26705 19.983C6.59659 19.983 6.90152 19.9394 7.18182 19.8523C7.46591 19.7652 7.7178 19.6383 7.9375 19.4716C8.1572 19.3011 8.33902 19.0947 8.48295 18.8523C8.63068 18.6098 8.73295 18.3333 8.78977 18.0227L11.2784 18.0341C11.214 18.5682 11.053 19.0833 10.7955 19.5795C10.5417 20.072 10.1989 20.5133 9.76705 20.9034C9.33902 21.2898 8.82765 21.5966 8.23295 21.8239C7.64205 22.0473 6.97348 22.1591 6.22727 22.1591C5.18939 22.1591 4.26136 21.9242 3.44318 21.4545C2.62879 20.9848 1.98485 20.3049 1.51136 19.4148C1.04167 18.5246 0.806818 17.447 0.806818 16.1818C0.806818 14.9129 1.04545 13.8333 1.52273 12.9432C2 12.053 2.64773 11.375 3.46591 10.9091C4.28409 10.4394 5.20455 10.2045 6.22727 10.2045C6.90152 10.2045 7.52652 10.2992 8.10227 10.4886C8.68182 10.678 9.19508 10.9545 9.64205 11.3182C10.089 11.678 10.4527 12.1193 10.733 12.642C11.017 13.1648 11.1989 13.7633 11.2784 14.4375ZM15.4176 16.9545V22H12.9972V10.3636H15.3494V14.8125H15.4517C15.6487 14.2973 15.9669 13.8939 16.4062 13.6023C16.8456 13.3068 17.3968 13.1591 18.0597 13.1591C18.6657 13.1591 19.1941 13.2917 19.6449 13.5568C20.0994 13.8182 20.4517 14.1951 20.7017 14.6875C20.9555 15.1761 21.0805 15.7614 21.0767 16.4432V22H18.6562V16.875C18.66 16.3371 18.5237 15.9186 18.2472 15.6193C17.9744 15.3201 17.5919 15.1705 17.0994 15.1705C16.7699 15.1705 16.4782 15.2405 16.2244 15.3807C15.9744 15.5208 15.7775 15.7254 15.6335 15.9943C15.4934 16.2595 15.4214 16.5795 15.4176 16.9545ZM25.4702 22.1648C24.9134 22.1648 24.4171 22.0682 23.9815 21.875C23.5459 21.678 23.2012 21.3883 22.9474 21.0057C22.6974 20.6193 22.5724 20.1383 22.5724 19.5625C22.5724 19.0777 22.6615 18.6705 22.8395 18.3409C23.0175 18.0114 23.2599 17.7462 23.5668 17.5455C23.8736 17.3447 24.2221 17.1932 24.6122 17.0909C25.0062 16.9886 25.419 16.9167 25.8509 16.875C26.3584 16.822 26.7675 16.7727 27.0781 16.7273C27.3887 16.678 27.6141 16.6061 27.7543 16.5114C27.8944 16.4167 27.9645 16.2765 27.9645 16.0909V16.0568C27.9645 15.697 27.8509 15.4186 27.6236 15.2216C27.4001 15.0246 27.0819 14.9261 26.669 14.9261C26.2334 14.9261 25.8868 15.0227 25.6293 15.2159C25.3717 15.4053 25.2012 15.6439 25.1179 15.9318L22.8793 15.75C22.9929 15.2197 23.2164 14.7614 23.5497 14.375C23.883 13.9848 24.313 13.6856 24.8395 13.4773C25.3698 13.2652 25.9834 13.1591 26.6804 13.1591C27.1652 13.1591 27.6293 13.2159 28.0724 13.3295C28.5194 13.4432 28.9152 13.6193 29.2599 13.858C29.6084 14.0966 29.883 14.4034 30.0838 14.7784C30.2846 15.1496 30.3849 15.5947 30.3849 16.1136V22H28.0895V20.7898H28.0213C27.8812 21.0625 27.6937 21.303 27.4588 21.5114C27.224 21.7159 26.9418 21.8769 26.6122 21.9943C26.2827 22.108 25.902 22.1648 25.4702 22.1648ZM26.1634 20.4943C26.5194 20.4943 26.8338 20.4242 27.1065 20.2841C27.3793 20.1402 27.5933 19.947 27.7486 19.7045C27.9039 19.4621 27.9815 19.1875 27.9815 18.8807V17.9545C27.9058 18.0038 27.8016 18.0492 27.669 18.0909C27.5402 18.1288 27.3944 18.1648 27.2315 18.1989C27.0687 18.2292 26.9058 18.2576 26.7429 18.2841C26.58 18.3068 26.4323 18.3277 26.2997 18.3466C26.0156 18.3883 25.7675 18.4545 25.5554 18.5455C25.3433 18.6364 25.1785 18.7595 25.0611 18.9148C24.9437 19.0663 24.8849 19.2557 24.8849 19.483C24.8849 19.8125 25.0043 20.0644 25.2429 20.2386C25.4853 20.4091 25.7921 20.4943 26.1634 20.4943ZM32.2628 22V13.2727H34.6094V14.7955H34.7003C34.8594 14.2538 35.1264 13.8447 35.5014 13.5682C35.8764 13.2879 36.3082 13.1477 36.7969 13.1477C36.9181 13.1477 37.0488 13.1553 37.1889 13.1705C37.3291 13.1856 37.4522 13.2064 37.5582 13.233V15.3807C37.4446 15.3466 37.2874 15.3163 37.0866 15.2898C36.8859 15.2633 36.7022 15.25 36.5355 15.25C36.1795 15.25 35.8613 15.3277 35.581 15.483C35.3045 15.6345 35.0848 15.8466 34.9219 16.1193C34.7628 16.392 34.6832 16.7064 34.6832 17.0625V22H32.2628ZM43.8892 13.2727V15.0909H38.6335V13.2727H43.8892ZM39.8267 11.1818H42.2472V19.3182C42.2472 19.5417 42.2813 19.7159 42.3494 19.8409C42.4176 19.9621 42.5123 20.0473 42.6335 20.0966C42.7585 20.1458 42.9025 20.1705 43.0653 20.1705C43.179 20.1705 43.2926 20.161 43.4062 20.142C43.5199 20.1193 43.607 20.1023 43.6676 20.0909L44.0483 21.892C43.9271 21.9299 43.7566 21.9735 43.5369 22.0227C43.3172 22.0758 43.0502 22.108 42.7358 22.1193C42.1525 22.142 41.6411 22.0644 41.2017 21.8864C40.7661 21.7083 40.4271 21.4318 40.1847 21.0568C39.9422 20.6818 39.8229 20.2083 39.8267 19.6364V11.1818ZM53.8111 13.2727V15.0909H48.5554V13.2727H53.8111ZM49.7486 11.1818H52.169V19.3182C52.169 19.5417 52.2031 19.7159 52.2713 19.8409C52.3395 19.9621 52.4342 20.0473 52.5554 20.0966C52.6804 20.1458 52.8243 20.1705 52.9872 20.1705C53.1009 20.1705 53.2145 20.161 53.3281 20.142C53.4418 20.1193 53.5289 20.1023 53.5895 20.0909L53.9702 21.892C53.849 21.9299 53.6785 21.9735 53.4588 22.0227C53.2391 22.0758 52.9721 22.108 52.6577 22.1193C52.0743 22.142 51.563 22.0644 51.1236 21.8864C50.688 21.7083 50.349 21.4318 50.1065 21.0568C49.8641 20.6818 49.7448 20.2083 49.7486 19.6364V11.1818ZM55.3878 22V13.2727H57.8082V22H55.3878ZM56.6037 12.1477C56.2438 12.1477 55.9351 12.0284 55.6776 11.7898C55.4238 11.5473 55.2969 11.2576 55.2969 10.9205C55.2969 10.5871 55.4238 10.3011 55.6776 10.0625C55.9351 9.82008 56.2438 9.69886 56.6037 9.69886C56.9635 9.69886 57.2704 9.82008 57.5241 10.0625C57.7817 10.3011 57.9105 10.5871 57.9105 10.9205C57.9105 11.2576 57.7817 11.5473 57.5241 11.7898C57.2704 12.0284 56.9635 12.1477 56.6037 12.1477ZM64.3892 13.2727V15.0909H59.1335V13.2727H64.3892ZM60.3267 11.1818H62.7472V19.3182C62.7472 19.5417 62.7813 19.7159 62.8494 19.8409C62.9176 19.9621 63.0123 20.0473 63.1335 20.0966C63.2585 20.1458 63.4025 20.1705 63.5653 20.1705C63.679 20.1705 63.7926 20.161 63.9062 20.142C64.0199 20.1193 64.107 20.1023 64.1676 20.0909L64.5483 21.892C64.4271 21.9299 64.2566 21.9735 64.0369 22.0227C63.8172 22.0758 63.5502 22.108 63.2358 22.1193C62.6525 22.142 62.1411 22.0644 61.7017 21.8864C61.2661 21.7083 60.9271 21.4318 60.6847 21.0568C60.4422 20.6818 60.3229 20.2083 60.3267 19.6364V11.1818ZM68.5739 10.3636V22H66.1534V10.3636H68.5739ZM74.4901 22.1705C73.5923 22.1705 72.8196 21.9886 72.1719 21.625C71.5279 21.2576 71.0317 20.7386 70.6832 20.0682C70.3348 19.3939 70.1605 18.5966 70.1605 17.6761C70.1605 16.7784 70.3348 15.9905 70.6832 15.3125C71.0317 14.6345 71.5223 14.1061 72.1548 13.7273C72.7912 13.3485 73.5374 13.1591 74.3935 13.1591C74.9692 13.1591 75.5052 13.2519 76.0014 13.4375C76.5014 13.6193 76.937 13.8939 77.3082 14.2614C77.6832 14.6288 77.9749 15.0909 78.1832 15.6477C78.3916 16.2008 78.4957 16.8485 78.4957 17.5909V18.2557H71.1264V16.7557H76.2173C76.2173 16.4072 76.1416 16.0985 75.9901 15.8295C75.8385 15.5606 75.6283 15.3504 75.3594 15.1989C75.0942 15.0436 74.7855 14.9659 74.4332 14.9659C74.0658 14.9659 73.7401 15.0511 73.456 15.2216C73.1757 15.3883 72.956 15.6136 72.7969 15.8977C72.6378 16.178 72.5563 16.4905 72.5526 16.8352V18.2614C72.5526 18.6932 72.6321 19.0663 72.7912 19.3807C72.9541 19.6951 73.1832 19.9375 73.4787 20.108C73.7741 20.2784 74.1245 20.3636 74.5298 20.3636C74.7988 20.3636 75.045 20.3258 75.2685 20.25C75.492 20.1742 75.6832 20.0606 75.8423 19.9091C76.0014 19.7576 76.1226 19.572 76.206 19.3523L78.4446 19.5C78.331 20.0379 78.098 20.5076 77.7457 20.9091C77.3973 21.3068 76.9465 21.6174 76.3935 21.8409C75.8442 22.0606 75.2098 22.1705 74.4901 22.1705Z" fill="#161616"/>
<g clip-path="url(#clip0_10046_81379)">
<rect width="32" height="32" transform="translate(910)" fill="white" fill-opacity="0.01" style="mix-blend-mode:multiply"/>
<g clip-path="url(#clip1_10046_81379)">
<rect width="16" height="16" transform="translate(918 8)" fill="white" fill-opacity="0.01" style="mix-blend-mode:multiply"/>
<path d="M928 9V10H931.293L927 14.291L927.707 15L932 10.707V14H933V9H928Z" fill="#161616"/>
<path d="M925 17.708L924.296 17L920 21.293V18H919V23H924V22H920.707L925 17.708Z" fill="#161616"/>
</g>
</g>
<path d="M454.268 62V51.8182H455.501V60.9062H460.234V62H454.268ZM464.231 62.179C463.747 62.179 463.308 62.0878 462.914 61.9055C462.519 61.7199 462.206 61.4531 461.974 61.1051C461.742 60.7538 461.626 60.3295 461.626 59.8324C461.626 59.3949 461.712 59.0402 461.885 58.7685C462.057 58.4934 462.287 58.2779 462.576 58.1222C462.864 57.9664 463.182 57.8504 463.53 57.7741C463.882 57.6946 464.234 57.6316 464.589 57.5852C465.053 57.5256 465.429 57.4808 465.718 57.451C466.009 57.4179 466.221 57.3632 466.354 57.2869C466.49 57.2107 466.558 57.0781 466.558 56.8892V56.8494C466.558 56.3589 466.424 55.9777 466.155 55.706C465.89 55.4342 465.487 55.2983 464.947 55.2983C464.387 55.2983 463.948 55.4209 463.63 55.6662C463.311 55.9115 463.088 56.1733 462.958 56.4517L461.845 56.054C462.044 55.59 462.309 55.2287 462.64 54.9702C462.975 54.7083 463.34 54.526 463.734 54.4233C464.132 54.3172 464.523 54.2642 464.907 54.2642C465.153 54.2642 465.434 54.294 465.752 54.3537C466.074 54.41 466.384 54.5277 466.682 54.7067C466.984 54.8857 467.234 55.1558 467.433 55.517C467.632 55.8783 467.731 56.3622 467.731 56.9688V62H466.558V60.9659H466.498C466.419 61.1316 466.286 61.3089 466.1 61.4979C465.915 61.6868 465.668 61.8475 465.36 61.9801C465.051 62.1127 464.675 62.179 464.231 62.179ZM464.41 61.125C464.874 61.125 465.265 61.0339 465.583 60.8516C465.905 60.6693 466.147 60.4339 466.309 60.1456C466.475 59.8572 466.558 59.554 466.558 59.2358V58.1619C466.508 58.2216 466.399 58.2763 466.23 58.326C466.064 58.3724 465.872 58.4138 465.653 58.4503C465.438 58.4834 465.227 58.5133 465.022 58.5398C464.819 58.563 464.655 58.5829 464.529 58.5994C464.225 58.6392 463.94 58.7038 463.674 58.7933C463.413 58.8795 463.2 59.0104 463.038 59.1861C462.879 59.3584 462.799 59.5937 462.799 59.892C462.799 60.2997 462.95 60.608 463.252 60.8168C463.557 61.0223 463.943 61.125 464.41 61.125ZM470.032 62V51.8182H471.205V55.5767H471.305C471.391 55.4441 471.51 55.2751 471.662 55.0696C471.818 54.8608 472.04 54.6752 472.329 54.5128C472.62 54.3471 473.015 54.2642 473.512 54.2642C474.155 54.2642 474.722 54.425 475.212 54.7464C475.703 55.0679 476.086 55.5237 476.361 56.1136C476.636 56.7036 476.773 57.3996 476.773 58.2017C476.773 59.0104 476.636 59.7114 476.361 60.3047C476.086 60.8946 475.704 61.352 475.217 61.6768C474.73 61.9983 474.168 62.1591 473.532 62.1591C473.041 62.1591 472.648 62.0779 472.354 61.9155C472.059 61.7498 471.831 61.5625 471.672 61.3537C471.513 61.1416 471.391 60.9659 471.305 60.8267H471.165V62H470.032ZM471.185 58.1818C471.185 58.7585 471.27 59.2673 471.439 59.7081C471.608 60.1456 471.855 60.4886 472.18 60.7372C472.504 60.9825 472.902 61.1051 473.373 61.1051C473.863 61.1051 474.273 60.9759 474.601 60.7173C474.932 60.4555 475.181 60.1042 475.346 59.6634C475.515 59.2192 475.6 58.7254 475.6 58.1818C475.6 57.6449 475.517 57.161 475.351 56.7301C475.189 56.2959 474.942 55.9529 474.611 55.701C474.282 55.4458 473.87 55.3182 473.373 55.3182C472.895 55.3182 472.494 55.4392 472.17 55.6811C471.845 55.9197 471.599 56.2545 471.434 56.6854C471.268 57.1129 471.185 57.6117 471.185 58.1818ZM481.77 62.1591C481.034 62.1591 480.399 61.9967 479.866 61.6719C479.335 61.3438 478.926 60.8864 478.638 60.2997C478.353 59.7098 478.21 59.0237 478.21 58.2415C478.21 57.4593 478.353 56.7699 478.638 56.1733C478.926 55.5734 479.327 55.1061 479.841 54.7713C480.358 54.4332 480.961 54.2642 481.65 54.2642C482.048 54.2642 482.441 54.3305 482.829 54.4631C483.216 54.5956 483.569 54.8111 483.888 55.1094C484.206 55.4044 484.459 55.7955 484.648 56.2827C484.837 56.7699 484.932 57.3698 484.932 58.0824V58.5795H479.045V57.5653H483.738C483.738 57.1345 483.652 56.75 483.48 56.4119C483.311 56.0739 483.069 55.8071 482.754 55.6115C482.443 55.416 482.075 55.3182 481.65 55.3182C481.183 55.3182 480.779 55.4342 480.437 55.6662C480.099 55.8949 479.839 56.1932 479.657 56.5611C479.474 56.929 479.383 57.3234 479.383 57.7443V58.4205C479.383 58.9972 479.483 59.486 479.682 59.8871C479.884 60.2848 480.164 60.5881 480.522 60.7969C480.88 61.0024 481.296 61.1051 481.77 61.1051C482.078 61.1051 482.356 61.062 482.605 60.9759C482.857 60.8864 483.074 60.7538 483.256 60.5781C483.439 60.3991 483.579 60.1771 483.679 59.9119L484.812 60.2301C484.693 60.6146 484.492 60.9527 484.211 61.2443C483.929 61.5327 483.581 61.758 483.167 61.9205C482.752 62.0795 482.287 62.1591 481.77 62.1591ZM487.89 51.8182V62H486.716V51.8182H487.89Z" fill="#525252"/>
<path d="M640.233 189.996V179.814H641.466V188.902H646.199V189.996H640.233ZM650.196 190.175C649.712 190.175 649.273 190.084 648.879 189.902C648.484 189.716 648.171 189.449 647.939 189.101C647.707 188.75 647.591 188.326 647.591 187.828C647.591 187.391 647.677 187.036 647.849 186.765C648.022 186.489 648.252 186.274 648.54 186.118C648.829 185.962 649.147 185.846 649.495 185.77C649.846 185.691 650.199 185.628 650.554 185.581C651.018 185.522 651.394 185.477 651.683 185.447C651.974 185.414 652.186 185.359 652.319 185.283C652.455 185.207 652.523 185.074 652.523 184.885V184.846C652.523 184.355 652.388 183.974 652.12 183.702C651.855 183.43 651.452 183.294 650.912 183.294C650.352 183.294 649.913 183.417 649.594 183.662C649.276 183.908 649.053 184.169 648.923 184.448L647.81 184.05C648.009 183.586 648.274 183.225 648.605 182.966C648.94 182.704 649.304 182.522 649.699 182.419C650.097 182.313 650.488 182.26 650.872 182.26C651.117 182.26 651.399 182.29 651.717 182.35C652.039 182.406 652.349 182.524 652.647 182.703C652.949 182.882 653.199 183.152 653.398 183.513C653.597 183.874 653.696 184.358 653.696 184.965V189.996H652.523V188.962H652.463C652.384 189.128 652.251 189.305 652.065 189.494C651.88 189.683 651.633 189.844 651.325 189.976C651.016 190.109 650.64 190.175 650.196 190.175ZM650.375 189.121C650.839 189.121 651.23 189.03 651.548 188.848C651.87 188.665 652.112 188.43 652.274 188.142C652.44 187.853 652.523 187.55 652.523 187.232V186.158C652.473 186.218 652.364 186.272 652.195 186.322C652.029 186.368 651.837 186.41 651.618 186.446C651.402 186.48 651.192 186.509 650.987 186.536C650.784 186.559 650.62 186.579 650.494 186.596C650.189 186.635 649.904 186.7 649.639 186.789C649.377 186.876 649.165 187.007 649.003 187.182C648.844 187.355 648.764 187.59 648.764 187.888C648.764 188.296 648.915 188.604 649.217 188.813C649.522 189.018 649.908 189.121 650.375 189.121ZM655.997 189.996V179.814H657.17V183.573H657.269C657.356 183.44 657.475 183.271 657.627 183.066C657.783 182.857 658.005 182.671 658.294 182.509C658.585 182.343 658.98 182.26 659.477 182.26C660.12 182.26 660.686 182.421 661.177 182.743C661.668 183.064 662.05 183.52 662.325 184.11C662.601 184.7 662.738 185.396 662.738 186.198C662.738 187.007 662.601 187.708 662.325 188.301C662.05 188.891 661.669 189.348 661.182 189.673C660.695 189.994 660.133 190.155 659.497 190.155C659.006 190.155 658.613 190.074 658.318 189.912C658.023 189.746 657.796 189.559 657.637 189.35C657.478 189.138 657.356 188.962 657.269 188.823H657.13V189.996H655.997ZM657.15 186.178C657.15 186.755 657.235 187.263 657.404 187.704C657.573 188.142 657.82 188.485 658.144 188.733C658.469 188.979 658.867 189.101 659.338 189.101C659.828 189.101 660.237 188.972 660.566 188.713C660.897 188.452 661.146 188.1 661.311 187.659C661.48 187.215 661.565 186.721 661.565 186.178C661.565 185.641 661.482 185.157 661.316 184.726C661.154 184.292 660.907 183.949 660.575 183.697C660.247 183.442 659.835 183.314 659.338 183.314C658.86 183.314 658.459 183.435 658.134 183.677C657.81 183.916 657.564 184.251 657.399 184.681C657.233 185.109 657.15 185.608 657.15 186.178ZM667.735 190.155C666.999 190.155 666.364 189.993 665.83 189.668C665.3 189.34 664.891 188.882 664.602 188.296C664.317 187.706 664.175 187.02 664.175 186.238C664.175 185.455 664.317 184.766 664.602 184.169C664.891 183.569 665.292 183.102 665.806 182.767C666.323 182.429 666.926 182.26 667.615 182.26C668.013 182.26 668.406 182.327 668.794 182.459C669.181 182.592 669.534 182.807 669.852 183.105C670.171 183.4 670.424 183.792 670.613 184.279C670.802 184.766 670.896 185.366 670.896 186.078V186.576H665.01V185.561H669.703C669.703 185.131 669.617 184.746 669.445 184.408C669.276 184.07 669.034 183.803 668.719 183.608C668.407 183.412 668.039 183.314 667.615 183.314C667.148 183.314 666.744 183.43 666.402 183.662C666.064 183.891 665.804 184.189 665.622 184.557C665.439 184.925 665.348 185.319 665.348 185.74V186.417C665.348 186.993 665.448 187.482 665.646 187.883C665.849 188.281 666.129 188.584 666.487 188.793C666.845 188.998 667.261 189.101 667.735 189.101C668.043 189.101 668.321 189.058 668.57 188.972C668.822 188.882 669.039 188.75 669.221 188.574C669.403 188.395 669.544 188.173 669.644 187.908L670.777 188.226C670.658 188.611 670.457 188.949 670.176 189.24C669.894 189.529 669.546 189.754 669.132 189.917C668.717 190.076 668.252 190.155 667.735 190.155ZM673.855 179.814V189.996H672.681V179.814H673.855Z" fill="#525252"/>
<g clip-path="url(#clip2_10046_81379)">
<path d="M471.001 73.4L471 241.429L630.807 189.504L471.001 73.4Z" stroke="#E0E0E0"/>
<g clip-path="url(#clip3_10046_81379)">
<mask id="mask0_10046_81379" style="mask-type:alpha" maskUnits="userSpaceOnUse" x="471" y="73" width="160" height="169">
<path d="M471.001 73.4L471 241.429L630.807 189.504L471.001 73.4Z" fill="#D9D9D9"/>
</mask>
<g mask="url(#mask0_10046_81379)">
<path d="M555.807 266.363L420.7 168.204" stroke="#E0E0E0"/>
<path d="M568.306 249.158L433.199 150.999" stroke="#E0E0E0"/>
<path d="M580.805 231.955L445.698 133.796" stroke="#E0E0E0"/>
<path d="M593.305 214.752L458.198 116.593" stroke="#E0E0E0"/>
<path d="M605.804 197.547L470.697 99.3878" stroke="#E0E0E0"/>
<path d="M618.303 180.344L483.196 82.1847" stroke="#E0E0E0" stroke-width="2.36"/>
</g>
</g>
</g>
<g clip-path="url(#clip4_10046_81379)">
<path d="M630.807 189.507L471 241.429L569.767 377.367L630.807 189.507Z" stroke="#E0E0E0"/>
<g clip-path="url(#clip5_10046_81379)">
<mask id="mask1_10046_81379" style="mask-type:alpha" maskUnits="userSpaceOnUse" x="471" y="189" width="160" height="189">
<path d="M630.807 189.507L471 241.429L569.767 377.367L630.807 189.507Z" fill="#D9D9D9"/>
</mask>
<g mask="url(#mask1_10046_81379)">
<path d="M469.475 342.152L529.116 158.599" stroke="#E0E0E0"/>
<path d="M489.699 348.723L549.34 165.169" stroke="#E0E0E0"/>
<path d="M509.923 355.295L569.564 171.741" stroke="#E0E0E0"/>
<path d="M530.147 361.865L589.789 178.312" stroke="#E0E0E0"/>
<path d="M550.372 368.436L610.013 184.882" stroke="#E0E0E0"/>
<path d="M570.596 375.008L630.237 191.454" stroke="#E0E0E0" stroke-width="2.36"/>
</g>
</g>
</g>
<g clip-path="url(#clip6_10046_81379)">
<path d="M569.765 377.366L471 241.428L372.234 377.366H569.765Z" stroke="#E0E0E0"/>
<g clip-path="url(#clip7_10046_81379)">
<mask id="mask2_10046_81379" style="mask-type:alpha" maskUnits="userSpaceOnUse" x="372" y="241" width="198" height="137">
<path d="M569.765 377.366L471 241.428L372.234 377.366H569.765Z" fill="#D9D9D9"/>
</mask>
<g mask="url(#mask2_10046_81379)">
<path d="M397.234 271.104H545.234" stroke="#E0E0E0"/>
<path d="M397.234 292.367H545.234" stroke="#E0E0E0"/>
<path d="M397.234 313.633H545.234" stroke="#E0E0E0"/>
<path d="M397.234 334.898H545.234" stroke="#E0E0E0"/>
<path d="M397.234 356.162H545.234" stroke="#E0E0E0"/>
<path d="M397.234 377.428H545.234" stroke="#E0E0E0" stroke-width="2.36"/>
</g>
</g>
</g>
<g clip-path="url(#clip8_10046_81379)">
<path d="M372.234 377.365L471.001 241.428L311.193 189.505L372.234 377.365Z" stroke="#E0E0E0"/>
<g clip-path="url(#clip9_10046_81379)">
<mask id="mask3_10046_81379" style="mask-type:alpha" maskUnits="userSpaceOnUse" x="311" y="189" width="161" height="189">
<path d="M372.234 377.365L471.001 241.428L311.193 189.505L372.234 377.365Z" fill="#D9D9D9"/>
</mask>
<g mask="url(#mask3_10046_81379)">
<path d="M413.03 159.045L472.671 342.599" stroke="#E0E0E0"/>
<path d="M392.806 165.617L452.447 349.171" stroke="#E0E0E0"/>
<path d="M372.582 172.188L432.223 355.741" stroke="#E0E0E0"/>
<path d="M352.357 178.76L411.999 362.313" stroke="#E0E0E0"/>
<path d="M332.134 185.33L391.775 368.884" stroke="#E0E0E0"/>
<path d="M311.909 191.902L371.55 375.456" stroke="#E0E0E0" stroke-width="2.36"/>
</g>
</g>
</g>
<g clip-path="url(#clip10_10046_81379)">
<path d="M311.193 189.504L471 241.429L470.999 73.4003L311.193 189.504Z" stroke="#E0E0E0"/>
<mask id="mask4_10046_81379" style="mask-type:alpha" maskUnits="userSpaceOnUse" x="311" y="73" width="160" height="169">
<path d="M311.193 189.504L471 241.429L470.999 73.4003L311.193 189.504Z" fill="#D9D9D9"/>
</mask>
<g mask="url(#mask4_10046_81379)">
<path d="M520.921 168.48L385.814 266.64" stroke="#E0E0E0"/>
<path d="M508.422 151.277L373.315 249.436" stroke="#E0E0E0"/>
<path d="M495.922 134.072L360.815 232.231" stroke="#E0E0E0"/>
<path d="M483.423 116.869L348.316 215.028" stroke="#E0E0E0"/>
<path d="M470.923 99.666L335.816 197.825" stroke="#E0E0E0"/>
<path d="M458.424 82.4609L323.317 180.62" stroke="#E0E0E0" stroke-width="2.36"/>
</g>
</g>
<path d="M470.999 230.66L461.05 237.888L464.85 249.584H477.148L480.947 237.888L470.999 230.66Z" fill="white" stroke="#E0E0E0"/>
<path d="M340.233 399V388.818H341.466V397.906H346.199V399H340.233ZM350.196 399.179C349.712 399.179 349.273 399.088 348.879 398.906C348.484 398.72 348.171 398.453 347.939 398.105C347.707 397.754 347.591 397.33 347.591 396.832C347.591 396.395 347.677 396.04 347.849 395.768C348.022 395.493 348.252 395.278 348.54 395.122C348.829 394.966 349.147 394.85 349.495 394.774C349.846 394.695 350.199 394.632 350.554 394.585C351.018 394.526 351.394 394.481 351.683 394.451C351.974 394.418 352.186 394.363 352.319 394.287C352.455 394.211 352.523 394.078 352.523 393.889V393.849C352.523 393.359 352.388 392.978 352.12 392.706C351.855 392.434 351.452 392.298 350.912 392.298C350.352 392.298 349.913 392.421 349.594 392.666C349.276 392.911 349.053 393.173 348.923 393.452L347.81 393.054C348.009 392.59 348.274 392.229 348.605 391.97C348.94 391.708 349.304 391.526 349.699 391.423C350.097 391.317 350.488 391.264 350.872 391.264C351.117 391.264 351.399 391.294 351.717 391.354C352.039 391.41 352.349 391.528 352.647 391.707C352.949 391.886 353.199 392.156 353.398 392.517C353.597 392.878 353.696 393.362 353.696 393.969V399H352.523V397.966H352.463C352.384 398.132 352.251 398.309 352.065 398.498C351.88 398.687 351.633 398.848 351.325 398.98C351.016 399.113 350.64 399.179 350.196 399.179ZM350.375 398.125C350.839 398.125 351.23 398.034 351.548 397.852C351.87 397.669 352.112 397.434 352.274 397.146C352.44 396.857 352.523 396.554 352.523 396.236V395.162C352.473 395.222 352.364 395.276 352.195 395.326C352.029 395.372 351.837 395.414 351.618 395.45C351.402 395.483 351.192 395.513 350.987 395.54C350.784 395.563 350.62 395.583 350.494 395.599C350.189 395.639 349.904 395.704 349.639 395.793C349.377 395.879 349.165 396.01 349.003 396.186C348.844 396.358 348.764 396.594 348.764 396.892C348.764 397.3 348.915 397.608 349.217 397.817C349.522 398.022 349.908 398.125 350.375 398.125ZM355.997 399V388.818H357.17V392.577H357.269C357.356 392.444 357.475 392.275 357.627 392.07C357.783 391.861 358.005 391.675 358.294 391.513C358.585 391.347 358.98 391.264 359.477 391.264C360.12 391.264 360.686 391.425 361.177 391.746C361.668 392.068 362.05 392.524 362.325 393.114C362.601 393.704 362.738 394.4 362.738 395.202C362.738 396.01 362.601 396.711 362.325 397.305C362.05 397.895 361.669 398.352 361.182 398.677C360.695 398.998 360.133 399.159 359.497 399.159C359.006 399.159 358.613 399.078 358.318 398.915C358.023 398.75 357.796 398.562 357.637 398.354C357.478 398.142 357.356 397.966 357.269 397.827H357.13V399H355.997ZM357.15 395.182C357.15 395.759 357.235 396.267 357.404 396.708C357.573 397.146 357.82 397.489 358.144 397.737C358.469 397.982 358.867 398.105 359.338 398.105C359.828 398.105 360.237 397.976 360.566 397.717C360.897 397.455 361.146 397.104 361.311 396.663C361.48 396.219 361.565 395.725 361.565 395.182C361.565 394.645 361.482 394.161 361.316 393.73C361.154 393.296 360.907 392.953 360.575 392.701C360.247 392.446 359.835 392.318 359.338 392.318C358.86 392.318 358.459 392.439 358.134 392.681C357.81 392.92 357.564 393.254 357.399 393.685C357.233 394.113 357.15 394.612 357.15 395.182ZM367.735 399.159C366.999 399.159 366.364 398.997 365.83 398.672C365.3 398.344 364.891 397.886 364.602 397.3C364.317 396.71 364.175 396.024 364.175 395.241C364.175 394.459 364.317 393.77 364.602 393.173C364.891 392.573 365.292 392.106 365.806 391.771C366.323 391.433 366.926 391.264 367.615 391.264C368.013 391.264 368.406 391.33 368.794 391.463C369.181 391.596 369.534 391.811 369.852 392.109C370.171 392.404 370.424 392.795 370.613 393.283C370.802 393.77 370.896 394.37 370.896 395.082V395.58H365.01V394.565H369.703C369.703 394.134 369.617 393.75 369.445 393.412C369.276 393.074 369.034 392.807 368.719 392.612C368.407 392.416 368.039 392.318 367.615 392.318C367.148 392.318 366.744 392.434 366.402 392.666C366.064 392.895 365.804 393.193 365.622 393.561C365.439 393.929 365.348 394.323 365.348 394.744V395.42C365.348 395.997 365.448 396.486 365.646 396.887C365.849 397.285 366.129 397.588 366.487 397.797C366.845 398.002 367.261 398.105 367.735 398.105C368.043 398.105 368.321 398.062 368.57 397.976C368.822 397.886 369.039 397.754 369.221 397.578C369.403 397.399 369.544 397.177 369.644 396.912L370.777 397.23C370.658 397.615 370.457 397.953 370.176 398.244C369.894 398.533 369.546 398.758 369.132 398.92C368.717 399.08 368.252 399.159 367.735 399.159ZM373.855 388.818V399H372.681V388.818H373.855Z" fill="#525252"/>
<path d="M568.233 399V388.818H569.466V397.906H574.199V399H568.233ZM578.196 399.179C577.712 399.179 577.273 399.088 576.879 398.906C576.484 398.72 576.171 398.453 575.939 398.105C575.707 397.754 575.591 397.33 575.591 396.832C575.591 396.395 575.677 396.04 575.849 395.768C576.022 395.493 576.252 395.278 576.54 395.122C576.829 394.966 577.147 394.85 577.495 394.774C577.846 394.695 578.199 394.632 578.554 394.585C579.018 394.526 579.394 394.481 579.683 394.451C579.974 394.418 580.186 394.363 580.319 394.287C580.455 394.211 580.523 394.078 580.523 393.889V393.849C580.523 393.359 580.388 392.978 580.12 392.706C579.855 392.434 579.452 392.298 578.912 392.298C578.352 392.298 577.913 392.421 577.594 392.666C577.276 392.911 577.053 393.173 576.923 393.452L575.81 393.054C576.009 392.59 576.274 392.229 576.605 391.97C576.94 391.708 577.304 391.526 577.699 391.423C578.097 391.317 578.488 391.264 578.872 391.264C579.117 391.264 579.399 391.294 579.717 391.354C580.039 391.41 580.349 391.528 580.647 391.707C580.949 391.886 581.199 392.156 581.398 392.517C581.597 392.878 581.696 393.362 581.696 393.969V399H580.523V397.966H580.463C580.384 398.132 580.251 398.309 580.065 398.498C579.88 398.687 579.633 398.848 579.325 398.98C579.016 399.113 578.64 399.179 578.196 399.179ZM578.375 398.125C578.839 398.125 579.23 398.034 579.548 397.852C579.87 397.669 580.112 397.434 580.274 397.146C580.44 396.857 580.523 396.554 580.523 396.236V395.162C580.473 395.222 580.364 395.276 580.195 395.326C580.029 395.372 579.837 395.414 579.618 395.45C579.402 395.483 579.192 395.513 578.987 395.54C578.784 395.563 578.62 395.583 578.494 395.599C578.189 395.639 577.904 395.704 577.639 395.793C577.377 395.879 577.165 396.01 577.003 396.186C576.844 396.358 576.764 396.594 576.764 396.892C576.764 397.3 576.915 397.608 577.217 397.817C577.522 398.022 577.908 398.125 578.375 398.125ZM583.997 399V388.818H585.17V392.577H585.269C585.356 392.444 585.475 392.275 585.627 392.07C585.783 391.861 586.005 391.675 586.294 391.513C586.585 391.347 586.98 391.264 587.477 391.264C588.12 391.264 588.686 391.425 589.177 391.746C589.668 392.068 590.05 392.524 590.325 393.114C590.601 393.704 590.738 394.4 590.738 395.202C590.738 396.01 590.601 396.711 590.325 397.305C590.05 397.895 589.669 398.352 589.182 398.677C588.695 398.998 588.133 399.159 587.497 399.159C587.006 399.159 586.613 399.078 586.318 398.915C586.023 398.75 585.796 398.562 585.637 398.354C585.478 398.142 585.356 397.966 585.269 397.827H585.13V399H583.997ZM585.15 395.182C585.15 395.759 585.235 396.267 585.404 396.708C585.573 397.146 585.82 397.489 586.144 397.737C586.469 397.982 586.867 398.105 587.338 398.105C587.828 398.105 588.237 397.976 588.566 397.717C588.897 397.455 589.146 397.104 589.311 396.663C589.48 396.219 589.565 395.725 589.565 395.182C589.565 394.645 589.482 394.161 589.316 393.73C589.154 393.296 588.907 392.953 588.575 392.701C588.247 392.446 587.835 392.318 587.338 392.318C586.86 392.318 586.459 392.439 586.134 392.681C585.81 392.92 585.564 393.254 585.399 393.685C585.233 394.113 585.15 394.612 585.15 395.182ZM595.735 399.159C594.999 399.159 594.364 398.997 593.83 398.672C593.3 398.344 592.891 397.886 592.602 397.3C592.317 396.71 592.175 396.024 592.175 395.241C592.175 394.459 592.317 393.77 592.602 393.173C592.891 392.573 593.292 392.106 593.806 391.771C594.323 391.433 594.926 391.264 595.615 391.264C596.013 391.264 596.406 391.33 596.794 391.463C597.181 391.596 597.534 391.811 597.852 392.109C598.171 392.404 598.424 392.795 598.613 393.283C598.802 393.77 598.896 394.37 598.896 395.082V395.58H593.01V394.565H597.703C597.703 394.134 597.617 393.75 597.445 393.412C597.276 393.074 597.034 392.807 596.719 392.612C596.407 392.416 596.039 392.318 595.615 392.318C595.148 392.318 594.744 392.434 594.402 392.666C594.064 392.895 593.804 393.193 593.622 393.561C593.439 393.929 593.348 394.323 593.348 394.744V395.42C593.348 395.997 593.448 396.486 593.646 396.887C593.849 397.285 594.129 397.588 594.487 397.797C594.845 398.002 595.261 398.105 595.735 398.105C596.043 398.105 596.321 398.062 596.57 397.976C596.822 397.886 597.039 397.754 597.221 397.578C597.403 397.399 597.544 397.177 597.644 396.912L598.777 397.23C598.658 397.615 598.457 397.953 598.176 398.244C597.894 398.533 597.546 398.758 597.132 398.92C596.717 399.08 596.252 399.159 595.735 399.159ZM601.855 388.818V399H600.681V388.818H601.855Z" fill="#525252"/>
<path d="M268.232 189.996V179.814H269.465V188.902H274.198V189.996H268.232ZM278.195 190.175C277.711 190.175 277.272 190.084 276.878 189.902C276.483 189.716 276.17 189.449 275.938 189.101C275.706 188.75 275.59 188.326 275.59 187.828C275.59 187.391 275.676 187.036 275.848 186.765C276.021 186.489 276.251 186.274 276.54 186.118C276.828 185.962 277.146 185.846 277.494 185.77C277.845 185.691 278.198 185.628 278.553 185.581C279.017 185.522 279.393 185.477 279.682 185.447C279.973 185.414 280.185 185.359 280.318 185.283C280.454 185.207 280.522 185.074 280.522 184.885V184.846C280.522 184.355 280.388 183.974 280.119 183.702C279.854 183.43 279.451 183.294 278.911 183.294C278.351 183.294 277.912 183.417 277.593 183.662C277.275 183.908 277.052 184.169 276.922 184.448L275.809 184.05C276.008 183.586 276.273 183.225 276.604 182.966C276.939 182.704 277.303 182.522 277.698 182.419C278.096 182.313 278.487 182.26 278.871 182.26C279.116 182.26 279.398 182.29 279.716 182.35C280.038 182.406 280.348 182.524 280.646 182.703C280.948 182.882 281.198 183.152 281.397 183.513C281.596 183.874 281.695 184.358 281.695 184.965V189.996H280.522V188.962H280.462C280.383 189.128 280.25 189.305 280.064 189.494C279.879 189.683 279.632 189.844 279.324 189.976C279.015 190.109 278.639 190.175 278.195 190.175ZM278.374 189.121C278.838 189.121 279.229 189.03 279.547 188.848C279.869 188.665 280.111 188.43 280.273 188.142C280.439 187.853 280.522 187.55 280.522 187.232V186.158C280.472 186.218 280.363 186.272 280.194 186.322C280.028 186.368 279.836 186.41 279.617 186.446C279.401 186.48 279.191 186.509 278.986 186.536C278.783 186.559 278.619 186.579 278.493 186.596C278.188 186.635 277.903 186.7 277.638 186.789C277.376 186.876 277.164 187.007 277.002 187.182C276.843 187.355 276.763 187.59 276.763 187.888C276.763 188.296 276.914 188.604 277.216 188.813C277.521 189.018 277.907 189.121 278.374 189.121ZM283.996 189.996V179.814H285.169V183.573H285.268C285.355 183.44 285.474 183.271 285.626 183.066C285.782 182.857 286.004 182.671 286.293 182.509C286.584 182.343 286.979 182.26 287.476 182.26C288.119 182.26 288.686 182.421 289.176 182.743C289.667 183.064 290.049 183.52 290.324 184.11C290.6 184.7 290.737 185.396 290.737 186.198C290.737 187.007 290.6 187.708 290.324 188.301C290.049 188.891 289.668 189.348 289.181 189.673C288.694 189.994 288.132 190.155 287.496 190.155C287.005 190.155 286.612 190.074 286.317 189.912C286.022 189.746 285.795 189.559 285.636 189.35C285.477 189.138 285.355 188.962 285.268 188.823H285.129V189.996H283.996ZM285.149 186.178C285.149 186.755 285.234 187.263 285.403 187.704C285.572 188.142 285.819 188.485 286.143 188.733C286.468 188.979 286.866 189.101 287.337 189.101C287.827 189.101 288.236 188.972 288.565 188.713C288.896 188.452 289.145 188.1 289.31 187.659C289.479 187.215 289.564 186.721 289.564 186.178C289.564 185.641 289.481 185.157 289.315 184.726C289.153 184.292 288.906 183.949 288.574 183.697C288.246 183.442 287.834 183.314 287.337 183.314C286.859 183.314 286.458 183.435 286.133 183.677C285.809 183.916 285.563 184.251 285.398 184.681C285.232 185.109 285.149 185.608 285.149 186.178ZM295.734 190.155C294.998 190.155 294.363 189.993 293.829 189.668C293.299 189.34 292.89 188.882 292.601 188.296C292.316 187.706 292.174 187.02 292.174 186.238C292.174 185.455 292.316 184.766 292.601 184.169C292.89 183.569 293.291 183.102 293.805 182.767C294.322 182.429 294.925 182.26 295.614 182.26C296.012 182.26 296.405 182.327 296.793 182.459C297.18 182.592 297.533 182.807 297.851 183.105C298.17 183.4 298.423 183.792 298.612 184.279C298.801 184.766 298.896 185.366 298.896 186.078V186.576H293.009V185.561H297.702C297.702 185.131 297.616 184.746 297.444 184.408C297.275 184.07 297.033 183.803 296.718 183.608C296.406 183.412 296.039 183.314 295.614 183.314C295.147 183.314 294.743 183.43 294.401 183.662C294.063 183.891 293.803 184.189 293.621 184.557C293.438 184.925 293.347 185.319 293.347 185.74V186.417C293.347 186.993 293.447 187.482 293.646 187.883C293.848 188.281 294.128 188.584 294.486 188.793C294.844 188.998 295.26 189.101 295.734 189.101C296.042 189.101 296.32 189.058 296.569 188.972C296.821 188.882 297.038 188.75 297.22 188.574C297.402 188.395 297.543 188.173 297.643 187.908L298.776 188.226C298.657 188.611 298.456 188.949 298.175 189.24C297.893 189.529 297.545 189.754 297.131 189.917C296.716 190.076 296.251 190.155 295.734 190.155ZM301.854 179.814V189.996H300.68V179.814H301.854Z" fill="#525252"/>
<defs>
<clipPath id="clip0_10046_81379">
<rect width="32" height="32" fill="white" transform="translate(910)"/>
</clipPath>
<clipPath id="clip1_10046_81379">
<rect width="16" height="16" fill="white" transform="translate(918 8)"/>
</clipPath>
<clipPath id="clip2_10046_81379">
<rect width="197.53" height="135.939" fill="white" transform="matrix(-0.809022 -0.587779 0.587791 -0.809013 550.903 299.48)"/>
</clipPath>
<clipPath id="clip3_10046_81379">
<rect width="197.53" height="135.939" fill="white" transform="matrix(-0.809022 -0.587779 0.587791 -0.809013 550.903 299.48)"/>
</clipPath>
<clipPath id="clip4_10046_81379">
<rect width="197.528" height="135.941" fill="white" transform="matrix(0.309021 -0.951055 0.951058 0.309013 440.479 335.359)"/>
</clipPath>
<clipPath id="clip5_10046_81379">
<rect width="197.528" height="135.941" fill="white" transform="matrix(0.309021 -0.951055 0.951058 0.309013 440.479 335.359)"/>
</clipPath>
<clipPath id="clip6_10046_81379">
<rect width="197.531" height="135.939" fill="white" transform="translate(372.234 241.428)"/>
</clipPath>
<clipPath id="clip7_10046_81379">
<rect width="197.531" height="135.939" fill="white" transform="translate(372.234 241.428)"/>
</clipPath>
<clipPath id="clip8_10046_81379">
<rect width="197.528" height="135.941" fill="white" transform="matrix(0.309021 0.951055 -0.951058 0.309013 440.48 147.498)"/>
</clipPath>
<clipPath id="clip9_10046_81379">
<rect width="197.528" height="135.94" fill="white" transform="matrix(0.309021 0.951055 -0.951058 0.309013 440.48 147.498)"/>
</clipPath>
<clipPath id="clip10_10046_81379">
<rect width="197.53" height="135.939" fill="white" transform="matrix(-0.809022 0.587779 -0.587791 -0.809013 550.903 183.377)"/>
</clipPath>
</defs>
</svg>
