<svg width="942" height="468" viewBox="0 0 942 468" fill="none" xmlns="http://www.w3.org/2000/svg">
<g clip-path="url(#clip0_11618_112777)">
<path d="M20 48C471 48 471 127.793 922 127.793V237.057C471 237.057 471 157.263 20 157.263V48Z" fill="#AEB0BC" fill-opacity="0.2"/>
<path d="M20 222.34C471 222.34 471 264.342 922 264.342V329.887C471 329.887 471 287.885 20 287.885V222.34Z" fill="#AEB0BC" fill-opacity="0.2"/>
<path d="M20 293.913C238 293.913 238 264.227 456 264.227V438.314C238 438.314 238 468 20 468V293.913Z" fill="#AEB0BC" fill-opacity="0.2"/>
<path d="M20 156.68C238 156.68 238 198.473 456 198.473V264.227C238 264.227 238 222.433 20 222.433V156.68Z" fill="#AEB0BC" fill-opacity="0.2"/>
<path d="M476 198.566C699 198.566 699 235.986 922 235.986V257.434C699 257.434 699 220.015 476 220.015V198.566Z" fill="#AEB0BC" fill-opacity="0.2"/>
<path d="M476 220.074C699 220.074 699 335.885 922 335.885V379.697C699 379.697 699 263.886 476 263.886V220.074Z" fill="#AEB0BC" fill-opacity="0.2"/>
<path d="M0 48H20V288H0V48Z" fill="#ADB5BD"/>
<path d="M0 293.66H20V468H0V293.66Z" fill="#98A1AA"/>
<path d="M922 127.246H942V257.435H922V127.246Z" fill="#868E96"/>
<path d="M922 264.227H942V329.887H922V264.227Z" fill="#98A1AA"/>
<path d="M456 198.566H476V438.566H456V198.566Z" fill="#ADB5BD"/>
<path d="M922 335.547H942V379.698H922V335.547Z" fill="#70777E"/>
<path d="M40.3068 162.818V173H39.1136L33.5653 165.006H33.4659V173H32.233V162.818H33.4261L38.9943 170.832H39.0938V162.818H40.3068ZM45.7172 173.159C45.0278 173.159 44.4229 172.995 43.9025 172.667C43.3855 172.339 42.9811 171.88 42.6895 171.29C42.4011 170.7 42.2569 170.01 42.2569 169.222C42.2569 168.426 42.4011 167.732 42.6895 167.138C42.9811 166.545 43.3855 166.085 43.9025 165.756C44.4229 165.428 45.0278 165.264 45.7172 165.264C46.4065 165.264 47.0098 165.428 47.5268 165.756C48.0472 166.085 48.4515 166.545 48.7399 167.138C49.0315 167.732 49.1774 168.426 49.1774 169.222C49.1774 170.01 49.0315 170.7 48.7399 171.29C48.4515 171.88 48.0472 172.339 47.5268 172.667C47.0098 172.995 46.4065 173.159 45.7172 173.159ZM45.7172 172.105C46.2408 172.105 46.6717 171.971 47.0098 171.702C47.3478 171.434 47.5981 171.081 47.7605 170.643C47.9229 170.206 48.0041 169.732 48.0041 169.222C48.0041 168.711 47.9229 168.236 47.7605 167.795C47.5981 167.354 47.3478 166.998 47.0098 166.726C46.6717 166.454 46.2408 166.318 45.7172 166.318C45.1935 166.318 44.7626 166.454 44.4245 166.726C44.0865 166.998 43.8362 167.354 43.6738 167.795C43.5114 168.236 43.4302 168.711 43.4302 169.222C43.4302 169.732 43.5114 170.206 43.6738 170.643C43.8362 171.081 44.0865 171.434 44.4245 171.702C44.7626 171.971 45.1935 172.105 45.7172 172.105ZM53.8519 173.159C53.2156 173.159 52.6538 172.998 52.1665 172.677C51.6793 172.352 51.2982 171.895 51.0231 171.305C50.748 170.711 50.6104 170.01 50.6104 169.202C50.6104 168.4 50.748 167.704 51.0231 167.114C51.2982 166.524 51.681 166.068 52.1715 165.746C52.6621 165.425 53.2288 165.264 53.8718 165.264C54.369 165.264 54.7617 165.347 55.0501 165.513C55.3417 165.675 55.5638 165.861 55.7163 166.07C55.872 166.275 55.993 166.444 56.0792 166.577H56.1786V162.818H57.3519V173H56.2184V171.827H56.0792C55.993 171.966 55.8704 172.142 55.7113 172.354C55.5522 172.562 55.3252 172.75 55.0302 172.915C54.7352 173.078 54.3424 173.159 53.8519 173.159ZM54.011 172.105C54.4817 172.105 54.8794 171.982 55.2042 171.737C55.529 171.489 55.7759 171.146 55.945 170.708C56.114 170.267 56.1985 169.759 56.1985 169.182C56.1985 168.612 56.1156 168.113 55.9499 167.685C55.7842 167.254 55.5389 166.92 55.2141 166.681C54.8893 166.439 54.4883 166.318 54.011 166.318C53.5138 166.318 53.0996 166.446 52.7681 166.701C52.44 166.953 52.1931 167.296 52.0273 167.73C51.8649 168.161 51.7837 168.645 51.7837 169.182C51.7837 169.725 51.8666 170.219 52.0323 170.663C52.2013 171.104 52.4499 171.455 52.7781 171.717C53.1095 171.976 53.5205 172.105 54.011 172.105ZM62.8654 173.159C62.1296 173.159 61.4949 172.997 60.9613 172.672C60.431 172.344 60.0217 171.886 59.7333 171.3C59.4483 170.71 59.3058 170.024 59.3058 169.241C59.3058 168.459 59.4483 167.77 59.7333 167.173C60.0217 166.573 60.4227 166.106 60.9364 165.771C61.4535 165.433 62.0567 165.264 62.7461 165.264C63.1438 165.264 63.5366 165.33 63.9244 165.463C64.3121 165.596 64.6651 165.811 64.9833 166.109C65.3015 166.404 65.555 166.795 65.744 167.283C65.9329 167.77 66.0273 168.37 66.0273 169.082V169.58H60.141V168.565H64.8342C64.8342 168.134 64.748 167.75 64.5756 167.412C64.4066 167.074 64.1647 166.807 63.8498 166.612C63.5382 166.416 63.1703 166.318 62.7461 166.318C62.2788 166.318 61.8744 166.434 61.533 166.666C61.195 166.895 60.9348 167.193 60.7525 167.561C60.5702 167.929 60.479 168.323 60.479 168.744V169.42C60.479 169.997 60.5785 170.486 60.7773 170.887C60.9795 171.285 61.2596 171.588 61.6175 171.797C61.9755 172.002 62.3915 172.105 62.8654 172.105C63.1737 172.105 63.4521 172.062 63.7006 171.976C63.9525 171.886 64.1696 171.754 64.3519 171.578C64.5342 171.399 64.6751 171.177 64.7745 170.912L65.908 171.23C65.7887 171.615 65.5882 171.953 65.3065 172.244C65.0247 172.533 64.6767 172.758 64.2624 172.92C63.8481 173.08 63.3825 173.159 62.8654 173.159Z" fill="black"/>
<path d="M40.3068 370.818V381H39.1136L33.5653 373.006H33.4659V381H32.233V370.818H33.4261L38.9943 378.832H39.0938V370.818H40.3068ZM45.7172 381.159C45.0278 381.159 44.4229 380.995 43.9025 380.667C43.3855 380.339 42.9811 379.88 42.6895 379.29C42.4011 378.7 42.2569 378.01 42.2569 377.222C42.2569 376.426 42.4011 375.732 42.6895 375.138C42.9811 374.545 43.3855 374.085 43.9025 373.756C44.4229 373.428 45.0278 373.264 45.7172 373.264C46.4065 373.264 47.0098 373.428 47.5268 373.756C48.0472 374.085 48.4515 374.545 48.7399 375.138C49.0315 375.732 49.1774 376.426 49.1774 377.222C49.1774 378.01 49.0315 378.7 48.7399 379.29C48.4515 379.88 48.0472 380.339 47.5268 380.667C47.0098 380.995 46.4065 381.159 45.7172 381.159ZM45.7172 380.105C46.2408 380.105 46.6717 379.971 47.0098 379.702C47.3478 379.434 47.5981 379.081 47.7605 378.643C47.9229 378.206 48.0041 377.732 48.0041 377.222C48.0041 376.711 47.9229 376.236 47.7605 375.795C47.5981 375.354 47.3478 374.998 47.0098 374.726C46.6717 374.454 46.2408 374.318 45.7172 374.318C45.1935 374.318 44.7626 374.454 44.4245 374.726C44.0865 374.998 43.8362 375.354 43.6738 375.795C43.5114 376.236 43.4302 376.711 43.4302 377.222C43.4302 377.732 43.5114 378.206 43.6738 378.643C43.8362 379.081 44.0865 379.434 44.4245 379.702C44.7626 379.971 45.1935 380.105 45.7172 380.105ZM53.8519 381.159C53.2156 381.159 52.6538 380.998 52.1665 380.677C51.6793 380.352 51.2982 379.895 51.0231 379.305C50.748 378.711 50.6104 378.01 50.6104 377.202C50.6104 376.4 50.748 375.704 51.0231 375.114C51.2982 374.524 51.681 374.068 52.1715 373.746C52.6621 373.425 53.2288 373.264 53.8718 373.264C54.369 373.264 54.7617 373.347 55.0501 373.513C55.3417 373.675 55.5638 373.861 55.7163 374.07C55.872 374.275 55.993 374.444 56.0792 374.577H56.1786V370.818H57.3519V381H56.2184V379.827H56.0792C55.993 379.966 55.8704 380.142 55.7113 380.354C55.5522 380.562 55.3252 380.75 55.0302 380.915C54.7352 381.078 54.3424 381.159 53.8519 381.159ZM54.011 380.105C54.4817 380.105 54.8794 379.982 55.2042 379.737C55.529 379.489 55.7759 379.146 55.945 378.708C56.114 378.267 56.1985 377.759 56.1985 377.182C56.1985 376.612 56.1156 376.113 55.9499 375.685C55.7842 375.254 55.5389 374.92 55.2141 374.681C54.8893 374.439 54.4883 374.318 54.011 374.318C53.5138 374.318 53.0996 374.446 52.7681 374.701C52.44 374.953 52.1931 375.296 52.0273 375.73C51.8649 376.161 51.7837 376.645 51.7837 377.182C51.7837 377.725 51.8666 378.219 52.0323 378.663C52.2013 379.104 52.4499 379.455 52.7781 379.717C53.1095 379.976 53.5205 380.105 54.011 380.105ZM62.8654 381.159C62.1296 381.159 61.4949 380.997 60.9613 380.672C60.431 380.344 60.0217 379.886 59.7333 379.3C59.4483 378.71 59.3058 378.024 59.3058 377.241C59.3058 376.459 59.4483 375.77 59.7333 375.173C60.0217 374.573 60.4227 374.106 60.9364 373.771C61.4535 373.433 62.0567 373.264 62.7461 373.264C63.1438 373.264 63.5366 373.33 63.9244 373.463C64.3121 373.596 64.6651 373.811 64.9833 374.109C65.3015 374.404 65.555 374.795 65.744 375.283C65.9329 375.77 66.0273 376.37 66.0273 377.082V377.58H60.141V376.565H64.8342C64.8342 376.134 64.748 375.75 64.5756 375.412C64.4066 375.074 64.1647 374.807 63.8498 374.612C63.5382 374.416 63.1703 374.318 62.7461 374.318C62.2788 374.318 61.8744 374.434 61.533 374.666C61.195 374.895 60.9348 375.193 60.7525 375.561C60.5702 375.929 60.479 376.323 60.479 376.744V377.42C60.479 377.997 60.5785 378.486 60.7773 378.887C60.9795 379.285 61.2596 379.588 61.6175 379.797C61.9755 380.002 62.3915 380.105 62.8654 380.105C63.1737 380.105 63.4521 380.062 63.7006 379.976C63.9525 379.886 64.1696 379.754 64.3519 379.578C64.5342 379.399 64.6751 379.177 64.7745 378.912L65.908 379.23C65.7887 379.615 65.5882 379.953 65.3065 380.244C65.0247 380.533 64.6767 380.758 64.2624 380.92C63.8481 381.08 63.3825 381.159 62.8654 381.159Z" fill="black"/>
<path d="M414.307 308.818V319H413.114L407.565 311.006H407.466V319H406.233V308.818H407.426L412.994 316.832H413.094V308.818H414.307ZM419.717 319.159C419.028 319.159 418.423 318.995 417.903 318.667C417.385 318.339 416.981 317.88 416.689 317.29C416.401 316.7 416.257 316.01 416.257 315.222C416.257 314.426 416.401 313.732 416.689 313.138C416.981 312.545 417.385 312.085 417.903 311.756C418.423 311.428 419.028 311.264 419.717 311.264C420.407 311.264 421.01 311.428 421.527 311.756C422.047 312.085 422.452 312.545 422.74 313.138C423.032 313.732 423.177 314.426 423.177 315.222C423.177 316.01 423.032 316.7 422.74 317.29C422.452 317.88 422.047 318.339 421.527 318.667C421.01 318.995 420.407 319.159 419.717 319.159ZM419.717 318.105C420.241 318.105 420.672 317.971 421.01 317.702C421.348 317.434 421.598 317.081 421.76 316.643C421.923 316.206 422.004 315.732 422.004 315.222C422.004 314.711 421.923 314.236 421.76 313.795C421.598 313.354 421.348 312.998 421.01 312.726C420.672 312.454 420.241 312.318 419.717 312.318C419.193 312.318 418.763 312.454 418.425 312.726C418.086 312.998 417.836 313.354 417.674 313.795C417.511 314.236 417.43 314.711 417.43 315.222C417.43 315.732 417.511 316.206 417.674 316.643C417.836 317.081 418.086 317.434 418.425 317.702C418.763 317.971 419.193 318.105 419.717 318.105ZM427.852 319.159C427.216 319.159 426.654 318.998 426.167 318.677C425.679 318.352 425.298 317.895 425.023 317.305C424.748 316.711 424.61 316.01 424.61 315.202C424.61 314.4 424.748 313.704 425.023 313.114C425.298 312.524 425.681 312.068 426.172 311.746C426.662 311.425 427.229 311.264 427.872 311.264C428.369 311.264 428.762 311.347 429.05 311.513C429.342 311.675 429.564 311.861 429.716 312.07C429.872 312.275 429.993 312.444 430.079 312.577H430.179V308.818H431.352V319H430.218V317.827H430.079C429.993 317.966 429.87 318.142 429.711 318.354C429.552 318.562 429.325 318.75 429.03 318.915C428.735 319.078 428.342 319.159 427.852 319.159ZM428.011 318.105C428.482 318.105 428.879 317.982 429.204 317.737C429.529 317.489 429.776 317.146 429.945 316.708C430.114 316.267 430.199 315.759 430.199 315.182C430.199 314.612 430.116 314.113 429.95 313.685C429.784 313.254 429.539 312.92 429.214 312.681C428.889 312.439 428.488 312.318 428.011 312.318C427.514 312.318 427.1 312.446 426.768 312.701C426.44 312.953 426.193 313.296 426.027 313.73C425.865 314.161 425.784 314.645 425.784 315.182C425.784 315.725 425.867 316.219 426.032 316.663C426.201 317.104 426.45 317.455 426.778 317.717C427.109 317.976 427.52 318.105 428.011 318.105ZM436.865 319.159C436.13 319.159 435.495 318.997 434.961 318.672C434.431 318.344 434.022 317.886 433.733 317.3C433.448 316.71 433.306 316.024 433.306 315.241C433.306 314.459 433.448 313.77 433.733 313.173C434.022 312.573 434.423 312.106 434.936 311.771C435.453 311.433 436.057 311.264 436.746 311.264C437.144 311.264 437.537 311.33 437.924 311.463C438.312 311.596 438.665 311.811 438.983 312.109C439.301 312.404 439.555 312.795 439.744 313.283C439.933 313.77 440.027 314.37 440.027 315.082V315.58H434.141V314.565H438.834C438.834 314.134 438.748 313.75 438.576 313.412C438.407 313.074 438.165 312.807 437.85 312.612C437.538 312.416 437.17 312.318 436.746 312.318C436.279 312.318 435.874 312.434 435.533 312.666C435.195 312.895 434.935 313.193 434.752 313.561C434.57 313.929 434.479 314.323 434.479 314.744V315.42C434.479 315.997 434.578 316.486 434.777 316.887C434.98 317.285 435.26 317.588 435.618 317.797C435.975 318.002 436.391 318.105 436.865 318.105C437.174 318.105 437.452 318.062 437.701 317.976C437.953 317.886 438.17 317.754 438.352 317.578C438.534 317.399 438.675 317.177 438.775 316.912L439.908 317.23C439.789 317.615 439.588 317.953 439.306 318.244C439.025 318.533 438.677 318.758 438.262 318.92C437.848 319.08 437.382 319.159 436.865 319.159Z" fill="black"/>
<path d="M881.307 193.818V204H880.114L874.565 196.006H874.466V204H873.233V193.818H874.426L879.994 201.832H880.094V193.818H881.307ZM886.717 204.159C886.028 204.159 885.423 203.995 884.903 203.667C884.385 203.339 883.981 202.88 883.689 202.29C883.401 201.7 883.257 201.01 883.257 200.222C883.257 199.426 883.401 198.732 883.689 198.138C883.981 197.545 884.385 197.085 884.903 196.756C885.423 196.428 886.028 196.264 886.717 196.264C887.407 196.264 888.01 196.428 888.527 196.756C889.047 197.085 889.452 197.545 889.74 198.138C890.032 198.732 890.177 199.426 890.177 200.222C890.177 201.01 890.032 201.7 889.74 202.29C889.452 202.88 889.047 203.339 888.527 203.667C888.01 203.995 887.407 204.159 886.717 204.159ZM886.717 203.105C887.241 203.105 887.672 202.971 888.01 202.702C888.348 202.434 888.598 202.081 888.76 201.643C888.923 201.206 889.004 200.732 889.004 200.222C889.004 199.711 888.923 199.236 888.76 198.795C888.598 198.354 888.348 197.998 888.01 197.726C887.672 197.454 887.241 197.318 886.717 197.318C886.193 197.318 885.763 197.454 885.425 197.726C885.086 197.998 884.836 198.354 884.674 198.795C884.511 199.236 884.43 199.711 884.43 200.222C884.43 200.732 884.511 201.206 884.674 201.643C884.836 202.081 885.086 202.434 885.425 202.702C885.763 202.971 886.193 203.105 886.717 203.105ZM894.852 204.159C894.216 204.159 893.654 203.998 893.167 203.677C892.679 203.352 892.298 202.895 892.023 202.305C891.748 201.711 891.61 201.01 891.61 200.202C891.61 199.4 891.748 198.704 892.023 198.114C892.298 197.524 892.681 197.068 893.172 196.746C893.662 196.425 894.229 196.264 894.872 196.264C895.369 196.264 895.762 196.347 896.05 196.513C896.342 196.675 896.564 196.861 896.716 197.07C896.872 197.275 896.993 197.444 897.079 197.577H897.179V193.818H898.352V204H897.218V202.827H897.079C896.993 202.966 896.87 203.142 896.711 203.354C896.552 203.562 896.325 203.75 896.03 203.915C895.735 204.078 895.342 204.159 894.852 204.159ZM895.011 203.105C895.482 203.105 895.879 202.982 896.204 202.737C896.529 202.489 896.776 202.146 896.945 201.708C897.114 201.267 897.199 200.759 897.199 200.182C897.199 199.612 897.116 199.113 896.95 198.685C896.784 198.254 896.539 197.92 896.214 197.681C895.889 197.439 895.488 197.318 895.011 197.318C894.514 197.318 894.1 197.446 893.768 197.701C893.44 197.953 893.193 198.296 893.027 198.73C892.865 199.161 892.784 199.645 892.784 200.182C892.784 200.725 892.867 201.219 893.032 201.663C893.201 202.104 893.45 202.455 893.778 202.717C894.109 202.976 894.52 203.105 895.011 203.105ZM903.865 204.159C903.13 204.159 902.495 203.997 901.961 203.672C901.431 203.344 901.022 202.886 900.733 202.3C900.448 201.71 900.306 201.024 900.306 200.241C900.306 199.459 900.448 198.77 900.733 198.173C901.022 197.573 901.423 197.106 901.936 196.771C902.453 196.433 903.057 196.264 903.746 196.264C904.144 196.264 904.537 196.33 904.924 196.463C905.312 196.596 905.665 196.811 905.983 197.109C906.301 197.404 906.555 197.795 906.744 198.283C906.933 198.77 907.027 199.37 907.027 200.082V200.58H901.141V199.565H905.834C905.834 199.134 905.748 198.75 905.576 198.412C905.407 198.074 905.165 197.807 904.85 197.612C904.538 197.416 904.17 197.318 903.746 197.318C903.279 197.318 902.874 197.434 902.533 197.666C902.195 197.895 901.935 198.193 901.752 198.561C901.57 198.929 901.479 199.323 901.479 199.744V200.42C901.479 200.997 901.578 201.486 901.777 201.887C901.98 202.285 902.26 202.588 902.618 202.797C902.975 203.002 903.391 203.105 903.865 203.105C904.174 203.105 904.452 203.062 904.701 202.976C904.953 202.886 905.17 202.754 905.352 202.578C905.534 202.399 905.675 202.177 905.775 201.912L906.908 202.23C906.789 202.615 906.588 202.953 906.306 203.244C906.025 203.533 905.677 203.758 905.262 203.92C904.848 204.08 904.382 204.159 903.865 204.159Z" fill="black"/>
<path d="M881.307 291.818V302H880.114L874.565 294.006H874.466V302H873.233V291.818H874.426L879.994 299.832H880.094V291.818H881.307ZM886.717 302.159C886.028 302.159 885.423 301.995 884.903 301.667C884.385 301.339 883.981 300.88 883.689 300.29C883.401 299.7 883.257 299.01 883.257 298.222C883.257 297.426 883.401 296.732 883.689 296.138C883.981 295.545 884.385 295.085 884.903 294.756C885.423 294.428 886.028 294.264 886.717 294.264C887.407 294.264 888.01 294.428 888.527 294.756C889.047 295.085 889.452 295.545 889.74 296.138C890.032 296.732 890.177 297.426 890.177 298.222C890.177 299.01 890.032 299.7 889.74 300.29C889.452 300.88 889.047 301.339 888.527 301.667C888.01 301.995 887.407 302.159 886.717 302.159ZM886.717 301.105C887.241 301.105 887.672 300.971 888.01 300.702C888.348 300.434 888.598 300.081 888.76 299.643C888.923 299.206 889.004 298.732 889.004 298.222C889.004 297.711 888.923 297.236 888.76 296.795C888.598 296.354 888.348 295.998 888.01 295.726C887.672 295.454 887.241 295.318 886.717 295.318C886.193 295.318 885.763 295.454 885.425 295.726C885.086 295.998 884.836 296.354 884.674 296.795C884.511 297.236 884.43 297.711 884.43 298.222C884.43 298.732 884.511 299.206 884.674 299.643C884.836 300.081 885.086 300.434 885.425 300.702C885.763 300.971 886.193 301.105 886.717 301.105ZM894.852 302.159C894.216 302.159 893.654 301.998 893.167 301.677C892.679 301.352 892.298 300.895 892.023 300.305C891.748 299.711 891.61 299.01 891.61 298.202C891.61 297.4 891.748 296.704 892.023 296.114C892.298 295.524 892.681 295.068 893.172 294.746C893.662 294.425 894.229 294.264 894.872 294.264C895.369 294.264 895.762 294.347 896.05 294.513C896.342 294.675 896.564 294.861 896.716 295.07C896.872 295.275 896.993 295.444 897.079 295.577H897.179V291.818H898.352V302H897.218V300.827H897.079C896.993 300.966 896.87 301.142 896.711 301.354C896.552 301.562 896.325 301.75 896.03 301.915C895.735 302.078 895.342 302.159 894.852 302.159ZM895.011 301.105C895.482 301.105 895.879 300.982 896.204 300.737C896.529 300.489 896.776 300.146 896.945 299.708C897.114 299.267 897.199 298.759 897.199 298.182C897.199 297.612 897.116 297.113 896.95 296.685C896.784 296.254 896.539 295.92 896.214 295.681C895.889 295.439 895.488 295.318 895.011 295.318C894.514 295.318 894.1 295.446 893.768 295.701C893.44 295.953 893.193 296.296 893.027 296.73C892.865 297.161 892.784 297.645 892.784 298.182C892.784 298.725 892.867 299.219 893.032 299.663C893.201 300.104 893.45 300.455 893.778 300.717C894.109 300.976 894.52 301.105 895.011 301.105ZM903.865 302.159C903.13 302.159 902.495 301.997 901.961 301.672C901.431 301.344 901.022 300.886 900.733 300.3C900.448 299.71 900.306 299.024 900.306 298.241C900.306 297.459 900.448 296.77 900.733 296.173C901.022 295.573 901.423 295.106 901.936 294.771C902.453 294.433 903.057 294.264 903.746 294.264C904.144 294.264 904.537 294.33 904.924 294.463C905.312 294.596 905.665 294.811 905.983 295.109C906.301 295.404 906.555 295.795 906.744 296.283C906.933 296.77 907.027 297.37 907.027 298.082V298.58H901.141V297.565H905.834C905.834 297.134 905.748 296.75 905.576 296.412C905.407 296.074 905.165 295.807 904.85 295.612C904.538 295.416 904.17 295.318 903.746 295.318C903.279 295.318 902.874 295.434 902.533 295.666C902.195 295.895 901.935 296.193 901.752 296.561C901.57 296.929 901.479 297.323 901.479 297.744V298.42C901.479 298.997 901.578 299.486 901.777 299.887C901.98 300.285 902.26 300.588 902.618 300.797C902.975 301.002 903.391 301.105 903.865 301.105C904.174 301.105 904.452 301.062 904.701 300.976C904.953 300.886 905.17 300.754 905.352 300.578C905.534 300.399 905.675 300.177 905.775 299.912L906.908 300.23C906.789 300.615 906.588 300.953 906.306 301.244C906.025 301.533 905.677 301.758 905.262 301.92C904.848 302.08 904.382 302.159 903.865 302.159Z" fill="black"/>
<path d="M881.307 352.818V363H880.114L874.565 355.006H874.466V363H873.233V352.818H874.426L879.994 360.832H880.094V352.818H881.307ZM886.717 363.159C886.028 363.159 885.423 362.995 884.903 362.667C884.385 362.339 883.981 361.88 883.689 361.29C883.401 360.7 883.257 360.01 883.257 359.222C883.257 358.426 883.401 357.732 883.689 357.138C883.981 356.545 884.385 356.085 884.903 355.756C885.423 355.428 886.028 355.264 886.717 355.264C887.407 355.264 888.01 355.428 888.527 355.756C889.047 356.085 889.452 356.545 889.74 357.138C890.032 357.732 890.177 358.426 890.177 359.222C890.177 360.01 890.032 360.7 889.74 361.29C889.452 361.88 889.047 362.339 888.527 362.667C888.01 362.995 887.407 363.159 886.717 363.159ZM886.717 362.105C887.241 362.105 887.672 361.971 888.01 361.702C888.348 361.434 888.598 361.081 888.76 360.643C888.923 360.206 889.004 359.732 889.004 359.222C889.004 358.711 888.923 358.236 888.76 357.795C888.598 357.354 888.348 356.998 888.01 356.726C887.672 356.454 887.241 356.318 886.717 356.318C886.193 356.318 885.763 356.454 885.425 356.726C885.086 356.998 884.836 357.354 884.674 357.795C884.511 358.236 884.43 358.711 884.43 359.222C884.43 359.732 884.511 360.206 884.674 360.643C884.836 361.081 885.086 361.434 885.425 361.702C885.763 361.971 886.193 362.105 886.717 362.105ZM894.852 363.159C894.216 363.159 893.654 362.998 893.167 362.677C892.679 362.352 892.298 361.895 892.023 361.305C891.748 360.711 891.61 360.01 891.61 359.202C891.61 358.4 891.748 357.704 892.023 357.114C892.298 356.524 892.681 356.068 893.172 355.746C893.662 355.425 894.229 355.264 894.872 355.264C895.369 355.264 895.762 355.347 896.05 355.513C896.342 355.675 896.564 355.861 896.716 356.07C896.872 356.275 896.993 356.444 897.079 356.577H897.179V352.818H898.352V363H897.218V361.827H897.079C896.993 361.966 896.87 362.142 896.711 362.354C896.552 362.562 896.325 362.75 896.03 362.915C895.735 363.078 895.342 363.159 894.852 363.159ZM895.011 362.105C895.482 362.105 895.879 361.982 896.204 361.737C896.529 361.489 896.776 361.146 896.945 360.708C897.114 360.267 897.199 359.759 897.199 359.182C897.199 358.612 897.116 358.113 896.95 357.685C896.784 357.254 896.539 356.92 896.214 356.681C895.889 356.439 895.488 356.318 895.011 356.318C894.514 356.318 894.1 356.446 893.768 356.701C893.44 356.953 893.193 357.296 893.027 357.73C892.865 358.161 892.784 358.645 892.784 359.182C892.784 359.725 892.867 360.219 893.032 360.663C893.201 361.104 893.45 361.455 893.778 361.717C894.109 361.976 894.52 362.105 895.011 362.105ZM903.865 363.159C903.13 363.159 902.495 362.997 901.961 362.672C901.431 362.344 901.022 361.886 900.733 361.3C900.448 360.71 900.306 360.024 900.306 359.241C900.306 358.459 900.448 357.77 900.733 357.173C901.022 356.573 901.423 356.106 901.936 355.771C902.453 355.433 903.057 355.264 903.746 355.264C904.144 355.264 904.537 355.33 904.924 355.463C905.312 355.596 905.665 355.811 905.983 356.109C906.301 356.404 906.555 356.795 906.744 357.283C906.933 357.77 907.027 358.37 907.027 359.082V359.58H901.141V358.565H905.834C905.834 358.134 905.748 357.75 905.576 357.412C905.407 357.074 905.165 356.807 904.85 356.612C904.538 356.416 904.17 356.318 903.746 356.318C903.279 356.318 902.874 356.434 902.533 356.666C902.195 356.895 901.935 357.193 901.752 357.561C901.57 357.929 901.479 358.323 901.479 358.744V359.42C901.479 359.997 901.578 360.486 901.777 360.887C901.98 361.285 902.26 361.588 902.618 361.797C902.975 362.002 903.391 362.105 903.865 362.105C904.174 362.105 904.452 362.062 904.701 361.976C904.953 361.886 905.17 361.754 905.352 361.578C905.534 361.399 905.675 361.177 905.775 360.912L906.908 361.23C906.789 361.615 906.588 361.953 906.306 362.244C906.025 362.533 905.677 362.758 905.262 362.92C904.848 363.08 904.382 363.159 903.865 363.159Z" fill="black"/>
</g>
<rect width="942" height="32" fill="white" style="mix-blend-mode:multiply"/>
<path d="M11.2784 14.4375H8.78977C8.74432 14.1155 8.65152 13.8295 8.51136 13.5795C8.37121 13.3258 8.19129 13.1098 7.97159 12.9318C7.75189 12.7538 7.49811 12.6174 7.21023 12.5227C6.92614 12.428 6.61742 12.3807 6.28409 12.3807C5.68182 12.3807 5.1572 12.5303 4.71023 12.8295C4.26326 13.125 3.91667 13.5568 3.67045 14.125C3.42424 14.6894 3.30114 15.375 3.30114 16.1818C3.30114 17.0114 3.42424 17.7083 3.67045 18.2727C3.92045 18.8371 4.26894 19.2633 4.71591 19.5511C5.16288 19.839 5.67992 19.983 6.26705 19.983C6.59659 19.983 6.90152 19.9394 7.18182 19.8523C7.46591 19.7652 7.7178 19.6383 7.9375 19.4716C8.1572 19.3011 8.33902 19.0947 8.48295 18.8523C8.63068 18.6098 8.73295 18.3333 8.78977 18.0227L11.2784 18.0341C11.214 18.5682 11.053 19.0833 10.7955 19.5795C10.5417 20.072 10.1989 20.5133 9.76705 20.9034C9.33902 21.2898 8.82765 21.5966 8.23295 21.8239C7.64205 22.0473 6.97348 22.1591 6.22727 22.1591C5.18939 22.1591 4.26136 21.9242 3.44318 21.4545C2.62879 20.9848 1.98485 20.3049 1.51136 19.4148C1.04167 18.5246 0.806818 17.447 0.806818 16.1818C0.806818 14.9129 1.04545 13.8333 1.52273 12.9432C2 12.053 2.64773 11.375 3.46591 10.9091C4.28409 10.4394 5.20455 10.2045 6.22727 10.2045C6.90152 10.2045 7.52652 10.2992 8.10227 10.4886C8.68182 10.678 9.19508 10.9545 9.64205 11.3182C10.089 11.678 10.4527 12.1193 10.733 12.642C11.017 13.1648 11.1989 13.7633 11.2784 14.4375ZM15.4176 16.9545V22H12.9972V10.3636H15.3494V14.8125H15.4517C15.6487 14.2973 15.9669 13.8939 16.4062 13.6023C16.8456 13.3068 17.3968 13.1591 18.0597 13.1591C18.6657 13.1591 19.1941 13.2917 19.6449 13.5568C20.0994 13.8182 20.4517 14.1951 20.7017 14.6875C20.9555 15.1761 21.0805 15.7614 21.0767 16.4432V22H18.6562V16.875C18.66 16.3371 18.5237 15.9186 18.2472 15.6193C17.9744 15.3201 17.5919 15.1705 17.0994 15.1705C16.7699 15.1705 16.4782 15.2405 16.2244 15.3807C15.9744 15.5208 15.7775 15.7254 15.6335 15.9943C15.4934 16.2595 15.4214 16.5795 15.4176 16.9545ZM25.4702 22.1648C24.9134 22.1648 24.4171 22.0682 23.9815 21.875C23.5459 21.678 23.2012 21.3883 22.9474 21.0057C22.6974 20.6193 22.5724 20.1383 22.5724 19.5625C22.5724 19.0777 22.6615 18.6705 22.8395 18.3409C23.0175 18.0114 23.2599 17.7462 23.5668 17.5455C23.8736 17.3447 24.2221 17.1932 24.6122 17.0909C25.0062 16.9886 25.419 16.9167 25.8509 16.875C26.3584 16.822 26.7675 16.7727 27.0781 16.7273C27.3887 16.678 27.6141 16.6061 27.7543 16.5114C27.8944 16.4167 27.9645 16.2765 27.9645 16.0909V16.0568C27.9645 15.697 27.8509 15.4186 27.6236 15.2216C27.4001 15.0246 27.0819 14.9261 26.669 14.9261C26.2334 14.9261 25.8868 15.0227 25.6293 15.2159C25.3717 15.4053 25.2012 15.6439 25.1179 15.9318L22.8793 15.75C22.9929 15.2197 23.2164 14.7614 23.5497 14.375C23.883 13.9848 24.313 13.6856 24.8395 13.4773C25.3698 13.2652 25.9834 13.1591 26.6804 13.1591C27.1652 13.1591 27.6293 13.2159 28.0724 13.3295C28.5194 13.4432 28.9152 13.6193 29.2599 13.858C29.6084 14.0966 29.883 14.4034 30.0838 14.7784C30.2846 15.1496 30.3849 15.5947 30.3849 16.1136V22H28.0895V20.7898H28.0213C27.8812 21.0625 27.6937 21.303 27.4588 21.5114C27.224 21.7159 26.9418 21.8769 26.6122 21.9943C26.2827 22.108 25.902 22.1648 25.4702 22.1648ZM26.1634 20.4943C26.5194 20.4943 26.8338 20.4242 27.1065 20.2841C27.3793 20.1402 27.5933 19.947 27.7486 19.7045C27.9039 19.4621 27.9815 19.1875 27.9815 18.8807V17.9545C27.9058 18.0038 27.8016 18.0492 27.669 18.0909C27.5402 18.1288 27.3944 18.1648 27.2315 18.1989C27.0687 18.2292 26.9058 18.2576 26.7429 18.2841C26.58 18.3068 26.4323 18.3277 26.2997 18.3466C26.0156 18.3883 25.7675 18.4545 25.5554 18.5455C25.3433 18.6364 25.1785 18.7595 25.0611 18.9148C24.9437 19.0663 24.8849 19.2557 24.8849 19.483C24.8849 19.8125 25.0043 20.0644 25.2429 20.2386C25.4853 20.4091 25.7921 20.4943 26.1634 20.4943ZM32.2628 22V13.2727H34.6094V14.7955H34.7003C34.8594 14.2538 35.1264 13.8447 35.5014 13.5682C35.8764 13.2879 36.3082 13.1477 36.7969 13.1477C36.9181 13.1477 37.0488 13.1553 37.1889 13.1705C37.3291 13.1856 37.4522 13.2064 37.5582 13.233V15.3807C37.4446 15.3466 37.2874 15.3163 37.0866 15.2898C36.8859 15.2633 36.7022 15.25 36.5355 15.25C36.1795 15.25 35.8613 15.3277 35.581 15.483C35.3045 15.6345 35.0848 15.8466 34.9219 16.1193C34.7628 16.392 34.6832 16.7064 34.6832 17.0625V22H32.2628ZM43.8892 13.2727V15.0909H38.6335V13.2727H43.8892ZM39.8267 11.1818H42.2472V19.3182C42.2472 19.5417 42.2813 19.7159 42.3494 19.8409C42.4176 19.9621 42.5123 20.0473 42.6335 20.0966C42.7585 20.1458 42.9025 20.1705 43.0653 20.1705C43.179 20.1705 43.2926 20.161 43.4062 20.142C43.5199 20.1193 43.607 20.1023 43.6676 20.0909L44.0483 21.892C43.9271 21.9299 43.7566 21.9735 43.5369 22.0227C43.3172 22.0758 43.0502 22.108 42.7358 22.1193C42.1525 22.142 41.6411 22.0644 41.2017 21.8864C40.7661 21.7083 40.4271 21.4318 40.1847 21.0568C39.9422 20.6818 39.8229 20.2083 39.8267 19.6364V11.1818ZM48.7713 12.392V10.3636H58.3281V12.392H54.7656V22H52.3338V12.392H48.7713ZM59.8565 22V13.2727H62.277V22H59.8565ZM61.0724 12.1477C60.7126 12.1477 60.4039 12.0284 60.1463 11.7898C59.8925 11.5473 59.7656 11.2576 59.7656 10.9205C59.7656 10.5871 59.8925 10.3011 60.1463 10.0625C60.4039 9.82008 60.7126 9.69886 61.0724 9.69886C61.4323 9.69886 61.7391 9.82008 61.9929 10.0625C62.2505 10.3011 62.3793 10.5871 62.3793 10.9205C62.3793 11.2576 62.2505 11.5473 61.9929 11.7898C61.7391 12.0284 61.4323 12.1477 61.0724 12.1477ZM68.858 13.2727V15.0909H63.6023V13.2727H68.858ZM64.7955 11.1818H67.2159V19.3182C67.2159 19.5417 67.25 19.7159 67.3182 19.8409C67.3864 19.9621 67.4811 20.0473 67.6023 20.0966C67.7273 20.1458 67.8712 20.1705 68.0341 20.1705C68.1477 20.1705 68.2614 20.161 68.375 20.142C68.4886 20.1193 68.5758 20.1023 68.6364 20.0909L69.017 21.892C68.8958 21.9299 68.7254 21.9735 68.5057 22.0227C68.286 22.0758 68.0189 22.108 67.7045 22.1193C67.1212 22.142 66.6098 22.0644 66.1705 21.8864C65.7348 21.7083 65.3958 21.4318 65.1534 21.0568C64.911 20.6818 64.7917 20.2083 64.7955 19.6364V11.1818ZM73.0426 10.3636V22H70.6222V10.3636H73.0426ZM78.9588 22.1705C78.0611 22.1705 77.2884 21.9886 76.6406 21.625C75.9967 21.2576 75.5005 20.7386 75.152 20.0682C74.8035 19.3939 74.6293 18.5966 74.6293 17.6761C74.6293 16.7784 74.8035 15.9905 75.152 15.3125C75.5005 14.6345 75.991 14.1061 76.6236 13.7273C77.2599 13.3485 78.0062 13.1591 78.8622 13.1591C79.438 13.1591 79.974 13.2519 80.4702 13.4375C80.9702 13.6193 81.4058 13.8939 81.777 14.2614C82.152 14.6288 82.4437 15.0909 82.652 15.6477C82.8603 16.2008 82.9645 16.8485 82.9645 17.5909V18.2557H75.5952V16.7557H80.6861C80.6861 16.4072 80.6103 16.0985 80.4588 15.8295C80.3073 15.5606 80.0971 15.3504 79.8281 15.1989C79.563 15.0436 79.2543 14.9659 78.902 14.9659C78.5346 14.9659 78.2088 15.0511 77.9247 15.2216C77.6444 15.3883 77.4247 15.6136 77.2656 15.8977C77.1065 16.178 77.0251 16.4905 77.0213 16.8352V18.2614C77.0213 18.6932 77.1009 19.0663 77.2599 19.3807C77.4228 19.6951 77.652 19.9375 77.9474 20.108C78.2429 20.2784 78.5933 20.3636 78.9986 20.3636C79.2675 20.3636 79.5137 20.3258 79.7372 20.25C79.9607 20.1742 80.152 20.0606 80.3111 19.9091C80.4702 19.7576 80.5914 19.572 80.6747 19.3523L82.9134 19.5C82.7997 20.0379 82.5668 20.5076 82.2145 20.9091C81.866 21.3068 81.4152 21.6174 80.8622 21.8409C80.313 22.0606 79.6785 22.1705 78.9588 22.1705Z" fill="#161616"/>
<g clip-path="url(#clip1_11618_112777)">
<rect width="32" height="32" transform="translate(910)" fill="white" fill-opacity="0.01" style="mix-blend-mode:multiply"/>
<g clip-path="url(#clip2_11618_112777)">
<rect width="16" height="16" transform="translate(918 8)" fill="white" fill-opacity="0.01" style="mix-blend-mode:multiply"/>
<path d="M928 9V10H931.293L927 14.291L927.707 15L932 10.707V14H933V9H928Z" fill="#161616"/>
<path d="M925 17.708L924.296 17L920 21.293V18H919V23H924V22H920.707L925 17.708Z" fill="#161616"/>
</g>
</g>
<defs>
<clipPath id="clip0_11618_112777">
<rect width="942" height="420" fill="white" transform="translate(0 48)"/>
</clipPath>
<clipPath id="clip1_11618_112777">
<rect width="32" height="32" fill="white" transform="translate(910)"/>
</clipPath>
<clipPath id="clip2_11618_112777">
<rect width="16" height="16" fill="white" transform="translate(918 8)"/>
</clipPath>
</defs>
</svg>
