<svg width="942" height="423" viewBox="0 0 942 423" fill="none" xmlns="http://www.w3.org/2000/svg">
<rect width="942" height="32" fill="white" style="mix-blend-mode:multiply"/>
<path d="M11.2784 14.4375H8.78977C8.74432 14.1155 8.65152 13.8295 8.51136 13.5795C8.37121 13.3258 8.19129 13.1098 7.97159 12.9318C7.75189 12.7538 7.49811 12.6174 7.21023 12.5227C6.92614 12.428 6.61742 12.3807 6.28409 12.3807C5.68182 12.3807 5.1572 12.5303 4.71023 12.8295C4.26326 13.125 3.91667 13.5568 3.67045 14.125C3.42424 14.6894 3.30114 15.375 3.30114 16.1818C3.30114 17.0114 3.42424 17.7083 3.67045 18.2727C3.92045 18.8371 4.26894 19.2633 4.71591 19.5511C5.16288 19.839 5.67992 19.983 6.26705 19.983C6.59659 19.983 6.90152 19.9394 7.18182 19.8523C7.46591 19.7652 7.7178 19.6383 7.9375 19.4716C8.1572 19.3011 8.33902 19.0947 8.48295 18.8523C8.63068 18.6098 8.73295 18.3333 8.78977 18.0227L11.2784 18.0341C11.214 18.5682 11.053 19.0833 10.7955 19.5795C10.5417 20.072 10.1989 20.5133 9.76705 20.9034C9.33902 21.2898 8.82765 21.5966 8.23295 21.8239C7.64205 22.0473 6.97348 22.1591 6.22727 22.1591C5.18939 22.1591 4.26136 21.9242 3.44318 21.4545C2.62879 20.9848 1.98485 20.3049 1.51136 19.4148C1.04167 18.5246 0.806818 17.447 0.806818 16.1818C0.806818 14.9129 1.04545 13.8333 1.52273 12.9432C2 12.053 2.64773 11.375 3.46591 10.9091C4.28409 10.4394 5.20455 10.2045 6.22727 10.2045C6.90152 10.2045 7.52652 10.2992 8.10227 10.4886C8.68182 10.678 9.19508 10.9545 9.64205 11.3182C10.089 11.678 10.4527 12.1193 10.733 12.642C11.017 13.1648 11.1989 13.7633 11.2784 14.4375ZM15.4176 16.9545V22H12.9972V10.3636H15.3494V14.8125H15.4517C15.6487 14.2973 15.9669 13.8939 16.4062 13.6023C16.8456 13.3068 17.3968 13.1591 18.0597 13.1591C18.6657 13.1591 19.1941 13.2917 19.6449 13.5568C20.0994 13.8182 20.4517 14.1951 20.7017 14.6875C20.9555 15.1761 21.0805 15.7614 21.0767 16.4432V22H18.6562V16.875C18.66 16.3371 18.5237 15.9186 18.2472 15.6193C17.9744 15.3201 17.5919 15.1705 17.0994 15.1705C16.7699 15.1705 16.4782 15.2405 16.2244 15.3807C15.9744 15.5208 15.7775 15.7254 15.6335 15.9943C15.4934 16.2595 15.4214 16.5795 15.4176 16.9545ZM25.4702 22.1648C24.9134 22.1648 24.4171 22.0682 23.9815 21.875C23.5459 21.678 23.2012 21.3883 22.9474 21.0057C22.6974 20.6193 22.5724 20.1383 22.5724 19.5625C22.5724 19.0777 22.6615 18.6705 22.8395 18.3409C23.0175 18.0114 23.2599 17.7462 23.5668 17.5455C23.8736 17.3447 24.2221 17.1932 24.6122 17.0909C25.0062 16.9886 25.419 16.9167 25.8509 16.875C26.3584 16.822 26.7675 16.7727 27.0781 16.7273C27.3887 16.678 27.6141 16.6061 27.7543 16.5114C27.8944 16.4167 27.9645 16.2765 27.9645 16.0909V16.0568C27.9645 15.697 27.8509 15.4186 27.6236 15.2216C27.4001 15.0246 27.0819 14.9261 26.669 14.9261C26.2334 14.9261 25.8868 15.0227 25.6293 15.2159C25.3717 15.4053 25.2012 15.6439 25.1179 15.9318L22.8793 15.75C22.9929 15.2197 23.2164 14.7614 23.5497 14.375C23.883 13.9848 24.313 13.6856 24.8395 13.4773C25.3698 13.2652 25.9834 13.1591 26.6804 13.1591C27.1652 13.1591 27.6293 13.2159 28.0724 13.3295C28.5194 13.4432 28.9152 13.6193 29.2599 13.858C29.6084 14.0966 29.883 14.4034 30.0838 14.7784C30.2846 15.1496 30.3849 15.5947 30.3849 16.1136V22H28.0895V20.7898H28.0213C27.8812 21.0625 27.6937 21.303 27.4588 21.5114C27.224 21.7159 26.9418 21.8769 26.6122 21.9943C26.2827 22.108 25.902 22.1648 25.4702 22.1648ZM26.1634 20.4943C26.5194 20.4943 26.8338 20.4242 27.1065 20.2841C27.3793 20.1402 27.5933 19.947 27.7486 19.7045C27.9039 19.4621 27.9815 19.1875 27.9815 18.8807V17.9545C27.9058 18.0038 27.8016 18.0492 27.669 18.0909C27.5402 18.1288 27.3944 18.1648 27.2315 18.1989C27.0687 18.2292 26.9058 18.2576 26.7429 18.2841C26.58 18.3068 26.4323 18.3277 26.2997 18.3466C26.0156 18.3883 25.7675 18.4545 25.5554 18.5455C25.3433 18.6364 25.1785 18.7595 25.0611 18.9148C24.9437 19.0663 24.8849 19.2557 24.8849 19.483C24.8849 19.8125 25.0043 20.0644 25.2429 20.2386C25.4853 20.4091 25.7921 20.4943 26.1634 20.4943ZM32.2628 22V13.2727H34.6094V14.7955H34.7003C34.8594 14.2538 35.1264 13.8447 35.5014 13.5682C35.8764 13.2879 36.3082 13.1477 36.7969 13.1477C36.9181 13.1477 37.0488 13.1553 37.1889 13.1705C37.3291 13.1856 37.4522 13.2064 37.5582 13.233V15.3807C37.4446 15.3466 37.2874 15.3163 37.0866 15.2898C36.8859 15.2633 36.7022 15.25 36.5355 15.25C36.1795 15.25 35.8613 15.3277 35.581 15.483C35.3045 15.6345 35.0848 15.8466 34.9219 16.1193C34.7628 16.392 34.6832 16.7064 34.6832 17.0625V22H32.2628ZM43.8892 13.2727V15.0909H38.6335V13.2727H43.8892ZM39.8267 11.1818H42.2472V19.3182C42.2472 19.5417 42.2813 19.7159 42.3494 19.8409C42.4176 19.9621 42.5123 20.0473 42.6335 20.0966C42.7585 20.1458 42.9025 20.1705 43.0653 20.1705C43.179 20.1705 43.2926 20.161 43.4062 20.142C43.5199 20.1193 43.607 20.1023 43.6676 20.0909L44.0483 21.892C43.9271 21.9299 43.7566 21.9735 43.5369 22.0227C43.3172 22.0758 43.0502 22.108 42.7358 22.1193C42.1525 22.142 41.6411 22.0644 41.2017 21.8864C40.7661 21.7083 40.4271 21.4318 40.1847 21.0568C39.9422 20.6818 39.8229 20.2083 39.8267 19.6364V11.1818ZM48.7713 12.392V10.3636H58.3281V12.392H54.7656V22H52.3338V12.392H48.7713ZM59.8565 22V13.2727H62.277V22H59.8565ZM61.0724 12.1477C60.7126 12.1477 60.4039 12.0284 60.1463 11.7898C59.8925 11.5473 59.7656 11.2576 59.7656 10.9205C59.7656 10.5871 59.8925 10.3011 60.1463 10.0625C60.4039 9.82008 60.7126 9.69886 61.0724 9.69886C61.4323 9.69886 61.7391 9.82008 61.9929 10.0625C62.2505 10.3011 62.3793 10.5871 62.3793 10.9205C62.3793 11.2576 62.2505 11.5473 61.9929 11.7898C61.7391 12.0284 61.4323 12.1477 61.0724 12.1477ZM68.858 13.2727V15.0909H63.6023V13.2727H68.858ZM64.7955 11.1818H67.2159V19.3182C67.2159 19.5417 67.25 19.7159 67.3182 19.8409C67.3864 19.9621 67.4811 20.0473 67.6023 20.0966C67.7273 20.1458 67.8712 20.1705 68.0341 20.1705C68.1477 20.1705 68.2614 20.161 68.375 20.142C68.4886 20.1193 68.5758 20.1023 68.6364 20.0909L69.017 21.892C68.8958 21.9299 68.7254 21.9735 68.5057 22.0227C68.286 22.0758 68.0189 22.108 67.7045 22.1193C67.1212 22.142 66.6098 22.0644 66.1705 21.8864C65.7348 21.7083 65.3958 21.4318 65.1534 21.0568C64.911 20.6818 64.7917 20.2083 64.7955 19.6364V11.1818ZM73.0426 10.3636V22H70.6222V10.3636H73.0426ZM78.9588 22.1705C78.0611 22.1705 77.2884 21.9886 76.6406 21.625C75.9967 21.2576 75.5005 20.7386 75.152 20.0682C74.8035 19.3939 74.6293 18.5966 74.6293 17.6761C74.6293 16.7784 74.8035 15.9905 75.152 15.3125C75.5005 14.6345 75.991 14.1061 76.6236 13.7273C77.2599 13.3485 78.0062 13.1591 78.8622 13.1591C79.438 13.1591 79.974 13.2519 80.4702 13.4375C80.9702 13.6193 81.4058 13.8939 81.777 14.2614C82.152 14.6288 82.4437 15.0909 82.652 15.6477C82.8603 16.2008 82.9645 16.8485 82.9645 17.5909V18.2557H75.5952V16.7557H80.6861C80.6861 16.4072 80.6103 16.0985 80.4588 15.8295C80.3073 15.5606 80.0971 15.3504 79.8281 15.1989C79.563 15.0436 79.2543 14.9659 78.902 14.9659C78.5346 14.9659 78.2088 15.0511 77.9247 15.2216C77.6444 15.3883 77.4247 15.6136 77.2656 15.8977C77.1065 16.178 77.0251 16.4905 77.0213 16.8352V18.2614C77.0213 18.6932 77.1009 19.0663 77.2599 19.3807C77.4228 19.6951 77.652 19.9375 77.9474 20.108C78.2429 20.2784 78.5933 20.3636 78.9986 20.3636C79.2675 20.3636 79.5137 20.3258 79.7372 20.25C79.9607 20.1742 80.152 20.0606 80.3111 19.9091C80.4702 19.7576 80.5914 19.572 80.6747 19.3523L82.9134 19.5C82.7997 20.0379 82.5668 20.5076 82.2145 20.9091C81.866 21.3068 81.4152 21.6174 80.8622 21.8409C80.313 22.0606 79.6785 22.1705 78.9588 22.1705Z" fill="#161616"/>
<g clip-path="url(#clip0_4665_194653)">
<rect width="32" height="32" transform="translate(910)" fill="white" fill-opacity="0.01" style="mix-blend-mode:multiply"/>
<g clip-path="url(#clip1_4665_194653)">
<rect width="16" height="16" transform="translate(918 8)" fill="white" fill-opacity="0.01" style="mix-blend-mode:multiply"/>
<path d="M928 9V10H931.293L927 14.291L927.707 15L932 10.707V14H933V9H928Z" fill="#161616"/>
<path d="M925 17.708L924.296 17L920 21.293V18H919V23H924V22H920.707L925 17.708Z" fill="#161616"/>
</g>
</g>
<path d="M3.27273 222.823V221.037L7.13352 218.902V218.817L3.27273 216.682V214.897L8.74432 218.071H12V219.648H8.74432L3.27273 222.823ZM12 209.04V210.727L3.27273 207.655V205.703L12 202.626V204.314L5.0625 206.645V206.713L12 209.04ZM8.57813 208.984V204.382H9.84801V208.984H8.57813ZM5.45455 199.964L7.87074 198.643L5.45455 197.3V195.668L8.72727 197.641L12 195.634V197.258L9.64347 198.643L12 200.015L12 201.651L8.72727 199.657L5.45455 201.6V199.964ZM12 194.155H5.45455L5.45455 192.613H12V194.155ZM4.52557 193.38C4.52557 193.624 4.4446 193.834 4.28267 194.01C4.1179 194.186 3.92045 194.274 3.69034 194.274C3.45739 194.274 3.25994 194.186 3.09801 194.01C2.93324 193.834 2.85085 193.624 2.85085 193.38C2.85085 193.132 2.93324 192.922 3.09801 192.749C3.25994 192.573 3.45739 192.485 3.69034 192.485C3.92045 192.485 4.1179 192.573 4.28267 192.749C4.4446 192.922 4.52557 193.132 4.52557 193.38ZM7.18466 185.533L7.33807 186.939C7.19602 186.979 7.0625 187.049 6.9375 187.148C6.8125 187.245 6.71165 187.375 6.63494 187.54C6.55824 187.705 6.51989 187.906 6.51989 188.145C6.51989 188.466 6.58949 188.736 6.72869 188.955C6.8679 189.171 7.0483 189.277 7.26989 189.274C7.46023 189.277 7.61506 189.208 7.73438 189.066C7.85369 188.921 7.9517 188.682 8.02841 188.35L8.26705 187.233C8.40057 186.614 8.61222 186.154 8.90199 185.853C9.19176 185.549 9.57102 185.395 10.0398 185.392C10.4517 185.395 10.8153 185.516 11.1307 185.755C11.4432 185.99 11.6875 186.318 11.8636 186.739C12.0398 187.159 12.1278 187.642 12.1278 188.188C12.1278 188.989 11.9602 189.634 11.625 190.122C11.2869 190.611 10.8168 190.902 10.2145 190.996L10.0696 189.492C10.3651 189.424 10.5881 189.279 10.7386 189.057C10.8892 188.835 10.9645 188.547 10.9645 188.192C10.9645 187.826 10.8892 187.531 10.7386 187.31C10.5881 187.085 10.402 186.973 10.1804 186.973C9.9929 186.973 9.83807 187.046 9.71591 187.191C9.59375 187.333 9.5 187.554 9.43466 187.855L9.20028 188.972C9.0696 189.6 8.84943 190.064 8.53977 190.365C8.22727 190.666 7.83239 190.816 7.35511 190.813C6.9517 190.816 6.60227 190.706 6.30682 190.485C6.00852 190.26 5.77841 189.949 5.61648 189.551C5.4517 189.151 5.36932 188.689 5.36932 188.166C5.36932 187.399 5.53267 186.796 5.85938 186.355C6.18608 185.912 6.62784 185.638 7.18466 185.533Z" fill="#161616"/>
<g clip-path="url(#clip2_4665_194653)">
<path d="M67 57H942" stroke="#CFD4DA"/>
<path d="M67 127H942" stroke="#CFD4DA"/>
<path d="M67 197H942" stroke="#CFD4DA"/>
<path d="M67 267H942" stroke="#CFD4DA"/>
<path d="M67 337H942" stroke="#98A1AA"/>
<path d="M96 55V363" stroke="#98A1AA"/>
<path d="M304.25 55V363" stroke="#CFD4DA"/>
<path d="M512.5 55V363" stroke="#CFD4DA"/>
<path d="M720.75 55V363" stroke="#CFD4DA"/>
<path d="M929 55V363" stroke="#CFD4DA"/>
<path d="M39.276 62V54.3636H40.4493V62H39.276ZM39.8726 53.0909C39.6439 53.0909 39.4467 53.013 39.281 52.8572C39.1186 52.7015 39.0374 52.5142 39.0374 52.2955C39.0374 52.0767 39.1186 51.8894 39.281 51.7337C39.4467 51.5779 39.6439 51.5 39.8726 51.5C40.1013 51.5 40.2968 51.5779 40.4593 51.7337C40.625 51.8894 40.7078 52.0767 40.7078 52.2955C40.7078 52.5142 40.625 52.7015 40.4593 52.8572C40.2968 53.013 40.1013 53.0909 39.8726 53.0909ZM43.7716 57.4062V62H42.5983V54.3636H43.7318V55.5568H43.8312C44.0102 55.169 44.282 54.8575 44.6466 54.6222C45.0112 54.3835 45.4818 54.2642 46.0585 54.2642C46.5756 54.2642 47.028 54.3703 47.4157 54.5824C47.8035 54.7912 48.1051 55.1094 48.3206 55.5369C48.536 55.9612 48.6437 56.4981 48.6437 57.1477V62H47.4704V57.2273C47.4704 56.6274 47.3147 56.16 47.0031 55.8253C46.6916 55.4872 46.264 55.3182 45.7204 55.3182C45.3459 55.3182 45.0112 55.3994 44.7162 55.5618C44.4245 55.7242 44.1942 55.9612 44.0251 56.2727C43.8561 56.5843 43.7716 56.9621 43.7716 57.4062ZM54.1883 54.3636V55.358H50.0718V54.3636H54.1883ZM51.3048 62V53.3097C51.3048 52.8722 51.4075 52.5076 51.613 52.2159C51.8185 51.9242 52.0853 51.7055 52.4134 51.5597C52.7416 51.4138 53.0879 51.3409 53.4525 51.3409C53.7409 51.3409 53.9762 51.3641 54.1585 51.4105C54.3408 51.4569 54.4767 51.5 54.5661 51.5398L54.2281 52.554C54.1684 52.5341 54.0856 52.5092 53.9795 52.4794C53.8767 52.4496 53.7409 52.4347 53.5718 52.4347C53.184 52.4347 52.904 52.5324 52.7316 52.728C52.5626 52.9235 52.4781 53.2102 52.4781 53.5881V62H51.3048ZM58.6205 62.1591C57.9311 62.1591 57.3262 61.995 56.8058 61.6669C56.2888 61.3388 55.8844 60.8797 55.5928 60.2898C55.3044 59.6998 55.1602 59.0104 55.1602 58.2216C55.1602 57.4261 55.3044 56.7318 55.5928 56.1385C55.8844 55.5452 56.2888 55.0845 56.8058 54.7564C57.3262 54.4283 57.9311 54.2642 58.6205 54.2642C59.3099 54.2642 59.9131 54.4283 60.4301 54.7564C60.9505 55.0845 61.3548 55.5452 61.6432 56.1385C61.9349 56.7318 62.0807 57.4261 62.0807 58.2216C62.0807 59.0104 61.9349 59.6998 61.6432 60.2898C61.3548 60.8797 60.9505 61.3388 60.4301 61.6669C59.9131 61.995 59.3099 62.1591 58.6205 62.1591ZM58.6205 61.1051C59.1441 61.1051 59.575 60.9709 59.9131 60.7024C60.2512 60.4339 60.5014 60.081 60.6638 59.6435C60.8262 59.206 60.9074 58.732 60.9074 58.2216C60.9074 57.7112 60.8262 57.2356 60.6638 56.7947C60.5014 56.3539 60.2512 55.9976 59.9131 55.7259C59.575 55.4541 59.1441 55.3182 58.6205 55.3182C58.0968 55.3182 57.6659 55.4541 57.3279 55.7259C56.9898 55.9976 56.7396 56.3539 56.5771 56.7947C56.4147 57.2356 56.3335 57.7112 56.3335 58.2216C56.3335 58.732 56.4147 59.206 56.5771 59.6435C56.7396 60.081 56.9898 60.4339 57.3279 60.7024C57.6659 60.9709 58.0968 61.1051 58.6205 61.1051Z" fill="#474747"/>
<path d="M39.276 132V124.364H40.4493V132H39.276ZM39.8726 123.091C39.6439 123.091 39.4467 123.013 39.281 122.857C39.1186 122.701 39.0374 122.514 39.0374 122.295C39.0374 122.077 39.1186 121.889 39.281 121.734C39.4467 121.578 39.6439 121.5 39.8726 121.5C40.1013 121.5 40.2968 121.578 40.4593 121.734C40.625 121.889 40.7078 122.077 40.7078 122.295C40.7078 122.514 40.625 122.701 40.4593 122.857C40.2968 123.013 40.1013 123.091 39.8726 123.091ZM43.7716 127.406V132H42.5983V124.364H43.7318V125.557H43.8312C44.0102 125.169 44.282 124.857 44.6466 124.622C45.0112 124.384 45.4818 124.264 46.0585 124.264C46.5756 124.264 47.028 124.37 47.4157 124.582C47.8035 124.791 48.1051 125.109 48.3206 125.537C48.536 125.961 48.6437 126.498 48.6437 127.148V132H47.4704V127.227C47.4704 126.627 47.3147 126.16 47.0031 125.825C46.6916 125.487 46.264 125.318 45.7204 125.318C45.3459 125.318 45.0112 125.399 44.7162 125.562C44.4245 125.724 44.1942 125.961 44.0251 126.273C43.8561 126.584 43.7716 126.962 43.7716 127.406ZM54.1883 124.364V125.358H50.0718V124.364H54.1883ZM51.3048 132V123.31C51.3048 122.872 51.4075 122.508 51.613 122.216C51.8185 121.924 52.0853 121.705 52.4134 121.56C52.7416 121.414 53.0879 121.341 53.4525 121.341C53.7409 121.341 53.9762 121.364 54.1585 121.411C54.3408 121.457 54.4767 121.5 54.5661 121.54L54.2281 122.554C54.1684 122.534 54.0856 122.509 53.9795 122.479C53.8767 122.45 53.7409 122.435 53.5718 122.435C53.184 122.435 52.904 122.532 52.7316 122.728C52.5626 122.924 52.4781 123.21 52.4781 123.588V132H51.3048ZM58.6205 132.159C57.9311 132.159 57.3262 131.995 56.8058 131.667C56.2888 131.339 55.8844 130.88 55.5928 130.29C55.3044 129.7 55.1602 129.01 55.1602 128.222C55.1602 127.426 55.3044 126.732 55.5928 126.138C55.8844 125.545 56.2888 125.085 56.8058 124.756C57.3262 124.428 57.9311 124.264 58.6205 124.264C59.3099 124.264 59.9131 124.428 60.4301 124.756C60.9505 125.085 61.3548 125.545 61.6432 126.138C61.9349 126.732 62.0807 127.426 62.0807 128.222C62.0807 129.01 61.9349 129.7 61.6432 130.29C61.3548 130.88 60.9505 131.339 60.4301 131.667C59.9131 131.995 59.3099 132.159 58.6205 132.159ZM58.6205 131.105C59.1441 131.105 59.575 130.971 59.9131 130.702C60.2512 130.434 60.5014 130.081 60.6638 129.643C60.8262 129.206 60.9074 128.732 60.9074 128.222C60.9074 127.711 60.8262 127.236 60.6638 126.795C60.5014 126.354 60.2512 125.998 59.9131 125.726C59.575 125.454 59.1441 125.318 58.6205 125.318C58.0968 125.318 57.6659 125.454 57.3279 125.726C56.9898 125.998 56.7396 126.354 56.5771 126.795C56.4147 127.236 56.3335 127.711 56.3335 128.222C56.3335 128.732 56.4147 129.206 56.5771 129.643C56.7396 130.081 56.9898 130.434 57.3279 130.702C57.6659 130.971 58.0968 131.105 58.6205 131.105Z" fill="#474747"/>
<path d="M39.276 202V194.364H40.4493V202H39.276ZM39.8726 193.091C39.6439 193.091 39.4467 193.013 39.281 192.857C39.1186 192.701 39.0374 192.514 39.0374 192.295C39.0374 192.077 39.1186 191.889 39.281 191.734C39.4467 191.578 39.6439 191.5 39.8726 191.5C40.1013 191.5 40.2968 191.578 40.4593 191.734C40.625 191.889 40.7078 192.077 40.7078 192.295C40.7078 192.514 40.625 192.701 40.4593 192.857C40.2968 193.013 40.1013 193.091 39.8726 193.091ZM43.7716 197.406V202H42.5983V194.364H43.7318V195.557H43.8312C44.0102 195.169 44.282 194.857 44.6466 194.622C45.0112 194.384 45.4818 194.264 46.0585 194.264C46.5756 194.264 47.028 194.37 47.4157 194.582C47.8035 194.791 48.1051 195.109 48.3206 195.537C48.536 195.961 48.6437 196.498 48.6437 197.148V202H47.4704V197.227C47.4704 196.627 47.3147 196.16 47.0031 195.825C46.6916 195.487 46.264 195.318 45.7204 195.318C45.3459 195.318 45.0112 195.399 44.7162 195.562C44.4245 195.724 44.1942 195.961 44.0251 196.273C43.8561 196.584 43.7716 196.962 43.7716 197.406ZM54.1883 194.364V195.358H50.0718V194.364H54.1883ZM51.3048 202V193.31C51.3048 192.872 51.4075 192.508 51.613 192.216C51.8185 191.924 52.0853 191.705 52.4134 191.56C52.7416 191.414 53.0879 191.341 53.4525 191.341C53.7409 191.341 53.9762 191.364 54.1585 191.411C54.3408 191.457 54.4767 191.5 54.5661 191.54L54.2281 192.554C54.1684 192.534 54.0856 192.509 53.9795 192.479C53.8767 192.45 53.7409 192.435 53.5718 192.435C53.184 192.435 52.904 192.532 52.7316 192.728C52.5626 192.924 52.4781 193.21 52.4781 193.588V202H51.3048ZM58.6205 202.159C57.9311 202.159 57.3262 201.995 56.8058 201.667C56.2888 201.339 55.8844 200.88 55.5928 200.29C55.3044 199.7 55.1602 199.01 55.1602 198.222C55.1602 197.426 55.3044 196.732 55.5928 196.138C55.8844 195.545 56.2888 195.085 56.8058 194.756C57.3262 194.428 57.9311 194.264 58.6205 194.264C59.3099 194.264 59.9131 194.428 60.4301 194.756C60.9505 195.085 61.3548 195.545 61.6432 196.138C61.9349 196.732 62.0807 197.426 62.0807 198.222C62.0807 199.01 61.9349 199.7 61.6432 200.29C61.3548 200.88 60.9505 201.339 60.4301 201.667C59.9131 201.995 59.3099 202.159 58.6205 202.159ZM58.6205 201.105C59.1441 201.105 59.575 200.971 59.9131 200.702C60.2512 200.434 60.5014 200.081 60.6638 199.643C60.8262 199.206 60.9074 198.732 60.9074 198.222C60.9074 197.711 60.8262 197.236 60.6638 196.795C60.5014 196.354 60.2512 195.998 59.9131 195.726C59.575 195.454 59.1441 195.318 58.6205 195.318C58.0968 195.318 57.6659 195.454 57.3279 195.726C56.9898 195.998 56.7396 196.354 56.5771 196.795C56.4147 197.236 56.3335 197.711 56.3335 198.222C56.3335 198.732 56.4147 199.206 56.5771 199.643C56.7396 200.081 56.9898 200.434 57.3279 200.702C57.6659 200.971 58.0968 201.105 58.6205 201.105Z" fill="#474747"/>
<path d="M39.276 272V264.364H40.4493V272H39.276ZM39.8726 263.091C39.6439 263.091 39.4467 263.013 39.281 262.857C39.1186 262.701 39.0374 262.514 39.0374 262.295C39.0374 262.077 39.1186 261.889 39.281 261.734C39.4467 261.578 39.6439 261.5 39.8726 261.5C40.1013 261.5 40.2968 261.578 40.4593 261.734C40.625 261.889 40.7078 262.077 40.7078 262.295C40.7078 262.514 40.625 262.701 40.4593 262.857C40.2968 263.013 40.1013 263.091 39.8726 263.091ZM43.7716 267.406V272H42.5983V264.364H43.7318V265.557H43.8312C44.0102 265.169 44.282 264.857 44.6466 264.622C45.0112 264.384 45.4818 264.264 46.0585 264.264C46.5756 264.264 47.028 264.37 47.4157 264.582C47.8035 264.791 48.1051 265.109 48.3206 265.537C48.536 265.961 48.6437 266.498 48.6437 267.148V272H47.4704V267.227C47.4704 266.627 47.3147 266.16 47.0031 265.825C46.6916 265.487 46.264 265.318 45.7204 265.318C45.3459 265.318 45.0112 265.399 44.7162 265.562C44.4245 265.724 44.1942 265.961 44.0251 266.273C43.8561 266.584 43.7716 266.962 43.7716 267.406ZM54.1883 264.364V265.358H50.0718V264.364H54.1883ZM51.3048 272V263.31C51.3048 262.872 51.4075 262.508 51.613 262.216C51.8185 261.924 52.0853 261.705 52.4134 261.56C52.7416 261.414 53.0879 261.341 53.4525 261.341C53.7409 261.341 53.9762 261.364 54.1585 261.411C54.3408 261.457 54.4767 261.5 54.5661 261.54L54.2281 262.554C54.1684 262.534 54.0856 262.509 53.9795 262.479C53.8767 262.45 53.7409 262.435 53.5718 262.435C53.184 262.435 52.904 262.532 52.7316 262.728C52.5626 262.924 52.4781 263.21 52.4781 263.588V272H51.3048ZM58.6205 272.159C57.9311 272.159 57.3262 271.995 56.8058 271.667C56.2888 271.339 55.8844 270.88 55.5928 270.29C55.3044 269.7 55.1602 269.01 55.1602 268.222C55.1602 267.426 55.3044 266.732 55.5928 266.138C55.8844 265.545 56.2888 265.085 56.8058 264.756C57.3262 264.428 57.9311 264.264 58.6205 264.264C59.3099 264.264 59.9131 264.428 60.4301 264.756C60.9505 265.085 61.3548 265.545 61.6432 266.138C61.9349 266.732 62.0807 267.426 62.0807 268.222C62.0807 269.01 61.9349 269.7 61.6432 270.29C61.3548 270.88 60.9505 271.339 60.4301 271.667C59.9131 271.995 59.3099 272.159 58.6205 272.159ZM58.6205 271.105C59.1441 271.105 59.575 270.971 59.9131 270.702C60.2512 270.434 60.5014 270.081 60.6638 269.643C60.8262 269.206 60.9074 268.732 60.9074 268.222C60.9074 267.711 60.8262 267.236 60.6638 266.795C60.5014 266.354 60.2512 265.998 59.9131 265.726C59.575 265.454 59.1441 265.318 58.6205 265.318C58.0968 265.318 57.6659 265.454 57.3279 265.726C56.9898 265.998 56.7396 266.354 56.5771 266.795C56.4147 267.236 56.3335 267.711 56.3335 268.222C56.3335 268.732 56.4147 269.206 56.5771 269.643C56.7396 270.081 56.9898 270.434 57.3279 270.702C57.6659 270.971 58.0968 271.105 58.6205 271.105Z" fill="#474747"/>
<path d="M39.276 342V334.364H40.4493V342H39.276ZM39.8726 333.091C39.6439 333.091 39.4467 333.013 39.281 332.857C39.1186 332.701 39.0374 332.514 39.0374 332.295C39.0374 332.077 39.1186 331.889 39.281 331.734C39.4467 331.578 39.6439 331.5 39.8726 331.5C40.1013 331.5 40.2968 331.578 40.4593 331.734C40.625 331.889 40.7078 332.077 40.7078 332.295C40.7078 332.514 40.625 332.701 40.4593 332.857C40.2968 333.013 40.1013 333.091 39.8726 333.091ZM43.7716 337.406V342H42.5983V334.364H43.7318V335.557H43.8312C44.0102 335.169 44.282 334.857 44.6466 334.622C45.0112 334.384 45.4818 334.264 46.0585 334.264C46.5756 334.264 47.028 334.37 47.4157 334.582C47.8035 334.791 48.1051 335.109 48.3206 335.537C48.536 335.961 48.6437 336.498 48.6437 337.148V342H47.4704V337.227C47.4704 336.627 47.3147 336.16 47.0031 335.825C46.6916 335.487 46.264 335.318 45.7204 335.318C45.3459 335.318 45.0112 335.399 44.7162 335.562C44.4245 335.724 44.1942 335.961 44.0251 336.273C43.8561 336.584 43.7716 336.962 43.7716 337.406ZM54.1883 334.364V335.358H50.0718V334.364H54.1883ZM51.3048 342V333.31C51.3048 332.872 51.4075 332.508 51.613 332.216C51.8185 331.924 52.0853 331.705 52.4134 331.56C52.7416 331.414 53.0879 331.341 53.4525 331.341C53.7409 331.341 53.9762 331.364 54.1585 331.411C54.3408 331.457 54.4767 331.5 54.5661 331.54L54.2281 332.554C54.1684 332.534 54.0856 332.509 53.9795 332.479C53.8767 332.45 53.7409 332.435 53.5718 332.435C53.184 332.435 52.904 332.532 52.7316 332.728C52.5626 332.924 52.4781 333.21 52.4781 333.588V342H51.3048ZM58.6205 342.159C57.9311 342.159 57.3262 341.995 56.8058 341.667C56.2888 341.339 55.8844 340.88 55.5928 340.29C55.3044 339.7 55.1602 339.01 55.1602 338.222C55.1602 337.426 55.3044 336.732 55.5928 336.138C55.8844 335.545 56.2888 335.085 56.8058 334.756C57.3262 334.428 57.9311 334.264 58.6205 334.264C59.3099 334.264 59.9131 334.428 60.4301 334.756C60.9505 335.085 61.3548 335.545 61.6432 336.138C61.9349 336.732 62.0807 337.426 62.0807 338.222C62.0807 339.01 61.9349 339.7 61.6432 340.29C61.3548 340.88 60.9505 341.339 60.4301 341.667C59.9131 341.995 59.3099 342.159 58.6205 342.159ZM58.6205 341.105C59.1441 341.105 59.575 340.971 59.9131 340.702C60.2512 340.434 60.5014 340.081 60.6638 339.643C60.8262 339.206 60.9074 338.732 60.9074 338.222C60.9074 337.711 60.8262 337.236 60.6638 336.795C60.5014 336.354 60.2512 335.998 59.9131 335.726C59.575 335.454 59.1441 335.318 58.6205 335.318C58.0968 335.318 57.6659 335.454 57.3279 335.726C56.9898 335.998 56.7396 336.354 56.5771 336.795C56.4147 337.236 56.3335 337.711 56.3335 338.222C56.3335 338.732 56.4147 339.206 56.5771 339.643C56.7396 340.081 56.9898 340.434 57.3279 340.702C57.6659 340.971 58.0968 341.105 58.6205 341.105Z" fill="#474747"/>
<path d="M77.276 381V373.364H78.4493V381H77.276ZM77.8726 372.091C77.6439 372.091 77.4467 372.013 77.281 371.857C77.1186 371.701 77.0374 371.514 77.0374 371.295C77.0374 371.077 77.1186 370.889 77.281 370.734C77.4467 370.578 77.6439 370.5 77.8726 370.5C78.1013 370.5 78.2968 370.578 78.4593 370.734C78.625 370.889 78.7078 371.077 78.7078 371.295C78.7078 371.514 78.625 371.701 78.4593 371.857C78.2968 372.013 78.1013 372.091 77.8726 372.091ZM81.7716 376.406V381H80.5983V373.364H81.7318V374.557H81.8312C82.0102 374.169 82.282 373.857 82.6466 373.622C83.0112 373.384 83.4818 373.264 84.0585 373.264C84.5756 373.264 85.028 373.37 85.4157 373.582C85.8035 373.791 86.1051 374.109 86.3206 374.537C86.536 374.961 86.6437 375.498 86.6437 376.148V381H85.4704V376.227C85.4704 375.627 85.3147 375.16 85.0031 374.825C84.6916 374.487 84.264 374.318 83.7204 374.318C83.3459 374.318 83.0112 374.399 82.7162 374.562C82.4245 374.724 82.1942 374.961 82.0251 375.273C81.8561 375.584 81.7716 375.962 81.7716 376.406ZM92.1883 373.364V374.358H88.0718V373.364H92.1883ZM89.3048 381V372.31C89.3048 371.872 89.4075 371.508 89.613 371.216C89.8185 370.924 90.0853 370.705 90.4134 370.56C90.7416 370.414 91.0879 370.341 91.4525 370.341C91.7409 370.341 91.9762 370.364 92.1585 370.411C92.3408 370.457 92.4767 370.5 92.5661 370.54L92.2281 371.554C92.1684 371.534 92.0856 371.509 91.9795 371.479C91.8767 371.45 91.7409 371.435 91.5718 371.435C91.184 371.435 90.904 371.532 90.7316 371.728C90.5626 371.924 90.4781 372.21 90.4781 372.588V381H89.3048ZM96.6205 381.159C95.9311 381.159 95.3262 380.995 94.8058 380.667C94.2888 380.339 93.8844 379.88 93.5928 379.29C93.3044 378.7 93.1602 378.01 93.1602 377.222C93.1602 376.426 93.3044 375.732 93.5928 375.138C93.8844 374.545 94.2888 374.085 94.8058 373.756C95.3262 373.428 95.9311 373.264 96.6205 373.264C97.3099 373.264 97.9131 373.428 98.4301 373.756C98.9505 374.085 99.3548 374.545 99.6432 375.138C99.9349 375.732 100.081 376.426 100.081 377.222C100.081 378.01 99.9349 378.7 99.6432 379.29C99.3548 379.88 98.9505 380.339 98.4301 380.667C97.9131 380.995 97.3099 381.159 96.6205 381.159ZM96.6205 380.105C97.1441 380.105 97.575 379.971 97.9131 379.702C98.2512 379.434 98.5014 379.081 98.6638 378.643C98.8262 378.206 98.9074 377.732 98.9074 377.222C98.9074 376.711 98.8262 376.236 98.6638 375.795C98.5014 375.354 98.2512 374.998 97.9131 374.726C97.575 374.454 97.1441 374.318 96.6205 374.318C96.0968 374.318 95.6659 374.454 95.3279 374.726C94.9898 374.998 94.7396 375.354 94.5771 375.795C94.4147 376.236 94.3335 376.711 94.3335 377.222C94.3335 377.732 94.4147 378.206 94.5771 378.643C94.7396 379.081 94.9898 379.434 95.3279 379.702C95.6659 379.971 96.0968 380.105 96.6205 380.105Z" fill="#474747"/>
<path d="M289.776 381V373.364H290.949V381H289.776ZM290.373 372.091C290.144 372.091 289.947 372.013 289.781 371.857C289.619 371.701 289.537 371.514 289.537 371.295C289.537 371.077 289.619 370.889 289.781 370.734C289.947 370.578 290.144 370.5 290.373 370.5C290.601 370.5 290.797 370.578 290.959 370.734C291.125 370.889 291.208 371.077 291.208 371.295C291.208 371.514 291.125 371.701 290.959 371.857C290.797 372.013 290.601 372.091 290.373 372.091ZM294.272 376.406V381H293.098V373.364H294.232V374.557H294.331C294.51 374.169 294.782 373.857 295.147 373.622C295.511 373.384 295.982 373.264 296.559 373.264C297.076 373.264 297.528 373.37 297.916 373.582C298.304 373.791 298.605 374.109 298.821 374.537C299.036 374.961 299.144 375.498 299.144 376.148V381H297.97V376.227C297.97 375.627 297.815 375.16 297.503 374.825C297.192 374.487 296.764 374.318 296.22 374.318C295.846 374.318 295.511 374.399 295.216 374.562C294.925 374.724 294.694 374.961 294.525 375.273C294.356 375.584 294.272 375.962 294.272 376.406ZM304.688 373.364V374.358H300.572V373.364H304.688ZM301.805 381V372.31C301.805 371.872 301.908 371.508 302.113 371.216C302.319 370.924 302.585 370.705 302.913 370.56C303.242 370.414 303.588 370.341 303.953 370.341C304.241 370.341 304.476 370.364 304.658 370.411C304.841 370.457 304.977 370.5 305.066 370.54L304.728 371.554C304.668 371.534 304.586 371.509 304.479 371.479C304.377 371.45 304.241 371.435 304.072 371.435C303.684 371.435 303.404 371.532 303.232 371.728C303.063 371.924 302.978 372.21 302.978 372.588V381H301.805ZM309.12 381.159C308.431 381.159 307.826 380.995 307.306 380.667C306.789 380.339 306.384 379.88 306.093 379.29C305.804 378.7 305.66 378.01 305.66 377.222C305.66 376.426 305.804 375.732 306.093 375.138C306.384 374.545 306.789 374.085 307.306 373.756C307.826 373.428 308.431 373.264 309.12 373.264C309.81 373.264 310.413 373.428 310.93 373.756C311.45 374.085 311.855 374.545 312.143 375.138C312.435 375.732 312.581 376.426 312.581 377.222C312.581 378.01 312.435 378.7 312.143 379.29C311.855 379.88 311.45 380.339 310.93 380.667C310.413 380.995 309.81 381.159 309.12 381.159ZM309.12 380.105C309.644 380.105 310.075 379.971 310.413 379.702C310.751 379.434 311.001 379.081 311.164 378.643C311.326 378.206 311.407 377.732 311.407 377.222C311.407 376.711 311.326 376.236 311.164 375.795C311.001 375.354 310.751 374.998 310.413 374.726C310.075 374.454 309.644 374.318 309.12 374.318C308.597 374.318 308.166 374.454 307.828 374.726C307.49 374.998 307.24 375.354 307.077 375.795C306.915 376.236 306.834 376.711 306.834 377.222C306.834 377.732 306.915 378.206 307.077 378.643C307.24 379.081 307.49 379.434 307.828 379.702C308.166 379.971 308.597 380.105 309.12 380.105Z" fill="#474747"/>
<path d="M499.276 381V373.364H500.449V381H499.276ZM499.873 372.091C499.644 372.091 499.447 372.013 499.281 371.857C499.119 371.701 499.037 371.514 499.037 371.295C499.037 371.077 499.119 370.889 499.281 370.734C499.447 370.578 499.644 370.5 499.873 370.5C500.101 370.5 500.297 370.578 500.459 370.734C500.625 370.889 500.708 371.077 500.708 371.295C500.708 371.514 500.625 371.701 500.459 371.857C500.297 372.013 500.101 372.091 499.873 372.091ZM503.772 376.406V381H502.598V373.364H503.732V374.557H503.831C504.01 374.169 504.282 373.857 504.647 373.622C505.011 373.384 505.482 373.264 506.059 373.264C506.576 373.264 507.028 373.37 507.416 373.582C507.804 373.791 508.105 374.109 508.321 374.537C508.536 374.961 508.644 375.498 508.644 376.148V381H507.47V376.227C507.47 375.627 507.315 375.16 507.003 374.825C506.692 374.487 506.264 374.318 505.72 374.318C505.346 374.318 505.011 374.399 504.716 374.562C504.425 374.724 504.194 374.961 504.025 375.273C503.856 375.584 503.772 375.962 503.772 376.406ZM514.188 373.364V374.358H510.072V373.364H514.188ZM511.305 381V372.31C511.305 371.872 511.408 371.508 511.613 371.216C511.819 370.924 512.085 370.705 512.413 370.56C512.742 370.414 513.088 370.341 513.453 370.341C513.741 370.341 513.976 370.364 514.158 370.411C514.341 370.457 514.477 370.5 514.566 370.54L514.228 371.554C514.168 371.534 514.086 371.509 513.979 371.479C513.877 371.45 513.741 371.435 513.572 371.435C513.184 371.435 512.904 371.532 512.732 371.728C512.563 371.924 512.478 372.21 512.478 372.588V381H511.305ZM518.62 381.159C517.931 381.159 517.326 380.995 516.806 380.667C516.289 380.339 515.884 379.88 515.593 379.29C515.304 378.7 515.16 378.01 515.16 377.222C515.16 376.426 515.304 375.732 515.593 375.138C515.884 374.545 516.289 374.085 516.806 373.756C517.326 373.428 517.931 373.264 518.62 373.264C519.31 373.264 519.913 373.428 520.43 373.756C520.95 374.085 521.355 374.545 521.643 375.138C521.935 375.732 522.081 376.426 522.081 377.222C522.081 378.01 521.935 378.7 521.643 379.29C521.355 379.88 520.95 380.339 520.43 380.667C519.913 380.995 519.31 381.159 518.62 381.159ZM518.62 380.105C519.144 380.105 519.575 379.971 519.913 379.702C520.251 379.434 520.501 379.081 520.664 378.643C520.826 378.206 520.907 377.732 520.907 377.222C520.907 376.711 520.826 376.236 520.664 375.795C520.501 375.354 520.251 374.998 519.913 374.726C519.575 374.454 519.144 374.318 518.62 374.318C518.097 374.318 517.666 374.454 517.328 374.726C516.99 374.998 516.74 375.354 516.577 375.795C516.415 376.236 516.334 376.711 516.334 377.222C516.334 377.732 516.415 378.206 516.577 378.643C516.74 379.081 516.99 379.434 517.328 379.702C517.666 379.971 518.097 380.105 518.62 380.105Z" fill="#474747"/>
<path d="M708.776 381V373.364H709.949V381H708.776ZM709.373 372.091C709.144 372.091 708.947 372.013 708.781 371.857C708.619 371.701 708.537 371.514 708.537 371.295C708.537 371.077 708.619 370.889 708.781 370.734C708.947 370.578 709.144 370.5 709.373 370.5C709.601 370.5 709.797 370.578 709.959 370.734C710.125 370.889 710.208 371.077 710.208 371.295C710.208 371.514 710.125 371.701 709.959 371.857C709.797 372.013 709.601 372.091 709.373 372.091ZM713.272 376.406V381H712.098V373.364H713.232V374.557H713.331C713.51 374.169 713.782 373.857 714.147 373.622C714.511 373.384 714.982 373.264 715.559 373.264C716.076 373.264 716.528 373.37 716.916 373.582C717.304 373.791 717.605 374.109 717.821 374.537C718.036 374.961 718.144 375.498 718.144 376.148V381H716.97V376.227C716.97 375.627 716.815 375.16 716.503 374.825C716.192 374.487 715.764 374.318 715.22 374.318C714.846 374.318 714.511 374.399 714.216 374.562C713.925 374.724 713.694 374.961 713.525 375.273C713.356 375.584 713.272 375.962 713.272 376.406ZM723.688 373.364V374.358H719.572V373.364H723.688ZM720.805 381V372.31C720.805 371.872 720.908 371.508 721.113 371.216C721.319 370.924 721.585 370.705 721.913 370.56C722.242 370.414 722.588 370.341 722.953 370.341C723.241 370.341 723.476 370.364 723.658 370.411C723.841 370.457 723.977 370.5 724.066 370.54L723.728 371.554C723.668 371.534 723.586 371.509 723.479 371.479C723.377 371.45 723.241 371.435 723.072 371.435C722.684 371.435 722.404 371.532 722.232 371.728C722.063 371.924 721.978 372.21 721.978 372.588V381H720.805ZM728.12 381.159C727.431 381.159 726.826 380.995 726.306 380.667C725.789 380.339 725.384 379.88 725.093 379.29C724.804 378.7 724.66 378.01 724.66 377.222C724.66 376.426 724.804 375.732 725.093 375.138C725.384 374.545 725.789 374.085 726.306 373.756C726.826 373.428 727.431 373.264 728.12 373.264C728.81 373.264 729.413 373.428 729.93 373.756C730.45 374.085 730.855 374.545 731.143 375.138C731.435 375.732 731.581 376.426 731.581 377.222C731.581 378.01 731.435 378.7 731.143 379.29C730.855 379.88 730.45 380.339 729.93 380.667C729.413 380.995 728.81 381.159 728.12 381.159ZM728.12 380.105C728.644 380.105 729.075 379.971 729.413 379.702C729.751 379.434 730.001 379.081 730.164 378.643C730.326 378.206 730.407 377.732 730.407 377.222C730.407 376.711 730.326 376.236 730.164 375.795C730.001 375.354 729.751 374.998 729.413 374.726C729.075 374.454 728.644 374.318 728.12 374.318C727.597 374.318 727.166 374.454 726.828 374.726C726.49 374.998 726.24 375.354 726.077 375.795C725.915 376.236 725.834 376.711 725.834 377.222C725.834 377.732 725.915 378.206 726.077 378.643C726.24 379.081 726.49 379.434 726.828 379.702C727.166 379.971 727.597 380.105 728.12 380.105Z" fill="#474747"/>
<path d="M918.276 381V373.364H919.449V381H918.276ZM918.873 372.091C918.644 372.091 918.447 372.013 918.281 371.857C918.119 371.701 918.037 371.514 918.037 371.295C918.037 371.077 918.119 370.889 918.281 370.734C918.447 370.578 918.644 370.5 918.873 370.5C919.101 370.5 919.297 370.578 919.459 370.734C919.625 370.889 919.708 371.077 919.708 371.295C919.708 371.514 919.625 371.701 919.459 371.857C919.297 372.013 919.101 372.091 918.873 372.091ZM922.772 376.406V381H921.598V373.364H922.732V374.557H922.831C923.01 374.169 923.282 373.857 923.647 373.622C924.011 373.384 924.482 373.264 925.059 373.264C925.576 373.264 926.028 373.37 926.416 373.582C926.804 373.791 927.105 374.109 927.321 374.537C927.536 374.961 927.644 375.498 927.644 376.148V381H926.47V376.227C926.47 375.627 926.315 375.16 926.003 374.825C925.692 374.487 925.264 374.318 924.72 374.318C924.346 374.318 924.011 374.399 923.716 374.562C923.425 374.724 923.194 374.961 923.025 375.273C922.856 375.584 922.772 375.962 922.772 376.406ZM933.188 373.364V374.358H929.072V373.364H933.188ZM930.305 381V372.31C930.305 371.872 930.408 371.508 930.613 371.216C930.819 370.924 931.085 370.705 931.413 370.56C931.742 370.414 932.088 370.341 932.453 370.341C932.741 370.341 932.976 370.364 933.158 370.411C933.341 370.457 933.477 370.5 933.566 370.54L933.228 371.554C933.168 371.534 933.086 371.509 932.979 371.479C932.877 371.45 932.741 371.435 932.572 371.435C932.184 371.435 931.904 371.532 931.732 371.728C931.563 371.924 931.478 372.21 931.478 372.588V381H930.305ZM937.62 381.159C936.931 381.159 936.326 380.995 935.806 380.667C935.289 380.339 934.884 379.88 934.593 379.29C934.304 378.7 934.16 378.01 934.16 377.222C934.16 376.426 934.304 375.732 934.593 375.138C934.884 374.545 935.289 374.085 935.806 373.756C936.326 373.428 936.931 373.264 937.62 373.264C938.31 373.264 938.913 373.428 939.43 373.756C939.95 374.085 940.355 374.545 940.643 375.138C940.935 375.732 941.081 376.426 941.081 377.222C941.081 378.01 940.935 378.7 940.643 379.29C940.355 379.88 939.95 380.339 939.43 380.667C938.913 380.995 938.31 381.159 937.62 381.159ZM937.62 380.105C938.144 380.105 938.575 379.971 938.913 379.702C939.251 379.434 939.501 379.081 939.664 378.643C939.826 378.206 939.907 377.732 939.907 377.222C939.907 376.711 939.826 376.236 939.664 375.795C939.501 375.354 939.251 374.998 938.913 374.726C938.575 374.454 938.144 374.318 937.62 374.318C937.097 374.318 936.666 374.454 936.328 374.726C935.99 374.998 935.74 375.354 935.577 375.795C935.415 376.236 935.334 376.711 935.334 377.222C935.334 377.732 935.415 378.206 935.577 378.643C935.74 379.081 935.99 379.434 936.328 379.702C936.666 379.971 937.097 380.105 937.62 380.105Z" fill="#474747"/>
<circle cx="120" cy="316" r="9" fill="#F8F9FA" stroke="#CFD4DA" stroke-width="2"/>
<circle cx="143" cy="306" r="9" fill="#F8F9FA" stroke="#CFD4DA" stroke-width="2"/>
<circle cx="130" cy="283" r="9" fill="#F8F9FA" stroke="#CFD4DA" stroke-width="2"/>
<circle cx="162" cy="261" r="9" fill="#F8F9FA" stroke="#CFD4DA" stroke-width="2"/>
<circle cx="150" cy="241" r="9" fill="#F8F9FA" stroke="#CFD4DA" stroke-width="2"/>
<circle cx="198" cy="224" r="9" fill="#F8F9FA" stroke="#CFD4DA" stroke-width="2"/>
<circle cx="218" cy="213" r="9" fill="#F8F9FA" stroke="#CFD4DA" stroke-width="2"/>
<circle cx="200" cy="296" r="9" fill="#F8F9FA" stroke="#CFD4DA" stroke-width="2"/>
<circle cx="805" cy="113" r="9" fill="#F8F9FA" stroke="#CFD4DA" stroke-width="2"/>
<circle cx="348" cy="221" r="9" fill="#F8F9FA" stroke="#CFD4DA" stroke-width="2"/>
<circle cx="323" cy="293" r="9" fill="#F8F9FA" stroke="#CFD4DA" stroke-width="2"/>
<circle cx="343" cy="289" r="9" fill="#F8F9FA" stroke="#CFD4DA" stroke-width="2"/>
<circle cx="328" cy="321" r="9" fill="#F8F9FA" stroke="#CFD4DA" stroke-width="2"/>
<circle cx="383" cy="326" r="9" fill="#F8F9FA" stroke="#CFD4DA" stroke-width="2"/>
<circle cx="833" cy="267" r="9" fill="#F8F9FA" stroke="#CFD4DA" stroke-width="2"/>
<circle cx="282" cy="90" r="9" fill="#F8F9FA" stroke="#CFD4DA" stroke-width="2"/>
<circle cx="333" cy="90" r="9" fill="#F8F9FA" stroke="#CFD4DA" stroke-width="2"/>
<circle cx="813" cy="135" r="9" fill="#F8F9FA" stroke="#CFD4DA" stroke-width="2"/>
<circle cx="364" cy="110" r="9" fill="#F8F9FA" stroke="#CFD4DA" stroke-width="2"/>
<circle cx="354" cy="130" r="9" fill="#F8F9FA" stroke="#CFD4DA" stroke-width="2"/>
<circle cx="388" cy="175" r="9" fill="#F8F9FA" stroke="#CFD4DA" stroke-width="2"/>
<circle cx="383" cy="199" r="9" fill="#F8F9FA" stroke="#CFD4DA" stroke-width="2"/>
<circle cx="463" cy="165" r="9" fill="#F8F9FA" stroke="#CFD4DA" stroke-width="2"/>
<circle cx="487" cy="165" r="9" fill="#F8F9FA" stroke="#CFD4DA" stroke-width="2"/>
<circle cx="518" cy="135" r="9" fill="#F8F9FA" stroke="#CFD4DA" stroke-width="2"/>
<circle cx="477" cy="93" r="9" fill="#F8F9FA" stroke="#CFD4DA" stroke-width="2"/>
<circle cx="540" cy="84" r="9" fill="#F8F9FA" stroke="#CFD4DA" stroke-width="2"/>
<circle cx="709" cy="83" r="9" fill="#F8F9FA" stroke="#CFD4DA" stroke-width="2"/>
<circle cx="656" cy="65" r="9" fill="#F8F9FA" stroke="#CFD4DA" stroke-width="2"/>
<circle cx="638" cy="90" r="9" fill="#F8F9FA" stroke="#CFD4DA" stroke-width="2"/>
<circle cx="606" cy="145" r="9" fill="#F8F9FA" stroke="#CFD4DA" stroke-width="2"/>
<circle cx="887" cy="207" r="9" fill="#F8F9FA" stroke="#CFD4DA" stroke-width="2"/>
<circle cx="805" cy="141" r="9" fill="#F8F9FA" stroke="#CFD4DA" stroke-width="2"/>
<circle cx="648" cy="213" r="9" fill="#F8F9FA" stroke="#CFD4DA" stroke-width="2"/>
<circle cx="719" cy="264" r="9" fill="#F8F9FA" stroke="#CFD4DA" stroke-width="2"/>
<circle cx="873" cy="125" r="9" fill="#F8F9FA" stroke="#CFD4DA" stroke-width="2"/>
<circle cx="927" cy="267" r="9" fill="#F8F9FA" stroke="#CFD4DA" stroke-width="2"/>
<circle cx="835" cy="303" r="9" fill="#F8F9FA" stroke="#CFD4DA" stroke-width="2"/>
<circle cx="699" cy="321" r="9" fill="#F8F9FA" stroke="#CFD4DA" stroke-width="2"/>
<circle cx="726" cy="316" r="9" fill="#F8F9FA" stroke="#CFD4DA" stroke-width="2"/>
<circle cx="639" cy="311" r="9" fill="#F8F9FA" stroke="#CFD4DA" stroke-width="2"/>
<circle cx="679" cy="150" r="9" fill="#F8F9FA" stroke="#CFD4DA" stroke-width="2"/>
<circle cx="699" cy="189" r="9" fill="#F8F9FA" stroke="#CFD4DA" stroke-width="2"/>
<circle cx="507" cy="233" r="9" fill="#F8F9FA" stroke="#CFD4DA" stroke-width="2"/>
<circle cx="785" cy="165" r="9" fill="#F8F9FA" stroke="#CFD4DA" stroke-width="2"/>
<circle cx="498" cy="244" r="9" fill="#F8F9FA" stroke="#CFD4DA" stroke-width="2"/>
<circle cx="508" cy="251" r="9" fill="#F8F9FA" stroke="#CFD4DA" stroke-width="2"/>
<circle cx="560" cy="225" r="9" fill="#F8F9FA" stroke="#CFD4DA" stroke-width="2"/>
<circle cx="563" cy="209" r="9" fill="#F8F9FA" stroke="#CFD4DA" stroke-width="2"/>
<circle cx="537" cy="178" r="9" fill="#F8F9FA" stroke="#CFD4DA" stroke-width="2"/>
<circle cx="530" cy="309" r="9" fill="#F8F9FA" stroke="#CFD4DA" stroke-width="2"/>
<circle cx="453" cy="296" r="9" fill="#F8F9FA" stroke="#CFD4DA" stroke-width="2"/>
<circle cx="543" cy="309" r="9" fill="#F8F9FA" stroke="#CFD4DA" stroke-width="2"/>
<circle cx="100" cy="73" r="9" fill="#F8F9FA" stroke="#CFD4DA" stroke-width="2"/>
<circle cx="96" cy="104" r="9" fill="#F8F9FA" stroke="#CFD4DA" stroke-width="2"/>
<circle cx="208" cy="84" r="9" fill="#F8F9FA" stroke="#CFD4DA" stroke-width="2"/>
<circle cx="228" cy="121" r="9" fill="#F8F9FA" stroke="#CFD4DA" stroke-width="2"/>
<circle cx="218" cy="158" r="9" fill="#F8F9FA" stroke="#CFD4DA" stroke-width="2"/>
<circle cx="172" cy="114" r="9" fill="#F8F9FA" stroke="#CFD4DA" stroke-width="2"/>
<circle cx="163" cy="121" r="9" fill="#F8F9FA" stroke="#CFD4DA" stroke-width="2"/>
<circle cx="143" cy="160" r="9" fill="#F8F9FA" stroke="#CFD4DA" stroke-width="2"/>
<circle cx="163" cy="170" r="9" fill="#F8F9FA" stroke="#CFD4DA" stroke-width="2"/>
<circle cx="140" cy="185" r="9" fill="#F8F9FA" stroke="#CFD4DA" stroke-width="2"/>
<circle cx="106" cy="241" r="9" fill="#F8F9FA" stroke="#CFD4DA" stroke-width="2"/>
<circle cx="116" cy="221" r="9" fill="#F8F9FA" stroke="#CFD4DA" stroke-width="2"/>
</g>
<path d="M469.677 395.273L471.599 398.469H471.667L473.597 395.273H475.4L472.711 399.636L475.442 404H473.61L471.667 400.825H471.599L469.655 404H467.832L470.589 399.636L467.866 395.273H469.677ZM481.378 404H479.691L482.763 395.273H484.715L487.792 404H486.104L483.773 397.062H483.705L481.378 404ZM481.434 400.578H486.036V401.848H481.434V400.578ZM490.454 397.455L491.775 399.871L493.118 397.455H494.75L492.777 400.727L494.784 404H493.16L491.775 401.643L490.403 404H488.767L490.761 400.727L488.818 397.455H490.454ZM496.263 404V397.455H497.805V404H496.263ZM497.038 396.526C496.794 396.526 496.584 396.445 496.408 396.283C496.232 396.118 496.144 395.92 496.144 395.69C496.144 395.457 496.232 395.26 496.408 395.098C496.584 394.933 496.794 394.851 497.038 394.851C497.286 394.851 497.496 394.933 497.669 395.098C497.845 395.26 497.933 395.457 497.933 395.69C497.933 395.92 497.845 396.118 497.669 396.283C497.496 396.445 497.286 396.526 497.038 396.526ZM504.885 399.185L503.479 399.338C503.439 399.196 503.369 399.062 503.27 398.938C503.173 398.812 503.043 398.712 502.878 398.635C502.713 398.558 502.511 398.52 502.273 398.52C501.952 398.52 501.682 398.589 501.463 398.729C501.247 398.868 501.141 399.048 501.144 399.27C501.141 399.46 501.21 399.615 501.352 399.734C501.497 399.854 501.736 399.952 502.068 400.028L503.185 400.267C503.804 400.401 504.264 400.612 504.565 400.902C504.869 401.192 505.023 401.571 505.026 402.04C505.023 402.452 504.902 402.815 504.663 403.131C504.428 403.443 504.1 403.687 503.679 403.864C503.259 404.04 502.776 404.128 502.23 404.128C501.429 404.128 500.784 403.96 500.296 403.625C499.807 403.287 499.516 402.817 499.422 402.214L500.926 402.07C500.994 402.365 501.139 402.588 501.361 402.739C501.583 402.889 501.871 402.964 502.226 402.964C502.592 402.964 502.886 402.889 503.108 402.739C503.333 402.588 503.445 402.402 503.445 402.18C503.445 401.993 503.372 401.838 503.227 401.716C503.085 401.594 502.864 401.5 502.563 401.435L501.446 401.2C500.818 401.07 500.354 400.849 500.053 400.54C499.752 400.227 499.602 399.832 499.605 399.355C499.602 398.952 499.712 398.602 499.933 398.307C500.158 398.009 500.469 397.778 500.867 397.616C501.267 397.452 501.729 397.369 502.252 397.369C503.019 397.369 503.622 397.533 504.063 397.859C504.506 398.186 504.78 398.628 504.885 399.185Z" fill="#161616"/>
<defs>
<clipPath id="clip0_4665_194653">
<rect width="32" height="32" fill="white" transform="translate(910)"/>
</clipPath>
<clipPath id="clip1_4665_194653">
<rect width="16" height="16" fill="white" transform="translate(918 8)"/>
</clipPath>
<clipPath id="clip2_4665_194653">
<rect width="910" height="375" fill="white" transform="translate(32 48)"/>
</clipPath>
</defs>
</svg>
