<svg width="942" height="419" viewBox="0 0 942 419" fill="none" xmlns="http://www.w3.org/2000/svg">
<g clip-path="url(#clip0_11736_126101)">
<rect x="2.17537" y="48.1754" width="469.649" height="184.843" fill="#DFE3E5"/>
<rect x="2.17537" y="48.1754" width="469.649" height="184.843" stroke="white" stroke-width="0.350746"/>
<path d="M16.9147 76.0312V65.8494H19.0674V74.2564H23.4325V76.0312H16.9147ZM28.2686 76.1804C27.4963 76.1804 26.8285 76.0163 26.265 75.6882C25.7049 75.3568 25.2724 74.8961 24.9675 74.3061C24.6625 73.7128 24.5101 73.0251 24.5101 72.2429C24.5101 71.4541 24.6625 70.7647 24.9675 70.1747C25.2724 69.5814 25.7049 69.1207 26.265 68.7926C26.8285 68.4612 27.4963 68.2955 28.2686 68.2955C29.0409 68.2955 29.707 68.4612 30.2672 68.7926C30.8306 69.1207 31.2648 69.5814 31.5697 70.1747C31.8747 70.7647 32.0271 71.4541 32.0271 72.2429C32.0271 73.0251 31.8747 73.7128 31.5697 74.3061C31.2648 74.8961 30.8306 75.3568 30.2672 75.6882C29.707 76.0163 29.0409 76.1804 28.2686 76.1804ZM28.2785 74.5398C28.6299 74.5398 28.9232 74.4403 29.1585 74.2415C29.3938 74.0393 29.5712 73.7642 29.6905 73.4162C29.8131 73.0682 29.8744 72.6721 29.8744 72.228C29.8744 71.7839 29.8131 71.3878 29.6905 71.0398C29.5712 70.6918 29.3938 70.4167 29.1585 70.2145C28.9232 70.0123 28.6299 69.9112 28.2785 69.9112C27.9239 69.9112 27.6256 70.0123 27.3837 70.2145C27.145 70.4167 26.9644 70.6918 26.8418 71.0398C26.7224 71.3878 26.6628 71.7839 26.6628 72.228C26.6628 72.6721 26.7224 73.0682 26.8418 73.4162C26.9644 73.7642 27.145 74.0393 27.3837 74.2415C27.6256 74.4403 27.9239 74.5398 28.2785 74.5398ZM33.4043 76.0312V68.3949H35.4575V69.7273H35.5371C35.6763 69.2533 35.9099 68.8954 36.2381 68.6534C36.5662 68.4081 36.944 68.2855 37.3716 68.2855C37.4776 68.2855 37.592 68.2921 37.7146 68.3054C37.8373 68.3187 37.945 68.3369 38.0378 68.3601V70.2393C37.9383 70.2095 37.8008 70.183 37.6251 70.1598C37.4495 70.1366 37.2887 70.125 37.1429 70.125C36.8313 70.125 36.5529 70.1929 36.3077 70.3288C36.0657 70.4614 35.8735 70.647 35.731 70.8857C35.5918 71.1243 35.5222 71.3994 35.5222 71.7109V76.0312H33.4043ZM42.2574 76.1804C41.4719 76.1804 40.7958 76.0213 40.229 75.7031C39.6656 75.3816 39.2314 74.9276 38.9264 74.3409C38.6215 73.7509 38.4691 73.0533 38.4691 72.2479C38.4691 71.4624 38.6215 70.773 38.9264 70.1797C39.2314 69.5864 39.6606 69.1241 40.2141 68.7926C40.7709 68.4612 41.4238 68.2955 42.1729 68.2955C42.6767 68.2955 43.1457 68.3767 43.5799 68.5391C44.0174 68.6982 44.3985 68.9384 44.7233 69.2599C45.0514 69.5814 45.3067 69.9858 45.4889 70.473C45.6712 70.9569 45.7624 71.5237 45.7624 72.1733V72.755H39.3142V71.4425H43.7688C43.7688 71.1375 43.7025 70.8674 43.5699 70.6321C43.4373 70.3968 43.2534 70.2128 43.0181 70.0803C42.7861 69.9444 42.5159 69.8764 42.2077 69.8764C41.8862 69.8764 41.6012 69.951 41.3526 70.1001C41.1073 70.246 40.9151 70.4432 40.7759 70.6918C40.6367 70.937 40.5654 71.2105 40.5621 71.5121V72.7599C40.5621 73.1378 40.6317 73.4643 40.7709 73.7393C40.9134 74.0144 41.1139 74.2266 41.3725 74.3757C41.631 74.5249 41.9376 74.5994 42.2922 74.5994C42.5275 74.5994 42.743 74.5663 42.9385 74.5C43.1341 74.4337 43.3014 74.3343 43.4407 74.2017C43.5799 74.0691 43.6859 73.9067 43.7588 73.7145L45.7176 73.8438C45.6182 74.3144 45.4144 74.7254 45.1061 75.0767C44.8012 75.4247 44.4068 75.6965 43.9229 75.892C43.4423 76.0843 42.8871 76.1804 42.2574 76.1804ZM47.1445 76.0312V68.3949H49.163V69.7422H49.2524C49.4115 69.2947 49.6767 68.9418 50.0479 68.6832C50.4191 68.4247 50.8632 68.2955 51.3803 68.2955C51.904 68.2955 52.3497 68.4264 52.7176 68.6882C53.0855 68.9467 53.3308 69.2981 53.4534 69.7422H53.533C53.6888 69.3047 53.9705 68.955 54.3782 68.6932C54.7891 68.428 55.2747 68.2955 55.8348 68.2955C56.5474 68.2955 57.1258 68.5225 57.5699 68.9766C58.0174 69.4273 58.2411 70.067 58.2411 70.8956V76.0312H56.1282V71.3132C56.1282 70.889 56.0155 70.5708 55.7901 70.3587C55.5647 70.1465 55.283 70.0405 54.9449 70.0405C54.5604 70.0405 54.2605 70.1631 54.0451 70.4084C53.8296 70.6503 53.7219 70.9702 53.7219 71.3679V76.0312H51.6686V71.2685C51.6686 70.8939 51.5609 70.5956 51.3455 70.3736C51.1334 70.1515 50.8533 70.0405 50.5053 70.0405C50.27 70.0405 50.0578 70.1001 49.8689 70.2195C49.6833 70.3355 49.5358 70.4995 49.4264 70.7116C49.3171 70.9205 49.2624 71.1657 49.2624 71.4474V76.0312H47.1445ZM65.3467 65.8494V76.0312H63.194V65.8494H65.3467ZM67.0781 78.8949V68.3949H69.1661V69.6776H69.2606C69.3534 69.4721 69.4876 69.2633 69.6633 69.0511C69.8423 68.8357 70.0743 68.6567 70.3593 68.5142C70.6477 68.3684 71.0056 68.2955 71.4332 68.2955C71.99 68.2955 72.5037 68.4413 72.9744 68.733C73.445 69.0213 73.8212 69.4571 74.1029 70.0405C74.3847 70.6205 74.5255 71.348 74.5255 72.223C74.5255 73.0748 74.388 73.794 74.1129 74.3807C73.8411 74.964 73.4699 75.4065 72.9992 75.7081C72.5319 76.0064 72.0082 76.1555 71.4282 76.1555C71.0172 76.1555 70.6676 76.0876 70.3792 75.9517C70.0942 75.8158 69.8605 75.6451 69.6782 75.4396C69.4959 75.2308 69.3567 75.0204 69.2606 74.8082H69.196V78.8949H67.0781ZM69.1512 72.2131C69.1512 72.6671 69.2142 73.0632 69.3402 73.4013C69.4661 73.7393 69.6484 74.0028 69.887 74.1918C70.1257 74.3774 70.4157 74.4702 70.7571 74.4702C71.1018 74.4702 71.3934 74.3757 71.6321 74.1868C71.8707 73.9946 72.0513 73.7294 72.174 73.3913C72.2999 73.05 72.3629 72.6572 72.3629 72.2131C72.3629 71.7723 72.3016 71.3845 72.1789 71.0497C72.0563 70.715 71.8757 70.4531 71.637 70.2642C71.3984 70.0753 71.1051 69.9808 70.7571 69.9808C70.4124 69.9808 70.1207 70.072 69.8821 70.2543C69.6467 70.4366 69.4661 70.6951 69.3402 71.0298C69.2142 71.3646 69.1512 71.759 69.1512 72.2131ZM82.2911 70.5724L80.3522 70.6918C80.3191 70.526 80.2478 70.3769 80.1384 70.2443C80.0291 70.1084 79.8849 70.0007 79.7059 69.9212C79.5303 69.8383 79.3198 69.7969 79.0745 69.7969C78.7464 69.7969 78.4697 69.8665 78.2443 70.0057C78.0189 70.1416 77.9062 70.3239 77.9062 70.5526C77.9062 70.7348 77.9791 70.889 78.125 71.0149C78.2708 71.1409 78.521 71.242 78.8757 71.3182L80.2578 71.5966C81.0002 71.7491 81.5537 71.9943 81.9183 72.3324C82.2829 72.6705 82.4652 73.1146 82.4652 73.6648C82.4652 74.1652 82.3177 74.6044 82.0227 74.9822C81.731 75.3601 81.33 75.6551 80.8196 75.8672C80.3125 76.076 79.7275 76.1804 79.0646 76.1804C78.0537 76.1804 77.2483 75.9699 76.6484 75.549C76.0518 75.1248 75.7021 74.5481 75.5994 73.8189L77.6825 73.7095C77.7455 74.0178 77.8979 74.2531 78.1399 74.4155C78.3818 74.5746 78.6917 74.6541 79.0696 74.6541C79.4408 74.6541 79.7391 74.5829 79.9644 74.4403C80.1931 74.2945 80.3091 74.1072 80.3125 73.8786C80.3091 73.6863 80.2279 73.5289 80.0688 73.4062C79.9098 73.2803 79.6645 73.1842 79.3331 73.1179L78.0106 72.8544C77.2649 72.7053 76.7097 72.4467 76.3451 72.0788C75.9839 71.7109 75.8032 71.242 75.8032 70.6719C75.8032 70.1813 75.9358 69.7588 76.2009 69.4041C76.4694 69.0495 76.8456 68.776 77.3295 68.5838C77.8167 68.3916 78.3868 68.2955 79.0397 68.2955C80.0042 68.2955 80.7632 68.4993 81.3167 68.907C81.8735 69.3146 82.1983 69.8698 82.2911 70.5724ZM88.6958 72.7798V68.3949H90.8137V76.0312H88.7803V74.6442H88.7008C88.5284 75.0916 88.2417 75.4512 87.8407 75.723C87.443 75.9948 86.9574 76.1307 86.384 76.1307C85.8736 76.1307 85.4245 76.0147 85.0367 75.7827C84.6489 75.5507 84.3457 75.2209 84.1269 74.7933C83.9115 74.3658 83.8021 73.8537 83.7988 73.2571V68.3949H85.9167V72.8793C85.92 73.33 86.041 73.6863 86.2796 73.9482C86.5182 74.21 86.8381 74.3409 87.2391 74.3409C87.4943 74.3409 87.733 74.2829 87.955 74.1669C88.1771 74.0476 88.3561 73.8719 88.492 73.6399C88.6312 73.4079 88.6991 73.1212 88.6958 72.7798ZM92.5078 76.0312V68.3949H94.5262V69.7422H94.6157C94.7748 69.2947 95.04 68.9418 95.4112 68.6832C95.7824 68.4247 96.2265 68.2955 96.7436 68.2955C97.2672 68.2955 97.713 68.4264 98.0809 68.6882C98.4488 68.9467 98.6941 69.2981 98.8167 69.7422H98.8963C99.052 69.3047 99.3338 68.955 99.7414 68.6932C100.152 68.428 100.638 68.2955 101.198 68.2955C101.911 68.2955 102.489 68.5225 102.933 68.9766C103.381 69.4273 103.604 70.067 103.604 70.8956V76.0312H101.491V71.3132C101.491 70.889 101.379 70.5708 101.153 70.3587C100.928 70.1465 100.646 70.0405 100.308 70.0405C99.9237 70.0405 99.6238 70.1631 99.4083 70.4084C99.1929 70.6503 99.0852 70.9702 99.0852 71.3679V76.0312H97.0319V71.2685C97.0319 70.8939 96.9242 70.5956 96.7088 70.3736C96.4966 70.1515 96.2166 70.0405 95.8686 70.0405C95.6332 70.0405 95.4211 70.1001 95.2322 70.2195C95.0466 70.3355 94.8991 70.4995 94.7897 70.7116C94.6804 70.9205 94.6257 71.1657 94.6257 71.4474V76.0312H92.5078Z" fill="black"/>
<path d="M17.6804 87.0565L20.7031 95.6275H20.8224L23.8451 87.0565H25.1377L21.3991 97.2383H20.1264L16.3877 87.0565H17.6804ZM28.1008 97.4173C27.6169 97.4173 27.1777 97.3261 26.7833 97.1438C26.3889 96.9582 26.0757 96.6914 25.8437 96.3434C25.6117 95.9921 25.4957 95.5678 25.4957 95.0707C25.4957 94.6332 25.5819 94.2785 25.7542 94.0067C25.9266 93.7317 26.1569 93.5162 26.4453 93.3604C26.7336 93.2047 27.0518 93.0887 27.3998 93.0124C27.7511 92.9329 28.1041 92.8699 28.4588 92.8235C28.9228 92.7638 29.299 92.7191 29.5873 92.6893C29.879 92.6561 30.0911 92.6014 30.2237 92.5252C30.3596 92.449 30.4275 92.3164 30.4275 92.1275V92.0877C30.4275 91.5972 30.2933 91.216 30.0248 90.9442C29.7597 90.6725 29.357 90.5366 28.8167 90.5366C28.2566 90.5366 27.8174 90.6592 27.4992 90.9045C27.1811 91.1497 26.9573 91.4116 26.8281 91.69L25.7144 91.2923C25.9133 90.8282 26.1785 90.467 26.5099 90.2085C26.8447 89.9466 27.2092 89.7643 27.6036 89.6616C28.0014 89.5555 28.3925 89.5025 28.7769 89.5025C29.0222 89.5025 29.3039 89.5323 29.6221 89.592C29.9436 89.6483 30.2535 89.766 30.5518 89.945C30.8534 90.1239 31.1036 90.3941 31.3025 90.7553C31.5014 91.1166 31.6008 91.6005 31.6008 92.207V97.2383H30.4275V96.2042H30.3679C30.2883 96.3699 30.1557 96.5472 29.9701 96.7362C29.7845 96.9251 29.5376 97.0858 29.2294 97.2184C28.9211 97.351 28.5449 97.4173 28.1008 97.4173ZM28.2798 96.3633C28.7438 96.3633 29.1349 96.2721 29.4531 96.0898C29.7746 95.9076 30.0165 95.6722 30.1789 95.3839C30.3447 95.0955 30.4275 94.7923 30.4275 94.4741V93.4002C30.3778 93.4599 30.2684 93.5146 30.0994 93.5643C29.9337 93.6107 29.7414 93.6521 29.5227 93.6886C29.3072 93.7217 29.0968 93.7515 28.8913 93.7781C28.6891 93.8013 28.5251 93.8211 28.3991 93.8377C28.0942 93.8775 27.8091 93.9421 27.544 94.0316C27.2822 94.1178 27.07 94.2487 26.9076 94.4244C26.7485 94.5967 26.669 94.832 26.669 95.1303C26.669 95.538 26.8198 95.8462 27.1214 96.055C27.4263 96.2605 27.8125 96.3633 28.2798 96.3633ZM34.9156 87.0565V97.2383H33.7423V87.0565H34.9156ZM41.8771 94.1161V89.6019H43.0504V97.2383H41.8771V95.9457H41.7975C41.6186 96.3335 41.3402 96.6632 40.9623 96.935C40.5845 97.2035 40.1072 97.3377 39.5305 97.3377C39.0532 97.3377 38.629 97.2333 38.2578 97.0245C37.8866 96.8124 37.5949 96.4942 37.3828 96.07C37.1706 95.6424 37.0646 95.1038 37.0646 94.4542V89.6019H38.2379V94.3746C38.2379 94.9315 38.3937 95.3756 38.7052 95.707C39.0201 96.0385 39.4211 96.2042 39.9083 96.2042C40.2 96.2042 40.4966 96.1296 40.7983 95.9805C41.1032 95.8313 41.3584 95.6026 41.5639 95.2944C41.7727 94.9862 41.8771 94.5934 41.8771 94.1161ZM48.4011 97.3974C47.6653 97.3974 47.0306 97.235 46.4969 96.9102C45.9666 96.582 45.5573 96.1246 45.269 95.538C44.9839 94.948 44.8414 94.262 44.8414 93.4798C44.8414 92.6976 44.9839 92.0082 45.269 91.4116C45.5573 90.8117 45.9583 90.3443 46.4721 90.0096C46.9891 89.6715 47.5923 89.5025 48.2817 89.5025C48.6795 89.5025 49.0722 89.5688 49.46 89.7013C49.8478 89.8339 50.2008 90.0494 50.519 90.3477C50.8371 90.6426 51.0907 91.0337 51.2796 91.521C51.4685 92.0082 51.563 92.6081 51.563 93.3207V93.8178H45.6766V92.8036H50.3698C50.3698 92.3728 50.2836 91.9883 50.1113 91.6502C49.9422 91.3121 49.7003 91.0453 49.3854 90.8498C49.0739 90.6542 48.706 90.5565 48.2817 90.5565C47.8144 90.5565 47.4101 90.6725 47.0687 90.9045C46.7306 91.1332 46.4704 91.4315 46.2881 91.7994C46.1058 92.1673 46.0147 92.5617 46.0147 92.9826V93.6587C46.0147 94.2354 46.1141 94.7243 46.313 95.1254C46.5152 95.5231 46.7952 95.8263 47.1532 96.0352C47.5111 96.2406 47.9271 96.3434 48.4011 96.3434C48.7093 96.3434 48.9877 96.3003 49.2363 96.2141C49.4882 96.1246 49.7053 95.9921 49.8876 95.8164C50.0699 95.6374 50.2107 95.4154 50.3101 95.1502L51.4437 95.4684C51.3244 95.8529 51.1238 96.1909 50.8421 96.4826C50.5604 96.771 50.2124 96.9963 49.7981 97.1587C49.3838 97.3178 48.9181 97.3974 48.4011 97.3974Z" fill="black"/>
<rect x="472.175" y="48.1754" width="469.649" height="184.843" fill="#CFD4DA"/>
<rect x="472.175" y="48.1754" width="469.649" height="184.843" stroke="white" stroke-width="0.350746"/>
<path d="M486.915 76.0312V65.8494H489.067V74.2564H493.432V76.0312H486.915ZM498.269 76.1804C497.496 76.1804 496.828 76.0163 496.265 75.6882C495.705 75.3568 495.272 74.8961 494.967 74.3061C494.663 73.7128 494.51 73.0251 494.51 72.2429C494.51 71.4541 494.663 70.7647 494.967 70.1747C495.272 69.5814 495.705 69.1207 496.265 68.7926C496.828 68.4612 497.496 68.2955 498.269 68.2955C499.041 68.2955 499.707 68.4612 500.267 68.7926C500.831 69.1207 501.265 69.5814 501.57 70.1747C501.875 70.7647 502.027 71.4541 502.027 72.2429C502.027 73.0251 501.875 73.7128 501.57 74.3061C501.265 74.8961 500.831 75.3568 500.267 75.6882C499.707 76.0163 499.041 76.1804 498.269 76.1804ZM498.279 74.5398C498.63 74.5398 498.923 74.4403 499.159 74.2415C499.394 74.0393 499.571 73.7642 499.69 73.4162C499.813 73.0682 499.874 72.6721 499.874 72.228C499.874 71.7839 499.813 71.3878 499.69 71.0398C499.571 70.6918 499.394 70.4167 499.159 70.2145C498.923 70.0123 498.63 69.9112 498.279 69.9112C497.924 69.9112 497.626 70.0123 497.384 70.2145C497.145 70.4167 496.964 70.6918 496.842 71.0398C496.722 71.3878 496.663 71.7839 496.663 72.228C496.663 72.6721 496.722 73.0682 496.842 73.4162C496.964 73.7642 497.145 74.0393 497.384 74.2415C497.626 74.4403 497.924 74.5398 498.279 74.5398ZM503.404 76.0312V68.3949H505.458V69.7273H505.537C505.676 69.2533 505.91 68.8954 506.238 68.6534C506.566 68.4081 506.944 68.2855 507.372 68.2855C507.478 68.2855 507.592 68.2921 507.715 68.3054C507.837 68.3187 507.945 68.3369 508.038 68.3601V70.2393C507.938 70.2095 507.801 70.183 507.625 70.1598C507.449 70.1366 507.289 70.125 507.143 70.125C506.831 70.125 506.553 70.1929 506.308 70.3288C506.066 70.4614 505.873 70.647 505.731 70.8857C505.592 71.1243 505.522 71.3994 505.522 71.7109V76.0312H503.404ZM512.257 76.1804C511.472 76.1804 510.796 76.0213 510.229 75.7031C509.666 75.3816 509.231 74.9276 508.926 74.3409C508.622 73.7509 508.469 73.0533 508.469 72.2479C508.469 71.4624 508.622 70.773 508.926 70.1797C509.231 69.5864 509.661 69.1241 510.214 68.7926C510.771 68.4612 511.424 68.2955 512.173 68.2955C512.677 68.2955 513.146 68.3767 513.58 68.5391C514.017 68.6982 514.399 68.9384 514.723 69.2599C515.051 69.5814 515.307 69.9858 515.489 70.473C515.671 70.9569 515.762 71.5237 515.762 72.1733V72.755H509.314V71.4425H513.769C513.769 71.1375 513.702 70.8674 513.57 70.6321C513.437 70.3968 513.253 70.2128 513.018 70.0803C512.786 69.9444 512.516 69.8764 512.208 69.8764C511.886 69.8764 511.601 69.951 511.353 70.1001C511.107 70.246 510.915 70.4432 510.776 70.6918C510.637 70.937 510.565 71.2105 510.562 71.5121V72.7599C510.562 73.1378 510.632 73.4643 510.771 73.7393C510.913 74.0144 511.114 74.2266 511.372 74.3757C511.631 74.5249 511.938 74.5994 512.292 74.5994C512.528 74.5994 512.743 74.5663 512.939 74.5C513.134 74.4337 513.301 74.3343 513.441 74.2017C513.58 74.0691 513.686 73.9067 513.759 73.7145L515.718 73.8438C515.618 74.3144 515.414 74.7254 515.106 75.0767C514.801 75.4247 514.407 75.6965 513.923 75.892C513.442 76.0843 512.887 76.1804 512.257 76.1804ZM517.144 76.0312V68.3949H519.163V69.7422H519.252C519.412 69.2947 519.677 68.9418 520.048 68.6832C520.419 68.4247 520.863 68.2955 521.38 68.2955C521.904 68.2955 522.35 68.4264 522.718 68.6882C523.086 68.9467 523.331 69.2981 523.453 69.7422H523.533C523.689 69.3047 523.97 68.955 524.378 68.6932C524.789 68.428 525.275 68.2955 525.835 68.2955C526.547 68.2955 527.126 68.5225 527.57 68.9766C528.017 69.4273 528.241 70.067 528.241 70.8956V76.0312H526.128V71.3132C526.128 70.889 526.015 70.5708 525.79 70.3587C525.565 70.1465 525.283 70.0405 524.945 70.0405C524.56 70.0405 524.26 70.1631 524.045 70.4084C523.83 70.6503 523.722 70.9702 523.722 71.3679V76.0312H521.669V71.2685C521.669 70.8939 521.561 70.5956 521.345 70.3736C521.133 70.1515 520.853 70.0405 520.505 70.0405C520.27 70.0405 520.058 70.1001 519.869 70.2195C519.683 70.3355 519.536 70.4995 519.426 70.7116C519.317 70.9205 519.262 71.1657 519.262 71.4474V76.0312H517.144ZM535.347 65.8494V76.0312H533.194V65.8494H535.347ZM537.078 78.8949V68.3949H539.166V69.6776H539.261C539.353 69.4721 539.488 69.2633 539.663 69.0511C539.842 68.8357 540.074 68.6567 540.359 68.5142C540.648 68.3684 541.006 68.2955 541.433 68.2955C541.99 68.2955 542.504 68.4413 542.974 68.733C543.445 69.0213 543.821 69.4571 544.103 70.0405C544.385 70.6205 544.526 71.348 544.526 72.223C544.526 73.0748 544.388 73.794 544.113 74.3807C543.841 74.964 543.47 75.4065 542.999 75.7081C542.532 76.0064 542.008 76.1555 541.428 76.1555C541.017 76.1555 540.668 76.0876 540.379 75.9517C540.094 75.8158 539.861 75.6451 539.678 75.4396C539.496 75.2308 539.357 75.0204 539.261 74.8082H539.196V78.8949H537.078ZM539.151 72.2131C539.151 72.6671 539.214 73.0632 539.34 73.4013C539.466 73.7393 539.648 74.0028 539.887 74.1918C540.126 74.3774 540.416 74.4702 540.757 74.4702C541.102 74.4702 541.393 74.3757 541.632 74.1868C541.871 73.9946 542.051 73.7294 542.174 73.3913C542.3 73.05 542.363 72.6572 542.363 72.2131C542.363 71.7723 542.302 71.3845 542.179 71.0497C542.056 70.715 541.876 70.4531 541.637 70.2642C541.398 70.0753 541.105 69.9808 540.757 69.9808C540.412 69.9808 540.121 70.072 539.882 70.2543C539.647 70.4366 539.466 70.6951 539.34 71.0298C539.214 71.3646 539.151 71.759 539.151 72.2131ZM552.291 70.5724L550.352 70.6918C550.319 70.526 550.248 70.3769 550.138 70.2443C550.029 70.1084 549.885 70.0007 549.706 69.9212C549.53 69.8383 549.32 69.7969 549.075 69.7969C548.746 69.7969 548.47 69.8665 548.244 70.0057C548.019 70.1416 547.906 70.3239 547.906 70.5526C547.906 70.7348 547.979 70.889 548.125 71.0149C548.271 71.1409 548.521 71.242 548.876 71.3182L550.258 71.5966C551 71.7491 551.554 71.9943 551.918 72.3324C552.283 72.6705 552.465 73.1146 552.465 73.6648C552.465 74.1652 552.318 74.6044 552.023 74.9822C551.731 75.3601 551.33 75.6551 550.82 75.8672C550.312 76.076 549.727 76.1804 549.065 76.1804C548.054 76.1804 547.248 75.9699 546.648 75.549C546.052 75.1248 545.702 74.5481 545.599 73.8189L547.682 73.7095C547.745 74.0178 547.898 74.2531 548.14 74.4155C548.382 74.5746 548.692 74.6541 549.07 74.6541C549.441 74.6541 549.739 74.5829 549.964 74.4403C550.193 74.2945 550.309 74.1072 550.312 73.8786C550.309 73.6863 550.228 73.5289 550.069 73.4062C549.91 73.2803 549.664 73.1842 549.333 73.1179L548.011 72.8544C547.265 72.7053 546.71 72.4467 546.345 72.0788C545.984 71.7109 545.803 71.242 545.803 70.6719C545.803 70.1813 545.936 69.7588 546.201 69.4041C546.469 69.0495 546.846 68.776 547.33 68.5838C547.817 68.3916 548.387 68.2955 549.04 68.2955C550.004 68.2955 550.763 68.4993 551.317 68.907C551.874 69.3146 552.198 69.8698 552.291 70.5724ZM558.696 72.7798V68.3949H560.814V76.0312H558.78V74.6442H558.701C558.528 75.0916 558.242 75.4512 557.841 75.723C557.443 75.9948 556.957 76.1307 556.384 76.1307C555.874 76.1307 555.424 76.0147 555.037 75.7827C554.649 75.5507 554.346 75.2209 554.127 74.7933C553.911 74.3658 553.802 73.8537 553.799 73.2571V68.3949H555.917V72.8793C555.92 73.33 556.041 73.6863 556.28 73.9482C556.518 74.21 556.838 74.3409 557.239 74.3409C557.494 74.3409 557.733 74.2829 557.955 74.1669C558.177 74.0476 558.356 73.8719 558.492 73.6399C558.631 73.4079 558.699 73.1212 558.696 72.7798ZM562.508 76.0312V68.3949H564.526V69.7422H564.616C564.775 69.2947 565.04 68.9418 565.411 68.6832C565.782 68.4247 566.227 68.2955 566.744 68.2955C567.267 68.2955 567.713 68.4264 568.081 68.6882C568.449 68.9467 568.694 69.2981 568.817 69.7422H568.896C569.052 69.3047 569.334 68.955 569.741 68.6932C570.152 68.428 570.638 68.2955 571.198 68.2955C571.911 68.2955 572.489 68.5225 572.933 68.9766C573.381 69.4273 573.604 70.067 573.604 70.8956V76.0312H571.491V71.3132C571.491 70.889 571.379 70.5708 571.153 70.3587C570.928 70.1465 570.646 70.0405 570.308 70.0405C569.924 70.0405 569.624 70.1631 569.408 70.4084C569.193 70.6503 569.085 70.9702 569.085 71.3679V76.0312H567.032V71.2685C567.032 70.8939 566.924 70.5956 566.709 70.3736C566.497 70.1515 566.217 70.0405 565.869 70.0405C565.633 70.0405 565.421 70.1001 565.232 70.2195C565.047 70.3355 564.899 70.4995 564.79 70.7116C564.68 70.9205 564.626 71.1657 564.626 71.4474V76.0312H562.508Z" fill="black"/>
<path d="M487.68 87.0565L490.703 95.6275H490.822L493.845 87.0565H495.138L491.399 97.2383H490.126L486.388 87.0565H487.68ZM498.101 97.4173C497.617 97.4173 497.178 97.3261 496.783 97.1438C496.389 96.9582 496.076 96.6914 495.844 96.3434C495.612 95.9921 495.496 95.5678 495.496 95.0707C495.496 94.6332 495.582 94.2785 495.754 94.0067C495.927 93.7317 496.157 93.5162 496.445 93.3604C496.734 93.2047 497.052 93.0887 497.4 93.0124C497.751 92.9329 498.104 92.8699 498.459 92.8235C498.923 92.7638 499.299 92.7191 499.587 92.6893C499.879 92.6561 500.091 92.6014 500.224 92.5252C500.36 92.449 500.428 92.3164 500.428 92.1275V92.0877C500.428 91.5972 500.293 91.216 500.025 90.9442C499.76 90.6725 499.357 90.5366 498.817 90.5366C498.257 90.5366 497.817 90.6592 497.499 90.9045C497.181 91.1497 496.957 91.4116 496.828 91.69L495.714 91.2923C495.913 90.8282 496.178 90.467 496.51 90.2085C496.845 89.9466 497.209 89.7643 497.604 89.6616C498.001 89.5555 498.392 89.5025 498.777 89.5025C499.022 89.5025 499.304 89.5323 499.622 89.592C499.944 89.6483 500.254 89.766 500.552 89.945C500.853 90.1239 501.104 90.3941 501.303 90.7553C501.501 91.1166 501.601 91.6005 501.601 92.207V97.2383H500.428V96.2042H500.368C500.288 96.3699 500.156 96.5472 499.97 96.7362C499.785 96.9251 499.538 97.0858 499.229 97.2184C498.921 97.351 498.545 97.4173 498.101 97.4173ZM498.28 96.3633C498.744 96.3633 499.135 96.2721 499.453 96.0898C499.775 95.9076 500.017 95.6722 500.179 95.3839C500.345 95.0955 500.428 94.7923 500.428 94.4741V93.4002C500.378 93.4599 500.268 93.5146 500.099 93.5643C499.934 93.6107 499.741 93.6521 499.523 93.6886C499.307 93.7217 499.097 93.7515 498.891 93.7781C498.689 93.8013 498.525 93.8211 498.399 93.8377C498.094 93.8775 497.809 93.9421 497.544 94.0316C497.282 94.1178 497.07 94.2487 496.908 94.4244C496.749 94.5967 496.669 94.832 496.669 95.1303C496.669 95.538 496.82 95.8462 497.121 96.055C497.426 96.2605 497.812 96.3633 498.28 96.3633ZM504.916 87.0565V97.2383H503.742V87.0565H504.916ZM511.877 94.1161V89.6019H513.05V97.2383H511.877V95.9457H511.798C511.619 96.3335 511.34 96.6632 510.962 96.935C510.584 97.2035 510.107 97.3377 509.53 97.3377C509.053 97.3377 508.629 97.2333 508.258 97.0245C507.887 96.8124 507.595 96.4942 507.383 96.07C507.171 95.6424 507.065 95.1038 507.065 94.4542V89.6019H508.238V94.3746C508.238 94.9315 508.394 95.3756 508.705 95.707C509.02 96.0385 509.421 96.2042 509.908 96.2042C510.2 96.2042 510.497 96.1296 510.798 95.9805C511.103 95.8313 511.358 95.6026 511.564 95.2944C511.773 94.9862 511.877 94.5934 511.877 94.1161ZM518.401 97.3974C517.665 97.3974 517.031 97.235 516.497 96.9102C515.967 96.582 515.557 96.1246 515.269 95.538C514.984 94.948 514.841 94.262 514.841 93.4798C514.841 92.6976 514.984 92.0082 515.269 91.4116C515.557 90.8117 515.958 90.3443 516.472 90.0096C516.989 89.6715 517.592 89.5025 518.282 89.5025C518.679 89.5025 519.072 89.5688 519.46 89.7013C519.848 89.8339 520.201 90.0494 520.519 90.3477C520.837 90.6426 521.091 91.0337 521.28 91.521C521.469 92.0082 521.563 92.6081 521.563 93.3207V93.8178H515.677V92.8036H520.37C520.37 92.3728 520.284 91.9883 520.111 91.6502C519.942 91.3121 519.7 91.0453 519.385 90.8498C519.074 90.6542 518.706 90.5565 518.282 90.5565C517.814 90.5565 517.41 90.6725 517.069 90.9045C516.731 91.1332 516.47 91.4315 516.288 91.7994C516.106 92.1673 516.015 92.5617 516.015 92.9826V93.6587C516.015 94.2354 516.114 94.7243 516.313 95.1254C516.515 95.5231 516.795 95.8263 517.153 96.0352C517.511 96.2406 517.927 96.3434 518.401 96.3434C518.709 96.3434 518.988 96.3003 519.236 96.2141C519.488 96.1246 519.705 95.9921 519.888 95.8164C520.07 95.6374 520.211 95.4154 520.31 95.1502L521.444 95.4684C521.324 95.8529 521.124 96.1909 520.842 96.4826C520.56 96.771 520.212 96.9963 519.798 97.1587C519.384 97.3178 518.918 97.3974 518.401 97.3974Z" fill="black"/>
<rect x="2.17537" y="233.371" width="469.649" height="184.843" fill="#ADB5BD"/>
<rect x="2.17537" y="233.371" width="469.649" height="184.843" stroke="white" stroke-width="0.350746"/>
<path d="M16.9147 261.227V251.045H19.0674V259.452H23.4325V261.227H16.9147ZM28.2686 261.376C27.4963 261.376 26.8285 261.212 26.265 260.884C25.7049 260.552 25.2724 260.091 24.9675 259.501C24.6625 258.908 24.5101 258.22 24.5101 257.438C24.5101 256.649 24.6625 255.96 24.9675 255.37C25.2724 254.777 25.7049 254.316 26.265 253.988C26.8285 253.656 27.4963 253.491 28.2686 253.491C29.0409 253.491 29.707 253.656 30.2672 253.988C30.8306 254.316 31.2648 254.777 31.5697 255.37C31.8747 255.96 32.0271 256.649 32.0271 257.438C32.0271 258.22 31.8747 258.908 31.5697 259.501C31.2648 260.091 30.8306 260.552 30.2672 260.884C29.707 261.212 29.0409 261.376 28.2686 261.376ZM28.2785 259.735C28.6299 259.735 28.9232 259.636 29.1585 259.437C29.3938 259.235 29.5712 258.96 29.6905 258.612C29.8131 258.263 29.8744 257.867 29.8744 257.423C29.8744 256.979 29.8131 256.583 29.6905 256.235C29.5712 255.887 29.3938 255.612 29.1585 255.41C28.9232 255.208 28.6299 255.107 28.2785 255.107C27.9239 255.107 27.6256 255.208 27.3837 255.41C27.145 255.612 26.9644 255.887 26.8418 256.235C26.7224 256.583 26.6628 256.979 26.6628 257.423C26.6628 257.867 26.7224 258.263 26.8418 258.612C26.9644 258.96 27.145 259.235 27.3837 259.437C27.6256 259.636 27.9239 259.735 28.2785 259.735ZM33.4043 261.227V253.59H35.4575V254.923H35.5371C35.6763 254.449 35.9099 254.091 36.2381 253.849C36.5662 253.603 36.944 253.481 37.3716 253.481C37.4776 253.481 37.592 253.487 37.7146 253.501C37.8373 253.514 37.945 253.532 38.0378 253.555V255.435C37.9383 255.405 37.8008 255.378 37.6251 255.355C37.4495 255.332 37.2887 255.32 37.1429 255.32C36.8313 255.32 36.5529 255.388 36.3077 255.524C36.0657 255.657 35.8735 255.842 35.731 256.081C35.5918 256.32 35.5222 256.595 35.5222 256.906V261.227H33.4043ZM42.2574 261.376C41.4719 261.376 40.7958 261.217 40.229 260.898C39.6656 260.577 39.2314 260.123 38.9264 259.536C38.6215 258.946 38.4691 258.249 38.4691 257.443C38.4691 256.658 38.6215 255.968 38.9264 255.375C39.2314 254.782 39.6606 254.319 40.2141 253.988C40.7709 253.656 41.4238 253.491 42.1729 253.491C42.6767 253.491 43.1457 253.572 43.5799 253.734C44.0174 253.893 44.3985 254.134 44.7233 254.455C45.0514 254.777 45.3067 255.181 45.4889 255.668C45.6712 256.152 45.7624 256.719 45.7624 257.369V257.95H39.3142V256.638H43.7688C43.7688 256.333 43.7025 256.063 43.5699 255.827C43.4373 255.592 43.2534 255.408 43.0181 255.276C42.7861 255.14 42.5159 255.072 42.2077 255.072C41.8862 255.072 41.6012 255.146 41.3526 255.295C41.1073 255.441 40.9151 255.638 40.7759 255.887C40.6367 256.132 40.5654 256.406 40.5621 256.707V257.955C40.5621 258.333 40.6317 258.66 40.7709 258.935C40.9134 259.21 41.1139 259.422 41.3725 259.571C41.631 259.72 41.9376 259.795 42.2922 259.795C42.5275 259.795 42.743 259.762 42.9385 259.695C43.1341 259.629 43.3014 259.53 43.4407 259.397C43.5799 259.264 43.6859 259.102 43.7588 258.91L45.7176 259.039C45.6182 259.51 45.4144 259.921 45.1061 260.272C44.8012 260.62 44.4068 260.892 43.9229 261.087C43.4423 261.28 42.8871 261.376 42.2574 261.376ZM47.1445 261.227V253.59H49.163V254.938H49.2524C49.4115 254.49 49.6767 254.137 50.0479 253.879C50.4191 253.62 50.8632 253.491 51.3803 253.491C51.904 253.491 52.3497 253.622 52.7176 253.884C53.0855 254.142 53.3308 254.493 53.4534 254.938H53.533C53.6888 254.5 53.9705 254.15 54.3782 253.888C54.7891 253.623 55.2747 253.491 55.8348 253.491C56.5474 253.491 57.1258 253.718 57.5699 254.172C58.0174 254.623 58.2411 255.262 58.2411 256.091V261.227H56.1282V256.509C56.1282 256.084 56.0155 255.766 55.7901 255.554C55.5647 255.342 55.283 255.236 54.9449 255.236C54.5604 255.236 54.2605 255.358 54.0451 255.604C53.8296 255.846 53.7219 256.165 53.7219 256.563V261.227H51.6686V256.464C51.6686 256.089 51.5609 255.791 51.3455 255.569C51.1334 255.347 50.8533 255.236 50.5053 255.236C50.27 255.236 50.0578 255.295 49.8689 255.415C49.6833 255.531 49.5358 255.695 49.4264 255.907C49.3171 256.116 49.2624 256.361 49.2624 256.643V261.227H47.1445ZM65.3467 251.045V261.227H63.194V251.045H65.3467ZM67.0781 264.09V253.59H69.1661V254.873H69.2606C69.3534 254.667 69.4876 254.459 69.6633 254.246C69.8423 254.031 70.0743 253.852 70.3593 253.71C70.6477 253.564 71.0056 253.491 71.4332 253.491C71.99 253.491 72.5037 253.637 72.9744 253.928C73.445 254.217 73.8212 254.652 74.1029 255.236C74.3847 255.816 74.5255 256.543 74.5255 257.418C74.5255 258.27 74.388 258.989 74.1129 259.576C73.8411 260.159 73.4699 260.602 72.9992 260.903C72.5319 261.202 72.0082 261.351 71.4282 261.351C71.0172 261.351 70.6676 261.283 70.3792 261.147C70.0942 261.011 69.8605 260.84 69.6782 260.635C69.4959 260.426 69.3567 260.216 69.2606 260.004H69.196V264.09H67.0781ZM69.1512 257.408C69.1512 257.862 69.2142 258.259 69.3402 258.597C69.4661 258.935 69.6484 259.198 69.887 259.387C70.1257 259.573 70.4157 259.665 70.7571 259.665C71.1018 259.665 71.3934 259.571 71.6321 259.382C71.8707 259.19 72.0513 258.925 72.174 258.587C72.2999 258.245 72.3629 257.853 72.3629 257.408C72.3629 256.968 72.3016 256.58 72.1789 256.245C72.0563 255.91 71.8757 255.648 71.637 255.46C71.3984 255.271 71.1051 255.176 70.7571 255.176C70.4124 255.176 70.1207 255.267 69.8821 255.45C69.6467 255.632 69.4661 255.89 69.3402 256.225C69.2142 256.56 69.1512 256.954 69.1512 257.408ZM82.2911 255.768L80.3522 255.887C80.3191 255.721 80.2478 255.572 80.1384 255.44C80.0291 255.304 79.8849 255.196 79.7059 255.116C79.5303 255.034 79.3198 254.992 79.0745 254.992C78.7464 254.992 78.4697 255.062 78.2443 255.201C78.0189 255.337 77.9062 255.519 77.9062 255.748C77.9062 255.93 77.9791 256.084 78.125 256.21C78.2708 256.336 78.521 256.437 78.8757 256.513L80.2578 256.792C81.0002 256.944 81.5537 257.19 81.9183 257.528C82.2829 257.866 82.4652 258.31 82.4652 258.86C82.4652 259.361 82.3177 259.8 82.0227 260.178C81.731 260.555 81.33 260.85 80.8196 261.062C80.3125 261.271 79.7275 261.376 79.0646 261.376C78.0537 261.376 77.2483 261.165 76.6484 260.744C76.0518 260.32 75.7021 259.743 75.5994 259.014L77.6825 258.905C77.7455 259.213 77.8979 259.448 78.1399 259.611C78.3818 259.77 78.6917 259.849 79.0696 259.849C79.4408 259.849 79.7391 259.778 79.9644 259.636C80.1931 259.49 80.3091 259.303 80.3125 259.074C80.3091 258.882 80.2279 258.724 80.0688 258.602C79.9098 258.476 79.6645 258.379 79.3331 258.313L78.0106 258.05C77.2649 257.901 76.7097 257.642 76.3451 257.274C75.9839 256.906 75.8032 256.437 75.8032 255.867C75.8032 255.377 75.9358 254.954 76.2009 254.599C76.4694 254.245 76.8456 253.971 77.3295 253.779C77.8167 253.587 78.3868 253.491 79.0397 253.491C80.0042 253.491 80.7632 253.695 81.3167 254.102C81.8735 254.51 82.1983 255.065 82.2911 255.768ZM88.6958 257.975V253.59H90.8137V261.227H88.7803V259.839H88.7008C88.5284 260.287 88.2417 260.647 87.8407 260.918C87.443 261.19 86.9574 261.326 86.384 261.326C85.8736 261.326 85.4245 261.21 85.0367 260.978C84.6489 260.746 84.3457 260.416 84.1269 259.989C83.9115 259.561 83.8021 259.049 83.7988 258.452V253.59H85.9167V258.075C85.92 258.525 86.041 258.882 86.2796 259.143C86.5182 259.405 86.8381 259.536 87.2391 259.536C87.4943 259.536 87.733 259.478 87.955 259.362C88.1771 259.243 88.3561 259.067 88.492 258.835C88.6312 258.603 88.6991 258.317 88.6958 257.975ZM92.5078 261.227V253.59H94.5262V254.938H94.6157C94.7748 254.49 95.04 254.137 95.4112 253.879C95.7824 253.62 96.2265 253.491 96.7436 253.491C97.2672 253.491 97.713 253.622 98.0809 253.884C98.4488 254.142 98.6941 254.493 98.8167 254.938H98.8963C99.052 254.5 99.3338 254.15 99.7414 253.888C100.152 253.623 100.638 253.491 101.198 253.491C101.911 253.491 102.489 253.718 102.933 254.172C103.381 254.623 103.604 255.262 103.604 256.091V261.227H101.491V256.509C101.491 256.084 101.379 255.766 101.153 255.554C100.928 255.342 100.646 255.236 100.308 255.236C99.9237 255.236 99.6238 255.358 99.4083 255.604C99.1929 255.846 99.0852 256.165 99.0852 256.563V261.227H97.0319V256.464C97.0319 256.089 96.9242 255.791 96.7088 255.569C96.4966 255.347 96.2166 255.236 95.8686 255.236C95.6332 255.236 95.4211 255.295 95.2322 255.415C95.0466 255.531 94.8991 255.695 94.7897 255.907C94.6804 256.116 94.6257 256.361 94.6257 256.643V261.227H92.5078Z" fill="black"/>
<path d="M17.6804 272.252L20.7031 280.823H20.8224L23.8451 272.252H25.1377L21.3991 282.434H20.1264L16.3877 272.252H17.6804ZM28.1008 282.613C27.6169 282.613 27.1777 282.521 26.7833 282.339C26.3889 282.154 26.0757 281.887 25.8437 281.539C25.6117 281.187 25.4957 280.763 25.4957 280.266C25.4957 279.828 25.5819 279.474 25.7542 279.202C25.9266 278.927 26.1569 278.712 26.4453 278.556C26.7336 278.4 27.0518 278.284 27.3998 278.208C27.7511 278.128 28.1041 278.065 28.4588 278.019C28.9228 277.959 29.299 277.914 29.5873 277.885C29.879 277.851 30.0911 277.797 30.2237 277.721C30.3596 277.644 30.4275 277.512 30.4275 277.323V277.283C30.4275 276.792 30.2933 276.411 30.0248 276.14C29.7597 275.868 29.357 275.732 28.8167 275.732C28.2566 275.732 27.8174 275.855 27.4992 276.1C27.1811 276.345 26.9573 276.607 26.8281 276.885L25.7144 276.488C25.9133 276.024 26.1785 275.662 26.5099 275.404C26.8447 275.142 27.2092 274.96 27.6036 274.857C28.0014 274.751 28.3925 274.698 28.7769 274.698C29.0222 274.698 29.3039 274.728 29.6221 274.787C29.9436 274.844 30.2535 274.961 30.5518 275.14C30.8534 275.319 31.1036 275.589 31.3025 275.951C31.5014 276.312 31.6008 276.796 31.6008 277.402V282.434H30.4275V281.4H30.3679C30.2883 281.565 30.1557 281.743 29.9701 281.931C29.7845 282.12 29.5376 282.281 29.2294 282.414C28.9211 282.546 28.5449 282.613 28.1008 282.613ZM28.2798 281.559C28.7438 281.559 29.1349 281.467 29.4531 281.285C29.7746 281.103 30.0165 280.868 30.1789 280.579C30.3447 280.291 30.4275 279.988 30.4275 279.669V278.596C30.3778 278.655 30.2684 278.71 30.0994 278.76C29.9337 278.806 29.7414 278.847 29.5227 278.884C29.3072 278.917 29.0968 278.947 28.8913 278.973C28.6891 278.997 28.5251 279.016 28.3991 279.033C28.0942 279.073 27.8091 279.137 27.544 279.227C27.2822 279.313 27.07 279.444 26.9076 279.62C26.7485 279.792 26.669 280.027 26.669 280.326C26.669 280.733 26.8198 281.042 27.1214 281.25C27.4263 281.456 27.8125 281.559 28.2798 281.559ZM34.9156 272.252V282.434H33.7423V272.252H34.9156ZM41.8771 279.311V274.797H43.0504V282.434H41.8771V281.141H41.7975C41.6186 281.529 41.3402 281.859 40.9623 282.13C40.5845 282.399 40.1072 282.533 39.5305 282.533C39.0532 282.533 38.629 282.429 38.2578 282.22C37.8866 282.008 37.5949 281.69 37.3828 281.265C37.1706 280.838 37.0646 280.299 37.0646 279.65V274.797H38.2379V279.57C38.2379 280.127 38.3937 280.571 38.7052 280.902C39.0201 281.234 39.4211 281.4 39.9083 281.4C40.2 281.4 40.4966 281.325 40.7983 281.176C41.1032 281.027 41.3584 280.798 41.5639 280.49C41.7727 280.181 41.8771 279.789 41.8771 279.311ZM48.4011 282.593C47.6653 282.593 47.0306 282.43 46.4969 282.105C45.9666 281.777 45.5573 281.32 45.269 280.733C44.9839 280.143 44.8414 279.457 44.8414 278.675C44.8414 277.893 44.9839 277.203 45.269 276.607C45.5573 276.007 45.9583 275.54 46.4721 275.205C46.9891 274.867 47.5923 274.698 48.2817 274.698C48.6795 274.698 49.0722 274.764 49.46 274.897C49.8478 275.029 50.2008 275.245 50.519 275.543C50.8371 275.838 51.0907 276.229 51.2796 276.716C51.4685 277.203 51.563 277.803 51.563 278.516V279.013H45.6766V277.999H50.3698C50.3698 277.568 50.2836 277.184 50.1113 276.846C49.9422 276.507 49.7003 276.241 49.3854 276.045C49.0739 275.85 48.706 275.752 48.2817 275.752C47.8144 275.752 47.4101 275.868 47.0687 276.1C46.7306 276.328 46.4704 276.627 46.2881 276.995C46.1058 277.363 46.0147 277.757 46.0147 278.178V278.854C46.0147 279.431 46.1141 279.92 46.313 280.321C46.5152 280.718 46.7952 281.022 47.1532 281.23C47.5111 281.436 47.9271 281.539 48.4011 281.539C48.7093 281.539 48.9877 281.496 49.2363 281.409C49.4882 281.32 49.7053 281.187 49.8876 281.012C50.0699 280.833 50.2107 280.611 50.3101 280.346L51.4437 280.664C51.3244 281.048 51.1238 281.386 50.8421 281.678C50.5604 281.966 50.2124 282.192 49.7981 282.354C49.3838 282.513 48.9181 282.593 48.4011 282.593Z" fill="black"/>
<rect x="472.175" y="233.371" width="234.649" height="184.843" fill="#868E96"/>
<rect x="472.175" y="233.371" width="234.649" height="184.843" stroke="white" stroke-width="0.350746"/>
<path d="M486.915 261.227V251.045H489.067V259.452H493.432V261.227H486.915ZM498.269 261.376C497.496 261.376 496.828 261.212 496.265 260.884C495.705 260.552 495.272 260.091 494.967 259.501C494.663 258.908 494.51 258.22 494.51 257.438C494.51 256.649 494.663 255.96 494.967 255.37C495.272 254.777 495.705 254.316 496.265 253.988C496.828 253.656 497.496 253.491 498.269 253.491C499.041 253.491 499.707 253.656 500.267 253.988C500.831 254.316 501.265 254.777 501.57 255.37C501.875 255.96 502.027 256.649 502.027 257.438C502.027 258.22 501.875 258.908 501.57 259.501C501.265 260.091 500.831 260.552 500.267 260.884C499.707 261.212 499.041 261.376 498.269 261.376ZM498.279 259.735C498.63 259.735 498.923 259.636 499.159 259.437C499.394 259.235 499.571 258.96 499.69 258.612C499.813 258.263 499.874 257.867 499.874 257.423C499.874 256.979 499.813 256.583 499.69 256.235C499.571 255.887 499.394 255.612 499.159 255.41C498.923 255.208 498.63 255.107 498.279 255.107C497.924 255.107 497.626 255.208 497.384 255.41C497.145 255.612 496.964 255.887 496.842 256.235C496.722 256.583 496.663 256.979 496.663 257.423C496.663 257.867 496.722 258.263 496.842 258.612C496.964 258.96 497.145 259.235 497.384 259.437C497.626 259.636 497.924 259.735 498.279 259.735ZM503.404 261.227V253.59H505.458V254.923H505.537C505.676 254.449 505.91 254.091 506.238 253.849C506.566 253.603 506.944 253.481 507.372 253.481C507.478 253.481 507.592 253.487 507.715 253.501C507.837 253.514 507.945 253.532 508.038 253.555V255.435C507.938 255.405 507.801 255.378 507.625 255.355C507.449 255.332 507.289 255.32 507.143 255.32C506.831 255.32 506.553 255.388 506.308 255.524C506.066 255.657 505.873 255.842 505.731 256.081C505.592 256.32 505.522 256.595 505.522 256.906V261.227H503.404ZM512.257 261.376C511.472 261.376 510.796 261.217 510.229 260.898C509.666 260.577 509.231 260.123 508.926 259.536C508.622 258.946 508.469 258.249 508.469 257.443C508.469 256.658 508.622 255.968 508.926 255.375C509.231 254.782 509.661 254.319 510.214 253.988C510.771 253.656 511.424 253.491 512.173 253.491C512.677 253.491 513.146 253.572 513.58 253.734C514.017 253.893 514.399 254.134 514.723 254.455C515.051 254.777 515.307 255.181 515.489 255.668C515.671 256.152 515.762 256.719 515.762 257.369V257.95H509.314V256.638H513.769C513.769 256.333 513.702 256.063 513.57 255.827C513.437 255.592 513.253 255.408 513.018 255.276C512.786 255.14 512.516 255.072 512.208 255.072C511.886 255.072 511.601 255.146 511.353 255.295C511.107 255.441 510.915 255.638 510.776 255.887C510.637 256.132 510.565 256.406 510.562 256.707V257.955C510.562 258.333 510.632 258.66 510.771 258.935C510.913 259.21 511.114 259.422 511.372 259.571C511.631 259.72 511.938 259.795 512.292 259.795C512.528 259.795 512.743 259.762 512.939 259.695C513.134 259.629 513.301 259.53 513.441 259.397C513.58 259.264 513.686 259.102 513.759 258.91L515.718 259.039C515.618 259.51 515.414 259.921 515.106 260.272C514.801 260.62 514.407 260.892 513.923 261.087C513.442 261.28 512.887 261.376 512.257 261.376ZM517.144 261.227V253.59H519.163V254.938H519.252C519.412 254.49 519.677 254.137 520.048 253.879C520.419 253.62 520.863 253.491 521.38 253.491C521.904 253.491 522.35 253.622 522.718 253.884C523.086 254.142 523.331 254.493 523.453 254.938H523.533C523.689 254.5 523.97 254.15 524.378 253.888C524.789 253.623 525.275 253.491 525.835 253.491C526.547 253.491 527.126 253.718 527.57 254.172C528.017 254.623 528.241 255.262 528.241 256.091V261.227H526.128V256.509C526.128 256.084 526.015 255.766 525.79 255.554C525.565 255.342 525.283 255.236 524.945 255.236C524.56 255.236 524.26 255.358 524.045 255.604C523.83 255.846 523.722 256.165 523.722 256.563V261.227H521.669V256.464C521.669 256.089 521.561 255.791 521.345 255.569C521.133 255.347 520.853 255.236 520.505 255.236C520.27 255.236 520.058 255.295 519.869 255.415C519.683 255.531 519.536 255.695 519.426 255.907C519.317 256.116 519.262 256.361 519.262 256.643V261.227H517.144ZM535.347 251.045V261.227H533.194V251.045H535.347ZM537.078 264.09V253.59H539.166V254.873H539.261C539.353 254.667 539.488 254.459 539.663 254.246C539.842 254.031 540.074 253.852 540.359 253.71C540.648 253.564 541.006 253.491 541.433 253.491C541.99 253.491 542.504 253.637 542.974 253.928C543.445 254.217 543.821 254.652 544.103 255.236C544.385 255.816 544.526 256.543 544.526 257.418C544.526 258.27 544.388 258.989 544.113 259.576C543.841 260.159 543.47 260.602 542.999 260.903C542.532 261.202 542.008 261.351 541.428 261.351C541.017 261.351 540.668 261.283 540.379 261.147C540.094 261.011 539.861 260.84 539.678 260.635C539.496 260.426 539.357 260.216 539.261 260.004H539.196V264.09H537.078ZM539.151 257.408C539.151 257.862 539.214 258.259 539.34 258.597C539.466 258.935 539.648 259.198 539.887 259.387C540.126 259.573 540.416 259.665 540.757 259.665C541.102 259.665 541.393 259.571 541.632 259.382C541.871 259.19 542.051 258.925 542.174 258.587C542.3 258.245 542.363 257.853 542.363 257.408C542.363 256.968 542.302 256.58 542.179 256.245C542.056 255.91 541.876 255.648 541.637 255.46C541.398 255.271 541.105 255.176 540.757 255.176C540.412 255.176 540.121 255.267 539.882 255.45C539.647 255.632 539.466 255.89 539.34 256.225C539.214 256.56 539.151 256.954 539.151 257.408ZM552.291 255.768L550.352 255.887C550.319 255.721 550.248 255.572 550.138 255.44C550.029 255.304 549.885 255.196 549.706 255.116C549.53 255.034 549.32 254.992 549.075 254.992C548.746 254.992 548.47 255.062 548.244 255.201C548.019 255.337 547.906 255.519 547.906 255.748C547.906 255.93 547.979 256.084 548.125 256.21C548.271 256.336 548.521 256.437 548.876 256.513L550.258 256.792C551 256.944 551.554 257.19 551.918 257.528C552.283 257.866 552.465 258.31 552.465 258.86C552.465 259.361 552.318 259.8 552.023 260.178C551.731 260.555 551.33 260.85 550.82 261.062C550.312 261.271 549.727 261.376 549.065 261.376C548.054 261.376 547.248 261.165 546.648 260.744C546.052 260.32 545.702 259.743 545.599 259.014L547.682 258.905C547.745 259.213 547.898 259.448 548.14 259.611C548.382 259.77 548.692 259.849 549.07 259.849C549.441 259.849 549.739 259.778 549.964 259.636C550.193 259.49 550.309 259.303 550.312 259.074C550.309 258.882 550.228 258.724 550.069 258.602C549.91 258.476 549.664 258.379 549.333 258.313L548.011 258.05C547.265 257.901 546.71 257.642 546.345 257.274C545.984 256.906 545.803 256.437 545.803 255.867C545.803 255.377 545.936 254.954 546.201 254.599C546.469 254.245 546.846 253.971 547.33 253.779C547.817 253.587 548.387 253.491 549.04 253.491C550.004 253.491 550.763 253.695 551.317 254.102C551.874 254.51 552.198 255.065 552.291 255.768ZM558.696 257.975V253.59H560.814V261.227H558.78V259.839H558.701C558.528 260.287 558.242 260.647 557.841 260.918C557.443 261.19 556.957 261.326 556.384 261.326C555.874 261.326 555.424 261.21 555.037 260.978C554.649 260.746 554.346 260.416 554.127 259.989C553.911 259.561 553.802 259.049 553.799 258.452V253.59H555.917V258.075C555.92 258.525 556.041 258.882 556.28 259.143C556.518 259.405 556.838 259.536 557.239 259.536C557.494 259.536 557.733 259.478 557.955 259.362C558.177 259.243 558.356 259.067 558.492 258.835C558.631 258.603 558.699 258.317 558.696 257.975ZM562.508 261.227V253.59H564.526V254.938H564.616C564.775 254.49 565.04 254.137 565.411 253.879C565.782 253.62 566.227 253.491 566.744 253.491C567.267 253.491 567.713 253.622 568.081 253.884C568.449 254.142 568.694 254.493 568.817 254.938H568.896C569.052 254.5 569.334 254.15 569.741 253.888C570.152 253.623 570.638 253.491 571.198 253.491C571.911 253.491 572.489 253.718 572.933 254.172C573.381 254.623 573.604 255.262 573.604 256.091V261.227H571.491V256.509C571.491 256.084 571.379 255.766 571.153 255.554C570.928 255.342 570.646 255.236 570.308 255.236C569.924 255.236 569.624 255.358 569.408 255.604C569.193 255.846 569.085 256.165 569.085 256.563V261.227H567.032V256.464C567.032 256.089 566.924 255.791 566.709 255.569C566.497 255.347 566.217 255.236 565.869 255.236C565.633 255.236 565.421 255.295 565.232 255.415C565.047 255.531 564.899 255.695 564.79 255.907C564.68 256.116 564.626 256.361 564.626 256.643V261.227H562.508Z" fill="black"/>
<path d="M487.68 272.252L490.703 280.823H490.822L493.845 272.252H495.138L491.399 282.434H490.126L486.388 272.252H487.68ZM498.101 282.613C497.617 282.613 497.178 282.521 496.783 282.339C496.389 282.154 496.076 281.887 495.844 281.539C495.612 281.187 495.496 280.763 495.496 280.266C495.496 279.828 495.582 279.474 495.754 279.202C495.927 278.927 496.157 278.712 496.445 278.556C496.734 278.4 497.052 278.284 497.4 278.208C497.751 278.128 498.104 278.065 498.459 278.019C498.923 277.959 499.299 277.914 499.587 277.885C499.879 277.851 500.091 277.797 500.224 277.721C500.36 277.644 500.428 277.512 500.428 277.323V277.283C500.428 276.792 500.293 276.411 500.025 276.14C499.76 275.868 499.357 275.732 498.817 275.732C498.257 275.732 497.817 275.855 497.499 276.1C497.181 276.345 496.957 276.607 496.828 276.885L495.714 276.488C495.913 276.024 496.178 275.662 496.51 275.404C496.845 275.142 497.209 274.96 497.604 274.857C498.001 274.751 498.392 274.698 498.777 274.698C499.022 274.698 499.304 274.728 499.622 274.787C499.944 274.844 500.254 274.961 500.552 275.14C500.853 275.319 501.104 275.589 501.303 275.951C501.501 276.312 501.601 276.796 501.601 277.402V282.434H500.428V281.4H500.368C500.288 281.565 500.156 281.743 499.97 281.931C499.785 282.12 499.538 282.281 499.229 282.414C498.921 282.546 498.545 282.613 498.101 282.613ZM498.28 281.559C498.744 281.559 499.135 281.467 499.453 281.285C499.775 281.103 500.017 280.868 500.179 280.579C500.345 280.291 500.428 279.988 500.428 279.669V278.596C500.378 278.655 500.268 278.71 500.099 278.76C499.934 278.806 499.741 278.847 499.523 278.884C499.307 278.917 499.097 278.947 498.891 278.973C498.689 278.997 498.525 279.016 498.399 279.033C498.094 279.073 497.809 279.137 497.544 279.227C497.282 279.313 497.07 279.444 496.908 279.62C496.749 279.792 496.669 280.027 496.669 280.326C496.669 280.733 496.82 281.042 497.121 281.25C497.426 281.456 497.812 281.559 498.28 281.559ZM504.916 272.252V282.434H503.742V272.252H504.916ZM511.877 279.311V274.797H513.05V282.434H511.877V281.141H511.798C511.619 281.529 511.34 281.859 510.962 282.13C510.584 282.399 510.107 282.533 509.53 282.533C509.053 282.533 508.629 282.429 508.258 282.22C507.887 282.008 507.595 281.69 507.383 281.265C507.171 280.838 507.065 280.299 507.065 279.65V274.797H508.238V279.57C508.238 280.127 508.394 280.571 508.705 280.902C509.02 281.234 509.421 281.4 509.908 281.4C510.2 281.4 510.497 281.325 510.798 281.176C511.103 281.027 511.358 280.798 511.564 280.49C511.773 280.181 511.877 279.789 511.877 279.311ZM518.401 282.593C517.665 282.593 517.031 282.43 516.497 282.105C515.967 281.777 515.557 281.32 515.269 280.733C514.984 280.143 514.841 279.457 514.841 278.675C514.841 277.893 514.984 277.203 515.269 276.607C515.557 276.007 515.958 275.54 516.472 275.205C516.989 274.867 517.592 274.698 518.282 274.698C518.679 274.698 519.072 274.764 519.46 274.897C519.848 275.029 520.201 275.245 520.519 275.543C520.837 275.838 521.091 276.229 521.28 276.716C521.469 277.203 521.563 277.803 521.563 278.516V279.013H515.677V277.999H520.37C520.37 277.568 520.284 277.184 520.111 276.846C519.942 276.507 519.7 276.241 519.385 276.045C519.074 275.85 518.706 275.752 518.282 275.752C517.814 275.752 517.41 275.868 517.069 276.1C516.731 276.328 516.47 276.627 516.288 276.995C516.106 277.363 516.015 277.757 516.015 278.178V278.854C516.015 279.431 516.114 279.92 516.313 280.321C516.515 280.718 516.795 281.022 517.153 281.23C517.511 281.436 517.927 281.539 518.401 281.539C518.709 281.539 518.988 281.496 519.236 281.409C519.488 281.32 519.705 281.187 519.888 281.012C520.07 280.833 520.211 280.611 520.31 280.346L521.444 280.664C521.324 281.048 521.124 281.386 520.842 281.678C520.56 281.966 520.212 282.192 519.798 282.354C519.384 282.513 518.918 282.593 518.401 282.593Z" fill="black"/>
<rect x="707.175" y="233.371" width="234.649" height="184.843" fill="#DFE3E5"/>
<rect x="707.175" y="233.371" width="234.649" height="184.843" stroke="white" stroke-width="0.350746"/>
<path d="M721.915 261.227V251.045H724.067V259.452H728.432V261.227H721.915ZM733.269 261.376C732.496 261.376 731.828 261.212 731.265 260.884C730.705 260.552 730.272 260.091 729.967 259.501C729.663 258.908 729.51 258.22 729.51 257.438C729.51 256.649 729.663 255.96 729.967 255.37C730.272 254.777 730.705 254.316 731.265 253.988C731.828 253.656 732.496 253.491 733.269 253.491C734.041 253.491 734.707 253.656 735.267 253.988C735.831 254.316 736.265 254.777 736.57 255.37C736.875 255.96 737.027 256.649 737.027 257.438C737.027 258.22 736.875 258.908 736.57 259.501C736.265 260.091 735.831 260.552 735.267 260.884C734.707 261.212 734.041 261.376 733.269 261.376ZM733.279 259.735C733.63 259.735 733.923 259.636 734.159 259.437C734.394 259.235 734.571 258.96 734.69 258.612C734.813 258.263 734.874 257.867 734.874 257.423C734.874 256.979 734.813 256.583 734.69 256.235C734.571 255.887 734.394 255.612 734.159 255.41C733.923 255.208 733.63 255.107 733.279 255.107C732.924 255.107 732.626 255.208 732.384 255.41C732.145 255.612 731.964 255.887 731.842 256.235C731.722 256.583 731.663 256.979 731.663 257.423C731.663 257.867 731.722 258.263 731.842 258.612C731.964 258.96 732.145 259.235 732.384 259.437C732.626 259.636 732.924 259.735 733.279 259.735ZM738.404 261.227V253.59H740.458V254.923H740.537C740.676 254.449 740.91 254.091 741.238 253.849C741.566 253.603 741.944 253.481 742.372 253.481C742.478 253.481 742.592 253.487 742.715 253.501C742.837 253.514 742.945 253.532 743.038 253.555V255.435C742.938 255.405 742.801 255.378 742.625 255.355C742.449 255.332 742.289 255.32 742.143 255.32C741.831 255.32 741.553 255.388 741.308 255.524C741.066 255.657 740.873 255.842 740.731 256.081C740.592 256.32 740.522 256.595 740.522 256.906V261.227H738.404ZM747.257 261.376C746.472 261.376 745.796 261.217 745.229 260.898C744.666 260.577 744.231 260.123 743.926 259.536C743.622 258.946 743.469 258.249 743.469 257.443C743.469 256.658 743.622 255.968 743.926 255.375C744.231 254.782 744.661 254.319 745.214 253.988C745.771 253.656 746.424 253.491 747.173 253.491C747.677 253.491 748.146 253.572 748.58 253.734C749.017 253.893 749.399 254.134 749.723 254.455C750.051 254.777 750.307 255.181 750.489 255.668C750.671 256.152 750.762 256.719 750.762 257.369V257.95H744.314V256.638H748.769C748.769 256.333 748.702 256.063 748.57 255.827C748.437 255.592 748.253 255.408 748.018 255.276C747.786 255.14 747.516 255.072 747.208 255.072C746.886 255.072 746.601 255.146 746.353 255.295C746.107 255.441 745.915 255.638 745.776 255.887C745.637 256.132 745.565 256.406 745.562 256.707V257.955C745.562 258.333 745.632 258.66 745.771 258.935C745.913 259.21 746.114 259.422 746.372 259.571C746.631 259.72 746.938 259.795 747.292 259.795C747.528 259.795 747.743 259.762 747.939 259.695C748.134 259.629 748.301 259.53 748.441 259.397C748.58 259.264 748.686 259.102 748.759 258.91L750.718 259.039C750.618 259.51 750.414 259.921 750.106 260.272C749.801 260.62 749.407 260.892 748.923 261.087C748.442 261.28 747.887 261.376 747.257 261.376ZM752.144 261.227V253.59H754.163V254.938H754.252C754.412 254.49 754.677 254.137 755.048 253.879C755.419 253.62 755.863 253.491 756.38 253.491C756.904 253.491 757.35 253.622 757.718 253.884C758.086 254.142 758.331 254.493 758.453 254.938H758.533C758.689 254.5 758.97 254.15 759.378 253.888C759.789 253.623 760.275 253.491 760.835 253.491C761.547 253.491 762.126 253.718 762.57 254.172C763.017 254.623 763.241 255.262 763.241 256.091V261.227H761.128V256.509C761.128 256.084 761.015 255.766 760.79 255.554C760.565 255.342 760.283 255.236 759.945 255.236C759.56 255.236 759.26 255.358 759.045 255.604C758.83 255.846 758.722 256.165 758.722 256.563V261.227H756.669V256.464C756.669 256.089 756.561 255.791 756.345 255.569C756.133 255.347 755.853 255.236 755.505 255.236C755.27 255.236 755.058 255.295 754.869 255.415C754.683 255.531 754.536 255.695 754.426 255.907C754.317 256.116 754.262 256.361 754.262 256.643V261.227H752.144ZM770.347 251.045V261.227H768.194V251.045H770.347ZM772.078 264.09V253.59H774.166V254.873H774.261C774.353 254.667 774.488 254.459 774.663 254.246C774.842 254.031 775.074 253.852 775.359 253.71C775.648 253.564 776.006 253.491 776.433 253.491C776.99 253.491 777.504 253.637 777.974 253.928C778.445 254.217 778.821 254.652 779.103 255.236C779.385 255.816 779.526 256.543 779.526 257.418C779.526 258.27 779.388 258.989 779.113 259.576C778.841 260.159 778.47 260.602 777.999 260.903C777.532 261.202 777.008 261.351 776.428 261.351C776.017 261.351 775.668 261.283 775.379 261.147C775.094 261.011 774.861 260.84 774.678 260.635C774.496 260.426 774.357 260.216 774.261 260.004H774.196V264.09H772.078ZM774.151 257.408C774.151 257.862 774.214 258.259 774.34 258.597C774.466 258.935 774.648 259.198 774.887 259.387C775.126 259.573 775.416 259.665 775.757 259.665C776.102 259.665 776.393 259.571 776.632 259.382C776.871 259.19 777.051 258.925 777.174 258.587C777.3 258.245 777.363 257.853 777.363 257.408C777.363 256.968 777.302 256.58 777.179 256.245C777.056 255.91 776.876 255.648 776.637 255.46C776.398 255.271 776.105 255.176 775.757 255.176C775.412 255.176 775.121 255.267 774.882 255.45C774.647 255.632 774.466 255.89 774.34 256.225C774.214 256.56 774.151 256.954 774.151 257.408ZM787.291 255.768L785.352 255.887C785.319 255.721 785.248 255.572 785.138 255.44C785.029 255.304 784.885 255.196 784.706 255.116C784.53 255.034 784.32 254.992 784.075 254.992C783.746 254.992 783.47 255.062 783.244 255.201C783.019 255.337 782.906 255.519 782.906 255.748C782.906 255.93 782.979 256.084 783.125 256.21C783.271 256.336 783.521 256.437 783.876 256.513L785.258 256.792C786 256.944 786.554 257.19 786.918 257.528C787.283 257.866 787.465 258.31 787.465 258.86C787.465 259.361 787.318 259.8 787.023 260.178C786.731 260.555 786.33 260.85 785.82 261.062C785.312 261.271 784.727 261.376 784.065 261.376C783.054 261.376 782.248 261.165 781.648 260.744C781.052 260.32 780.702 259.743 780.599 259.014L782.682 258.905C782.745 259.213 782.898 259.448 783.14 259.611C783.382 259.77 783.692 259.849 784.07 259.849C784.441 259.849 784.739 259.778 784.964 259.636C785.193 259.49 785.309 259.303 785.312 259.074C785.309 258.882 785.228 258.724 785.069 258.602C784.91 258.476 784.664 258.379 784.333 258.313L783.011 258.05C782.265 257.901 781.71 257.642 781.345 257.274C780.984 256.906 780.803 256.437 780.803 255.867C780.803 255.377 780.936 254.954 781.201 254.599C781.469 254.245 781.846 253.971 782.33 253.779C782.817 253.587 783.387 253.491 784.04 253.491C785.004 253.491 785.763 253.695 786.317 254.102C786.874 254.51 787.198 255.065 787.291 255.768ZM793.696 257.975V253.59H795.814V261.227H793.78V259.839H793.701C793.528 260.287 793.242 260.647 792.841 260.918C792.443 261.19 791.957 261.326 791.384 261.326C790.874 261.326 790.424 261.21 790.037 260.978C789.649 260.746 789.346 260.416 789.127 259.989C788.911 259.561 788.802 259.049 788.799 258.452V253.59H790.917V258.075C790.92 258.525 791.041 258.882 791.28 259.143C791.518 259.405 791.838 259.536 792.239 259.536C792.494 259.536 792.733 259.478 792.955 259.362C793.177 259.243 793.356 259.067 793.492 258.835C793.631 258.603 793.699 258.317 793.696 257.975ZM797.508 261.227V253.59H799.526V254.938H799.616C799.775 254.49 800.04 254.137 800.411 253.879C800.782 253.62 801.227 253.491 801.744 253.491C802.267 253.491 802.713 253.622 803.081 253.884C803.449 254.142 803.694 254.493 803.817 254.938H803.896C804.052 254.5 804.334 254.15 804.741 253.888C805.152 253.623 805.638 253.491 806.198 253.491C806.911 253.491 807.489 253.718 807.933 254.172C808.381 254.623 808.604 255.262 808.604 256.091V261.227H806.491V256.509C806.491 256.084 806.379 255.766 806.153 255.554C805.928 255.342 805.646 255.236 805.308 255.236C804.924 255.236 804.624 255.358 804.408 255.604C804.193 255.846 804.085 256.165 804.085 256.563V261.227H802.032V256.464C802.032 256.089 801.924 255.791 801.709 255.569C801.497 255.347 801.217 255.236 800.869 255.236C800.633 255.236 800.421 255.295 800.232 255.415C800.047 255.531 799.899 255.695 799.79 255.907C799.68 256.116 799.626 256.361 799.626 256.643V261.227H797.508Z" fill="black"/>
<path d="M722.68 272.252L725.703 280.823H725.822L728.845 272.252H730.138L726.399 282.434H725.126L721.388 272.252H722.68ZM733.101 282.613C732.617 282.613 732.178 282.521 731.783 282.339C731.389 282.154 731.076 281.887 730.844 281.539C730.612 281.187 730.496 280.763 730.496 280.266C730.496 279.828 730.582 279.474 730.754 279.202C730.927 278.927 731.157 278.712 731.445 278.556C731.734 278.4 732.052 278.284 732.4 278.208C732.751 278.128 733.104 278.065 733.459 278.019C733.923 277.959 734.299 277.914 734.587 277.885C734.879 277.851 735.091 277.797 735.224 277.721C735.36 277.644 735.428 277.512 735.428 277.323V277.283C735.428 276.792 735.293 276.411 735.025 276.14C734.76 275.868 734.357 275.732 733.817 275.732C733.257 275.732 732.817 275.855 732.499 276.1C732.181 276.345 731.957 276.607 731.828 276.885L730.714 276.488C730.913 276.024 731.178 275.662 731.51 275.404C731.845 275.142 732.209 274.96 732.604 274.857C733.001 274.751 733.392 274.698 733.777 274.698C734.022 274.698 734.304 274.728 734.622 274.787C734.944 274.844 735.254 274.961 735.552 275.14C735.853 275.319 736.104 275.589 736.303 275.951C736.501 276.312 736.601 276.796 736.601 277.402V282.434H735.428V281.4H735.368C735.288 281.565 735.156 281.743 734.97 281.931C734.785 282.12 734.538 282.281 734.229 282.414C733.921 282.546 733.545 282.613 733.101 282.613ZM733.28 281.559C733.744 281.559 734.135 281.467 734.453 281.285C734.775 281.103 735.017 280.868 735.179 280.579C735.345 280.291 735.428 279.988 735.428 279.669V278.596C735.378 278.655 735.268 278.71 735.099 278.76C734.934 278.806 734.741 278.847 734.523 278.884C734.307 278.917 734.097 278.947 733.891 278.973C733.689 278.997 733.525 279.016 733.399 279.033C733.094 279.073 732.809 279.137 732.544 279.227C732.282 279.313 732.07 279.444 731.908 279.62C731.749 279.792 731.669 280.027 731.669 280.326C731.669 280.733 731.82 281.042 732.121 281.25C732.426 281.456 732.812 281.559 733.28 281.559ZM739.916 272.252V282.434H738.742V272.252H739.916ZM746.877 279.311V274.797H748.05V282.434H746.877V281.141H746.798C746.619 281.529 746.34 281.859 745.962 282.13C745.584 282.399 745.107 282.533 744.53 282.533C744.053 282.533 743.629 282.429 743.258 282.22C742.887 282.008 742.595 281.69 742.383 281.265C742.171 280.838 742.065 280.299 742.065 279.65V274.797H743.238V279.57C743.238 280.127 743.394 280.571 743.705 280.902C744.02 281.234 744.421 281.4 744.908 281.4C745.2 281.4 745.497 281.325 745.798 281.176C746.103 281.027 746.358 280.798 746.564 280.49C746.773 280.181 746.877 279.789 746.877 279.311ZM753.401 282.593C752.665 282.593 752.031 282.43 751.497 282.105C750.967 281.777 750.557 281.32 750.269 280.733C749.984 280.143 749.841 279.457 749.841 278.675C749.841 277.893 749.984 277.203 750.269 276.607C750.557 276.007 750.958 275.54 751.472 275.205C751.989 274.867 752.592 274.698 753.282 274.698C753.679 274.698 754.072 274.764 754.46 274.897C754.848 275.029 755.201 275.245 755.519 275.543C755.837 275.838 756.091 276.229 756.28 276.716C756.469 277.203 756.563 277.803 756.563 278.516V279.013H750.677V277.999H755.37C755.37 277.568 755.284 277.184 755.111 276.846C754.942 276.507 754.7 276.241 754.385 276.045C754.074 275.85 753.706 275.752 753.282 275.752C752.814 275.752 752.41 275.868 752.069 276.1C751.731 276.328 751.47 276.627 751.288 276.995C751.106 277.363 751.015 277.757 751.015 278.178V278.854C751.015 279.431 751.114 279.92 751.313 280.321C751.515 280.718 751.795 281.022 752.153 281.23C752.511 281.436 752.927 281.539 753.401 281.539C753.709 281.539 753.988 281.496 754.236 281.409C754.488 281.32 754.705 281.187 754.888 281.012C755.07 280.833 755.211 280.611 755.31 280.346L756.444 280.664C756.324 281.048 756.124 281.386 755.842 281.678C755.56 281.966 755.212 282.192 754.798 282.354C754.384 282.513 753.918 282.593 753.401 282.593Z" fill="black"/>
</g>
<rect width="942" height="32" fill="white" style="mix-blend-mode:multiply"/>
<path d="M11.2784 14.4375H8.78977C8.74432 14.1155 8.65152 13.8295 8.51136 13.5795C8.37121 13.3258 8.19129 13.1098 7.97159 12.9318C7.75189 12.7538 7.49811 12.6174 7.21023 12.5227C6.92614 12.428 6.61742 12.3807 6.28409 12.3807C5.68182 12.3807 5.1572 12.5303 4.71023 12.8295C4.26326 13.125 3.91667 13.5568 3.67045 14.125C3.42424 14.6894 3.30114 15.375 3.30114 16.1818C3.30114 17.0114 3.42424 17.7083 3.67045 18.2727C3.92045 18.8371 4.26894 19.2633 4.71591 19.5511C5.16288 19.839 5.67992 19.983 6.26705 19.983C6.59659 19.983 6.90152 19.9394 7.18182 19.8523C7.46591 19.7652 7.7178 19.6383 7.9375 19.4716C8.1572 19.3011 8.33902 19.0947 8.48295 18.8523C8.63068 18.6098 8.73295 18.3333 8.78977 18.0227L11.2784 18.0341C11.214 18.5682 11.053 19.0833 10.7955 19.5795C10.5417 20.072 10.1989 20.5133 9.76705 20.9034C9.33902 21.2898 8.82765 21.5966 8.23295 21.8239C7.64205 22.0473 6.97348 22.1591 6.22727 22.1591C5.18939 22.1591 4.26136 21.9242 3.44318 21.4545C2.62879 20.9848 1.98485 20.3049 1.51136 19.4148C1.04167 18.5246 0.806818 17.447 0.806818 16.1818C0.806818 14.9129 1.04545 13.8333 1.52273 12.9432C2 12.053 2.64773 11.375 3.46591 10.9091C4.28409 10.4394 5.20455 10.2045 6.22727 10.2045C6.90152 10.2045 7.52652 10.2992 8.10227 10.4886C8.68182 10.678 9.19508 10.9545 9.64205 11.3182C10.089 11.678 10.4527 12.1193 10.733 12.642C11.017 13.1648 11.1989 13.7633 11.2784 14.4375ZM15.4176 16.9545V22H12.9972V10.3636H15.3494V14.8125H15.4517C15.6487 14.2973 15.9669 13.8939 16.4062 13.6023C16.8456 13.3068 17.3968 13.1591 18.0597 13.1591C18.6657 13.1591 19.1941 13.2917 19.6449 13.5568C20.0994 13.8182 20.4517 14.1951 20.7017 14.6875C20.9555 15.1761 21.0805 15.7614 21.0767 16.4432V22H18.6562V16.875C18.66 16.3371 18.5237 15.9186 18.2472 15.6193C17.9744 15.3201 17.5919 15.1705 17.0994 15.1705C16.7699 15.1705 16.4782 15.2405 16.2244 15.3807C15.9744 15.5208 15.7775 15.7254 15.6335 15.9943C15.4934 16.2595 15.4214 16.5795 15.4176 16.9545ZM25.4702 22.1648C24.9134 22.1648 24.4171 22.0682 23.9815 21.875C23.5459 21.678 23.2012 21.3883 22.9474 21.0057C22.6974 20.6193 22.5724 20.1383 22.5724 19.5625C22.5724 19.0777 22.6615 18.6705 22.8395 18.3409C23.0175 18.0114 23.2599 17.7462 23.5668 17.5455C23.8736 17.3447 24.2221 17.1932 24.6122 17.0909C25.0062 16.9886 25.419 16.9167 25.8509 16.875C26.3584 16.822 26.7675 16.7727 27.0781 16.7273C27.3887 16.678 27.6141 16.6061 27.7543 16.5114C27.8944 16.4167 27.9645 16.2765 27.9645 16.0909V16.0568C27.9645 15.697 27.8509 15.4186 27.6236 15.2216C27.4001 15.0246 27.0819 14.9261 26.669 14.9261C26.2334 14.9261 25.8868 15.0227 25.6293 15.2159C25.3717 15.4053 25.2012 15.6439 25.1179 15.9318L22.8793 15.75C22.9929 15.2197 23.2164 14.7614 23.5497 14.375C23.883 13.9848 24.313 13.6856 24.8395 13.4773C25.3698 13.2652 25.9834 13.1591 26.6804 13.1591C27.1652 13.1591 27.6293 13.2159 28.0724 13.3295C28.5194 13.4432 28.9152 13.6193 29.2599 13.858C29.6084 14.0966 29.883 14.4034 30.0838 14.7784C30.2846 15.1496 30.3849 15.5947 30.3849 16.1136V22H28.0895V20.7898H28.0213C27.8812 21.0625 27.6937 21.303 27.4588 21.5114C27.224 21.7159 26.9418 21.8769 26.6122 21.9943C26.2827 22.108 25.902 22.1648 25.4702 22.1648ZM26.1634 20.4943C26.5194 20.4943 26.8338 20.4242 27.1065 20.2841C27.3793 20.1402 27.5933 19.947 27.7486 19.7045C27.9039 19.4621 27.9815 19.1875 27.9815 18.8807V17.9545C27.9058 18.0038 27.8016 18.0492 27.669 18.0909C27.5402 18.1288 27.3944 18.1648 27.2315 18.1989C27.0687 18.2292 26.9058 18.2576 26.7429 18.2841C26.58 18.3068 26.4323 18.3277 26.2997 18.3466C26.0156 18.3883 25.7675 18.4545 25.5554 18.5455C25.3433 18.6364 25.1785 18.7595 25.0611 18.9148C24.9437 19.0663 24.8849 19.2557 24.8849 19.483C24.8849 19.8125 25.0043 20.0644 25.2429 20.2386C25.4853 20.4091 25.7921 20.4943 26.1634 20.4943ZM32.2628 22V13.2727H34.6094V14.7955H34.7003C34.8594 14.2538 35.1264 13.8447 35.5014 13.5682C35.8764 13.2879 36.3082 13.1477 36.7969 13.1477C36.9181 13.1477 37.0488 13.1553 37.1889 13.1705C37.3291 13.1856 37.4522 13.2064 37.5582 13.233V15.3807C37.4446 15.3466 37.2874 15.3163 37.0866 15.2898C36.8859 15.2633 36.7022 15.25 36.5355 15.25C36.1795 15.25 35.8613 15.3277 35.581 15.483C35.3045 15.6345 35.0848 15.8466 34.9219 16.1193C34.7628 16.392 34.6832 16.7064 34.6832 17.0625V22H32.2628ZM43.8892 13.2727V15.0909H38.6335V13.2727H43.8892ZM39.8267 11.1818H42.2472V19.3182C42.2472 19.5417 42.2813 19.7159 42.3494 19.8409C42.4176 19.9621 42.5123 20.0473 42.6335 20.0966C42.7585 20.1458 42.9025 20.1705 43.0653 20.1705C43.179 20.1705 43.2926 20.161 43.4062 20.142C43.5199 20.1193 43.607 20.1023 43.6676 20.0909L44.0483 21.892C43.9271 21.9299 43.7566 21.9735 43.5369 22.0227C43.3172 22.0758 43.0502 22.108 42.7358 22.1193C42.1525 22.142 41.6411 22.0644 41.2017 21.8864C40.7661 21.7083 40.4271 21.4318 40.1847 21.0568C39.9422 20.6818 39.8229 20.2083 39.8267 19.6364V11.1818ZM48.7713 12.392V10.3636H58.3281V12.392H54.7656V22H52.3338V12.392H48.7713ZM59.8565 22V13.2727H62.277V22H59.8565ZM61.0724 12.1477C60.7126 12.1477 60.4039 12.0284 60.1463 11.7898C59.8925 11.5473 59.7656 11.2576 59.7656 10.9205C59.7656 10.5871 59.8925 10.3011 60.1463 10.0625C60.4039 9.82008 60.7126 9.69886 61.0724 9.69886C61.4323 9.69886 61.7391 9.82008 61.9929 10.0625C62.2505 10.3011 62.3793 10.5871 62.3793 10.9205C62.3793 11.2576 62.2505 11.5473 61.9929 11.7898C61.7391 12.0284 61.4323 12.1477 61.0724 12.1477ZM68.858 13.2727V15.0909H63.6023V13.2727H68.858ZM64.7955 11.1818H67.2159V19.3182C67.2159 19.5417 67.25 19.7159 67.3182 19.8409C67.3864 19.9621 67.4811 20.0473 67.6023 20.0966C67.7273 20.1458 67.8712 20.1705 68.0341 20.1705C68.1477 20.1705 68.2614 20.161 68.375 20.142C68.4886 20.1193 68.5758 20.1023 68.6364 20.0909L69.017 21.892C68.8958 21.9299 68.7254 21.9735 68.5057 22.0227C68.286 22.0758 68.0189 22.108 67.7045 22.1193C67.1212 22.142 66.6098 22.0644 66.1705 21.8864C65.7348 21.7083 65.3958 21.4318 65.1534 21.0568C64.911 20.6818 64.7917 20.2083 64.7955 19.6364V11.1818ZM73.0426 10.3636V22H70.6222V10.3636H73.0426ZM78.9588 22.1705C78.0611 22.1705 77.2884 21.9886 76.6406 21.625C75.9967 21.2576 75.5005 20.7386 75.152 20.0682C74.8035 19.3939 74.6293 18.5966 74.6293 17.6761C74.6293 16.7784 74.8035 15.9905 75.152 15.3125C75.5005 14.6345 75.991 14.1061 76.6236 13.7273C77.2599 13.3485 78.0062 13.1591 78.8622 13.1591C79.438 13.1591 79.974 13.2519 80.4702 13.4375C80.9702 13.6193 81.4058 13.8939 81.777 14.2614C82.152 14.6288 82.4437 15.0909 82.652 15.6477C82.8603 16.2008 82.9645 16.8485 82.9645 17.5909V18.2557H75.5952V16.7557H80.6861C80.6861 16.4072 80.6103 16.0985 80.4588 15.8295C80.3073 15.5606 80.0971 15.3504 79.8281 15.1989C79.563 15.0436 79.2543 14.9659 78.902 14.9659C78.5346 14.9659 78.2088 15.0511 77.9247 15.2216C77.6444 15.3883 77.4247 15.6136 77.2656 15.8977C77.1065 16.178 77.0251 16.4905 77.0213 16.8352V18.2614C77.0213 18.6932 77.1009 19.0663 77.2599 19.3807C77.4228 19.6951 77.652 19.9375 77.9474 20.108C78.2429 20.2784 78.5933 20.3636 78.9986 20.3636C79.2675 20.3636 79.5137 20.3258 79.7372 20.25C79.9607 20.1742 80.152 20.0606 80.3111 19.9091C80.4702 19.7576 80.5914 19.572 80.6747 19.3523L82.9134 19.5C82.7997 20.0379 82.5668 20.5076 82.2145 20.9091C81.866 21.3068 81.4152 21.6174 80.8622 21.8409C80.313 22.0606 79.6785 22.1705 78.9588 22.1705Z" fill="#161616"/>
<g clip-path="url(#clip1_11736_126101)">
<rect width="32" height="32" transform="translate(910)" fill="white" fill-opacity="0.01" style="mix-blend-mode:multiply"/>
<g clip-path="url(#clip2_11736_126101)">
<rect width="16" height="16" transform="translate(918 8)" fill="white" fill-opacity="0.01" style="mix-blend-mode:multiply"/>
<path d="M928 9V10H931.293L927 14.291L927.707 15L932 10.707V14H933V9H928Z" fill="#161616"/>
<path d="M925 17.708L924.296 17L920 21.293V18H919V23H924V22H920.707L925 17.708Z" fill="#161616"/>
</g>
</g>
<defs>
<clipPath id="clip0_11736_126101">
<rect x="2" y="48" width="940" height="370.388" rx="5.61194" fill="white"/>
</clipPath>
<clipPath id="clip1_11736_126101">
<rect width="32" height="32" fill="white" transform="translate(910)"/>
</clipPath>
<clipPath id="clip2_11736_126101">
<rect width="16" height="16" fill="white" transform="translate(918 8)"/>
</clipPath>
</defs>
</svg>
